<svg xmlns="http://www.w3.org/2000/svg" width="97.074" height="19.399" viewBox="0 0 97.074 19.399"><g transform="translate(-985.899 -585.065)"><path d="M1002.594,603.97l.1-13.028h-.078l-4.785,13.028h-3.12l-4.655-13.028h-.078l.1,13.028H985.9V585.559h6.327l4.192,11.806h.1l4.009-11.806h6.432V603.97Z" fill="#fff"/><path d="M1032.525,594.687a10.276,10.276,0,0,1-.754,3.991,9.1,9.1,0,0,1-2.093,3.1,9.326,9.326,0,0,1-3.186,1.989,11.736,11.736,0,0,1-8,0,9.338,9.338,0,0,1-3.173-1.989,9.09,9.09,0,0,1-2.094-3.1,10.274,10.274,0,0,1-.753-3.991,10.16,10.16,0,0,1,.753-3.992,8.743,8.743,0,0,1,2.094-3.029,9.33,9.33,0,0,1,3.173-1.925,11.463,11.463,0,0,1,3.991-.676,11.578,11.578,0,0,1,4,.676,9.319,9.319,0,0,1,3.186,1.925,8.756,8.756,0,0,1,2.093,3.029A10.161,10.161,0,0,1,1032.525,594.687Zm-4.758,0a6.326,6.326,0,0,0-.391-2.237,5.337,5.337,0,0,0-1.079-1.781,4.977,4.977,0,0,0-1.664-1.17,5.273,5.273,0,0,0-2.146-.429,5.121,5.121,0,0,0-3.8,1.6,5.073,5.073,0,0,0-1.079,1.781,6.9,6.9,0,0,0,.014,4.538,5.422,5.422,0,0,0,1.079,1.807,4.939,4.939,0,0,0,1.651,1.184,5.515,5.515,0,0,0,4.265,0,5.1,5.1,0,0,0,1.664-1.184,5.321,5.321,0,0,0,1.092-1.807A6.576,6.576,0,0,0,1027.767,594.687Z" fill="#fff"/><path d="M1047.789,590.344a4.024,4.024,0,0,0-1.495-1.157,4.22,4.22,0,0,0-1.781-.429,5.307,5.307,0,0,0-.9.078,2.326,2.326,0,0,0-.819.3,2.019,2.019,0,0,0-.611.572,1.527,1.527,0,0,0-.247.9,1.446,1.446,0,0,0,.2.78,1.728,1.728,0,0,0,.572.546,4.925,4.925,0,0,0,.9.429q.519.2,1.169.4.936.312,1.951.69a7.3,7.3,0,0,1,1.846,1,5.254,5.254,0,0,1,1.378,1.547,4.449,4.449,0,0,1,.546,2.3,6,6,0,0,1-.585,2.744,5.451,5.451,0,0,1-1.573,1.911,6.723,6.723,0,0,1-2.263,1.118,9.493,9.493,0,0,1-2.626.365,10.829,10.829,0,0,1-3.822-.69,8.1,8.1,0,0,1-3.069-1.963l2.913-2.965a5.343,5.343,0,0,0,1.781,1.391,4.816,4.816,0,0,0,2.2.56,4.438,4.438,0,0,0,.962-.1,2.4,2.4,0,0,0,.82-.338,1.7,1.7,0,0,0,.558-.624,1.965,1.965,0,0,0,.209-.936,1.487,1.487,0,0,0-.261-.885,2.524,2.524,0,0,0-.741-.663,6.01,6.01,0,0,0-1.2-.546q-.716-.248-1.625-.533a15.6,15.6,0,0,1-1.73-.676,5.794,5.794,0,0,1-1.507-1,4.611,4.611,0,0,1-1.067-1.483,5.031,5.031,0,0,1-.4-2.119,5.21,5.21,0,0,1,.624-2.626,5.451,5.451,0,0,1,1.639-1.795,7.026,7.026,0,0,1,2.288-1.027,10.409,10.409,0,0,1,2.575-.325,9.567,9.567,0,0,1,3.185.572,8.2,8.2,0,0,1,2.847,1.691Z" fill="#fff"/><path d="M1067.656,603.97v-7.7h-7.177v7.7h-4.447V585.559h4.447v6.969h7.177v-6.969h4.447V603.97Z" fill="#fff"/><path d="M1081.253,603.97l1.72-1.189V585.559H1078.5v15.666l2.746,2.746Z" fill="#fff"/></g></svg>