<?xml version="1.0" encoding="utf-8"?>
<!-- Generator: Adobe Illustrator 22.1.0, SVG Export Plug-In . SVG Version: 6.00 Build 0)  -->
<svg version="1.1" id="Ebene_1" xmlns="http://www.w3.org/2000/svg" xmlns:xlink="http://www.w3.org/1999/xlink" x="0px" y="0px"
	 width="49.5px" height="12.416667px" viewBox="0 0 49.5 12.416667" style="enable-background:new 0 0 49.5 12.416667;"
	 xml:space="preserve">
<style type="text/css">
	.st0{fill:#13141D;}
	.st1{fill:#4590F6;}
</style>
<g>
	<path class="st0" d="M23.3730469,2.2104492h1.6625977v6.0107422h3.0805664v1.534668h-4.7431641V2.2104492z"/>
	<path class="st0" d="M29.0107422,2.2104492h1.6621094v7.5454102h-1.6621094V2.2104492z"/>
	<path class="st0" d="M32.1865234,2.2104492h2.9199219c0.3837891,0,0.7480469,0.0371094,1.0927734,0.1118164
		c0.34375,0.074707,0.6464844,0.1992188,0.9052734,0.3730469c0.2597656,0.1743164,0.4658203,0.4086914,0.6181641,0.703125
		c0.1533203,0.2949219,0.2294922,0.6625977,0.2294922,1.1035156c0,0.5327148-0.1386719,0.9853516-0.4160156,1.3583984
		s-0.6816406,0.609375-1.2148438,0.7089844l1.9179688,3.1865234h-1.9921875l-1.5771484-3.0161133h-0.8212891v3.0161133h-1.6621094
		V2.2104492z M33.8486328,5.3330078h0.9804688c0.1494141,0,0.3076172-0.0053711,0.4746094-0.0161133
		s0.3173828-0.0424805,0.453125-0.0957031c0.1347656-0.0532227,0.2460938-0.1367188,0.3349609-0.2504883
		s0.1337891-0.2734375,0.1337891-0.4794922c0-0.1918945-0.0390625-0.3447266-0.1171875-0.4584961
		c-0.078125-0.1132812-0.1777344-0.2006836-0.2988281-0.2612305c-0.1210938-0.0600586-0.2587891-0.1010742-0.4150391-0.1225586
		c-0.15625-0.0209961-0.3095703-0.0317383-0.4589844-0.0317383h-1.0869141V5.3330078z"/>
	<path class="st0" d="M38.6875,5.9829102c0-0.6035156,0.1015625-1.1508789,0.3037109-1.6411133
		s0.4853516-0.9077148,0.8476562-1.2519531c0.3623047-0.3447266,0.7919922-0.609375,1.2890625-0.7944336
		C41.625,2.1108398,42.1689453,2.0185547,42.7587891,2.0185547s1.1328125,0.0922852,1.6308594,0.2768555
		c0.4970703,0.1850586,0.9267578,0.449707,1.2890625,0.7944336c0.3623047,0.3442383,0.6445312,0.7617188,0.8476562,1.2519531
		c0.2021484,0.4902344,0.3037109,1.0375977,0.3037109,1.6411133c0,0.6040039-0.1015625,1.1513672-0.3037109,1.6416016
		c-0.203125,0.4902344-0.4853516,0.9077148-0.8476562,1.2519531c-0.3623047,0.3447266-0.7919922,0.609375-1.2890625,0.7939453
		c-0.4980469,0.1850586-1.0410156,0.2773438-1.6308594,0.2773438S41.625,9.8554688,41.1279297,9.6704102
		c-0.4970703-0.1845703-0.9267578-0.4492188-1.2890625-0.7939453c-0.3623047-0.3442383-0.6455078-0.7617188-0.8476562-1.2519531
		S38.6875,6.5869141,38.6875,5.9829102z M40.4140625,5.9829102c0,0.3554688,0.0546875,0.6806641,0.1650391,0.9755859
		s0.2685547,0.550293,0.4746094,0.7670898s0.453125,0.3857422,0.7402344,0.5063477
		c0.2880859,0.1206055,0.609375,0.1811523,0.9648438,0.1811523s0.6767578-0.0605469,0.9648438-0.1811523
		c0.2871094-0.1206055,0.5341797-0.2895508,0.7402344-0.5063477s0.3642578-0.472168,0.4746094-0.7670898
		c0.109375-0.2949219,0.1650391-0.6201172,0.1650391-0.9755859c0-0.3476562-0.0556641-0.6713867-0.1650391-0.9697266
		c-0.1103516-0.2983398-0.2685547-0.5556641-0.4746094-0.7724609s-0.453125-0.3852539-0.7402344-0.5063477
		c-0.2880859-0.1206055-0.609375-0.1811523-0.9648438-0.1811523s-0.6767578,0.0605469-0.9648438,0.1811523
		c-0.2871094,0.1210938-0.5341797,0.2895508-0.7402344,0.5063477s-0.3642578,0.4741211-0.4746094,0.7724609
		S40.4140625,5.6352539,40.4140625,5.9829102z"/>
</g>
<g>
	<path class="st1" d="M2.853734,6.5208759V2.2026637h1.4390855v4.3182125H2.853734z M8.0249853,2.2026637h1.4701319V4.711153
		c0,1.7686472-0.429863,3.096446-1.2900667,3.9838743c-0.8602037,0.8879061-2.2190485,1.4204588-4.0765343,1.5990906
		l-0.288008-1.2647524c1.5833285-0.1920061,2.6766136-0.5998983,3.2798545-1.2236767
		c0.603241-0.6233015,0.9046226-1.6449423,0.9046226-3.0634904V2.2026637z"/>
	<path class="st1" d="M13.4794044,9.7491465h-1.4395628v-7.546483h8.0809469v7.546483H13.4794044z M13.4794044,8.4949026h5.2018204
		V3.4569082h-5.2018204V8.4949026z"/>
</g>
</svg>
