<?xml version="1.0" encoding="utf-8"?>
<!-- Generator: Adobe Illustrator 22.1.0, SVG Export Plug-In . SVG Version: 6.00 Build 0)  -->
<svg version="1.1" id="Ebene_1" xmlns="http://www.w3.org/2000/svg" xmlns:xlink="http://www.w3.org/1999/xlink" x="0px" y="0px"
	 viewBox="0 0 260 259.4" style="enable-background:new 0 0 260 259.4;" xml:space="preserve">
<style type="text/css">
	.st0{fill:#DBDFE3;}
</style>
<title>background</title>
<path class="st0" d="M248.2-11.6l16.9,8.8c5.9,4.1,12,8.1,18.6,12.1c6.6,4,13.8,7.6,21,11.3c14.2,7.4,28.8,15.1,42.9,22.4
	c28.1,14.6,56.6,29.3,84.5,44c0.4,0.2,0.9,0.3,1.1,0.8l-0.9,1.8c-0.3,0.4-1-0.2-1.3-0.4c-15.7-8-30.8-15.9-46.2-23.9
	c-31.6-16.4-64.3-33.4-95.6-49.6c-7.6-3.9-15-8.2-22.1-13C260.4-1.9,254.9-7,248.2-11.6L248.2-11.6z"/>
<path class="st0" d="M-18.6-135.6l1.5-3c10,5,19.5,10.1,28.8,15.5c9.1,5.3,18.1,10.5,27,16.1c4.3,2.7,8.7,5.4,13.4,8.1
	c4.8,2.7,9.8,5.1,14.8,7.7c15,7.8,29.4,15.5,43.8,23c4.8,2.4,9.5,5,14,7.9c2.6,1.8,5.4,3.7,7.6,5.3c3.5,2.5,6.8,5.1,10.3,7.5
	c2.1,1.4,4.2,2.9,6.3,4.2c2.3,1.4,4.5,2.7,6.7,4c2.3,1.3,4.7,2.4,7.1,3.5c14.5,6.6,27.5,9.4,41.3,13.5c4.7,1.3,9.3,2.9,13.8,4.7
	c4.7,2,9.1,4.6,13,7.7c7.2,5.8,13.7,12.2,22.1,17.5c4.5,2.9,9.2,5.4,14,7.6c4.7,2.1,9.5,3.8,14.2,6c9.9,4.6,19.6,10.1,29.5,15.2
	c33.9,17.6,68.9,36.1,102.9,53.7c4.6,2.4,9.5,4.6,13.8,7.2c0.2,0.1,0.8,0.2,0.6,0.6c-0.3,0.6-0.6,1.2-1,1.8
	c-39.3-20.2-79.6-41.1-118.8-61.5c-9.8-5.1-19.9-10.9-29.5-14.8c-9.5-3.8-19.2-6.6-28.3-12.4c-2.1-1.3-4.1-2.8-6.1-4.3
	c-6-4.4-10.8-9.1-16-13.6c-5.8-4.9-12.4-8.7-19.6-11.1c-2.3-0.8-4.8-1.5-6.9-2.1c-9.2-2.5-17.9-4.5-27.1-7.3
	c-9.2-2.7-19.1-6.5-28.3-12.3c-6.1-3.9-12-8.2-17.6-12.8c-1.8-1.5-3.7-3-5.7-4.3c-2.1-1.4-4-3-6.2-4.2c-2.3-1.3-4.8-2.6-7.3-3.8
	C95-72,80.1-79.7,65.2-87.5c-5-2.6-9.9-5-14.5-7.8c-4.5-2.8-8.9-5.6-13.2-8.3C20-114.7,1.8-125.6-18.6-135.6z"/>
<path class="st0" d="M-19-134.7c1.2,0.7,2.5,1.4,3.8,2c3.7,1.9,7.6,3.6,11.2,5.7c4.8,2.8,9.8,5.3,14.4,8c14.2,8.2,27,16.8,40.1,25
	c4.7,2.9,9.6,5.4,14.6,8c14.8,7.7,30.2,16,44.6,23.5c2.4,1.2,4.6,2.6,6.8,4.1c1,0.7,2,1.5,2.9,2.2c0.9,0.7,1.7,1.6,2.6,2.4
	c7.1,6.3,12.4,12.9,21.4,18.3c2.9,1.7,6.2,3.7,8.5,4.7c0.6,0.3,1.2,0.5,1.8,0.8c13.2,5.6,25.7,8.1,38.1,11.1
	c2.2,0.5,4.6,0.9,6.8,1.5c4.5,1.2,9.4,2.4,14.1,4.9c4.4,2.3,8.6,5.2,12.3,8.5c7,6.2,13.9,12.6,22.6,18c9.4,5.9,19,8.4,28.4,11.6
	c9.5,3.2,19.7,9.1,29.7,14.3c39.8,20.7,80.3,41.9,120.1,62.3l-1.1,2.2c-1-0.8-2.2-1.5-3.5-1.9c-1.3-0.6-2.6-1.3-3.8-2
	c-7.5-3.9-15-7.9-22.6-11.5c-2.5-1.2-5-2.6-7.5-3.8c-2.6-1.2-5.1-2.5-7.5-3.8c-30.4-15.8-61-31.6-91.2-47.3
	c-4.6-2.4-9.5-4.3-14.5-5.7c-9.2-2.6-18.5-4.7-28.6-10.9c-2.2-1.3-4.1-2.9-6.1-4.4c-6-4.5-11.4-9.2-16.5-13.9c-3.6-3.3-7-6.4-11.5-9
	c-4.6-2.7-9.9-4.1-14.4-5.3c-13.3-3.4-27.2-5.6-41.2-10.5c-5-1.6-9.9-3.7-14.6-6.3c-2.8-1.6-5.5-3.4-8-5.4c-1.3-1-2.7-2.1-4-3.3
	c-1.6-1.5-3.3-3.1-4.8-4.7c-1.5-1.6-3.1-3.2-4.6-4.8c-3.2-3.6-7-6.6-11.1-9c-4.5-2.7-9.8-5-15.1-7.7c-10.3-5.4-20.3-10.3-30.3-15.5
	c-9.9-5.2-18.3-11.1-27-16.9c-18.2-12.2-37.1-23.1-56.8-32.7L-19-134.7z"/>
<path class="st0" d="M-22.4-128.2l1.5-2.8c10.6,5.2,20.6,10.4,30.1,16c9.5,5.5,18.4,11.3,27,17.1c8.7,5.8,17,12,26.9,17.1
	c10,5.2,19.9,10.6,30.5,16.1c8,4.1,15.7,7.8,19.8,13c1.6,2,3.3,4,4.5,5.8c0.5,0.7,1,1.2,1.5,1.9c0.6,0.8,1.4,1.7,2,2.6
	c0.2,0.5,0.5,0.9,0.8,1.3c0.9,1.1,2.2,2.4,3.1,3.4c1.7,1.9,3.6,3.5,5.7,5c2.3,1.6,4.6,3,7.1,4.2c9.9,4.6,19.2,7,28.5,9.1
	c9.2,2.1,18.4,3.5,27.6,5.9c5.1,1.3,9.9,3.2,14.5,5.7c4.2,2.6,8,5.6,11.5,9c7,6.4,14.2,12.8,22.7,18.3c4.5,3,9.4,5.4,14.5,7.2
	c9.5,3.3,18.4,3.3,28.1,7.9c5,2.4,10.1,5.2,15.4,8c40.8,21.2,81.8,42.9,122.3,63c-0.3,0.8-0.6,1.5-1,2.2c0,0.1-0.1,0.2-0.1,0
	c0.4-0.5-0.4-0.6-0.5-0.7c-0.9-0.5-1.9-0.9-2.8-1.4c-9.1-4.8-18-9.1-27-13.5c-30.6-15-62.2-31.6-92.9-47.6
	c-5.4-2.8-10.6-5.8-15.4-7.8c-4.8-2-9.5-2.6-14-3.3c-4.7-0.6-9.4-1.7-13.9-3.1c-5.2-1.8-10.1-4.3-14.7-7.4
	c-8.4-5.7-15.6-12.4-22.8-18.8c-0.9-0.8-1.6-1.7-2.5-2.4C213,0.4,210-1.9,207-4c-4.5-2.8-9.3-4.9-14.4-6.2
	c-9.1-2.4-18.4-3.9-27.7-5.8c-4.6-0.9-9.3-2.1-14-3.3c-5-1.2-9.9-2.9-14.6-4.9c-3.8-1.7-7.3-3.8-10.7-6.2c-1-0.6-1.9-1.4-2.7-2.1
	c-6.7-6.3-9.7-14.2-16.5-20.3c-3.4-3.1-8.6-5.5-14-8.3c-10.8-5.6-21-10.6-30.7-15.8c-4.6-2.6-9.1-5.6-13.3-8.7
	C27.1-100.6,4-115.8-22.4-128.2z"/>
<path class="st0" d="M-24.3-124.5l1.5-2.8c20.2,9.7,39.6,20.9,58.1,33.6c8.6,5.9,16.9,12.2,26.1,17.9c4.8,3,10,5.5,15.3,8.3
	c5.1,2.6,10.2,5.5,15.5,8.3c2.8,1.5,5.3,2.8,7.5,4.2c2.1,1.3,3.9,2.9,5.5,4.8c2.9,3.2,4.5,7.4,6.5,11c1.1,1.9,2,3.8,3.2,5.5
	c2.8,4,6.6,7.4,10.9,9.6c7.8,4.2,14.9,5.9,22.1,7.8c11.9,3.1,23.4,4.6,35,7c7,1.5,14.8,3.3,21.7,8c2,1.4,3.9,3.1,5.9,4.7
	c2,1.6,4,3.2,5.8,4.7c7.3,6.5,14.4,13.1,22.5,19.1c4.4,3.3,9.3,6,14.4,8c4.6,1.5,9.3,2.5,14.1,3c4.5,0.5,8.9,0.7,13.7,1.9
	c4.7,1.3,10,4.5,15.5,7.3l31.3,16.3c15.7,8.2,31.4,16.7,46.7,23.8c5.2,2.4,10.5,5,15.6,7.7c10.3,5.4,20.8,10.3,31.1,15.7
	c0.2,0.7-0.7,1.7-1,2.6c0.4-0.9-0.7-1.1-1.1-1.3c-4.7-2.5-9.3-4.7-13.9-7.1c-10.5-5.5-21.1-10.2-31.4-15.4c-5.2-2.6-10.4-5-15.6-7.4
	c-10.7-4.9-21.1-10.7-31.6-16.1l-39.7-20.6c-2.3-1.2-4.8-2.1-7.4-2.5c-4.6-0.8-9.1-0.7-13.6-1c-4.8-0.1-9.5-1-14-2.6
	c-5.1-2-9.9-4.8-14.3-8.2c-3.9-3-7.5-6.4-11.2-9.7c-7.3-6.5-14.3-13.4-22.4-19.5c-2.2-1.6-4.5-3.1-6.9-4.3c-2.5-1.2-5-2.2-7.6-2.9
	c-4.7-1.4-9.5-2.5-14.3-3.4c-9.4-1.8-18.6-3.4-28.1-5.5c-7.5-1.5-14.9-3.7-22-6.5c-5.5-2.3-9.8-5.5-12.5-9c-1.3-1.7-2.5-3.5-3.6-5.4
	c-1.1-2.1-1.8-4-2.8-5.7c-1-2-2.1-3.8-3.4-5.6c-1.4-1.9-3-3.6-4.7-5.1c-2.2-1.7-4.5-3.1-7-4.3c-8-4.2-15.9-7.9-23.4-12.2
	c-2.5-1.4-5-2.7-7.3-4.2c-9-5.8-17.2-12.2-25.9-18.3c-8.8-6.2-17.8-12-27.5-17.7C-2.9-113.7-14.3-119.7-24.3-124.5z"/>
<path class="st0" d="M-26.3-120.8l1.5-2.9c5.4,2.7,10.8,5.2,15.9,7.9c15,7.9,29.5,16.8,43.3,26.6c8.7,6.1,16.9,12.8,26,18.6
	c4.8,3.1,9.8,5.7,15,8.7c5,2.9,10.3,5.4,15.6,8.5c4.2,2.4,7.7,5.9,10,10.2c2.9,5.3,4.1,12.4,8.3,17.5c0.8,0.9,1.6,1.8,2.4,2.6
	c0.9,0.9,1.9,1.7,2.9,2.5c4.2,3.2,10,4.9,15,6.3c9.8,2.7,19.3,4.2,28.7,5.9c9.4,1.7,18.9,2.9,28.7,6c5.2,1.6,10.2,4.1,14.7,7.2
	c11.7,8.5,20.4,18.2,30.7,27.1c4.6,3.9,10,8.3,16.6,11.3c10,4.5,19.1,2.6,27.8,3.1c2.4,0,4.8,0.4,7,1.1c2.7,1.2,5.4,2.5,8,4l32,16.7
	c10.6,5.5,21.1,11.1,31.8,16.1c21,9.8,41.8,19.9,63.3,31.1c-0.2,1-0.6,2-1.3,2.8c1-1.4-0.5-1.3-1.8-2c-0.7-0.3-1.4-0.7-2-1
	c-20.3-10.5-40.7-20.4-60-29c-21.3-9.5-43-21.6-64.5-32.7c-2.9-1.5-5.3-2.9-7.8-3.2c-11.3-1.6-22,3.8-34.7-2.8
	c-4.8-2.5-9.3-5.7-13.3-9.3c-9.1-8.1-17.3-17.4-26.7-25.3c-5.9-5-12.8-9.8-21.1-12.6c-9.5-3.2-19.2-4.7-28.8-6.3
	c-9.6-1.7-19.2-2.9-28.7-5.2c-5-1.2-10-2.5-15.3-5.7c-4.1-2.4-7.5-6.1-9.6-10.4c-1-1.9-1.9-3.8-2.6-5.8c-0.7-2-1.5-4-2.5-5.9
	c-0.6-1-0.9-2-1.4-2.9c-2-3-4.5-5.6-7.4-7.6c-2.4-1.6-4.9-3-7.5-4.2c-2.7-1.3-5.2-2.7-7.7-4.2c-5-2.9-10-5.7-14.6-8.8
	c-4.4-3-8.8-6.2-13.1-9.4c-13.2-9.9-26.9-19.2-41-27.6C-4.3-110.1-16.1-116-26.3-120.8z"/>
<path class="st0" d="M-28.4-116.8l1.6-3C-3.3-109.1,19-96,39.6-80.5c6.5,4.8,12.7,9.8,19.3,14.3c7.1,4.8,14.3,9.1,21.8,13.5
	c4,2.3,7.7,4.5,9.9,7.1c0.3,0.3,0.5,0.7,0.8,1c0.3,0.4,0.5,0.7,0.8,1c1.4,2,2.6,4.3,3.4,6.6c0.9,2.2,1.6,4.7,2.3,6.9
	c1,4,2.9,7.8,5.4,11c4.9,5.9,14.5,8.6,21.3,10.2c7.1,1.7,14.3,2.5,21.5,3.6c7.2,1.1,14.4,2.1,21.6,3.6c3.7,0.7,7.2,1.6,10.9,2.4
	c1.9,0.5,3.8,1,5.6,1.7c14.2,4.9,24.4,15.4,33,24.1c2.6,2.6,5.2,5.2,7.7,7.8c5.2,5.3,10.4,10.8,17,15c12.5,8.1,21.7,5.1,31.6,4
	c3.3-0.3,6.8-0.8,10.3,0.3c2.7,0.9,5.5,2.7,8.3,4.1l8.4,4.4c11.5,6,22.2,11.9,33.5,17.3c5.6,2.7,11.1,5.2,16.5,7.5
	c21.8,9.5,43.8,20.6,66.2,32.1l0.2,0.1c-0.6,1-1,2.6-1.6,3.1c0.1-0.6,0.7-0.8,0.6-1.2c-0.1-0.3-2.9-1.6-4-2.2
	c-15.8-8.2-30.9-15.8-46.1-22.6c-5.5-2.5-11-5-16.5-7.3c-8.1-3.5-16.6-6.9-24.7-11.1l-33.9-17.6c-2.6-1.5-5.3-2.7-8.2-3.6
	c-3.5-0.8-7,0-10.1,0.5c-3.2,0.5-6.5,1.3-9.8,1.8c-6.5,1-14.1-0.1-21.8-5.5c-3.2-2.2-6.1-4.7-8.9-7.5c-2.6-2.6-5.3-5.2-7.8-7.9
	c-7.5-8.1-14.7-16.2-23.7-23.5c-3.2-2.8-6.7-5.1-10.4-7c-7.3-3.3-15-5.7-22.9-7.1c-7.2-1.5-14.5-2.7-21.8-3.6
	c-7.3-0.9-14.5-1.7-21.7-3.2c-1.7-0.4-3.5-0.9-5.4-1.3c-2.9-0.6-5.7-1.5-8.4-2.8c-1-0.5-2.1-0.7-3-1.3c-1.8-1-3.4-2.2-5-3.5
	c-2.5-2.4-4.4-5.3-5.6-8.5c-1.1-2.9-2.3-6.1-3.2-9.1c-0.5-1.6-1.2-3.1-1.9-4.5c-0.7-1.5-1.6-3-2.6-4.3c-2.3-2.9-5.2-5.5-8.4-7.4
	c-3.6-2.1-7.3-4.5-10.9-6.8c-3.6-2.3-7.2-4.5-10.7-7c-13.2-9.3-25.3-19.6-39.7-28.8c-7.2-4.6-14.8-9.1-22.6-13.4
	C-12-109.3-20.4-113.1-28.4-116.8z"/>
<path class="st0" d="M-30.5-112.6l1.7-3.2c5.3,2.6,10.9,5,16.3,7.7c5.6,2.8,11.1,5.6,16.4,8.7C18.5-90.8,32.6-81.2,46-70.7
	c4.3,3.3,8.5,6.7,13.1,9.9c4.3,3,9.3,6.4,14.2,9.5c4.9,3.2,9.4,6.5,12,10.3c2.5,3.8,4.2,8,5.1,12.4c0.2,1.1,0.6,2.1,0.9,3.2
	c0.5,2.2,1.2,4.3,2.1,6.4c0.5,1,1.2,2,1.7,3c0.1,0.3,0.2,0.5,0.3,0.8c0.5,0.7,1.1,1.4,1.7,2.1c2.4,2.8,6.4,5.2,10.6,6.7
	c4.9,1.6,10,2.8,15.1,3.5c4.9,0.8,9.7,1.5,14.7,2c9.9,1,19.7,2.5,29.4,4.5c5.2,1.1,10.4,2.5,15.4,4.3c5.5,2,10.6,4.8,15.2,8.3
	c8.5,6.6,14.8,14,21.5,21.2c3.4,3.6,6.6,7.4,10,10.9c1.5,1.6,3.2,3.3,4.7,4.6c0.3,0.2,0.6,0.3,0.8,0.5c1,0.8,1.7,1.8,2.7,2.6
	c1,0.8,2.3,1.5,3.5,2.3c4.9,3.3,10.4,5.4,15.2,5.6c4.6,0.2,8.9-1.3,13.3-2.3c4.4-1.1,8.7-2.4,13.6-1.4c2.8,0.8,5.5,1.9,8.1,3.4
	l25.2,13.1c11.1,5.8,21.9,10.2,32.6,14.8c21.7,9.3,43.7,20,66,31.8c0.1,0.6-0.4,1.2-0.7,1.8c-0.2,0.6-0.5,1.2-0.8,1.8
	c0,0.1-0.1,0.2-0.1,0c0.2-0.8,0.9-1,0.8-1.5c0-0.3-2.1-1.4-3.8-2.3c-15.7-8.2-31-15.8-46-22.6c-11.4-5.1-21.6-9.2-32.6-13.8
	c-5.4-2.3-11.1-4.6-16.5-7.5L298,70.2c-5.5-2.9-11.8-6.6-16.4-7.1c-4.8-0.5-9,1.2-13.3,2.5c-4.8,1.5-8.4,2.8-13.4,2.5
	c-5-0.3-10.6-2.7-15.4-6.1c-4.2-3.1-8.1-6.6-11.6-10.5c-6.8-7.2-12.9-14.7-19.9-21.9c-6.8-7-14.3-15-26.2-19.5
	c-10.6-4-20.6-5.7-30.5-7.1c-9.9-1.4-19.8-2.2-29.4-3.7c-5.1-0.7-10.1-1.8-15-3.1c-5.7-1.6-11-4.7-13.8-8.6c-1.4-1.8-2.6-3.8-3.5-6
	c-0.8-2.1-1.2-4.2-2-6.4c-0.8-2-1.1-4.4-2-6.3c-0.5-1-0.8-2-1.3-3c-1.5-3.2-3.6-6.1-5.9-8.7c-1.8-1.9-3.8-3.6-6-5
	c-4.3-3.2-9.1-6.4-13.9-9.6c-4.5-3-8.9-6.6-13.2-10c-4.4-3.4-8.8-6.7-13.2-10c-16.9-12.4-35.1-23-54.3-31.4
	C-24.9-110-28.1-111.3-30.5-112.6z"/>
<path class="st0" d="M-33.1-107.7l2-3.8c2.6,1.3,5.3,2.5,8.1,3.5c19.8,8.3,39.7,20.3,55,31.6c9,6.6,17.4,13.7,26.3,20.3
	c4.6,3.4,9.5,6.6,13.6,10c3.7,3.2,6.7,7.2,8.7,11.6c0.1,0.8,0.4,1.6,0.7,2.3c0.3,0.8,0.6,1.6,0.8,2.4c1.4,4.9,2.2,10,4.3,14.6
	c1.4,3.3,3.5,6.3,6.1,8.8c3.4,2.7,7.4,4.6,11.6,5.6c7.3,1.9,15,2.6,22.5,3.5c15.3,1.9,29.2,2.5,45.2,7.2c4.1,1.1,8.1,2.5,12.1,4.1
	c4.1,1.9,7.9,4.3,11.4,7.1c5.9,5,11.4,10.4,16.4,16.2c5,5.5,9.6,11.3,14.7,16.9c5,5.5,10.8,11.6,18.8,15.4c8.5,4,14.9,3.6,21.7,0.8
	c6.6-2.8,12.1-5.8,20.6-2.4c4.2,1.7,8.4,4.2,12.8,6.4c4.3,2.2,8.5,4.4,12.8,6.6c8.1,4,16.4,7.1,24.7,10.4
	c12.2,4.8,24.8,10.4,37.1,16.2c12.3,5.7,24.5,12.3,36.6,18.6c0.5,0.3,1.1,0.4,1.4,0.9c-0.5,0.6-0.3,1-0.7,1.4
	c-0.4,0.3-0.2,0.2-0.9-0.1c-1-0.4-2.2-1.2-3.1-1.7c-21.9-11.4-43.1-22.2-63.6-30.3c-10.8-4.3-22.2-8.4-32.9-13.2
	c-5.3-2.4-11.4-5.6-17.1-8.6c-6.1-3.2-11.1-5.2-15.9-4.7c-4.6,0.5-8.6,3.6-12.7,5.3c-4.4,2-9.4,2.4-14.1,1.1
	c-11.4-2.9-21.2-12-26.8-19c-3.1-3.9-6.4-7.5-9.5-11.3c-3.1-3.8-6.4-7.5-10-11.3c-3.5-3.9-7.2-7.5-11.2-10.9
	c-4.6-3.8-9.9-6.9-15.4-9.1c-5.1-2.1-10.4-3.7-15.9-4.8c-15.4-3.3-30.4-4.2-45.1-6c-4.9-0.6-9.8-1.2-15.1-2.3
	c-2.7-0.5-5.4-1.3-8-2.4c-2.6-1.2-4.9-3-6.8-5.1c-6.8-7.3-7.4-16.7-11.1-25.1c-0.8-2.1-1.8-4.2-3-6.2c-0.6-1-1.4-2-2.1-2.9
	c-3.5-4.6-9.1-9-14.8-13c-2.2-1.6-4.4-3.4-6.6-5.1C44.2-63.3,37.8-68.5,31-73.5c-9.4-6.9-19.3-12.9-30.3-19.2
	c-2.7-1.6-5.7-3-8.6-4.4c-5.9-2.8-11.2-5.2-16.7-7.4C-27.5-105.4-30.3-106.5-33.1-107.7z"/>
<path class="st0" d="M-36-102.2l2.2-4.3c2.6,1.3,5.4,2,8.2,3c8.7,3.4,17.2,7.2,25.5,11.6c17,8.8,31.4,19.4,44,29.7
	c4.3,3.5,8.4,7.2,12.7,10.5c4.2,3.2,8.1,6.8,11.5,10.9c1.1,1.4,2,2.9,2.8,4.5c0.3,0.5,0.5,1.1,0.7,1.7c0.4,1.1,1.1,2.1,1.4,3.2
	c1.8,5.6,2.9,11,4.9,16.3c1.7,4.4,3.6,8.6,7.1,12.3c3.8,4.1,9.7,6.4,15,7.3c5.2,0.9,10,1.2,15.1,1.6c5,0.5,10,1.1,15,1.6
	c5,0.5,10,0.8,15,1.5c10,1.4,20.8,3,31.4,7.4c3.1,1.3,5.8,2.7,8.5,4.1c2.6,1.4,5.1,3.1,7.4,4.9c4.2,3.3,8,6.9,11.6,10.9
	c7.1,7.5,13,15.5,19.5,22.9c6.2,7.2,14.6,15.8,26.7,19.9c5.5,1.9,10.4,2.1,14.7,0.6c2.2-0.9,4.3-2,6.3-3.2c2-1.2,4.1-2.2,6.3-3
	c4.5-1.4,9.4-0.3,15.4,2.8c5.6,2.9,11.7,5.9,17.2,8.3c11,4.9,22.2,8.6,33,12.9c17.4,7,34.5,15,51.1,23.7c2.9,1.5,5.7,3.1,8.6,4.6
	c2.5,1.3,5,2.9,7.5,4c0.2,0.1,0.8,0.7,1,0.1c0.1,0.1,0.1,0.1,0,0.2c-0.4,0.6-0.8,1.2-1,1.9c-11.6-6-23-12.1-34.4-17.8
	c-11.4-5.7-22.9-10.5-33.9-15c-13.6-5.5-27.5-9.8-41.6-16.2c-2.9-1.3-5.7-2.8-8.7-4.2c-5.9-2.7-10.5-2.7-14.8-0.7
	c-2.1,1-4.2,2.2-6.2,3.5c-6.4,3.8-12.9,4.2-21.7,0.7c-11.8-4.7-20-12.9-26.5-20.4c-9.7-11.2-18.2-23.7-30.8-34.1
	c-4.9-3.8-10.3-7-16.1-9.4c-5.2-2.1-10.6-3.8-16.1-4.9c-10.6-2.5-20.6-3.3-30.6-4.4c-5.1-0.6-10.1-1.1-15.1-1.4
	c-4.9-0.4-10-0.6-15-1.3c-2.7-0.3-5.3-0.9-7.9-1.9c-9-3.6-12.8-10.6-15.5-16.8c-1.8-4.3-3.4-8.7-4.7-13.1c-0.7-2.2-1.6-4.4-2.6-6.4
	c-1-2.1-2-4.2-3.2-6.3c-0.3-0.5-0.8-0.9-1.2-1.4c-1-1.6-2.1-3.1-3.4-4.4c-1.8-1.7-3.6-3.7-5.6-5.4C42.3-59.6,29.7-70.2,14.4-79.7
	C9-83.1,3.3-86.1-2.4-89.1c-9.3-4.8-19.1-8.6-29.2-11.5C-33.2-101.1-35-101.3-36-102.2z"/>
<path class="st0" d="M-39.7-94.9l2.9-5.7c2.6,1.1,5.4,1.9,8.1,2.5c24.7,6.8,52.3,23.9,70,39.6c6.2,5.4,12.4,11,17,16.7
	c1.4,1.9,2.7,4,3.7,6.1c0.7,1.1,1.2,2.3,1.6,3.6c0.1,0.4,0.3,0.9,0.5,1.3c0.7,1.7,1.2,3.3,1.8,5c0.2,0.6,0.5,1.1,0.7,1.7
	c0.2,0.6,0.3,1.2,0.4,1.7c0.7,2.4,1.7,4.5,2.2,6.6c0.7,2.2,1.6,4.4,2.6,6.5C73.7-5,75.9-0.6,79.6,3c2.1,1.9,4.6,3.5,7.3,4.5
	c2.6,1,5.2,1.7,8,2c5.2,0.8,10.1,0.7,15,0.9c9.8,0.4,20,1.6,30.3,2.8c5.2,0.6,10.4,1.5,15.6,2.6c5.6,1.2,11,2.8,16.3,4.9
	c5.9,2.4,11.5,5.4,16.7,9c4.3,3.3,8.3,7,11.9,11c7.3,7.5,12.9,15.6,19.4,23.3c6.5,7.7,14.6,15.5,26.2,21c6.1,2.9,11.2,4.1,16,4.1
	c4.9,0,8.5-2,13.2-4.9c4-2.5,8.4-4.2,13.9-2.4c2.8,0.9,5.6,2.3,8.4,3.5c14.3,6,28.2,10.5,41.9,15.9c23.7,9.5,46.6,20.7,68.8,33.3
	c0.1,0.8-0.7,1.6-1,2.6c0.4-0.7-0.3-0.8-0.7-1.1c-0.5-0.3-1.1-0.7-1.5-0.9c-7-3.9-14-7.8-21.2-11.5c-15.7-8.3-32-15.6-48.6-21.9
	c-11.8-4.5-23.5-8.3-35.2-12.6c-4.1-1.5-8-3.3-11.6-3.7c-3.4-0.4-6.8,0.4-9.7,2.1c-3,1.7-5.7,3.4-9,4.4c-6.3,1.9-14,0.5-21.7-2.9
	c-7.7-3.5-14.8-8.2-20.9-14c-5.3-5-10.1-10.4-14.4-16.3c-4.4-5.7-9-11.2-14-16.4c-3.9-4.3-8.2-8.1-12.9-11.6c-1.9-1.2-3.9-2.3-6-3.3
	c-4.3-2.2-8.2-4.4-12.3-6c-3.8-1.5-7.7-2.7-11.6-3.6c-7.2-1.7-14.6-2.9-22-3.6c-7.3-0.8-14.5-1.7-21.5-2c-6.8-0.3-13.9,0.1-21-0.7
	c-1.9-0.2-3.8-0.6-5.6-1.2c-2-0.7-4-1.7-5.8-2.8c-3.5-1.8-5.4-5.2-7.8-7.7c-0.6-1.3-1.5-2.3-2.1-3.5c-2-3.7-3.6-7.6-5-11.6
	c-1.9-5.2-3.9-10.3-6.2-15.4c-4.5-10.2-13-19.1-23.1-27.7c-5.1-4.4-10.5-8.6-16.1-12.3C14-75,7.4-78.8,0.6-82.1
	c-12-5.6-23.7-9.5-34.4-11.3C-35.9-93.8-37.7-93.8-39.7-94.9z"/>
<path class="st0" d="M-44.1-86.5l3.3-6.4c1.1,0.9,2.6,0.9,3.9,1.1c9.7,1.2,19.3,3.6,28.4,7.2c11.7,4.8,22.7,10.9,32.8,18.4
	c8.9,6.3,16.8,13.9,23.7,22.4c6.3,8,8.9,17.2,12.2,26C62.1-13,63.4-9,65.5-4.6c2,4.3,4.3,8.8,8.1,12.4c4.4,4.2,10.4,6,15.6,6.6
	c5.3,0.6,10,0.2,15,0.1c9.8-0.2,20.1,0.9,30.5,2.2c10.2,1.3,21.2,2.7,32.3,7.6c2.9,1.3,5.8,2.8,8.8,4.4c3,1.6,6.2,3,8.8,4.7
	c4.7,3.1,9,6.8,12.9,10.9c11.3,11.4,18.5,24,30.9,34.9c4.5,4,9.4,7.5,14.7,10.3c12.2,6.3,22,8.5,31.6,5.8c1.7-0.6,3.3-1.3,4.9-2.1
	c0.6-0.3,1.2-0.5,1.6-0.8c0.1-0.1,0.1-0.3,0.2-0.4c0.1-0.1,0.3-0.1,0.4-0.2c1.8-1,3.8-1.7,5.9-2c4.8-0.8,10.2,1.3,16,3.2
	c10.7,3.6,22.3,7.4,33.6,11.7c22.4,8.5,47.2,20.9,69.4,33.9c0.2,0.5-0.4,1.1-0.6,1.6c-0.3,0.5-0.4,1.4-0.8,1.5
	c1.1-1.3-0.5-1.4-1.9-2.3c-10.2-6.2-21.5-12.6-32.4-17.7c-6-2.9-11.8-5.8-17.6-8.3c-5.8-2.6-11.6-4.8-17.2-6.9
	c-11.5-4.3-22.7-7.9-33.4-10.8c-2.6-0.8-5.3-1.3-8-1.6c-3.6-0.2-7.2,0.5-10.5,2c-1.1,0.5-2.2,0.9-3.3,1.3
	c-11.1,4.5-24.9,2.2-39.2-5.9c-9.9-5.6-18.6-13-25.8-21.8c-6.6-7.9-12.5-16.1-20.1-23.6c-3.7-3.7-7.7-7.8-13.2-10.8
	c-5.8-3.2-11.7-6.3-17.9-9.2c-5.3-2.3-10.9-4-16.6-5.2c-5.2-1.1-10.5-2-15.8-2.5c-5.1-0.6-10.4-1.3-15.5-1.7
	c-5-0.4-10.1-0.5-15.1-0.2c-4.9,0.4-9.9,0.5-14.9,0.3c-2.7-0.2-5.4-0.7-8-1.6c-9.3-3.4-13-10.9-16-17c-1.5-3.2-2.9-6.5-4.2-9.8
	c-0.4-1.1-1-2.1-1.5-3.2c-1-2.2-1.6-4.5-2.6-6.5C53.7-23.7,53-25.9,52-28c-2.1-4.4-4.5-8.7-7.2-12.8c-4-6.1-9.4-11.6-15.8-17.2
	c-2.1-1.9-4.4-3.7-6.7-5.4C12.2-70.8,0.9-76.6-11-80.5c-9.6-3-18.7-3.7-27.7-4.7C-40.6-85.2-42.4-85.7-44.1-86.5z"/>
<path class="st0" d="M-48-79.1l2.8-5.4c1.3,0.7,2.7,1.1,4.1,1.1c9.4,1.4,18,1.5,27.8,4c10.8,2.8,23.3,8.9,33.4,16.2
	C28.9-57,36.4-49.1,42.3-40c1.9,3.1,3.6,6.4,5.1,9.7c0.5,1.1,0.9,2.3,1.4,3.4c2,4.4,3.6,9,5.4,13.5c0.4,1.1,0.9,2.2,1.2,3.4
	c0.4,1.2,0.9,2.2,1.4,3.4c0.9,2.2,1.7,4.5,2.7,6.7c2,4.4,4.2,8.9,7.7,12.7c2.1,2.2,4.6,3.9,7.4,4.9c2.6,1,5.3,1.6,8,1.7
	c5,0.3,10,0.1,15-0.5c10.2-0.8,20.4-0.6,30.5,0.8c10.6,1.4,21.3,2.6,32.7,7.6c6,2.6,12.1,6.1,18,9.1c2.9,1.4,5.7,3,8.3,4.9
	c11.9,9,18.8,19.3,27.3,29.3c6.7,7.9,14.4,15.7,25.5,22.2c11.5,6.8,22.9,10.2,33.1,9.8c4.9-0.2,9.7-1.1,14.2-2.8
	c4.7-1.8,9.8-2.3,14.7-1.4c10.6,1.9,22,5.5,33.4,9.7c5.6,2.1,11.4,4.4,17.3,7c9.1,3.9,18,8.2,26.7,13.1c2.9,1.7,6,3.1,8.9,4.8
	c5.5,3.3,11,6.6,16.5,9.9c-0.8,1.4-1,2.3-1.8,3.7c-0.1-0.6,0.8-1,0.7-1.5c0-0.1-1.2-0.8-2-1.2c-4.9-3.1-9.6-5.9-14.3-8.6
	c-23.2-13.7-47.9-24.6-69.6-30.3c-5.6-1.5-11.1-2.9-16.2-3c-4.9-0.2-9.8,1.2-14.4,2.2c-2.4,0.5-4.8,0.9-7.2,1.2
	c-2.5,0.2-5,0.2-7.6,0.1c-10.3-0.2-22.3-4.2-33.5-11.1c-9.7-6-18.4-13.5-25.7-22.3c-6.7-7.9-12.7-16.2-20.9-23.8
	c-2.1-2-4.3-3.8-6.7-5.4c-2.8-1.8-5.7-3.4-8.7-4.8c-5.7-2.9-12.1-6.6-18-9.4c-5.4-2.4-11-4.1-16.8-5.2c-10.3-2.2-20.9-3.4-31.5-3.7
	c-10.5-0.1-19.4,2.1-29.8,1.9c-1.3,0-2.6-0.1-3.9-0.3c-0.7-0.1-1.3-0.5-2.1-0.7c-0.7-0.1-1.4-0.3-2.1-0.5c-2.8-1.2-5.2-2.9-7.3-5
	c-3.7-3.8-5.9-8-7.9-12.5c-1.9-4.3-3.6-8.8-5.5-13.3c-2.3-5.6-4.9-11.1-7.3-16.4c-0.8-1.7-1.6-3.4-2.4-4.8c-0.8-1.7-1.8-3.2-2.7-4.9
	c-4.7-8.6-12-16.5-21.6-23.5c-5.2-3.8-10.8-7-16.8-9.4c-11.9-4.8-21.4-4.6-32.2-5.8C-36.4-75.9-42.4-76.5-48-79.1z"/>
<path class="st0" d="M-51-73.3l2.3-4.5c5.4,3,11.1,3.8,16.4,4.4c10.6,1.4,20.8,0.9,32.1,5.1C11-63.7,21-56.6,28.9-47.5
	c5.2,6,8.5,12.7,11.6,19.2c2.2,4.4,4,8.9,5.7,13.5c0.8,2.3,2,4.5,2.9,6.8c1.4,3.4,2.5,6.9,3.8,10.2c0.5,1.1,1.1,2.2,1.5,3.3
	c0.2,0.6,0.3,1.2,0.5,1.7c0.3,0.6,0.6,1.1,0.9,1.7c2.4,5.2,5.7,11.8,13.1,14.8c2.6,0.9,5.3,1.4,8.1,1.4c5.1,0.2,10.1-0.7,14.8-1.4
	c4.9-0.9,9.8-1.4,14.7-1.7c5.2-0.2,10.4,0.1,15.5,0.8c10.7,1.3,21.4,2.3,33,7.7c6.1,2.8,11.9,6.1,18.2,9.3c3.1,1.6,6.3,3.1,9.1,4.7
	c2.7,1.5,5.2,3.3,7.5,5.3c4.1,3.6,8,7.5,11.5,11.6c3.5,4,6.5,8.2,10,12.1c7,7.8,15,15.8,25.6,22.4c11.7,7.3,23.5,11.2,33.9,12.3
	c5,0.4,10.1,0.4,15.1-0.2c4.9-0.5,9.6-1.6,14.7-1.9c10.1-0.7,21.2,2.6,32.6,6.4c12.2,4.2,24,9.3,35.3,15.3c12,6.2,22.7,13,33.4,20
	c-0.8,1.3-1.2,2.9-2,3.8c1.3-1.5,0-1.5-1.4-2.4c-14.2-9.9-31-20.3-48.5-27.8c-11.8-5.1-23.3-9.1-33.9-10.8c-2.6-0.5-5.2-0.8-7.8-1
	c-2.5-0.1-5.1-0.1-7.6,0.1c-5,0.3-9.9,1.3-14.8,1.4c-5.2,0.2-10.3,0.1-15.4-0.5c-12.1-1.8-23.6-6-33.9-12.6
	c-9.7-6.1-18.4-13.7-25.8-22.4c-6.9-8-12.8-16.3-21.8-23.6c-4.5-3.7-11-6.8-16.9-9.9l-18.3-9.5c-5.4-2.7-11.1-4.6-17-5.7
	c-5.5-1.2-10.9-2.1-16.1-2.7c-5.1-0.6-10.3-0.8-15.4-0.5c-4.9,0.4-9.8,1.1-14.6,2c-4.6,0.8-9.6,1.9-14.6,1.9
	c-2.6,0.2-5.3-0.1-7.8-0.7c-6.1-1.7-9.7-7-11.9-11c-3.4-6.5-6.4-13.2-8.9-20c-3.6-9-7.7-17.9-12.3-26.5c-4.5-8.8-10.4-17.1-19.9-24
	C9.9-58.4,4.2-61.2-1.8-63c-5.5-1.6-10.9-1.8-15.9-2.1C-27.9-65.7-39.2-67-51-73.3z"/>
<path class="st0" d="M-53.7-68.1l2-3.8c15.4,8.2,28.3,9,41.2,9.7c2.7,0.1,5.4,0.5,8,1.1c6.1,1.6,11.8,4.4,16.9,8.2
	c4.4,3.3,8.2,7.2,11.4,11.7c3,4,5.6,8.4,7.7,12.9c2,4.6,4.4,8.9,6.1,13.4c0.9,2.3,2,4.4,2.8,6.8c0.4,1.1,0.9,2.2,1.4,3.4
	c0.5,1.1,0.9,2.3,1.4,3.4c3.6,9.3,6,18.7,12.5,26.7c1.9,2.3,4.4,4.1,7.2,5.1c2.5,0.8,5.2,1.1,7.9,0.6c4.9-0.6,9.7-1.5,14.5-2.7
	c9.2-2.2,19.1-3.8,29.8-2.7c5.3,0.5,10.7,1.5,16.2,2.6c6,1.1,11.8,3.1,17.2,5.9l18.3,9.5c6.1,3.2,12.6,6,17.9,9.7
	c2.3,1.7,4.5,3.6,6.6,5.6c6.3,5.7,11.1,12,16.3,17.9c10.1,11.6,24.5,24.2,43.1,31.3c5.4,2,11,3.5,16.8,4.5c10.7,1.8,20.5,1,30.7,0.4
	c10.8-0.6,21.7,0.8,32,4.2c16.5,5.1,36.9,15.3,52.1,25.6c2.6,1.8,5.2,3.4,7.5,5.3c2.3,2,4.7,3.8,7.2,5.4c0.1,0.1,0.2,0.1,0.1,0.2
	c-0.5,1.2-1,2-1.5,3.2c0,0.1-0.1,0.2-0.1,0c-2.6-1.7-4.5-3.8-6.8-5.5c-2.3-1.8-4.6-3.5-7.1-5.3c-15.6-11.3-32.8-20-51.1-26
	c-10.3-3.2-21.1-4.5-31.9-4c-15.1,0.5-30.4,0.8-47.6-5.8c-19-7.2-33.6-19.6-43.8-31.2c-7-7.9-13.2-16.4-23.2-23.3
	c-2.8-1.8-5.7-3.5-8.7-4.9l-27.5-14.3c-5.5-2.9-11.3-5.2-17.4-6.6c-5.3-1.3-10.8-2.2-16.2-2.8c-10.6-1.1-20.2,0.6-29.6,3.2
	c-4.7,1.4-9.4,2.5-14.2,3.4c-3.7,0.5-7.5,0.7-11.6-1.6c-3.9-2.2-6.2-5.6-8-8.8c-2.9-5.4-5.4-11-7.4-16.8c-0.4-1.1-1-2.1-1.4-3.3
	c-1.6-4.6-3.4-9-5.5-13.4c-1.6-3.3-3-6.8-4.6-10c-0.6-1.1-1.3-2.2-1.8-3.3C27.3-32.4,22.4-41,13.3-48c-3.7-2.9-8-5.1-12.5-6.4
	c-1.3-0.3-2.7-0.5-4.1-0.6c-5.3-0.8-10.5-0.4-15.7-1.1C-29.7-57.4-41-60.7-53.7-68.1z"/>
<path class="st0" d="M-56.2-63.2l2-3.8c6.5,3.3,12.3,6.8,18.1,8.8c5.4,1.9,11,3.2,16.6,4.1c5.3,0.8,10.4,0.4,15.6,1
	c6,0.7,11.8,3.1,16.6,6.8c9.1,7,13.5,16.2,18,25c4.4,8.8,8.2,17.8,11.4,27.1c1.6,4.6,3.1,9.1,5.1,13.7c1.8,4.7,4.3,9.1,7.4,13
	c1.9,2.3,4.5,3.9,7.3,4.8c2.5,0.7,5.2,0.7,7.7,0.2c4.8-1.1,9.5-2.5,14.1-4c9.3-2.9,18.8-5.3,29.2-4.5c8.4,0.6,16.7,2.4,24.7,5.2
	c3.1,1.2,6.1,2.7,9,4.3c12.5,6.5,24.9,12.5,36.6,18.9c5.1,2.9,9.8,6.6,13.8,10.9c3.8,3.9,7.2,8.1,10.7,12
	c7.7,8.6,16.5,16.1,26.1,22.4c10.5,6.8,22.2,11.6,34.5,14.1c11,2.1,21,2.2,31.3,2.2c5.2-0.1,10.3,0,15.5,0.4
	c15.5,1.6,34.1,8.2,51.4,18.8c8.9,5.5,17.2,11.9,24.8,19c1,1.1,2.1,2,3.3,2.8c0.4,0.2,1,0.8,1.2,0c0.1-0.1,0.2-0.2,0.1,0l-0.2,0.5
	c-1.3,1.9-2,4.1-3.2,6.1c-0.3-0.6,1.4-1.8,1.2-2.4c-0.7-0.4-1.3-0.8-1.9-1.3c-1.8-1.5-3.3-3-4.7-4.3c-6.1-6.1-12.8-11.6-19.9-16.5
	c-10.7-7.1-22.3-12.6-34.6-16.4c-11.3-3.3-21.6-4-31.8-4.2c-10.3-0.2-20.5-0.4-31.4-2.6c-12.2-2.4-23.9-7-34.4-13.5
	c-9.8-6.2-18.8-13.6-26.7-22.1c-7.4-7.9-13.3-16.3-24.6-22.8c-5.8-3.3-12-6.3-18.3-9.5c-8.9-4.6-18.4-10.1-27.3-14.2
	c-5.4-2.3-11.1-4-16.9-5c-7.6-1.7-15.5-1.9-23.1-0.6c-7,1.2-14.2,3.8-20.9,6.3c-2.3,0.9-4.6,1.6-7,2.3c-4.5,1.1-10.5,1.9-15.4-2.8
	c-3.6-3.6-6.4-7.9-8.3-12.7c-2.1-4.7-3.8-9-5.5-13.6c-2.1-5.7-4.3-11.3-6.7-16.9c-3.4-7.9-7.4-15.6-12.1-22.8
	c-2.8-4.6-6.4-8.7-10.6-12C6.7-44.4,1-46.3-4.8-46.5c-5.2-0.2-10.4-0.2-15.8-1.5c-5.9-1.3-11.6-3.2-17.1-5.6
	C-43.5-56.4-49.8-60-56.2-63.2z"/>
<path class="st0" d="M-58.8-58.3l2-3.8c8.3,4,16,8.9,23.6,11.9c5.3,2.2,10.8,3.8,16.3,5c1.7,0.3,3.5,0.6,5.2,0.7
	c6.7,0.4,13.9-0.5,21.1,4.4c1.5,1.1,2.9,2.3,4.2,3.6c1.3,1.2,2.5,2.5,3.7,3.8c1.1,1.3,1.9,2.7,2.8,4.1c0.9,1.3,1.9,2.7,2.7,4.1
	c5.5,9.7,10.1,19.9,13.8,30.4c1.6,4.6,3,8.9,4.7,13.5c0.5,1.4,1,3,1.7,4.4c2.4,5.6,4.9,12,10,16.8c4.9,4.7,10.6,3.9,15.3,2.5
	c3.1-1,6.2-2.2,9.2-3.6c6-2.7,12.3-4.8,18.7-6.2c6.8-1.5,13.8-1.6,20.6-0.2c3.8,0.7,7.5,1.6,11.2,2.8c4.2,1.5,8.2,3.3,12.1,5.5
	l37.1,19.3c4,1.9,7.9,4.2,11.6,6.7c6.4,4.7,11.2,10.2,16.1,15.6c5.1,5.6,10.7,10.8,16.7,15.5c6.6,5.4,13.9,10,21.6,13.7
	c7.4,3.6,15.3,6.4,23.3,8.3c14.5,3.3,29,3.4,42.7,3.9c14.1,0.5,29.6,4.9,45.6,13.9c7,4,13.6,8.8,19.4,14.4c2.7,2.5,5.2,5.2,7.9,7.9
	c2.7,2.8,5.8,5.4,9.1,7.6l-0.1,0.2c-0.7,1.3-1.4,3.3-2.2,4.2c0.9-1.2,0.2-1-1-1.8c-2.1-1.4-4-3-5.9-4.6c-0.8-0.7-1.6-1.2-2.2-1.8
	c-3-2.7-5.3-5.3-7.8-7.9c-5.4-5.8-11.5-10.8-18.2-15c-16-9.9-31.9-13.3-45.7-14.5c-6.9-0.6-14-0.7-21.2-1.4
	c-14.3-1.3-29.1-3.8-45.5-12.3c-16.4-8.5-28.1-18.8-38.1-29.5c-2.5-2.7-5.1-5.3-7.8-7.9c-2.8-2.8-6-5.3-9.4-7.4
	c-7.6-4.5-16.1-8.6-24.6-13l-24.9-13c-3.8-2.1-7.9-3.9-12-5.3c-3.7-1.2-7.4-2.1-11.3-2.7c-6.8-1-13.8-0.6-20.4,1.2
	C87,37.1,80.9,40,74.7,42.7c-2.3,1-4.6,2.2-6.9,2.9c-2.4,0.9-4.9,1.3-7.4,1.3c-6.7-0.3-11.1-5.9-13.9-10.7
	c-3.9-6.7-6.4-13.6-8.9-20.7C36.2,12,34.9,8.5,33.6,5c-3.9-10.1-9-21-15.7-30.3c-2.4-3.5-5.6-6.6-9.2-8.9c-5.9-3.6-10.9-3.2-16-3.6
	c-2.6-0.1-5.2-0.5-7.8-1c-2.8-0.7-5.6-1.5-8.3-2.5C-34.4-45.1-47.1-52.3-58.8-58.3z"/>
<path class="st0" d="M-61.3-53.4l2-3.8l18.2,9.5c5.8,3,11.7,5.8,17.8,8.1c5.2,2.1,10.8,3.5,16.4,4c2.6,0.2,5.2,0.2,7.8,0.6
	c1,0.2,2,0.5,3,0.9c0.3,0.1,0.7,0.1,1.1,0.3c4.1,1.6,7.7,4.4,10.3,8c1.6,2.1,3.3,4.1,4.6,6.2c1.4,2.1,2.5,4.3,3.6,6.5
	c2.4,4.4,4.4,8.8,6.3,13.2c1,2.2,1.7,4.5,2.5,6.8c3.4,9.2,5.9,18.4,10,27.2c2.2,4.6,4.3,9,8.3,12.6c2.2,2.1,4.9,3.4,7.9,3.8
	c2.5,0.1,4.9-0.3,7.3-1.1c2.3-0.9,4.5-1.9,6.7-3c2.2-1.1,4.4-2.2,6.6-3.3c8.6-4.3,18.1-7.7,28.1-7.2c5.6,0.4,11.1,1.6,16.3,3.5
	c5.7,2,11.7,5.6,18,8.9c15.4,8,30.6,15.6,45.2,23.5c2.7,1.5,5.1,3.3,7.4,5.3c4.1,3.6,7.9,7.7,11.7,11.5c8.2,8.3,17.3,15.6,27.2,21.8
	c11.1,6.9,23.2,12,34.4,14.2c5.5,1.1,10.7,2.1,16,2.8c20.6,2.4,41.6,0.4,65.2,14.4c5.1,3,9.8,6.6,14.1,10.8
	c7.5,7.2,14,16.5,25.5,22.4c-0.4,1-0.9,2-1.5,3c0-0.6-0.7-0.6-1.1-0.8c-0.5-0.2-0.9-0.6-1.4-0.8c-6.2-3.5-11.9-7.7-17-12.6
	c-2.6-2.5-4.8-5.3-7.2-7.9c-0.6-0.7-1.4-1.2-2.1-1.9c-1.9-2.1-4-4-6.2-5.8c-6.8-5.2-14.5-9.2-22.6-11.8c-15.3-5-28.6-4.9-43-6.6
	c-14.3-1.7-29.1-4.7-45.2-13c-16-8.3-28-18.7-38.4-28.9c-2.7-2.6-5.1-5.2-8-7.7c-3.2-2.7-6.7-5.1-10.5-7
	c-15.5-8.1-32.7-17.1-49-25.6c-4.3-2.3-8.3-4.5-12.1-6.1c-3.7-1.5-7.5-2.6-11.3-3.4c-7.3-1.5-13.7-0.3-20.1,1.5
	c-6.1,1.8-12,4.8-17.9,8.1c-2.9,1.6-5.9,3-9,4.2c-3.3,1.1-6.9,1.7-10.2,0.4c-3.7-1.4-6.3-4.5-8.1-7c-1-1.3-1.8-2.6-2.6-4
	c-0.7-1.4-1.6-2.8-2.2-4.1c-2.6-5.5-4.9-11.2-6.9-17c-0.9-2.8-1.9-5.8-3-8.6C29.5,7.3,28,2.9,26.2-1.1c-1.9-4.2-4.2-8.4-6.7-12.3
	c-3.1-4.9-7.3-11.4-14.9-14c-3.5-1.2-6.8-1.3-10.1-1.7c-3.5-0.4-7-1.1-10.3-2.2C-30.2-36.1-46.2-46-61.3-53.4z"/>
<path class="st0" d="M-63.9-48.5l2-3.8c12.2,6,23.8,12.9,35.7,18.4c6.1,2.8,11.4,5.2,16.8,6.3c5,1,10.8,0.6,16,3.3
	c4.6,2.4,7.8,6.3,10.4,9.9c1.8,2.6,3.5,5.4,4.9,8.3c0.5,1,0.8,2,1.3,2.9C29.2,8.4,31.9,20.3,36.6,32c1.5,3.8,3.2,7.6,5.2,11.5
	c1.5,2.9,3.4,5.6,5.7,8c0.8,0.9,1.7,1.8,2.7,2.5c4.6,3.1,9.5,2.5,13.4,1c8-3.2,14.9-8.7,22.6-11.8c5.9-2.5,12.2-3.8,18.6-3.7
	c2.3,0.1,4.6,0.5,6.8,1c4.7,1,9.7,3.4,15.1,6.2c15.8,8.2,31.8,16.5,47.4,24.6c5.3,2.7,10.9,5.3,15.6,8.2c4.3,2.7,7.8,6.3,11.2,9.6
	c7,6.7,13.9,13.1,22.7,19.2c9.1,6.3,18.9,11.5,29.2,15.6c9.2,3.4,18.8,5.9,28.6,7.2c13.6,2,27.2,2.4,41.4,6.2
	c5.3,1.3,10.3,3.3,15.1,5.9c4.6,2.5,8.8,5.6,12.6,9.2c3.4,3.3,6.1,6.8,9.3,10.1c3.4,3.6,7.2,6.8,11.2,9.6c3.8,2.6,8.3,5.2,12.4,7.6
	c0.5,0.3,1.4,0.4,1.6,1.2l-1.1,2.1c-0.3,0.1-0.6-0.2-0.8-0.3c-2.7-1.4-5.1-2.8-7.6-4.1c-2.8-1.6-5.5-3.3-8.1-4.8
	c-10.8-6.1-15.9-15-23.9-22c-4.7-4-10-7.2-15.8-9.5c-10.9-4.5-21.5-5.8-31.9-7.1c-10.3-1.2-20.8-2.6-31.3-5.5
	c-11.9-3.3-23.3-8.2-33.8-14.6c-13.1-8-23.9-17.4-33.4-26.6c-2-2-4.1-3.8-6.4-5.4c-2.8-1.7-5.7-3.3-8.6-4.7
	c-20.2-10.5-41.8-21.7-62.2-32.3c-5.1-2.8-10.7-4.4-16.4-4.9c-5-0.3-9.6,0.9-14.1,2.3c-4.5,1.5-8.9,3.7-12.9,6.3
	c-4,2.5-8.1,5.4-12.6,7.2c-4.6,1.8-9.6,2.9-15-0.7c-2.1-1.6-3.9-3.5-5.3-5.7c-1.4-1.9-2.6-4-3.7-6.1c-3.5-6.5-5.8-13-8.5-19.6
	c-0.9-2.2-1.6-4.4-2.4-6.6c-1.7-4.3-3.2-8.8-5.1-13.3c-1.8-4.4-4.1-8.7-6.7-12.7c-2.6-3.9-6.3-8.7-12.2-10.9
	c-2.6-0.8-5.2-1.4-7.9-1.7c-2.7-0.4-5.4-1-8-1.8c-6-2.1-11.8-4.7-17.3-7.7C-40-36.1-51.9-42.3-63.9-48.5z"/>
<path class="st0" d="M-66.4-43.6l2-3.8L-29.2-29c5.6,3.1,11.4,5.8,17.3,8.2c2.6,0.9,5.3,1.6,8.1,2.1c2.7,0.5,5.3,1.2,7.9,2
	c6.2,2,9.6,6.2,12.4,10.3c2.6,4,4.8,8.3,6.6,12.7c4.6,10.9,7.5,22.4,12.1,33.1c0.9,2.1,1.9,4.3,2.9,6.5c1.9,4.6,4.8,8.7,8.4,12.1
	c2.1,1.9,4.8,3.1,7.6,3.5c7.7,0.9,13.8-3.7,19.8-7.8c8.5-5.9,16.3-9.6,26.3-10.4c4.7-0.3,10.3,1.4,16.2,4.4
	C139.8,60,163.8,72.4,187,84.5c5.7,3,9.5,6.7,14,10.4c4.2,3.4,8.3,7.2,12.8,10.7c4.7,3.6,9.5,7.1,14.6,10.2
	c10.4,6.6,21.7,11.7,33.6,15.2c10.8,3.1,21.2,4.7,31.5,6.3c10.5,1.5,21,2.7,32,7.6c5.5,2.4,10.6,5.8,14.9,9.9
	c3.8,3.7,7,7.7,10.8,11.4c8,7.7,19.3,13.4,31.1,19.7c-0.7,0.8-0.7,2.2-1.2,2.2c-0.3,0-1-0.5-1.4-0.7c-9.3-4.6-19.5-9.9-26.9-15.1
	c-7.4-5.3-11.7-10.9-17.5-16.4c-1.7-1.7-3.6-3.2-5.6-4.6c-1.1-0.6-2-1.4-3.1-2c-7.4-4.3-15-6.2-21.4-7.6c-9.2-2-18.1-3.1-26.8-4.8
	c-9.5-1.8-18.8-4.4-27.8-7.8c-9.9-4-19.4-9.1-28.2-15.2c-8-5.6-15.7-11.6-23.1-18c-3.7-3.4-7.9-6.3-12.3-8.7
	c-20.1-10.4-40.4-21.1-60.4-31.5c-7.3-3.8-15.7-8.8-22.2-10.3c-2.1-0.4-4.3-0.4-6.4-0.2c-4,0.4-8,1.4-11.7,3
	c-3.8,1.7-7.3,3.8-10.6,6.4c-3.4,2.4-6.8,5.1-10.5,6.9c-3.7,1.9-7.9,2.6-12,2c-2.5-0.3-4.9-1.2-6.9-2.7c-1.7-1.4-3.2-3.1-4.4-4.9
	c-4.8-6.7-7.9-14.7-10.9-21.7c-1.5-3.6-2.8-7.5-4.2-11.3c-1.4-3.8-2.9-7.6-4.4-11.3c-0.7-1.8-1.4-3.7-2.3-5.6
	c-0.8-1.8-1.9-3.5-3-5.4c-2-3.6-5.1-7.5-9.1-9.7c-2.8-1.4-5.8-2.4-8.8-3c-3-0.6-5.9-1.5-8.7-2.5c-6.1-2.4-12.3-6.2-18.7-9.2
	C-40.9-29.7-54.1-37.6-66.4-43.6z"/>
<path class="st0" d="M-69-38.7l2-3.8c12.1,6.2,25.1,13.2,37.6,19.7c6.4,3.3,12.7,6.8,18.7,9.4c2.8,1.2,5.8,2.2,8.8,3
	C1.1-9.6,4.3-9,7-7.6c3.9,2.2,7.2,5.5,9.3,9.5c1.9,3.6,3.5,7.2,4.9,11c4.5,11.4,7.8,22.4,12.8,33.5c1.5,3.8,3.4,7.4,5.7,10.8
	c1.5,2.1,3.2,4.5,5.5,6.1c1.7,1.1,3.5,1.9,5.5,2.3c4.1,1.1,8.4,1,12.4-0.4c3.7-1.4,7.1-4,10.4-6.6c3.2-2.7,6.7-5.1,10.3-7.2
	c2.6-1.5,5.4-2.6,8.4-3.2c3-0.7,6.1-0.9,9.2-0.7c2.5,0.4,4.9,1.2,7,2.4c19.7,10,39.9,20.7,60,31.2c7.4,3.8,15.2,7.9,22.3,11.7
	c2.2,1.2,4.2,2.6,6.1,4.2c7.6,6,14.9,12.2,23.1,17.8c4.2,2.8,8.6,5.6,13.2,8.3c9.1,5.2,18.8,9.2,28.9,12.1c4.6,1.4,9.2,2.5,13.6,3.4
	c8.7,1.9,17.5,3.1,26.7,5.4c8.9,2.2,19.3,5.8,27.2,12.6c3.4,2.9,6.4,6.3,9.7,9.5c3.5,3.4,7.3,6.4,11.4,9
	c8.7,5.6,19.2,10.3,29.1,15.9l-1,1.9c-0.3,0.4-0.8-0.1-1-0.2c-6.1-2.8-12-6.1-17.8-9.1c-6.1-3-12-6.4-17.7-10.2
	c-10.5-7.5-15.7-16.4-28.8-22.4c-11.8-5.5-22.9-6.8-34.6-9.4c-12.1-2.5-23.9-6.3-35.2-11.3c-13.1-5.8-24-13.4-33.9-20.7
	c-4.9-3.6-9.5-7.6-14.6-11.2c-5.2-3.7-11.8-6.8-18.1-10.1l-66.2-34.4c-3.2-1.7-6.3-3.6-9.3-4.5c-1.1-0.2-2.2-0.4-3.3-0.4
	c-1.1,0-2.1,0.1-3.1,0.2c-2,0.2-4,0.7-6,1.4c-7.9,2.6-14.1,9.6-21.1,14.3c-3.5,2.3-7.6,3.5-11.8,3.3c-4.9,0-9.7-1.6-13.7-4.6
	c-1.7-1.4-3.1-3.1-4.2-4.9c-3.4-5.2-6.2-10.8-8.4-16.6c-1.5-3.8-3.1-7.6-4.5-11.4c-3-7.8-5.7-15.5-9.3-22.6c-0.5-0.9-1-1.8-1.5-2.7
	c-0.5-0.9-1.3-1.7-2-2.6c-1.5-2-3.4-3.6-5.6-4.6c-2.3-1-4.7-1.8-7.2-2.4C-2.7-5-5.1-5.9-7.5-6.9c-5.1-2.3-10.1-5.1-15.3-7.7
	C-38-22.6-53.9-30.8-69-38.7z"/>
<path class="st0" d="M-71.5-33.7l2-3.8l51,26.5C-12.9-8-7.4-4.9-1.9-3c2.7,0.9,5.6,1.8,8,2.8c2.5,1.1,4.7,2.8,6.3,5
	c5.3,7.7,8,16.5,11.2,24.9c2,5.4,4.1,10.7,6.1,15.9c1.2,3.2,2.6,6.3,4.2,9.4c2.2,4.1,4.2,8.5,8.8,11.5c2.5,1.5,5.1,2.6,8,3.2
	c7.8,2,14.8,1.1,20.3-3.5c4-3.3,7.4-6.8,11.2-9.5c4.7-3.3,10.1-5.7,16.2-5c1.4,0.2,2.7,0.7,4,1.4c7,3.4,14.2,7.3,21,10.8
	c7,3.6,13.9,7.3,21,11c11.3,5.9,22.8,11.8,34,17.6c5.7,3,11.6,5.6,16.6,9c4.6,3.2,8.9,6.7,13.5,10c4.6,3.3,9.2,6.6,14.2,9.7
	c10.2,6.5,21.1,11.9,32.5,16.1c10.4,3.8,20.8,5.9,31.1,8.5c5,1.2,10.4,2.4,15.6,4.2c5.6,1.9,11,4.5,15.9,7.8
	c4.6,3.2,8.2,6.9,12.2,10.4c4.1,3.8,8.7,7.1,13.5,10c10.6,6.2,22.5,11.3,33.9,17.8l-1,1.9c-0.3,0.4-0.7-0.1-0.9-0.2
	c-5.3-2.4-10.5-5.4-15.7-8.1c-11.3-5.9-23-11.5-31.5-18.1c-4.3-3.4-8-7-12.2-10.2c-9.5-7.3-20.7-10.5-31.1-13.4
	c-5-1.4-10.1-2.6-15.3-4c-5.3-1.5-10.5-3.2-15.7-5.1c-11.2-4.2-22-9.6-32.2-16c-4.9-3.1-9.5-6.3-14.1-9.6c-4.6-3.2-9-6.6-13.8-9.7
	c-5.1-3.3-10.8-5.9-16.4-8.8l-16.8-8.8c-16.8-8.7-33.5-17.5-50.1-26.2c-2.8-1.5-5.7-3.1-8.4-4.4c-1.2-0.7-2.6-1.2-4-1.6
	c-1.2-0.3-2.4-0.3-3.6-0.3c-2.2,0.1-4.5,0.7-6.5,1.6c-4.2,2.1-8.1,4.9-11.4,8.3c-1.8,1.7-3.5,3.6-5.4,5.2c-3.6,3-8.1,3.8-12.8,3.8
	c-5.3,0-10.5-1.2-15.2-3.6c-2.4-1.2-4.4-3-6-5.1c-2.8-3.7-5.1-7.6-6.9-11.8c-4.6-10.3-8.4-21-12.9-31c-1.8-4.1-3.6-8.4-6.7-11.9
	c-0.3-0.5-0.7-0.9-1.1-1.4C9.1,7,8.4,6.7,7.8,6.3c-1.2-0.8-2.5-1.5-3.9-2c-2.6-1-5.4-1.9-8.1-3.2c-5.6-2.6-11.1-5.7-16.7-8.6
	C-37.6-16.2-54.9-25-71.5-33.7z"/>
<path class="st0" d="M-76.7-23.9l2-3.8c13.1,6.8,26.8,14,40.5,21.1C-22.8-0.6-10.6,6.3,1,11.7c1.7,0.7,3.3,1.5,4.9,2.5
	c1.6,1.2,2.9,2.8,3.9,4.6c1.1,1.7,2.1,3.3,2.9,4.9c1.9,3.4,3.2,6.9,4.7,10.1c4.7,10.4,7.6,20.8,13.6,30.5c2.1,3.7,5.2,6.7,8.9,8.8
	c4.1,2.1,8.5,3.6,13,4.4c3.9,0.8,7.9,1.1,11.9,0.9c6.3-0.3,10.8-1.9,15.1-7.5c4-5.2,8.7-9.9,14.5-9.2c3.9,0.5,9.1,3.6,13.3,5.8
	c8.9,4.6,17.1,10.1,25.7,15.1c8.6,5,17.8,8.9,27.2,13.3c9.5,4.5,18.7,9.6,27.7,14.3c4.5,2.3,8.8,4.7,13,7.4
	c12,7.7,25,15.8,38.6,22.4c8.6,4,17.5,7.5,26.5,10.4c9,3.1,17.6,6,26.5,10.3c8.7,4.3,16.1,10.4,24.1,15.6
	c8.4,5.4,17.8,9.9,27.1,14.7l27.9,14.5c-0.4,0.7-0.8,1.5-1.2,2.2c-9.3-4.7-18.4-9.5-27.4-14.2c-9.2-4.8-18.5-9.3-27.3-14.4
	c-4.2-2.4-8-5.1-11.9-7.7c-8.1-5.5-16.7-10.1-25.8-13.8c-4.3-1.8-8.7-3.4-13-5c-12.9-4.8-26.6-10.3-39.9-18
	c-4.4-2.5-8.8-4.8-12.8-7.5c-7.9-5.2-16.4-10.3-25.3-14.9c-9.1-4.7-18.1-9.8-27.5-14.1c-9.2-4.2-18.2-7.8-26.8-12.8
	c-8.5-4.9-16.2-10.6-24.8-15.2c-4.4-2.4-9.2-5.2-13.2-5.8c-3.9-0.6-7.4,1-10.3,4c-1.5,1.7-2.8,3.4-4.1,5.3c-1.2,1.6-2.7,3-4.5,4.1
	c-6,3.6-15,2.8-22.6,1.5c-6-1.1-13.5-3.3-18.8-7.5c-1.5-1.3-2.9-2.8-4-4.5c-2.2-3.1-4.1-6.3-5.7-9.8c-3.1-6.5-5.9-13.4-9-20.2
	c-2.2-4.8-4.6-10.1-7.9-14.7c-0.5-0.7-1.3-1.5-2-2.2c-1.7-2-4.2-3.2-7.3-4.8C-25.9,2.4-52-11-76.7-23.9z"/>
<path class="st0" d="M-79.2-19l2-3.8C-52.9-9.9-28.2,2.8-4.1,15.3c2.6,1.4,5.8,2.7,7.9,4.3c4,3.1,6.1,7.4,8,11.1
	c6.2,11.6,9.8,24.2,16.7,35.5c2.5,4.4,6.3,8,10.9,10.2c4.8,2.2,9.8,3.8,15,4.7c4.6,0.9,9.3,1.3,14,1.2c4.4-0.1,9-1,12.4-3.8
	c2-1.6,3.3-3.9,4.9-6c2.3-3.1,5.3-4.8,8.7-4.7c1.2,0.1,2.5,0.3,3.7,0.8c2.7,0.8,5.3,2,7.8,3.4c6,3.8,11.9,7.3,17,11.2
	c1.1,0.8,2.3,1.4,3.4,2.2c2.3,1.6,4.6,3.2,7.1,4.6c10.4,6.1,21.3,9.5,31.5,14.2c2.7,1.2,5.3,2.8,8,4.2l8.1,4.2
	c5.4,2.8,11,5.4,16.3,8.5c5,2.9,9.9,6,15,8.9c10.1,5.9,20.7,11.7,31.4,16.6c16.5,7.6,34.6,13.4,50.9,22.9c3.7,2.2,7.1,4.6,10.6,6.9
	c9.9,6.3,21,11.5,31.9,17.2c10.8,5.6,21.6,11.3,32.5,17l-1,2c-0.4,0.3-1.1-0.3-1.6-0.5l-25.6-13.3c-11.3-5.9-23.1-11.4-33.9-17.6
	c-6.4-3.7-12.4-7.6-18.7-11.2c-12.9-7.4-26.9-12.8-40-18.5c-8.9-3.9-17.7-8.7-26.7-13.5c-4.4-2.3-8.6-4.9-12.8-7.4
	c-4.2-2.4-8.4-4.8-12.6-7.3c-4.4-2.6-9.1-4.7-13.7-7.1c-9-4.7-17.9-9.6-27-13c-4.3-1.6-8.9-3-12.7-4.9c-1-0.5-2.1-0.8-3.1-1.4
	c-1.1-0.6-2.3-1.1-3.4-1.7c-1-0.5-2-1.3-3.1-1.9c-4.9-2.9-9.4-6.4-14-9.7c-5.4-3.9-11.1-8.4-18-11.3c-1.5-0.7-3.1-1.3-4.8-1.6
	c-2.3-0.4-4.7,0.2-6.6,1.6c-1.5,1-2.7,2.7-4.3,4.7c-2.3,3.2-5.6,5.4-9.4,6.3c-3.7,0.8-7.5,1-11.2,0.7c-4-0.2-8-0.8-11.9-1.6
	c-7.9-1.7-18.3-4.8-23.5-11.4c-2.3-3-4.4-6.1-6.1-9.5c-4.1-8-7.7-16.6-11.9-24.7c-0.8-1.7-1.7-3.3-2.7-4.9c-2.1-3.1-4.2-6.8-7.7-9.1
	c-1.5-1-3.3-1.6-5-2.5C-28.7,7.2-54.3-6.2-79.2-19z"/>
<path class="st0" d="M-81.8-14.1l2-3.8C-56.7-5.9-32.5,6.9-9.3,18.9c3.4,1.8,7,3.2,10.1,5.2c3.4,2.2,5.7,5.8,7.6,8.9
	c6,9.5,9.4,19.9,14.6,29.5c2.6,4.9,5,10,10.4,13.7c6.1,4.2,12.9,6.2,19,7.5c4,0.9,8,1.6,12,2c5.9,0.6,11.7,0.8,16.7-0.9
	c1.7-0.6,3.4-1.5,4.8-2.7c1.6-1.3,3-2.6,4.4-4.1c1.2-1.5,2.9-2.6,4.7-3c2-0.4,4-0.2,5.8,0.5c2.3,0.9,4.4,2,6.5,3.3
	c11.9,7.1,19.9,17,33.8,23.2c8.4,3.8,17.2,5.3,25.7,9.4c4.4,2.1,8.9,4.6,13.6,7.1c9,4.7,18.3,9.3,26.9,14.3
	c17.2,9.9,34.9,18.9,53,26.8c9.1,4,18,8.4,26.6,13.2c8.6,4.9,17,10.2,26.1,14.4c4.6,2.1,9,4.7,13.6,7.1c13.4,7,26.6,14,40.3,21.2
	c-0.6,0.8-0.4,1.2-0.9,1.7c-0.4,0.4-0.1,0.3-0.6,0.2c-0.3-0.1-0.6-0.3-0.9-0.5c-26.6-13.8-53.6-27.2-78.7-41.4
	c-13.2-7.5-26.7-13.6-39.9-19.8c-8.9-4.2-17.7-9.1-26.5-13.8c-4.4-2.3-8.7-4.9-13-7.2c-8.7-4.6-17.7-9.3-26.9-14.1
	c-4.7-2.4-9.1-4.8-13.5-6.9c-8.5-4-17-5.1-25.3-8.5c-4.3-1.9-8.4-4.3-12.1-7.2c-6.8-5.2-12.8-11.2-20.4-16.1c-2-1.3-4.1-2.4-6.3-3.2
	c-4.6-1.6-7.3-0.4-10.4,2.7c-1.3,1.4-2.9,2.6-4.5,3.6c-6.3,3.6-14.1,3.3-21.9,2.4c-4-0.5-8-1.1-11.9-2c-4.2-0.9-8.4-2.1-12.4-3.6
	c-4.2-1.6-9-4.2-11.8-7.2c-2.5-2.8-4.7-5.9-6.5-9.3C16.9,55.9,13.1,45.9,7,36.6c-2-3.1-4.6-6.6-8-8.8c-1.6-1-3.3-1.8-5-2.6
	C-31.2,12.1-56.9-1.1-81.8-14.1z"/>
<path class="st0" d="M-84.3-9.2l1.9-3.7l74.3,38.6c2.5,1.1,4.8,2.5,7.1,4c1.8,1.4,3.4,2.9,4.9,4.7c2.5,3.2,4.7,6.7,6.6,10.3
	c3.8,7.1,6.9,14.5,10.9,21.4c2.1,3.7,4.2,7.3,7.2,10.1c7,6.7,18.3,9.5,26.8,11.3c4.3,0.9,8.7,1.7,13.1,2.1
	c5.3,0.5,10.8,0.9,15.5,0.2c2.7-0.6,5.2-1.6,7.6-3.1c1.7-0.9,3.9-2.8,5.8-3.4c2.1-0.6,4.3-0.5,6.3,0.2c5.5,2,10.1,6.2,14,9.6
	c6.1,5.4,11.1,11.1,19.3,15.4c2.6,1.3,5.3,2.3,8.2,3c5.1,1.4,10.3,2.3,15.6,3.9c5.5,1.7,10.9,4.6,16.7,7.7
	c11.6,6,22.7,11.9,34.2,17.9c5.8,3,11.5,5.9,16.8,8.9c5.5,3.1,11.3,5.7,17,8.6c5.6,2.9,11.4,5.3,16.9,8.2l17,8.8
	c5.6,2.9,11.2,6.1,16.8,9c17.2,8.9,34.4,17.9,51.4,26.7c5.3,2.8,11,5.5,16,8.3c0.2,0.1,0.9,0.2,0.8,0.7c-0.6,0.8-0.4,1.1-0.8,1.5
	s-0.1,0.4-0.8,0.2c-0.4-0.2-0.7-0.3-1-0.5c-22.3-11.6-44.5-23.1-66.3-34.5c-14.2-7.4-28.3-15.2-42.3-22.1
	c-20.1-9.9-39.3-20.5-59.4-31c-5.5-2.8-11.4-5.9-17.1-8.9c-3-1.5-5.8-3.1-8.5-4.4c-8.3-3.9-15.8-4.3-23.4-6.2
	c-2.7-0.6-5.4-1.5-8-2.6c-2.6-1.3-5.1-2.9-7.3-4.8c-6.2-5.2-11-10.9-17.5-15.9c-2.3-1.8-4.9-3.3-7.7-4.3c-4.5-1.4-7.9,1.1-11.4,2.8
	c-3.6,1.7-7.6,2.6-11.6,2.5C72.6,92.1,64,91,55.6,89.2c-8.2-1.7-19.1-4.4-27-10.8c-3.5-2.9-5.6-6.2-7.9-9.9c-2.2-3.5-4-6.9-5.9-10.5
	C11,50.8,7.5,43.7,2,37.6c-1.5-1.7-3.2-3.2-5-4.5c-2.4-1.4-4.8-2.7-7.3-3.8C-35.1,16.4-59.4,3.7-84.3-9.2z"/>
<path class="st0" d="M-84.9-8C-58.7,5.5-31.5,19.9-5.5,33.4c2.3,1.2,4.4,2.7,6.2,4.6c7.6,8.6,11.6,18.3,16.9,27.9
	c2.1,3.9,4.6,7.6,7.4,10.9c6.6,7.5,19.1,11.3,28,13.3c4.7,1.1,9.3,2,14.1,2.7c9.3,1.3,19,3.5,26.8,1c4.3-1.4,7.6-2.9,12.9-0.8
	c4.8,1.9,8.8,6.2,12,9.4c3.1,3.1,6.4,6.9,10.1,10.1c4,3.4,8.9,5.8,14.1,6.8c7,1.2,13.8,1.4,20.9,3.7c2.7,1,5.3,2.1,7.8,3.5
	c21,10.9,42.5,22.1,63.4,33c10.5,5.4,21.1,10.7,31.7,16.2c26.4,13.7,53,27.7,79.3,41.4c4.9,2.6,10.2,5.1,14.9,7.8
	c0.2,0.1,0.9,0.2,0.7,0.7c-0.5,0.8-0.3,1-0.7,1.4c-0.4,0.4,0,0.4-0.7,0.2c-0.3-0.1-0.6-0.3-1-0.5l-13.9-7.2
	c-58.4-30.4-115.8-60.4-173.8-90.6c-2.4-1.4-5-2.5-7.7-3.4c-7.3-2.2-13.8-1.8-20.7-2.7c-2.4-0.3-4.8-0.9-7.1-1.7
	c-2.6-0.9-4.9-2.3-7-4.1c-3.7-3.1-6.6-6.7-9.8-10.2c-3.8-4-8.8-9.6-15-10.8c-1.1-0.2-2.2-0.2-3.3,0c-3.1,0.2-6.4,1.3-9.4,1.5
	c-1.1,0.1-2.2,0.1-3.3,0.1c-2.2,0-4.4-0.5-6.8-0.7c-4.6-0.4-9.3-1.5-13.9-2.3c-4.7-0.8-9.4-1.7-14.1-2.8c-9-2.1-20.9-5.3-28.4-12.5
	c-3.3-3.2-5.6-6.8-8-10.8c-4.5-7.5-8.4-15.3-13.7-22.1c-2.9-4-6.7-7.3-11-9.6C-33.7,23.3-60.7,9.4-86.9-4.3L-84.9-8z"/>
<path class="st0" d="M-87.5-3.1C-66.5,7.8-45,19-24.2,29.9c5.5,2.9,10.9,5.4,15.8,8.2c2.4,1.2,4.6,2.8,6.6,4.5
	c1.6,1.6,3.1,3.3,4.5,5.2c5.3,6.9,9.1,14.6,13.8,22.1c2.5,4,4.6,7.5,8,10.7c4.1,3.6,8.8,6.4,13.8,8.3c9.5,3.6,19.1,5.5,28.6,7.3
	c4.6,0.9,9.4,2,14.2,3c4.7,1,9.2,1.9,13.7,1.8c2.2-0.1,4.3-0.1,6.5,0c2.5,0,5,0.6,7.2,1.8c2.2,1.3,4.2,2.8,6,4.7
	c1.7,1.7,3.3,3.3,4.8,5.1c3.1,3.6,5.8,7.3,9.5,10.2c2.1,1.7,4.5,3,7,3.9c2.3,0.6,4.6,0.9,6.9,1c6.7,0.3,13.3-0.2,20.3,1.4
	c2.7,0.7,5.2,1.8,7.6,3.1c21.1,11,42.1,22,62.8,32.8c10.3,5.4,21,10.7,31.5,16.2c30.3,15.8,60.5,31.5,90.8,47.2
	c1.2,0.5,2.4,1.1,3.4,1.8c0.4,0.4-0.6,1.1-0.8,1.9c-0.2,0.4-0.7-0.1-0.8-0.1c-0.3-0.1-0.7-0.3-1-0.5c-36-18.7-72.2-37.6-108.1-56.2
	c-5.2-2.7-10.4-5.3-15.5-8c-10.4-5.4-20.5-11.2-30.9-16.6c-10.4-5.4-20.9-10.5-31.3-16c-2.4-1.3-4.9-2.4-7.5-3.1
	c-7-1.7-13.6-0.9-20-0.8c-4.4,0.1-9.1-0.2-13.8-3.3c-4.3-2.8-6.9-6.7-9.7-10.1c-3-3.6-5.7-7-10-9.9c-2.2-1.4-4.6-2.4-7.2-2.8
	c-2.2-0.4-4.5-0.3-6.8-0.5c-2.3-0.2-4.6-0.5-6.9-1c-4.7-1.1-9.6-2.7-14.4-3.8c-2.4-0.6-4.7-1.1-7.1-1.6c-9.7-1.9-19-3.8-28.5-7.1
	C34,89,28.2,86.2,24.5,83c-3.3-3.1-6.2-6.6-8.6-10.4c-2.5-3.8-4.7-7.3-7-10.9C5.4,56.1,2,50.5-3.6,45.8c-2.2-1.7-4.5-3.1-7-4.3
	c-25.9-13.5-52.9-27.5-78.8-41L-87.5-3.1z"/>
<path class="st0" d="M-90,1.8c23.8,12.4,48.1,25.1,71.9,37.5C-13.4,41.8-7.9,44-4.4,47c6.7,5.7,11.1,12.8,15,19.4
	c2.1,3.5,4.2,6.9,6.5,10c2.4,3.6,5.4,6.7,8.9,9.3c4.1,2.9,8.7,5.1,13.5,6.7c4.3,1.5,8.8,2.8,13.1,3.8c8.5,2,17.2,3.4,26.1,6.4
	c4.4,1.5,8.9,3.3,13.3,4.6c2.2,0.6,4.3,1.2,6.5,1.7c2.3,0.4,4.5,1,6.7,1.8c5.6,2.5,9.3,7,12,10.5c1.4,1.9,2.9,3.8,4.3,5.8
	c1.4,2.1,3.2,3.9,5.1,5.5c4.9,3.8,10.4,3.9,14.8,3.5c7.1-0.8,13.8-1.9,21.3-0.5c2.9,0.7,5.6,1.9,8.2,3.4
	c10.9,5.7,23.1,11.2,33.7,17.2c5.4,3.1,10.6,6,16.1,9c5.5,3,11,6,16.8,8.7c5.7,2.6,11.3,5.5,16.9,8.4c28.4,14.8,57.1,29.6,85.4,44.3
	c5.3,2.8,10.8,5.5,15.9,8.4c0.2,0.1,0.9,0.2,0.8,0.7c-0.4,0.4-0.4,1.1-0.7,1.4c-0.4,0.4-0.2,0.3-0.8,0.1c-0.2-0.1-0.5-0.3-1-0.5
	c-31-16.1-61.4-32-92.1-48c-5.2-2.7-10.4-5.5-15.6-7.9c-5.3-2.5-10.4-5-15.4-7.6c-10.2-5.3-19.9-11.3-29.5-16.6
	c-10.2-5.6-20.8-10.7-31-15.6c-2.4-1.3-4.9-2.2-7.5-3c-2.2-0.5-4.5-0.7-6.8-0.7c-4.3,0.1-8.5,0.6-12.7,1.4c-2.1,0.4-4.2,0.5-6.3,0.8
	c-2.2,0.2-4.5,0-6.6-0.6c-5-1.4-8.5-6-11-9.3c-2.6-3.5-5.2-7.4-8.5-10.3c-1.9-1.8-4-3.3-6.4-4.5c-2.4-1-4.9-1.9-7.4-2.7
	c-5.2-1.7-10.1-3.7-14.9-5.8c-4.7-2.1-9.6-3.7-14.7-4.8c-9.1-2.1-18.9-3.9-28.5-7.2c-5.2-1.7-10.1-4.1-14.7-7.1
	c-3.7-2.8-7-6.2-9.7-10.1c-2.6-3.5-4.9-7.2-7.3-10.8C3.9,60.5,0.2,55.3-5.8,50.7c-2.3-1.6-4.8-3-7.3-4.2
	C-39.3,32.9-65.9,19.2-92,5.6L-90,1.8z"/>
<path class="st0" d="M-92.6,6.8c26.7,13.8,52.5,27.4,78.6,41c2.6,1.2,5.1,2.6,7.5,4.2c6.2,4.5,9.8,10,13.6,15.5
	c2.5,3.6,4.8,7.3,7.5,10.8c2.7,3.8,6,7.2,9.8,10.1c4.5,3.1,9.5,5.5,14.7,7.2c9.7,3.3,19.4,5.2,28.6,7.4c5.2,1.3,10.2,3.2,14.9,5.6
	c5.1,2.7,10.3,5.5,15.4,7.9c2.6,1.2,5.1,2.5,7.5,4c1,0.7,1.9,1.5,2.8,2.4c4.6,4.1,7.1,8.8,10.3,13.3c2.3,3.1,6.1,7.9,11.3,8.6
	c4.3,0.6,8.5-0.6,12.7-1.5c6.1-1.4,12.4-2.9,19-1.8c2.6,0.5,5,1.3,7.4,2.4c10.1,4.6,21,9.7,30.8,15.4c10,5.8,19.1,12,28.8,17.1
	c10.1,5.3,20.6,9.4,31,14.8c31.3,16.3,63.1,32.6,94.4,49c0.2,0.5-0.6,1.3-0.8,1.9c-0.2,0.4-0.7-0.1-0.8-0.1c-0.3-0.2-0.7-0.4-1-0.5
	l-61.3-31.9c-10.6-5.5-21.3-10.9-31.5-16.5c-5-2.8-10.3-4.8-15.4-7c-5.3-2.3-10.4-4.8-15.4-7.6c-9.5-5.3-18.6-11.7-28.3-17.5
	c-5-2.9-10.3-5.6-15.4-8.3c-5.1-2.7-10.4-5.1-15.5-7.1c-12.2-4.9-22.3,0-32.4,2.1c-4,0.9-8.8,1.8-13.5-1.9c-1.9-1.5-3.1-3.5-4.6-5.2
	c-2.9-3.4-4.7-7.2-7.6-10.7c-1.6-1.8-3.3-3.4-5.1-4.9c-2.1-1.6-4.3-3.1-6.7-4.4c-4.5-2.7-9.3-5.6-14.2-8.6
	c-4.7-2.9-9.8-5.2-15.1-6.8c-4.6-1.3-9.4-2.2-14.3-3.4c-9.4-2.2-19.7-4.4-29.4-10.3c-4.7-2.9-7.8-6.1-11-9.8c-2.9-3.3-5.3-7-8-10.7
	C2.4,65.4-1.2,60-7.8,55.6c-2.5-1.5-5-2.8-7.6-4.1c-26.6-13.9-52.2-27.2-79.1-41L-92.6,6.8z"/>
<path class="st0" d="M-97.1,15.4l2-3.8c28.7,15,55.4,28.9,83.1,43.3c4.8,2.5,9,5.9,12.4,10c6.3,7.1,10.8,15.4,17.8,22.2
	c4.2,3.8,9,6.9,14.2,9.1c10.7,4.7,20.7,6.1,30.6,8.7c2.6,0.7,5,1.2,7.6,2c5.2,1.6,11.2,5.3,15.4,8.3c2.2,1.6,4.3,3.2,6.6,4.9
	c6.8,5,13.1,9.8,17,15.5c1.3,1.9,2.4,3.9,3.6,5.8c1.1,1.8,2.5,3.7,3.8,5.7c0.3,0.5,0.5,1,0.9,1.5c0.4,0.5,0.8,0.9,1.2,1.3
	c4.9,5.3,11.2,3.7,16.1,2.4c4.3-1.1,8-2.6,11.7-3.6c4-1.2,8.1-1.9,12.2-2.1c4.3,0,8.8,1.6,14.2,3.9c10.2,4.5,20.1,9.8,29.5,15.8
	c9.2,5.9,16.9,12.1,26.5,17.4c9.5,5.3,19.8,7.8,29.7,13c30.6,15.9,62,31.9,92.5,48.1l-0.9,1.8c-0.2,0.4-0.7-0.1-0.8-0.1
	c-0.4-0.2-0.7-0.4-1-0.5c-26.2-13.6-52.5-27.4-78.6-41c-5.4-2.8-10.6-5.7-16-7.9c-5.1-2.1-10.1-3.8-15.2-5.9
	c-5.3-2.2-10.4-5-15.2-8.2c-8.3-5.5-17.2-12.5-26.8-18.5c-5-3.1-10.2-6-15.5-8.5c-5.3-2.5-10.6-5.1-15.6-6.5
	c-9.6-2.7-17.8,0.9-25.9,3.7c-2,0.7-4,1.4-6.1,2.1c-2,0.7-4.2,1.1-6.3,1.4c-0.5,0.1-1,0.2-1.6,0.3c-0.5,0-1.1-0.1-1.7-0.2
	c-2.6-0.3-5-1.5-6.8-3.4c-2.2-2.5-4.2-5.2-5.8-8.2c-2.2-3.9-4.8-7.6-7.8-11c-1.6-1.8-3.3-3.4-5.1-5c-3.5-3.3-7.3-6.5-11.4-9.9
	c-4.2-3.6-8.8-6.7-13.7-9.2c-2.4-1.1-4.9-1.9-7.5-2.5c-7.3-1.8-14.7-3.4-21.9-5.4c-9.9-2.7-21.2-7.2-28.6-14.7
	C9.3,81.2,4.4,73.1-2.3,66.5c-1.8-1.8-3.8-3.4-5.8-4.8c-2.5-1.6-5.1-3-7.8-4.3C-42.9,43.4-69.8,29.7-97.1,15.4z"/>
<path class="st0" d="M-99.7,20.3l2-3.8C-71.8,30-46.6,43.3-21,56.6c4.6,2.4,8.9,4.3,12.5,6.7c3.3,2.2,6.3,4.9,8.9,8
	c4.9,5.6,8.9,11.5,14.1,16.9c2.9,2.9,6.2,5.5,9.7,7.6c3.9,2.3,8.1,4.3,12.4,5.8c7.8,2.7,15.6,4.3,23.4,6.2c3.9,0.9,7.9,1.7,11.7,3.4
	c8.2,3.6,14.4,10.1,19.5,15.1c5.4,5.1,10.1,10.7,14.1,16.9c1.9,3,3.2,6.2,5,9.2c1.9,3.3,3.2,6.1,6.9,8.5c3.7,2.4,7.7,1.8,10.9,0.8
	c9.5-3,19.2-8.3,29.2-9.2c3.8-0.3,7.7,0.3,11.2,1.6c8.6,3.1,16.9,7.1,24.7,12c7.2,4.6,14.1,9.5,20.8,14.9
	c6.4,5.1,12.9,10.6,21.6,14.5c2.3,0.7,4.4,1.6,6.7,2.4c6.7,2.2,13.4,3.9,20.4,7.6c28.5,14.8,57.6,29.9,86,44.6
	c0.4,0.4-0.6,1.3-0.7,2c-0.2,0.4-0.7-0.1-0.8-0.1c-0.3-0.2-0.7-0.4-1-0.5c-26.7-13.9-53.8-28.1-80.4-41.9
	c-5.1-2.7-10.4-4.8-15.8-6.4c-5-1.5-10.1-2.7-15.3-5.2c-5-2.5-9.7-5.6-14.1-9.2c-4.1-3.3-8-6.6-12.1-9.9c-4-3.2-8.3-6.3-13.2-9.5
	c-5-3.2-10.3-6.1-15.6-8.7c-5.3-2.7-10.8-4.8-15.6-5.7c-4.5-0.8-9.1,0-13.4,1.2c-8.7,2.4-16.3,7-24.7,9.1c-3.1,0.8-7.1,1.1-10.5-1
	c-1.6-1-3.1-2.2-4.3-3.7c-1-1.4-2-2.8-2.8-4.3c-1.1-2-2.2-4.1-3-5.9c-0.4-0.9-1-1.9-1.5-2.9c-1.6-3-3.5-5.9-5.7-8.6
	c-2.7-3.5-5.8-7.1-9.1-10.8c-1.6-1.8-3.4-3.5-5.2-5.2c-1.8-1.8-3.7-3.6-5.8-5.1c-4.5-3.2-9.6-5.4-15-6.6c-5-1.3-10-2.3-14.9-3.5
	c-11-2.4-21.4-7-30.7-13.4c-4.1-2.9-7.2-6.8-10.4-10.5c-3-3.7-6.3-7.3-9.7-10.6c-1.8-1.9-3.9-3.5-6-5c-2.4-1.5-5.2-2.7-8.1-4.2
	C-44.7,48.8-71.6,34.8-99.7,20.3z"/>
<path class="st0" d="M-102.2,25.2l2-3.8c28.4,14.9,55.6,29,83.7,43.6c5.7,3,10.8,5.9,14.2,9.5C4.7,82.1,10,89.7,18.9,96
	c15.7,11.1,31.4,12.7,46.3,16.6c5.4,1.4,10.4,4.1,14.5,8c3.6,3.4,6.9,7,9.8,10.9c2.9,3.8,6,7.5,8.2,11.4c2.1,3.8,3.4,8.1,5.1,12.3
	c0.7,2.1,1.7,4.2,2.8,6.1c1.3,2.1,2.9,3.9,4.9,5.5c4.6,3.5,10.3,3.4,14.4,2.3c4.2-1.1,8.6-3.2,12.4-5c8.1-3.7,16.7-7.5,26-6.5
	c9.3,1,22.1,7.7,31.4,14c9.6,6.5,16.6,13.3,24.3,20.4c3.9,3.8,8.3,7.1,13,9.9c2.6,1.3,5.2,2.4,8,3.1c2.5,0.8,5,1.4,7.6,1.9
	c5.4,0.9,10.6,2.5,15.5,4.7c5.4,2.5,10.9,5.7,16.8,8.7c16.8,8.7,33.3,17.2,50.1,26c5.2,2.7,10.7,5.3,15.7,8.1
	c0.2,0.1,0.9,0.2,0.8,0.7c-0.5,0.6-0.6,1.7-1,1.7c-0.4,0-1.1-0.6-1.6-0.8L278.5,222c-5.8-3-11.5-6.1-16.7-8.5
	c-5.3-2.4-10.4-3.3-15.4-4.3c-5.1-1-10.2-2.1-15.6-5.3c-1.2-0.7-2.2-1.6-3.3-2.4c-1.1-0.8-2.3-1.7-3.3-2.5
	c-5.9-5.1-10.9-10.5-16.7-15.7c-8.4-7.7-17.9-14.1-28.2-19c-5.4-2.5-10.9-4.7-15.7-5.1c-9.6-0.9-17.9,3.1-26,6.8
	c-3.9,1.8-8.1,4.2-12.4,5.2c-5.4,1.3-12.1,1.7-17.9-2.9c-2.8-2.2-5-5.1-6.5-8.4c-0.5-0.9-1-1.9-1.4-2.9c-1.2-3.2-2.4-6.3-3.6-9.5
	c-0.8-2.1-1.7-4.2-2.7-6.2c-1.1-2-2.3-3.9-3.7-5.8c-2.6-4-5.6-7.8-8.8-11.3c-3.8-3.8-8.3-7.3-13.9-9c-2.5-0.8-5-1.3-7.6-1.8
	c-2.5-0.6-5-1.3-7.7-1.9c-11.2-2.3-21.9-6.6-31.6-12.7c-4.5-2.9-8.6-6.2-12.4-10C2.2,83.8-2.2,77.8-9.4,73.4
	c-2.5-1.5-5.4-2.9-8.3-4.4C-45.8,54.4-74.1,39.9-102.2,25.2z"/>
<path class="st0" d="M-104.8,30.2l2-3.8C-74,41.3-46.1,56-17.7,70.8c3,1.6,5.9,2.9,8.4,4.5c7.4,4.6,11.7,10.9,17.2,15.9
	c4.1,3.7,8.6,7.1,13.3,10.1c10.4,6.7,21.9,10.1,32,12.4c2.5,0.6,5.1,1.1,7.6,1.7c2.6,0.5,5.2,1.2,7.8,2c2.7,1.2,5.2,2.8,7.5,4.8
	c1.9,1.7,3.7,3.5,5.3,5.5c3.1,3.6,5.7,7.5,7.9,11.7c1,2,1.8,4.2,2.5,6.4c1,3.2,1.6,6.7,2.5,9.9c0.8,3.3,2.1,6.4,3.9,9.3
	c1.5,2.1,3.2,3.9,5.1,5.5c3.2,2.7,7.1,4.4,11.3,4.8c5.8,0.6,11.7-0.4,16.9-2.9c10.2-4.8,20.5-11.3,32.4-10.1
	c9.8,1,22.5,7.7,31.3,14.2c8.9,6.5,16,14.1,22.4,21.4c3.3,3.9,7,7.5,11.1,10.7c3.5,2.4,7.5,4,11.6,4.7c6.2,1.2,12.3,1.3,18.8,3.2
	c5.4,1.5,10.7,4.8,16.8,7.9c17,8.8,34.2,17.7,51.1,26.5c5.3,2.7,10.9,5.4,16,8.3c0.2,0.1,0.9,0.2,0.8,0.7l-0.9,1.8
	c-23.3-12.1-45.2-23.6-68-35.5c-5.9-3.1-11.3-6-16.6-7.3c-3.7-0.8-7.4-1.3-11.2-1.7c-1.2-0.1-2.4-0.4-3.7-0.6
	c-2.6-0.1-5.1-0.6-7.6-1.4c-2.8-1-5.4-2.4-7.8-4.1c-4.2-3.2-7.3-7.1-10.5-11c-6.3-7.4-13-15.1-21.8-21.7
	c-8.4-6.3-21.2-13.6-31.1-14.5c-9.9-0.9-18.1,2.8-26.3,7.1c-4.2,2.2-8.2,4.4-12.6,5.3c-4.6,1.1-9.5,1.2-14.2,0.3
	c-2.8-0.5-5.4-1.5-7.9-3c-2.3-1.5-4.5-3.2-6.5-5.1c-1.9-1.8-3.1-4.4-4.5-6c-0.2-0.4-0.4-0.8-0.5-1.2c-0.8-1.5-1.4-3.1-1.8-4.7
	c-0.3-1.1-0.7-2.2-1-3.2c-0.2-1.2-0.4-2.3-0.7-3.4c-0.3-1.1-0.4-2.2-0.6-3.4c-0.2-1.1-0.5-2.3-0.8-3.4c-1-4.5-3.4-8.4-6.2-12.3
	c-2.8-3.9-6.5-8.1-11.3-10.6c-2.5-1.1-5.2-2-7.9-2.5c-7.8-1.9-15.2-3.1-23.3-6c-11.3-4.1-22.4-11.3-30.5-17.9
	C4,91,0.3,87.4-3.7,83.8c-2.1-1.9-4.4-3.6-7-4.9C-41.9,62.6-73.4,46.4-104.8,30.2z"/>
<path class="st0" d="M-107.3,35l2-3.8C-78.3,45.5-50.4,59.9-23,74.2c4.8,2.5,9.5,4.8,13.6,7.2c4.1,2.4,7.2,5.5,10.3,8.3
	c6.6,6.1,13.8,11.5,21.5,16.2c8.2,4.8,17,8.5,26.2,10.9c4.1,1,8.1,1.8,12.4,2.8c2.1,0.4,4.2,0.9,6.3,1.6c6.9,2.6,10.9,8.1,13.7,12.6
	c2,3.2,3.3,6.6,4,10.3c0.4,1.8,0.4,3.6,0.6,5.4c0.2,1.9,0.1,3.7,0.4,5.6c0.3,1.8,0.7,3.5,1.2,5.2c1.7,5.1,5.5,9.9,10.6,13.9
	c7.9,6,17.1,6.8,24.1,6.1c3.7-0.4,7.2-1.3,10.7-2.6c3.4-1.5,6.7-3.2,9.9-5.1c3.2-1.8,6.6-3.3,10.2-4.3c7.1-2.1,14.8-1.6,23.6,1.9
	c4.6,1.9,8.9,4.2,13,7c11.6,7.7,19.4,16.9,26.2,26.2c2.2,3,4.5,6.1,7.1,9.2c1.2,1.6,2.5,3.1,4.1,4.5c0.4,0.3,0.9,0.5,1.3,0.9
	c2.4,1.8,5.1,3.1,8,3.8c1,0.2,2.1,0.3,3.1,0.3c2.1,0.1,4.1,0.4,6.1,0.4c4.1,0,8.1,0.4,12.2,1c2.2,0.3,4.3,0.8,6.4,1.5
	c2.4,1,4.7,2.1,7,3.3c21.2,11,42.6,22.2,64,33.3c1.7,0.9,4.7,2.1,6.1,3.2c0.5,0.4,0.3,0.1,0.2,0.7c-0.1,0.5-0.4,0.6-0.6,1.2
	c-0.2,0.4-0.6,0-0.8-0.1c-0.3-0.1-0.6-0.3-0.9-0.5c-19-9.9-38-19.8-56.9-29.6c-5.1-2.6-9.7-5.4-14.5-7.6c-4.2-2-8.7-3.1-13.4-3.4
	c-3.9-0.3-7.8-0.2-12.2-0.3c-4.3-0.1-8.6-0.7-12.9-3.4c-3.7-2.3-6.8-6.5-9.3-10.1c-2.6-3.7-4.9-7.3-7.5-10.6
	c-8.1-10.6-17.5-21-33.5-28.4c-15.7-7.3-26.7-3.6-38.1,3.5c-3.6,2.1-7.5,3.7-11.5,4.6c-4.1,1.1-8.4,1.5-12.7,1.3
	c-7.6-0.1-14.9-2.6-21.1-7.1c-2-1.4-3.8-3-5.5-4.8c-2.9-3.3-5.7-7-6.8-10.9c-0.6-2-0.9-4.1-1.2-6.2c-0.7-6.4,0.4-13-3.3-18.6
	c-2.4-3.6-5.2-7.6-9.8-10c-3.1-1.6-7.1-2.2-10.6-3c-7.2-1.6-13.9-2.9-21.4-6.1C20.8,108.8,7.7,98.7-3.6,89.8
	c-3.3-2.4-6.7-4.6-10.4-6.3C-45,67.3-76,51.4-107.3,35z"/>
<path class="st0" d="M-109.9,40l2-3.8c11.7,6.1,23.4,12.2,35.1,18.3c11.7,6.1,23.2,12.3,34.6,18.3c5.8,3,11.5,6.2,17.4,9
	c5.8,2.5,11.4,5.6,16.6,9.2c4.7,3.4,9.1,7,13.7,10.3C19,108,30.7,115.2,42,119c5.2,1.6,10.5,3,15.9,4c2.7,0.5,5.3,1.2,7.9,2
	c2.8,0.9,5.2,2.5,7.2,4.7c3.6,3.9,5.6,7.6,6.2,12.7c0.1,1.2,0.1,2.4,0.1,3.6c-0.1,3.1-0.3,6.4-0.3,9.1c0,0.6,0.2,1.2,0.3,1.8
	c0.1,1.2,0.3,2.3,0.7,3.4c0.3,1.1,0.7,2.2,1.2,3.3c1.2,2.2,2.6,4.2,4.2,6c1.7,2,3.6,3.8,5.5,5.5c2.3,1.9,4.8,3.5,7.4,5
	c5.3,3,11,3.9,15.9,4.3c10.4,0.8,18.5-1.2,27.6-5.2c4.4-2,8.4-4.4,12.7-6c4.6-1.6,9.5-1.9,14.3-1c11.5,2.2,22.4,10,29.8,17.1
	c7.1,7,13,15,17.7,23.7c1.1,2,2.4,4.1,3.6,6.1c2.3,3.9,5.6,8.8,11.3,10.8c1.3,0.4,2.6,0.6,3.9,0.6c1.3,0.1,2.5,0.2,3.7,0.2
	c9.7-0.1,18.5-3.3,30.1,2.8c17.7,9.2,35,18.1,52.4,27.2c5.4,2.8,11.2,5.6,16.4,8.6c0.2,0.1,0.9,0.2,0.8,0.7c-0.5,0.7-0.6,1.6-1,1.6
	c-0.6-0.2-1.2-0.5-1.7-0.9l-50.3-26.2c-5.8-3-11.7-6.3-17.5-9c-7.2-3.3-13.4-3.2-19-2.8c-5.8,0.4-11.9,1.9-18.3,0
	c-2.1-0.7-4-1.8-5.6-3.3c-0.5-0.4-0.8-1-1.3-1.5c-3.3-3.5-5.4-7.9-7.7-12.1c-2.3-4.2-4.6-8.2-7.3-12.2c-2.9-4.2-6-8.1-9.6-11.7
	c-6.7-7-17.9-15.4-29.3-17.8c-4.8-1-9.7-0.7-14.4,0.7c-2.2,0.8-4.4,1.7-6.4,2.8c-6.4,3-13.1,6-19.7,7.2c-4.7,0.8-9.5,1.1-14.3,1.1
	c-5.4-0.1-10.7-1.2-15.7-3.4c-5.3-2.4-10.2-5.7-14.4-9.7c-3.7-3.3-6.6-7.4-8.5-11.9c-0.8-2.2-1.3-4.5-1.4-6.9
	c-0.4-4.7,1-10.4,0-14.6c-1-4.1-4.1-9.3-9.8-11.3c-8-2.8-15.7-3.3-24-6.4c-5.9-2.3-11.6-5-17-8.2c-5.2-3-10.4-6.1-15.5-9.6
	c-4.9-3.3-9.7-7-14.8-10c-2.7-1.6-5.7-2.9-8.5-4.3c-8.6-4.5-17.3-8.2-26-12.9C-51.6,70.5-63,64.2-74.6,58.2
	C-86.3,52.1-98.3,46-109.9,40z"/>
<path class="st0" d="M-112.4,44.8l1.9-3.7c14.1,7.3,28.3,14.7,42.3,22c9.3,4.8,18,10.2,27.2,15c4.6,2.4,9.2,4.8,13.9,7
	c4.6,2.2,9.2,4.5,13.8,6.7c4.6,2.1,9,4.6,13.2,7.4c8.1,5.2,15.9,10.7,24.7,15.8c8.4,5,17.5,8.7,27,11.1c4.4,1.1,8.5,1.7,12.9,3.3
	c7.1,2.6,9.6,8.8,9.3,14.4c-0.1,2-0.5,4-0.7,6.1c-0.4,4.2-0.3,7.8,1,11.4c1.4,3.6,3.5,7,6.2,9.8c2.9,3.3,6.2,6.2,9.8,8.7
	c7.5,5.2,16.3,8.1,25.3,8.4c11.9,0.7,23.1-2.4,33.4-6.5c3.5-1.4,6.9-3.1,10.5-4.1c7.6-2,16.1-0.2,25,5c8.5,4.9,14.5,11.4,19.3,17.5
	c4.9,6.2,8.3,13.3,11.3,20.1c1.4,3.5,3,7,4.8,10.3c1.9,3.4,4.4,7,9.3,8.5c0.5,0,1,0,1.5,0.2c3.8,0.6,7,0.1,10.4-0.5
	c7.6-1.3,15.2-3.2,23.8-0.7c4.4,1.3,9,4.4,14.2,6.8c9.5,4.4,19.1,9.8,28.8,14.9l14.4,7.5c4.5,2.3,9.3,4.5,13.5,7
	c0.1,0.1,0.8,0.2,0.6,0.6l-0.9,1.7c-19.9-10.2-38.9-20.3-58.9-30.7c-2.6-1.4-5-2.6-7.3-3.7c-7.4-3.4-13.1-3.1-19.2-2.2
	c-1.9,0.3-3.9,0.5-5.9,0.9c-5.5,1.1-12.2,3.3-18.3,0c-4.2-2.3-5.9-6.1-7.6-9.3c-1-1.9-1.9-3.8-2.6-5.8c-4.8-12-10.1-23.5-20.8-33.3
	c-3.9-3.6-8.2-6.8-12.8-9.3c-4.9-2.6-10.1-4.2-14.7-4.2c-4.3,0.1-8.5,1.1-12.5,2.7c-7.5,2.9-16.4,5.9-24.4,7.2
	c-4.3,0.7-8.7,1-13.1,0.9c-9-0.1-18.7-1.9-28.8-8.8c-4.1-2.8-7.8-6.1-11.1-9.8c-3.8-4.2-6.9-9.1-7.5-14.3c-0.2-1.1-0.3-2.1-0.4-3.2
	c0.1-5.6,2-11.8-0.7-16.5c-0.8-1.4-2-2.5-3.4-3.3c-1.3-0.8-2.6-1.5-4-2c-5.3-1.9-10.9-2.7-16-4.4c-7.2-2.3-15-6.2-22.5-10.6
	c-6.7-4-14-8.7-21.1-12.8c-3.7-2.1-7.4-4.3-11.3-6.1c-7.7-3.5-15.1-6.4-22.7-9.9c-12-5.6-22.7-12.4-33.5-18.6
	C-80.6,60.8-97,53.2-112.4,44.8z"/>
<path class="st0" d="M-115,49.8l2-3.8L-90,58c7.7,4,15.4,7.9,22.6,12.2c7,4.2,14.1,8.5,21.3,12.6c7.2,4.1,14.7,7.7,22.5,10.9
	c3.6,1.5,7.3,3,11.1,4.6c3.9,1.6,7.6,3.4,11.3,5.5c7,4.3,14.1,8.4,21,12.5c7.1,4.4,14.6,8.1,22.3,11.2c3.5,1.3,7.1,2.4,10.7,3.3
	c1.7,0.5,3.5,0.9,5.3,1.5c1.9,0.6,3.7,1.3,5.4,2.2c5.1,3.1,5,7.7,4.6,12.5c-0.4,5-0.7,9.4,0.6,13.6c2.6,8.2,10,15.9,18.8,22
	c4.7,3.3,9.9,5.8,15.5,7.3c14.9,3.8,28.7,1.5,41.3-1.9c4.2-1.1,8.6-2.2,12.9-3.5c4.1-1.2,8.8-2.4,13.3-2c10.2,0.8,21.6,9.2,27.1,16
	c3,3.6,5.7,7.4,8.1,11.4c2.2,3.9,4,8,5.4,12.2c1.3,4.1,2.8,8.2,4.2,12.6c0.7,2.1,1.6,4.2,2.7,6.1c1.1,2.2,2.7,4.1,4.6,5.5
	c2.1,1.4,4.5,2.1,6.9,2.1c4.5,0.1,8-1,12-2.1c5.9-1.6,11.7-3.2,18-3c4.5,0.1,8.8,1.9,14.2,4.7l56.7,29.5c1.2,0.5,2.3,1.1,3.4,1.7
	c0,0.6-0.2,1.2-0.6,1.6c-0.4,0.3-0.3,0.2-0.7,0c-0.2-0.1-0.8-0.4-0.9-0.5c-18.7-9.7-37.6-19.5-56-29.1c-2.6-1.4-4.9-2.6-7.1-3.6
	c-4-1.7-8.3-2.4-12.6-2c-7.8,0.5-15.1,3.8-22.4,5.1c-2,0.4-4,0.5-6,0.3c-2.1-0.3-4.1-1.1-5.8-2.2c-1.9-1.4-3.5-3.3-4.5-5.5
	c-1-2-1.9-4-2.7-6.1c-2.3-6.3-3.6-12.7-6.1-18.9c-2.6-6.3-6.1-12.2-10.3-17.6c-3.2-4-7-7.5-11.3-10.3c-5-3.4-10.4-5.5-15.4-6
	c-4.6-0.4-9.1,0.7-13.4,1.7c-8.5,2-17.6,4.1-26.1,5.6c-4.5,0.7-9,1.1-13.5,1.1c-9.1,0.1-19.4-1.4-29.9-8c-4.5-2.8-8.7-6.2-12.5-9.9
	c-5.6-5.6-9.4-10.7-10.8-17.4c-0.4-2.2-0.7-4.5-0.7-6.7c0.1-2.3,0.1-4.6-0.1-6.9c-0.2-2.3-1.2-4.5-2.9-6.1c-2.3-1.8-4.8-2.6-7.5-3.5
	c-5.3-1.9-10.7-3.3-16.1-5.9c-7.4-3.4-15-7.6-22-11.7c-7.1-4.3-14.4-8.1-21.9-11.6c-7.3-3.2-14.6-5.6-21.6-8.3
	c-7.6-3-14.9-6.6-21.9-10.8c-6.8-4.1-13.4-8.6-20.1-12.7C-83.9,65.2-100.1,58-115,49.8z"/>
<path class="st0" d="M-117.5,54.7l1.9-3.7c12.2,6.7,24.4,12.2,36,18.7c11.2,6.3,21.4,13.6,32,20.1c11.4,6.9,22.9,10.6,34.4,14.6
	c6,2.2,11.9,4.8,17.5,7.8c5.8,3,11.4,6.5,17.3,9.6c9,4.7,17.9,9.4,26.3,12.3c2.9,0.9,5.8,2,8.6,3.4c2.5,1.1,4.4,3.3,5.3,5.9
	c0.3,1.2,0.4,2.4,0.5,3.6c0.1,1.2,0,2.6,0.1,3.8c0.2,4.9,0.9,10,3.1,14.1c2.5,4.5,5.6,8.6,9.4,12.1c4.2,4.1,8.8,7.7,13.8,10.7
	c5.3,3.1,11,5.3,17,6.5c16,3,30-0.6,44.2-3.2c4.6-0.9,9.5-1.5,14.4-2.1c5.3-0.8,10.7-0.2,15.7,1.9c5.4,2.4,10.3,5.9,14.2,10.3
	c9.2,9.8,12.8,21.1,15.4,32.8c0.5,2.4,1.2,4.6,1.7,7c1,4.7,2.5,9.3,6.1,13.1c1,1.1,2.1,2,3.4,2.7c1.3,0.6,2.7,0.9,4.1,1
	c2.5,0.1,4.9-0.2,7.3-0.9c11.6-2.6,22.4-10.4,36.2-4.8c2.9,1.2,5.8,2.9,9,4.6c12.1,6.3,23.9,12.4,36.1,18.6
	c5.6,2.9,11.5,5.7,16.8,8.8c0.2,0.1,1,0.2,0.8,0.7c-0.6,0.8-0.5,1.7-1.1,1.6c-0.6-0.2-1.2-0.5-1.7-0.9c-17.7-9.2-34.4-18-51.8-27
	c-2.9-1.6-5.9-3.1-8.9-4.4c-2.6-1-5.3-1.5-8.1-1.6c-4.9-0.1-9.5,1.1-14.1,2.6c-4.6,1.5-9.1,3.5-13.6,4.8c-2.3,0.7-4.8,1-7.2,0.7
	c-2.9-0.2-5.7-1.5-7.8-3.5c-3.8-3.8-5-8.6-6.4-13.1c-1.4-4.6-2.2-9.5-3.2-14.1c-2.2-9.3-5.6-18.1-12.6-26.1
	c-3.8-4.5-8.5-8.2-13.8-10.6c-5.5-2.4-10.8-2.4-15.8-2.2c-5,0.2-9.9,1.2-14.6,1.9c-9.7,1.3-19.2,3.8-28.9,4.1
	c-9.7,0.3-20.7-0.4-32.4-7c-5.1-2.9-9.9-6.4-14.2-10.5c-4-3.4-7.6-7.4-10.5-11.8c-2.5-4.1-4.1-8.8-4.8-13.6
	c-0.7-4.8-0.9-10-5.6-13.4c-2.7-1.7-5.5-3-8.6-4c-2.9-1.1-5.9-2.6-8.8-4c-6-3-12.1-5.9-18-8.9c-6.3-3.3-12.1-6.4-17.9-9
	c-11.7-5.2-22.8-7.4-33.9-11.5c-6.1-2.3-11.9-5.2-17.4-8.7c-10.2-6.4-19.7-14-30.6-20.6C-92.7,66.9-105.8,61.3-117.5,54.7z"/>
<path class="st0" d="M-120.1,59.6l2-3.8c12.3,6.9,24.9,12.2,36.2,19c10.9,6.5,20.1,14.4,30.2,20.9c5.4,3.6,11.2,6.6,17.2,9
	c11.3,4.3,22.5,6.1,33.9,10.9c5.8,2.5,11.8,5.4,18,8.7c8.8,4.6,18,9,26.8,13c3.1,1.4,6.2,2.8,8.4,4.7c4.2,3.6,4.3,8.8,5.3,13.5
	c1,4.8,2.9,9.4,5.5,13.5c3,4.4,6.6,8.4,10.7,11.8c4.5,4,9.3,7.6,14.6,10.6c5.3,3,11.1,5.1,17,6.2c16.2,2.8,30.1-1,44.8-2.8
	c4.9-0.6,9.9-1,14.9-1.1c5.6-0.2,11.2,0.9,16.3,3.3c5.1,2.6,9.6,6.4,12.9,11c2.9,4,5.3,8.4,6.9,13c4.2,11.5,3.7,24.3,8.5,35.4
	c1,2.4,2.5,4.5,4.4,6.2c4.3,3.7,10.1,5,15.5,3.4c4.8-1.3,8.6-4.3,13.2-6.3c4.5-2,9.3-3.2,14.1-3.6c2.6-0.1,5.3,0.2,7.8,0.7
	c2.9,0.6,5.7,2.2,8.8,3.9c12.2,6.3,24.3,12.6,36.4,18.9c5.7,3,11.6,5.8,17.1,8.9c0.2,0.1,1,0.2,0.8,0.7c-0.4,0.6-0.3,0.8-0.6,1.1
	c-0.4,0.4-0.2,0.4-0.9,0.1c-0.4-0.2-0.8-0.4-1.1-0.6c-17.7-9.2-35.3-18.3-52.6-27.4c-3.1-1.6-6.1-3.3-8.8-3.8
	c-2.6-0.5-5.2-0.7-7.8-0.4c-4.9,0.4-9.7,1.8-14,4.2c-4.4,2.4-8.4,5.4-13.2,6.5c-2.5,0.6-5.1,0.7-7.6,0.1c-2.9-0.7-5.7-2.1-7.9-4.1
	c-4.4-3.7-6.1-8.3-7.3-13c-3.5-14.2-2.9-29.6-12.4-41.9c-3.1-4.1-7.1-8.5-12.9-11.2c-5.1-2.3-10.7-3.5-16.4-3.4
	c-5,0-10.1,0.2-15.1,0.7c-5,0.4-9.8,1.4-14.6,2.1c-4.9,0.7-9.9,1.2-14.9,1.5c-5.2,0.2-10.4-0.2-15.6-1c-11.2-1.5-23.7-9.6-31.9-16.8
	c-4.1-3.5-7.8-7.5-11.1-11.9c-2.9-4-5.1-8.5-6.5-13.2c-1.5-4.7-2.3-9.5-6.6-13.2c-4.4-3.7-11.7-6.7-17.2-9.6c-3-1.6-6.1-2.8-9-4.2
	c-9-4.1-17.9-8.3-26.4-11c-5.6-1.8-11.1-3.1-16.7-4.5c-5.7-1.3-11.4-3-16.9-5c-6-2.5-11.7-5.7-17-9.4c-9.9-6.9-18.5-14.5-29.4-21.4
	C-94.6,72.2-107.9,66.3-120.1,59.6z"/>
<path class="st0" d="M-122.6,64.4l1.9-3.6c6.3,3.3,12.4,6.4,18.4,9.6c6.3,3.3,12.4,6.3,17.8,9.8c10.6,6.8,19.2,14.7,28.9,21.7
	c5.2,3.8,10.9,7,16.8,9.6c11.6,4.8,22.5,6.1,33.7,9.4c5.9,1.8,11.7,4,17.4,6.4c9.2,3.7,18.2,7.9,26.9,12.6c2.9,1.5,5.6,3.2,8,5.2
	c4.2,3.6,5,8.3,6.8,13.3c1.7,4.7,4,9.2,6.9,13.2c3.3,4.4,7,8.4,11.2,11.9c4.5,4.1,9.4,7.7,14.7,10.8c10,5.8,21.5,8.6,33,7.9
	c5.2-0.2,10.1-0.7,15-1.3c4.9-0.6,9.7-1.5,14.8-1.9c5.1-0.4,10.2-0.5,15.3-0.2c5.8,0.2,11.6,1.8,16.7,4.5
	c7.1,4.1,12.6,10.5,15.4,18.2c3.6,9.1,3.9,19.4,5.5,29.1c0.4,2.5,0.8,5,1.4,7.3c1.3,4.9,2.8,9.3,7.5,13c6,4.7,14.4,6.7,19.6,4.9
	c0.2-0.1,0.3-0.1,0.5-0.2c5.8-1.9,10.8-7.2,16.1-10.1c4.4-2.4,9.5-3.4,14.5-2.9c3.1,0.5,6,1.6,8.7,3.1c12.1,6.3,24.6,12.7,36.9,19.1
	c5.7,3,11.8,5.9,17.2,9c0.2,0.1,1,0.2,0.8,0.7c-0.6,0.8-0.5,1.6-1.1,1.5c-0.6-0.2-1.2-0.5-1.8-0.9c-5.4-2.8-10.6-5.4-16.2-8.3
	c-12.6-6.6-24.6-12.9-36.9-19.3c-6.3-3.3-11.5-3.4-16.1-2.1c-4.8,1.3-8.7,4.9-12.9,8.3c-1.9,1.7-4.1,3.1-6.4,4.2
	c-2.3,1-4.9,1.3-7.4,1.1c-6.1-0.4-11.9-2.5-16.8-6.2c-4.2-3.1-7-7.8-7.7-13c-0.8-4.7-2-9.5-2.5-14.7c-0.4-5-1.2-9.9-2.1-14.8
	c-2.1-9.5-6.2-19-17.4-25.5c-5.4-3.1-11.8-4-16.9-4.4c-5.1-0.4-10.3-0.3-15.4,0.2c-10.1,0.9-19.9,3.1-30,3.3
	c-11.7,0.4-23.4-2.6-33.4-8.7c-5.2-3.1-10-6.7-14.5-10.8c-6.1-5.2-11.4-11.4-15.5-18.3c-3.7-6.4-5.2-14.3-11.5-19.6
	c-4.5-3.8-10.9-6.9-16.9-9.5c-16.4-7-31.9-10.5-47.1-14.2c-1.4-0.3-2.8-0.5-4.1-0.8c-5.9-1.4-11.6-3.3-17.2-5.5
	c-5.9-2.6-11.4-6-16.4-10c-9.4-7.3-17.4-15.1-27.8-22.2C-96.8,77-110.8,71.1-122.6,64.4z"/>
<path class="st0" d="M-125.1,69.2l1.9-3.6c12.7,7,25.5,12.5,36.2,19.7c2.5,1.7,4.8,3.7,7.2,5.5c6.9,5.6,13.6,11.6,20.4,17
	c4.9,4.1,10.4,7.5,16.2,10.2c5.7,2.3,11.5,4.2,17.4,5.7c11.5,3,22.7,5.5,33.9,8.5c10.8,2.9,24.6,7.2,34,15.2
	c4.2,3.6,6.4,8.4,8.5,12.9c2.1,4.7,4.7,9.1,7.8,13.2c6.5,8.4,15.7,16.3,26.1,22.9c10.1,6.4,21.8,9.6,33.7,9.2
	c5.1-0.1,10.1-0.5,15.2-1.2c10.1-1.4,19.6-2.8,30.7-1.6c5.2,0.6,12,2.2,17.2,5.8c15.8,10.8,14.4,26.6,16.3,41.6
	c0.3,2.6,0.4,5.2,0.5,7.7c-0.1,2.5,0.1,5,0.4,7.5c1,4.9,4.8,8.9,9.9,12.4c5.2,3.6,11.2,6,17.4,7c5.5,0.8,10.5,0,14.7-3
	c4.2-3.1,7.5-8.5,12-11c2.1-1.3,4.5-2.1,7-2.3c2.6-0.2,5.3,0.4,8.4,1.8c6,2.6,12.2,6.1,18.6,9.5c10.8,5.6,21.8,11.1,32.6,16.7
	c1.6,0.6,3,1.5,4.4,2.4l-0.8,1.6c-0.2,0.3-0.1,0-0.1,0c-0.4-0.3-0.9-0.5-1.4-0.7c-13.8-7.2-27.6-14-41.2-21
	c-4.8-2.5-9.5-5.4-14.2-7.2c-5-1.9-9.6-0.2-13.3,2.5c-2,1.6-3.8,3.4-5.4,5.4c-1.6,1.8-3.4,3.5-5.4,5c-3.8,3-8.3,3.6-13.1,3.2
	c-5.1-0.4-10.1-2.2-15.4-4.8c-5.1-2.3-9.7-5.7-13.4-9.9c-3.4-3.9-4.2-7.9-3.9-12.9c0.1-2.4,0.2-4.7,0-7.1c-0.1-2.3-0.5-4.6-0.7-6.9
	c-1.2-13.6-1.9-28.2-17-37c-4.8-2.7-10.1-4.4-15.6-5c-4.7-0.5-9.5-0.6-14.2-0.3c-4.6,0.3-9.1,1.1-13.6,1.8
	c-4.5,0.6-9.1,1.2-13.7,1.4c-10.2,0.7-20.5-1.1-29.9-5.1c-5.3-2.4-10.3-5.4-14.9-9c-4.3-3.2-8.3-6.6-12.2-10.3
	c-3.5-3.4-6.8-7.1-9.8-11.1c-2.7-3.8-5.1-7.7-7.2-11.9c-2.2-4.3-5.3-8.1-9-11.2c-4.5-3.6-9.7-6.2-15.3-7.7c-5-1.3-10-2.3-15.1-3
	c-5-0.8-10.1-1.9-15.2-3.2c-10.4-2.7-20.7-5.4-31.3-9.4c-5.7-2-11.1-4.6-16.2-7.7c-4.7-3-8.6-6.6-12.6-10.2
	c-8.1-7.2-15-13.9-24.6-20.4C-101.7,80.7-114.2,75.3-125.1,69.2z"/>
<path class="st0" d="M-127.4,73.7l1.8-3.4c6.2,3.4,12.6,6.6,18.7,9.8c6,3,11.8,6.4,17.3,10.3c4.7,3.6,9.2,7.4,13.5,11.4
	c3.7,3.4,7.6,6.8,11.2,10.2c0.5,0.5,1,1,1.5,1.5c4.8,4.2,10.2,7.7,16.1,10.5c5.8,2.7,11.8,4.9,17.9,6.8c5.7,1.9,11.5,3.5,17.3,5.1
	c5.6,1.7,11.3,3.1,17,4.1c5.5,0.9,10.9,1.2,16.4,2.4c3.1,0.6,6,1.6,8.8,3c9.1,4.5,13.8,11.4,17.3,17.9c5.3,9.5,12.3,18,20.6,24.9
	c4.6,4.1,9.5,7.8,14.7,11.1c10.3,6.4,22.1,9.8,34.2,10c10.6,0.1,20.2-2.2,30.5-2.9c5.3-0.4,10.6-0.2,15.9,0.7c6.2,1,12.1,3.6,17,7.4
	c2.2,1.7,4,3.8,5.6,6c3,4.4,4.1,9.2,4.9,14.2c0.4,2.5,0.4,5,0.6,7.5c0.1,1.8,0.3,3.8,0.4,5.7c0,0.6,0.2,1.3,0.2,1.9
	c0,2.7-0.2,5.4-0.7,8.1c-0.4,2.8-1.2,5.7-1.1,8.1c0.1,2.5,0.9,5,2.4,7.1c0.7,1.1,1.4,2.2,2.2,3.2c6.5,7,18.1,13.5,28.5,16.4
	c5.8,1.6,11.3,2.1,15.9,0.7c2.5-0.7,4.8-2,6.7-3.7c3.7-3.6,7.6-10.2,11.8-12.5c2.3-1.3,4.9-1.7,7.5-1.2c2.7,0.4,5.9,2.2,9.1,3.8
	c9.5,4.8,18.5,9.1,28,14c4.7,2.4,9.5,4.8,14.1,7.2c1.6,0.7,3.1,1.5,4.5,2.5l-0.8,1.5l-0.1,0.2c-0.2,0.4,0-0.1-0.1-0.2
	c-15.8-8.1-31.1-16.2-46.4-23.5c-4.3-2.1-7.6-3.4-10.7-3c-3.1,0.4-5.6,2-8.1,5.2c-2.3,3-4.4,6.3-7,8.6c-2.3,2.2-5.3,3.6-8.6,4
	c-12.1,2.1-30.2-5.3-42.2-15.4c-5.8-4.9-9.8-10.4-9-17c0.3-2.3,0.9-4.5,1.3-7c0.5-3.3,0.6-6.7,0.4-10.1c-0.7-10.1-1.2-19.5-7.5-27.5
	c-3.3-4.1-7.7-7.2-12.7-8.9c-4.5-1.6-9.3-2.4-14.1-2.6c-9-0.5-17.4,1.2-25.8,2.3c-12.4,1.7-26.7,1.1-41.6-5.8
	c-4.9-2.3-9.6-5.2-13.9-8.6c-8.1-6.4-15.3-12.8-21-19.9c-2.8-3.5-5.3-7.1-7.8-10.8c-3.8-5.6-7.3-11-14.7-15.2
	c-2.3-1.3-4.7-2.2-7.3-2.7c-4.6-0.8-9.1-0.5-13.5-0.7c-9.3-0.6-19.2-3.9-28.8-6.9c-2.5-0.8-4.9-1.4-7.3-2.2
	c-11.5-3.8-26.6-9-36.8-17.5c-11.3-9.4-20.2-20.5-33.3-29.3C-105.5,84.5-117.4,79.5-127.4,73.7z"/>
<path class="st0" d="M-129.8,78.3l1.8-3.4c12.3,6.7,25.9,12.6,35.7,20.2c9.8,7.5,17.2,16,25.5,23.5c4.7,4.3,10,7.9,15.7,10.8
	c12.1,6.3,24.3,9.8,35.8,13.4c5.8,1.9,11.6,4,17.4,5c5.3,0.8,10.7,1.2,16.1,1.1c2.8-0.1,5.5,0.3,8.2,1c3.1,1.1,5.9,2.7,8.3,4.8
	c4.4,3.8,7.4,8.2,10.5,12.4c3,4.4,6.3,8.7,9.8,12.7c3.9,4.2,8,8.2,12.3,11.9c4.6,4.1,9.6,7.8,14.8,11.1c5.5,3.4,11.5,5.9,17.8,7.4
	c10.5,2.6,21.4,3.2,32.1,1.7c5-0.6,10-1.4,15.2-1.7c5.4-0.5,10.8-0.1,16.1,1.1c6,1.5,12.1,4.6,16,9.2c4.5,5.2,5.9,11.2,6.4,17.7
	c0.4,3.9,0.5,7.9,0.1,11.8c-0.3,2.6-0.3,5.6-1.1,8.2c-0.9,3.1-2,5.8-2.3,8.5c-0.5,5.4,2.4,9.7,6.4,13.8
	c12.3,12.4,36.5,24.2,51.3,22.2c4.4-0.6,8.8-1.9,12.2-5.2c2.1-2.3,3.9-4.7,5.6-7.4c1.9-2.8,3.6-4.7,5.9-5.7c2-0.9,5.5-0.2,8.1,0.8
	c3.1,1.2,6.2,2.7,9.2,4.1c11.9,5.6,24.7,12.2,37.4,18.8c-0.2,0.7-0.6,1.3-0.9,2c-0.1,0.1-0.1,0.2-0.2,0.1l0.2-0.3
	c-12.6-6.8-25.4-13.1-37.3-18.7c-6.2-2.9-12.2-6-16.5-2.8c-2.3,1.8-3.8,4.4-5.7,6.9c-1.7,2.3-3.7,4.4-5.9,6.1
	c-1,0.7-2.2,1.4-3.3,1.9c-7.8,3.4-18.1,2.3-27.9-1.1c-12.1-4.4-23.3-11.1-32.9-19.8c-4.1-3.8-7.6-8-8.1-13c-0.2-1.3-0.2-2.6,0-3.9
	c0.9-4.3,3-8.5,3.1-12.8c0.1-3.4,0.2-6.7,0.2-9.9c0-1.9-0.4-3.8-0.6-5.8c-0.5-5.1-1.8-9.9-5-14.2c-3.5-4.6-9.1-8-15.3-9.6
	c-5.3-1.3-11-1.3-15.9-1c-7.8,0.5-15,2.2-22.9,2.3c-2.6,0-5.2,0-7.9-0.2c-10.4-0.6-22.3-2.2-34.3-9.2c-5.3-3.2-10.3-6.9-14.8-11.1
	c-4.4-3.7-8.5-7.7-12.4-11.8c-3.8-4.1-7.1-8.2-10.5-12.4c-3.3-4.2-6.8-8.5-11.3-12.2c-2.5-2.1-5.4-3.4-8.6-4c-1.3-0.1-2.7-0.2-4-0.1
	c-4,0.1-7.7,0.5-11.7,0.3c-8.1-0.4-16.9-3.6-25.7-6.6c-11.7-4-23.8-8-36-14.4c-5.6-2.9-10.7-6.6-15.3-10.9
	c-8.5-7.8-15.3-15.9-24.9-23.5c-2.5-2-5-3.8-7.7-5.4c-2.8-1.7-6-3.2-9.3-4.9C-117.1,84.9-123.6,81.4-129.8,78.3z"/>
<path class="st0" d="M-132,82.5l1.7-3.2l22.8,11.8c6.8,3.5,13,7.9,18.6,13.1c2.6,2.4,5,4.8,7.5,7.1c7.4,7.2,13.6,15,24.1,21
	c15.1,8.8,29.2,13,43.5,17.8c7.4,2.5,14.1,4.7,20.7,5.3c4.8,0.4,9.5-0.5,14.2-0.2c2.2,0,4.4,0.5,6.5,1.4c1.6,0.7,3.1,1.6,4.4,2.6
	c5,4,8.6,8.6,12.1,12.8c4.9,6,10.1,11.8,15.7,17.2c2.9,2.8,5.9,5.5,9,8.2c3.2,2.9,6.7,5.5,10.3,7.8c7.5,4.6,15.9,7.7,24.7,9.2
	c7.5,1.3,15.1,1.9,22.6,1.7c7.2-0.2,14.4-1.3,21.6-1.8c3.8-0.3,7.5-0.1,11.3,0.6c4.4,0.7,8.5,2.5,12,5.1c3,2.3,5.3,5.3,6.7,8.8
	c1.8,4.5,2,10.8,1.7,15.9c-0.2,3.6,0,7.4-1,11.1c-1,3.8-3.7,8.6-3.9,12.1c-0.3,5.6,2.6,10.1,6.8,14.5c10.1,10.7,29.2,22.5,45.6,26.4
	c11.7,2.8,23.2,2.7,31.8-4.2c1.6-1.2,2.9-2.7,4-4.4c1.1-1.8,2.4-3.4,3.9-4.9c2.8-2.8,6.6-2.6,10.6-1.4c4.4,1.5,8.6,3.3,12.8,5.3
	c9,4.2,17.5,8.6,26.3,13.1c-0.3,0.8-0.7,1.6-1.2,2.3c0.6-0.7-0.4-0.9-0.7-1.1c-0.5-0.3-1.1-0.6-1.5-0.8c-7.2-3.7-14.2-7.4-21.1-10.6
	c-3.8-1.8-7.7-3.4-11.7-4.8c-1.8-0.7-3.6-1-5.5-1.1c-0.8,0-1.6,0.3-2.4,0.4c-3.1,0.3-5.2,3.8-7.6,6.5c-5.4,6.1-11.5,8.4-18.6,9.3
	c-4.9,0.5-9.8,0.4-14.6-0.5c-17.7-2.9-40.7-16.7-52.2-29c-5.3-5.7-9.3-11.7-6.2-19.8c0.6-1.5,1.3-2.8,1.8-4.2c0.5-1.4,0.9-2.7,1.3-4
	c0.6-2.4,0.3-4.9,0.4-7.3c0-2-0.1-4.3-0.2-6.2c0-0.4-0.1-0.7-0.1-0.9c-0.1-1.2,0.1-2.4-0.1-3.6c-0.1-1.2-0.4-2.3-0.6-3.5
	c-0.9-4.8-3.1-8.5-7.1-12.1c-2-1.8-5.1-2.9-7.8-3.7c-2.5-0.7-5.1-1.1-7.6-1.1c-9.7-0.2-18.9,1.6-28.5,1.4
	c-9.6-0.2-19.8-0.8-30.1-3.7c-5.8-1.6-11.3-4-16.4-7.1c-4.7-3-9.1-6.5-13.2-10.3c-8-7.3-15.2-14.8-21.8-22.1c-3.4-4-7.1-7.6-11.1-11
	c-2.3-1.8-4.9-3.2-7.7-4c-2.4-0.4-4.9-0.5-7.4-0.3c-4.9,0.4-9.8,0.3-14.6-0.4c-5.3-0.9-10.3-2.6-15.9-4.5
	c-5.4-1.8-10.8-3.7-16.3-5.7c-10.7-3.9-23-8.9-32.9-15.8c-4.4-3.2-8.5-6.7-12.2-10.6c-7.3-7.3-13.9-14.8-23-21.7
	C-107.5,94.2-121.4,88.6-132,82.5z"/>
<path class="st0" d="M-134.2,86.8l1.7-3.3c12,6.8,25.9,12.2,35.5,20c9.4,7.6,16.5,16.3,24.5,23.8c6.3,6,14.7,11.1,24.2,15.8
	c8.7,4.2,17.7,7.8,27,10.8c6,2.1,11.9,4.3,17.7,5.8c5.3,1.4,10.8,2,16.3,1.8c5.1-0.3,10.6-1.3,16.5,2.8c2.4,1.7,4.7,3.6,6.8,5.7
	c6.2,6,11.6,12.2,17.5,18.2c4,4,7.9,8,12.3,11.9c4.7,4.3,9.9,8,15.5,10.9c5.6,2.7,11.5,4.7,17.6,5.9c14,3,27.4,3.2,40.3,2.6
	c2.6-0.1,5.2-0.4,7.7-0.4c5.3-0.1,10.7-0.3,16.7,2.9c6.6,3.5,8.8,10.8,8.7,16.9c0,1.3,0.1,2.6,0.2,3.9c0.3,2.6,0.3,5.2,0.2,7.8
	c-0.1,2.9-0.8,5.7-2.1,8.3c-1.5,3-3.1,5.8-3.5,8.9c-0.3,2.6,0,5.2,1,7.5c1,2.4,2.3,4.6,4,6.6c3.6,4.4,7.7,8.4,12.1,12
	c10.2,8.3,21.6,14.9,33.9,19.7c17.8,6.5,33.6,6,46.7-2c2.2-1.4,4.4-3,6.4-4.8c1-0.9,2-1.7,3.2-2.4c1.1-0.6,2.3-1.1,3.6-1.3
	c2.6-0.5,5.2,0.3,8.3,1.3c9.1,3,18,7.8,27.7,12.6c0.1,0.1,0.2-0.1,0.2,0.1c-0.4,0.8-0.9,2.2-1.3,2.6c0.5-0.8,0.4-0.7,0.1-1
	c-0.5-0.7-2.3-1.1-3.3-1.6c-7.8-4-15.8-7.9-22.5-9.7c-4.4-1.1-7.6-1.2-11,0.5c-0.8,0.4-1.5,1-2.3,1.5c-0.4,0.2-0.8,0.4-1.2,0.6
	c-0.4,0.2-0.8,0.6-1.1,0.8c-1.5,1.1-3.1,2.1-4.7,3c-3.1,1.7-6.5,3.1-9.9,4.1c-13.7,4.3-29.4,2.9-46.5-5.5c-4.4-2.2-8.8-4.5-12.9-7
	c-7.5-4.5-14.6-9.8-21-15.9c-2.8-2.7-5.4-5.6-7.7-8.8c-2.2-3.1-4.2-6.4-4.4-9.9c-0.1-0.9-0.1-1.9-0.1-2.8c0.2-1,0.4-2,0.7-3
	c0.5-2,1.8-4.2,2.8-6.5c0.5-1.2,0.8-2.2,1.1-3.2c0.8-2.8,0.9-5.7,0.4-8.6c-0.2-3.6-1.3-6.2-1.7-9.5c-0.1-1.6-0.4-3.2-0.9-4.7
	c-0.5-1.6-1.2-3-2.1-4.3c-2.3-3-6.4-4.8-9.9-5.6c-3.5-0.8-7-0.5-10.2-0.5c-6.6,0-13.3,0.1-20.1-0.2c-6.9-0.3-13.7-0.8-20.7-1.8
	c-7.5-0.9-14.9-2.9-21.9-5.9c-7.9-3.5-14-8.4-19.5-13.6c-10.4-9.8-19.6-20.9-31.5-30.2c-3-2.4-7.2-4.7-10.6-4.9
	c-3.4-0.2-6.5,0.1-10,0.1c-6.9,0.1-13.9-1.6-21.3-4.1c-14.7-4.9-30.9-10.3-45.9-18.8c-6.8-3.9-13.1-8.6-18.7-14.1
	c-5.3-5.2-10-10.3-15.2-15.3c-5.6-5.6-12-10.3-19-14C-117.9,95.1-126.4,90.7-134.2,86.8z"/>
<path class="st0" d="M-136.4,90.9l1.6-3.1c11.4,6.3,24.1,11.2,33.6,18.2c2.9,2.2,5.7,4.6,8.3,7.2c10.5,9.9,18.3,20.6,32.2,28.9
	c15.1,9,30.5,14.3,44.7,19.3c7.2,2.5,14.4,4.7,21.2,5.2c3.3,0.3,6.5,0.1,9.8,0.1c3.6-0.1,7.2,0.7,10.4,2.3c3.6,1.9,7,4.9,10.1,7.6
	c9.4,8.1,16.8,16.4,25.1,24.5c6,6.1,13.1,11.1,20.9,14.5c8.1,3.4,15.7,4.8,23.5,5.9c14.7,2.1,29.6,1.8,44.2,3.1
	c3.9,0.3,8.5,1.5,11.2,4.4c2.7,2.9,2.6,6.3,3.3,9.8c0.8,3.3,1.4,6.7,1.7,10.1c0.1,0.9,0,1.8-0.1,2.7c-0.2,0.9-0.4,1.9-0.6,2.8
	c-0.9,3.8-4.4,8.2-5,11.9c-0.3,1.8-0.4,3.5-0.1,5.3c0.9,4.9,4,9.8,7.4,13.9c3.8,4.5,7.9,8.6,12.4,12.3c10.6,8.7,25.5,18.7,40.1,23.5
	c2,0.7,4,1.1,5.9,1.5c8,1.9,15.1,2.6,22.1,1.8c6.9-0.8,13.4-3,19.9-5.4c1.5-0.5,3.2-1.3,4.8-2c1.6-0.6,3.2-1.3,4.7-2.1
	c0.4-0.2,0.6-0.5,1-0.7c1.2-0.5,2.4-0.9,3.7-1.2c5.1-1.2,10.9,0.3,17.1,2.7c4,1.5,8.3,3.5,12.6,5.6c-0.2,1.1-0.6,2-1.3,2.9
	c1.1-1.2-0.4-1.5-1.6-2c-4.2-2-8.4-3.6-12.8-5c-2.3-0.6-4.6-1-6.9-1.4c-0.6-0.1-1.1-0.2-1.7-0.3c-5.7,0.2-11.1,2.8-16.3,4.7
	c-1.9,0.7-4,1.2-5.9,1.8c-2,0.6-3.9,1.4-5.9,1.9c-8.2,2.4-16.7,3.1-25.2,2.1c-9-1-18.5-4-28.8-9.4c-9.3-4.9-18.1-10.8-26.2-17.6
	c-7.7-6.2-14.2-12.9-18.6-19.9c-2.1-3.4-4-7.4-4-11.6c0.1-1.1,0.3-2.3,0.5-3.4c0-0.3-0.1-0.5,0-0.8c0.1-0.3,0.3-0.6,0.4-0.9
	c0.7-1.9,1.6-3.8,2.4-5.6c0.5-1.2,0.8-2.4,1.1-3.6c0.4-2.1,0.2-4.2-0.3-6.2c-0.2-1-0.4-2-0.7-3c-0.3-0.9-0.8-1.7-1.1-2.8
	c-1.1-4-1.5-8.7-5.5-11.2c-2.8-1.7-6.8-2.4-9.9-2.9c-3.3-0.5-6.4-0.9-9.4-1.1c-12.6-0.9-24.3-1.4-37.3-3.9c-6.9-1.1-13.6-3.2-19.9-6
	c-6.5-3.1-12.3-7.3-17.4-12.5c-4.6-4.5-8.8-9.3-13.3-13.8c-5-4.7-10.2-9-15.7-13.1c-2.9-2.3-5.9-4.5-9.3-5.7
	c-3.4-1.2-6.1-1.1-9.4-1.1c-3.1,0-6.1-0.2-9.1-0.6c-3.3-0.5-6.5-1.2-9.7-2.2c-6.6-1.9-13.3-4.3-20.1-6.7c-10-3.6-21.1-8.1-31.2-14
	c-3.3-1.9-6.3-4-9.3-6.1c-5.7-3.8-10.2-8.5-14.8-13.2c-4.4-4.5-8.8-9.1-13.8-13.7c-2.5-2.3-5.3-4.5-8.1-6.4c-3.3-2.1-6.8-4-10.3-5.8
	C-121.8,98.2-129.7,94.3-136.4,90.9z"/>
<path class="st0" d="M-138.5,95.1l1.6-3.1c6.6,3.4,13.7,6.8,20.8,10.5c3.6,1.9,7.2,3.6,10.3,5.6c2.9,1.9,5.6,3.9,8.1,6.2
	c4.8,4.4,9.2,8.9,13.6,13.3c4.4,4.8,9.1,9.1,14.2,13.1c8.3,6.3,18.9,11.9,29.2,16.3c3.4,1.4,6.7,2.8,10.1,4
	c13.2,4.9,26.5,9.9,38.6,10.6c3.1,0.2,6.1,0.2,9,0.6c3.4,0.6,6.7,2.1,9.5,4.2c2.8,2,5.6,4.1,8.4,6.2c8.4,6.2,14.5,13.1,20.9,19.8
	c4.4,4.5,9,9.1,15.3,12.8c6.2,3.5,12.9,6.1,19.8,7.5c6.4,1.4,12.6,2.3,18.6,3.1c5.8,0.8,12,1.2,18.2,1.7c2.9,0.2,6,0.8,9.2,1.2
	c3.3,0.4,6.5,1.1,9.6,2.2c0.9,0.4,1.8,0.8,2.6,1.2c4.1,2.5,4.8,7.4,6.1,11.2c0.7,1.6,1.1,3.3,1.4,5.1c0.2,2,0.6,3.8,0,5.7
	c-0.6,1.8-1.2,3.6-2.1,5.3c-0.5,1.2-1,2.4-1.3,3.7c-0.2,0.6-0.4,1.1-0.5,1.6c-0.3,1.7-0.3,3.4-0.1,5c0.6,4.1,2.8,8,4.9,11.6
	c1.2,1.9,2.5,3.6,3.9,5.3c1.4,1.8,2.8,3.6,4.4,5.2c6.7,7.2,14,13.6,22,19.3c8.1,5.9,19.5,12.4,29.1,15.8c8.8,3.3,18.2,4.7,27.7,4.3
	c4.2-0.3,8.4-0.9,12.5-1.9c8.1-1.7,15.9-5.2,24.2-6.7c4.2-0.9,8.5-1.2,12.8-0.6c5.1,0.9,10,2.4,14.7,4.6c-0.2,1-0.6,2-1.3,2.8
	c0.6-0.8-0.1-0.9-0.5-1.2c-1.3-0.6-2.8-1.1-4.2-1.5c-1.4-0.4-2.8-0.8-4.2-1.2c-11.2-2.7-20.2-0.2-29.4,2.6c-2.4,0.7-4.8,1.2-7,1.8
	c-4.7,1.3-9.5,2.2-14.3,2.8c-10.7,1.1-21.6-0.4-31.7-4.2c-17.4-6.5-34.4-19-45.8-29.8c-4-3.6-7.7-7.5-11-11.7c-1.6-2-3.2-4-4.6-6.2
	c-3.4-5.3-6.4-10.7-5.9-17.2c0.1-1.3,0.2-2.7,0.5-4c0.2-0.8,0.5-1.4,0.7-2.1c0.1-0.6,0.2-1.3,0.3-2c0.5-1.8,0.6-3.7,0-5.6
	c-0.6-1.7-1.2-3.5-1.9-5.1c-1.5-3.4-2.7-7-6-9.5c-3.4-2.6-8.5-3.8-12.3-4.6c-2.7-0.5-5.4-0.9-8-1.2c-10.8-1.3-21-2.5-31.9-4.8
	c-5.8-1.1-11.4-2.9-16.9-5.2c-12.5-5.6-18.9-14-26.3-22c-3.9-4.1-8.2-7.8-12.9-11c-2.4-1.7-5-3.5-7.4-5.3c-2.5-2-5.2-3.7-8-5.1
	c-2.6-1-5.3-1.5-8.1-1.6c-2.6-0.2-5.3-0.4-7.9-0.9c-5.6-0.9-11.1-2.3-16.5-4c-11.4-3.6-23-7.4-34.5-13.1
	c-12.2-6-22.8-12.7-30.9-20.5c-7.6-7.4-15-15.9-24-22.8c-4.8-3.7-11.1-6.5-17.2-9.7C-126.4,101-132.9,97.9-138.5,95.1z"/>
<path class="st0" d="M-140.7,99.2l1.6-3.1c5.8,2.9,11.8,5.8,17.8,8.9c6,3.1,12.3,5.9,17.4,9.7c9.3,7,16.5,15.6,24.1,22.8
	c9.1,8.4,19.5,15.4,30.8,20.5c11.2,5.2,22.7,9.6,34.5,13.2c5.4,1.8,10.9,3.2,16.5,4.2c2.6,0.4,5.3,0.6,7.9,1
	c2.8,0.3,5.6,0.9,8.2,1.9c2.9,1.2,5.2,3.3,7.7,5.1c2.4,1.8,4.9,3.6,7.4,5.3c4.7,3.2,9.1,6.9,13.1,11.1c7.4,7.6,13.7,16.2,26.6,21.8
	c5.4,2.2,11,3.9,16.8,5c10.9,2.3,21.1,3.2,32,5.1c5.1,0.9,11.9,2,16.5,5.7c0.6,0.4,1.1,0.9,1.5,1.4c0.4,0.5,0.5,1,0.9,1.5
	c2.2,3,4,6.3,5.3,9.7c0.4,1.2,0.6,2.4,0.5,3.6c-0.1,1.9-0.3,3.8-0.7,5.7c-0.2,0.6-0.4,1.3-0.5,2c-0.2,1.3-0.2,2.6-0.2,3.9
	c0.1,2.4,0.7,4.8,1.5,7.1c2.5,5.7,5.9,11.1,9.9,15.9c0.8,1,1.5,2.1,2.4,3.1c7.3,8.3,15.2,15.9,23.8,22.8c8.9,7.2,20.4,15,32.1,19.1
	c10.1,3.7,20.9,5.2,31.7,4.2c12.1-1,23.8-5.3,35.8-7c5.1-0.8,10.2-0.8,15.3,0.1c2.9,0.4,5.6,1.2,8.3,2.5c-0.3,0.7-0.6,1.4-1,2.1
	c-0.3,0.4,0-0.1-0.1-0.2c-2.6-1.1-5.3-1.8-8.1-2.1c-2.5-0.4-5-0.6-7.6-0.7c-2.5,0-4.9,0.1-7.3,0.4c-12,1.5-23.4,5.3-35.3,6.5
	c-10.6,1-21.2-0.4-31.2-4c-17.6-6.2-33.5-18.8-44.5-29.3c-5.8-5.4-11.3-11.1-16.4-17.2c-1.6-2-3.3-4-4.7-6c-2.8-4-5.2-8.2-7.2-12.7
	c-1.3-3.4-2.1-6.9-2.2-10.5c-0.1-1.2-0.1-2.4-0.2-3.7c-0.6-4.4-3.3-8.9-6.7-12.7c-1.9-2.2-4.2-4-6.8-5.3c-2.7-1.3-5.5-2.2-8.4-2.8
	c-16.3-4-31.3-4-48.4-11.2c-12.5-5.2-18.7-14-26.1-21.4c-4.1-4-8.6-7.6-13.4-10.7c-2.5-1.7-4.9-3.4-7.2-5.2
	c-2.4-1.9-4.9-3.6-7.7-4.9c-2.6-1.1-5.4-1.8-8.2-2.2c-8.2-1.4-16.3-3.4-24.3-5.8c-11.7-3.5-23.1-7.9-34.1-13.3
	c-11-5.3-21.1-12.2-30.1-20.4c-7.6-7.2-14.9-15.8-24-22.3c-2.7-1.8-5.5-3.4-8.5-4.8C-122.8,107.9-132,103.4-140.7,99.2z"/>
<path class="st0" d="M-142.9,103.5l1.7-3.2c6.8,3.4,14.4,6.8,21.3,10.4c3.8,2,7.4,3.7,10.7,5.6c3.1,1.8,5.9,3.9,8.6,6.3
	c10.1,8.6,18.1,18.4,29.2,26.7c11.9,8.8,26.5,15.7,40.2,20.7c9.7,3.6,19.7,6.5,29.8,8.9c4.9,1.1,9.7,1.4,14.6,3.4
	c5.2,2.2,8.9,6,13.1,9.1c3,2.1,6.1,4,8.9,6.1c2.7,2.1,5.2,4.3,7.6,6.6c4.6,4.4,8.5,9.6,13.6,13.7c5.8,4.5,12.4,7.8,19.5,9.9
	c12.9,4,25.7,5,38.6,8.5c3.5,0.9,6.9,2.4,10,4.3c2.7,1.9,5.1,4.2,7,6.8c1.1,1.2,2,2.6,2.7,4.1c0.1,0.4,0.3,0.9,0.6,1.4
	c0.8,2,1.3,4.1,1.6,6.2c0.4,1.4,0.6,2.9,0.7,4.3c1.1,3.6,2.5,7.2,4.4,10.5c5.6,10.2,13.8,19.4,22.5,28.6
	c5.9,6.3,12.2,12.3,18.8,17.8c7.3,6.4,15.5,11.8,24.2,16c8.1,3.9,16.8,6.3,25.8,6.9c8.1,0.6,15.7-0.4,23.3-1.7
	c13.1-2.2,25.9-6.4,40.3-4.2c1.6,0.1,3.1,0.4,4.7,0.7c0.6,0.2,1.1,0.6,1.7,0.6c-0.2,0.7-0.5,1.3-0.9,2c-0.3,0.3-0.7-0.1-0.9-0.2
	c-1-0.3-2-0.6-3-0.8c-8.5-1.4-17.1-1.3-25.6,0.4c-9.3,1.7-18.5,3.5-28,4.5c-10.4,1-20.8-0.2-30.6-3.7c-5.9-2-11.5-4.7-16.8-8
	c-10.4-6.6-18.4-13.7-26.1-21.2c-11.4-11-22.3-22.7-30.4-34.6c-2.1-2.9-4.1-6-5.8-9.2c-0.5-1.1-1.2-2.1-1.7-3.1
	c-1-2.1-1.7-4.3-2.7-6.5c-1-2.5-2.4-4.8-4.2-6.8c-0.2-0.2-0.4-0.5-0.6-0.7c-3.2-3.8-7-7-11.4-9.3c-5.6-2.9-11.1-4.1-16.5-5.4
	c-10.8-2.6-21-4.1-32.2-8.7c-5.5-2.3-10.6-5.5-15-9.5c-1.9-1.8-3.7-3.7-5.5-5.6c-1.8-1.9-3.7-3.7-5.7-5.5
	c-6-5.6-13.9-10.3-20.4-15.6c-2.2-1.9-4.6-3.7-7-5.2c-2.5-1.4-5.4-2.1-8.2-2.9c-2.7-0.8-5.4-1.4-8-2c-15.9-4.1-33-9.4-49.9-18.1
	c-10.5-5.4-20.3-12.3-29-20.3c-4-3.7-7.6-7.5-11.5-11.1c-4-3.9-8.4-7.5-13-10.6c-2.7-1.7-5.7-3.1-8.7-4.6
	C-125.6,111.6-134.4,107.7-142.9,103.5z"/>
<path class="st0" d="M-145.2,108l1.7-3.4c5.6,2.9,11.4,5.4,17.1,8.2c5.9,2.9,11.8,5.6,17.5,8.9c5.1,2.9,9.1,6.8,13.2,10.5
	c4,3.7,7.8,7.5,11.6,11c8.7,8,18.4,14.8,28.8,20.3c10.8,5.6,22.1,10.3,33.8,13.9c5.5,1.7,10.8,3,16.1,4.5c5.5,1.5,11.1,2.4,16.3,5.7
	c2.4,1.6,4.7,3.3,6.8,5.2c2.2,1.8,4.4,3.5,6.6,5.3c4.5,3.6,9.4,6.6,13.6,10.4c4,3.6,7.3,7.6,11.3,11.1c4.6,3.9,9.8,7.1,15.3,9.3
	c11,4.4,21.5,6.2,32.2,9c5.3,1.4,11.3,3.3,16.6,6.6c3.5,2.2,6.6,4.9,9.3,8.1c0.7,1,1.4,2,2.1,3c2.1,3.1,3.8,6.1,5.5,9.3
	c0.6,1.1,1.1,2.1,1.7,3.1c2.6,4,5.2,8,8.2,12.1c8.9,11.9,19.5,23.3,30.5,34.4c3.8,3.8,7.6,7.5,11.6,11c7.9,7,17.9,14.8,29.8,19
	c9.7,3.5,20.1,4.8,30.5,3.9c9.4-0.8,18.5-3,28-4.4c7.2-1.1,14.5-1.5,21.7-1c2,0.1,3.9,0.4,5.8,0.9c0.2,0.1,0.7,0.3,1,0.3
	c0.4,0.1,0.7,0.5,0.9-0.3c0-0.1,0.1-0.2,0.1,0l-0.2,0.3c-0.3,0.7-0.7,1.4-1.2,2c0,0.1-0.1,0.2-0.2,0.1c-2.4-1-5-1.5-7.6-1.6
	c-17.6-1.8-32.6,3.7-49.1,5.1c-16.4,1.6-32.8-2.6-46.4-11.8c-6.8-4.6-13.2-9.8-19-15.7c-1.9-1.9-3.8-3.6-5.7-5.5
	c-3.7-3.7-7.1-7.4-10.7-11.1c-8.8-9.2-17.2-18.7-24.8-28.3c-1.5-1.9-3-3.9-4.6-5.8c-3-3.8-6-7.8-9.1-11.6
	c-3.4-4.2-7.3-7.8-11.7-10.8c-5.1-3.3-10.6-5.9-16.3-7.8c-10.9-3.7-21.2-5.4-32.1-9.9c-5.5-2.3-11.6-5.5-15.6-9
	c-4.1-3.5-7.5-7.3-11.6-10.8c-4.2-3.6-8.9-6.9-13.3-10.3c-2.2-1.7-4.3-3.5-6.4-5.2c-2.1-1.7-4-3.6-6.2-5.2
	c-4.5-3.3-10.4-5.1-16.1-6.9c-5.4-1.7-10.5-2.9-16-4.7c-16.3-5.1-34.6-13.3-48.9-23.6c-4.4-3.2-8.7-6.7-12.7-10.5
	c-3.9-3.6-7.7-7.3-11.6-10.8c-4.1-3.6-8.3-7.3-13.8-10c-5.8-2.9-11.4-5.8-17.2-8.5C-133.6,113.6-139.9,110.6-145.2,108z"/>
<path class="st0" d="M-147.8,113l1.9-3.7c5.5,2.6,11.3,5.2,17,7.8c2.9,1.3,5.7,2.8,8.5,4.1c2.9,1.4,5.7,3.1,8.5,4.4
	c5.7,2.6,10,6.3,14.1,9.9c8,7.1,15.2,14.6,24.5,21.2c10.1,7.1,21,13.1,32.4,17.8c11.4,4.7,21.7,7.6,32.5,10.9
	c5.6,1.7,11.1,3.8,15.8,7.5c2,1.6,4,3.5,6,5.3c6.1,5.5,13.4,10.2,19.6,15.6c4.1,3.5,7.8,7.1,11.9,10.7c4.1,3.5,10.4,6.5,15.9,8.7
	c10.9,4.2,21.3,6.2,32.3,10.4c10.8,4.1,20.4,10.7,28.1,19.3c1.6,1.9,3.1,3.9,4.7,5.7c1.6,1.9,3.2,3.9,4.8,5.8
	c9.8,11.5,19.4,22.8,29.9,34c7,7.5,13.9,15.1,21.5,22.2c4,3.8,8.2,7.3,12.7,10.5c2.4,1.8,4.9,3.4,7.5,4.8c2.8,1.5,5.5,2.7,8.4,4
	c2.5,1,5.1,1.8,7.8,2.3c2.5,0.6,5,1.1,7.6,1.4c4.8,0.4,9.7,0.4,14.5-0.1c16.4-1.4,31.7-7.1,49.1-5.2c1.9,0.1,3.8,0.4,5.7,0.8
	c0.7,0.2,1.7,1.2,1.9,0c0.2-0.1-0.2,0.7-0.5,1.1c-0.2,0.5-0.5,0.9-0.9,1.3c-2.4-1.2-5.1-1.3-7.6-1.5c-2.4-0.3-4.8-0.4-7.3-0.4
	c-18.9,0.2-36,7.4-55.5,5.5c-5.3-0.5-10.5-1.7-15.5-3.6c-11.8-4.6-20.8-11.8-28.3-18.9c-11.1-10.4-21.2-22.2-31.3-33
	c-6.9-7.4-13.4-15-20.3-22.2c-3.5-3.7-7-7.2-10.7-10.8c-8.4-8-18.2-14.5-29-19c-10.8-4.6-21.5-7.2-32.2-11.4
	c-5.7-2.1-11.1-4.8-16.3-8.1c-2.3-1.6-4.5-3.2-6.6-5.1c-2.1-1.8-4.3-3.4-6.3-5.1c-6.4-5.3-13.1-10.1-18.8-15.5
	C6.5,199,3.1,194.8-2.1,192c-2.7-1.4-5.5-2.6-8.4-3.6c-5.3-1.9-10.9-3.5-16-5.3c-11.5-3.8-22.5-8.7-33.1-14.6
	c-5.2-2.9-10.2-6.1-15-9.5c-9-6.5-16.6-14.3-24.5-20.9c-2.1-1.8-4.4-3.5-6.7-5c-2.7-1.6-5.4-3.1-8.2-4.5c-5.6-2.9-11.3-5.4-16.9-8
	C-136.4,118.1-142.6,115.5-147.8,113z"/>
<path class="st0" d="M-150.6,118.4l2.1-4.1c5.4,2.6,11,4.9,16.5,7.3c5.7,2.5,11.3,5.2,16.9,8c2.9,1.5,5.7,2.7,8.2,4.3
	c2.4,1.5,4.7,3.2,7,4.9c8.3,6.7,15.7,14.3,24.7,20.8c14,10.2,31.6,18.6,48,24.5c5.2,1.8,10.8,3.7,16.1,5.7c2.8,1,5.5,2.3,8.1,3.9
	c4.8,3.1,8.3,7,11.7,10.7c1.9,1.9,3.9,3.6,6,5.2c4.1,3.5,8.4,6.9,12.7,10.3c4.3,3.6,8.8,7,13.6,10c5.3,3.1,10.8,5.7,16.5,7.8
	c10.6,4.2,21.8,7.1,32.5,11.9c5.6,2.5,11.1,5.4,16.2,8.8c4.6,3.1,9,6.5,13,10.2c7.5,6.9,14.7,14.2,21.5,21.8
	c6.7,7.4,13.7,14.7,20.3,22.2c3.3,3.8,6.7,7.5,10.1,11.1c7.1,7.4,13.6,14.7,22.4,21.6c4.7,3.8,10,6.9,15.6,9.3
	c11.1,4.5,20.3,5,29.9,4.1c9.2-0.9,18.1-3.1,27.2-4.6c4.6-0.8,9.3-1.3,13.9-1.3c3.7,0.1,7.4,0.4,11,0.9c0.6,0,1.3,0.1,1.9,0.3
	c0.6,0.2,1.6,1.2,1.8,0c0.3-0.4-0.2,0.5-0.3,0.7c-0.2,0.5-0.5,1-0.8,1.4c-0.3,0.4-0.7-0.1-0.9-0.2c-2.1-0.7-4.3-1.1-6.5-1.2
	c-21.7-2.3-40.2,8.1-61.9,5.7c-2.5-0.2-5-0.6-7.4-1.1c-7.8-1.9-16.7-6.5-23.4-11.6c-4.2-3.2-8.2-6.7-11.9-10.5
	c-7.1-7.2-13.7-14.7-20.3-21.9c-13.4-14.6-26.2-29.7-42.5-43.3c-9.2-7.5-19.4-13.7-30.3-18.3c-5.4-2.3-10.8-4.5-16.2-6.5
	c-10.6-3.9-21.4-7.2-32.4-12.9c-5.3-2.8-10.4-5.9-15.2-9.4c-8.2-5.8-15.9-12.3-23.2-19.2c-2.2-2.2-4.4-4.6-6.6-6.7
	c-3.9-3.6-9.8-6.4-15.4-8.7c-2.7-1.1-5.5-2.2-8.2-3.2c-11.3-4.3-22.3-9.4-32.9-15.3c-9.8-5.7-19-12.3-27.5-19.8
	c-6.2-5.3-11.7-10.6-19.9-14.9c-8.4-4.4-16.6-7.9-25-11.6C-139.5,123.1-145.3,120.8-150.6,118.4z"/>
<path class="st0" d="M-153.8,124.4l2.4-4.6c2.6,1.3,5.3,2.5,8,3.5c8.2,3.4,16.4,7.1,24.6,10.9c5.6,2.6,11.4,5,16.2,8.4
	c9,6.4,16.5,13.9,25.3,20.4c13.7,10,31,18.7,47.6,25.5c5.6,2.3,11.5,4.7,16.3,7.8c5,3.2,7.9,6.9,11.5,10.6
	c3.7,3.7,7.6,7.2,11.8,10.5c4.2,3.4,8.6,6.8,13.4,10c5,3.4,10.3,6.4,15.7,9.1c5.4,2.7,11,4.8,16.4,6.9c10.8,4.2,21.7,7.9,32.4,12.6
	c5.7,2.4,11.2,5.2,16.6,8.2c15.6,9.1,26.2,20.1,36.8,31c7,7.2,13.7,14.6,20.1,22c3.2,3.7,6.5,7.5,9.7,11.1c3.3,3.7,6.6,7.5,10.1,11
	c7.3,7.3,15.2,14.8,26.1,20c4.9,2.5,10.2,4.2,15.6,5.2c4.7,0.7,9.5,0.8,14.2,0.3c9.2-0.9,18-3.1,26.8-5c6.6-1.4,13.7-2.4,20.8-1.4
	c1.9,0.1,3.8,0.4,5.6,0.9c0.6,0.2,1.6,1.1,1.8-0.1c0.2-0.1-0.3,0.7-0.5,1.1c-0.3,0.5-0.6,1-0.8,1.3c-2.4-1-4.9-1.5-7.5-1.6
	c-2.3-0.3-4.7-0.4-7-0.3c-18.4,0.9-34.8,9.2-54.3,6.3c-5.5-0.9-10.8-2.6-15.7-5.1c-5.2-2.5-10.1-5.7-14.5-9.4
	c-12.5-10-21.1-21.7-30.7-32.6c-3.2-3.7-6.6-7.3-9.9-10.9c-10.2-10.9-20.4-21.9-33.6-31.7c-8.9-6.6-20.5-12.4-31.5-17
	c-10.7-4.4-21.3-8.3-32.1-12.4c-10.7-4.1-21.8-8.7-32.7-15.1c-9.6-5.7-18.5-12.2-26.9-19.5c-4.1-3.6-7.1-7.3-10.8-10.7
	c-4.5-3.8-9.6-7-15-9.4c-11.3-5.2-22.6-10.7-32.8-16.9c-9.8-5.9-18.5-12.7-27.1-19.7c-4.2-3.4-8.3-6.9-13.4-9.8
	c-7.9-4.4-16.7-7.8-24.5-11.1c-2.7-1.2-5.4-2.3-8.2-3.4C-142.5,128.9-148.7,126.8-153.8,124.4z"/>
<path class="st0" d="M-157,130.6l2.4-4.6c2.6,1.3,5.2,2.4,7.9,3.3c8,3.2,16.3,6.4,24.3,9.9c5.7,2.5,11.2,4.8,16.5,7.5
	c5.3,2.8,9.4,6.3,13.9,9.8c8.5,6.7,17.2,13.5,27,19.6c10,6.2,21.2,11.8,32.6,17.8c5,2.6,9.7,5.8,13.8,9.7c1.7,1.7,3.2,3.6,4.9,5.3
	c1.8,1.8,3.8,3.4,5.9,5.2c12.2,10.2,27.1,20.3,44.4,27.6c21.6,9.2,42.5,16,64.6,26.2c5.4,2.6,10.5,5.7,15.4,9.2
	c9.4,6.5,16.5,13.5,23.8,20.7c7.3,7.2,13.8,14.5,20.2,21.9c11.1,12.9,20.9,26.6,36.1,37.9c2.2,1.7,4.7,3.1,7.3,4.8
	c4.9,2.9,10.2,5.1,15.7,6.4c15.2,4.1,28.2-0.1,41.3-3c4.4-1.1,8.8-1.9,13.3-2.4c4.5-0.4,9.1-0.1,13.5,0.9c1,0.2,1.3,0.8,1.7-0.3
	c0-0.1,0.1-0.2,0.1,0l-0.2,0.4c-0.4,0.9-0.9,1.4-1.3,2.3c0,0.1-0.1,0.2-0.2,0.1c-2.3-1.3-5-1.3-7.3-1.5c-16.7-1-30.7,6.9-47.2,6.7
	c-4.9,0-9.8-0.6-14.6-1.7c-5.6-1.4-11-3.6-16-6.5c-20-12.4-30.1-28-42.8-42.9c-6.4-7.5-13.1-14.8-20.3-21.8
	c-7.4-7.2-15-14-24.7-20.4c-10.2-6.6-21.7-11.2-32.4-15.3c-10.7-4.2-21.2-8.2-32-12.1c-5.3-1.9-10.7-4.2-16.1-6.5
	c-5.5-2.3-11-4.7-16.5-7.6C7.6,232-2.2,225.6-11.4,218.5c-4.3-3.1-8.5-6.5-12.4-10.2c-0.9-0.9-1.9-1.6-2.9-2.5
	C-37,196.1-52.7,188-66,179.5c-9.7-6.3-18.5-13.3-27.1-19.6c-4.7-3.6-9.8-6.6-15.1-9.2c-11.1-5.1-21.4-9-32.4-13.4
	C-145.8,135.2-151.9,133.1-157,130.6z"/>
<path class="st0" d="M-160.2,136.8l2.4-4.6c10.6,4.6,21.5,8.7,32.2,13.1c5.4,2.2,10.8,4.5,16.2,6.8c2.9,1.2,5.6,2.5,8.3,4
	c2.5,1.5,4.8,3.1,7.1,4.8c8.9,6.3,17.7,13.4,27.1,19.7c9.6,6.4,19.8,12.2,28.7,19.2c4.2,3.2,7.9,6.8,11.9,10.3
	c4,3.6,8.5,6.8,12.9,10.1c8.9,6.6,18.5,13.3,29.9,18.7c5.6,2.6,11,5.2,16.4,7.4c16.3,6.8,32,12.3,48.2,18.5
	c11,4.2,22.1,8.5,32.5,14.8c10.3,6.2,18,13,25.4,20.2c7.3,7.2,14.1,14.4,20.3,21.8c6.3,7.4,12.2,15,18.5,22.4
	c3.2,3.8,6.6,7.4,10.2,10.9c2.9,2.7,5.9,5.2,9.2,7.7c1.1,0.8,2,1.8,3.1,2.5c9.1,6.1,19.7,9.7,30.6,10.5c4.7,0.4,9.4,0.3,14-0.2
	c4.5-0.6,8.9-1.5,13.3-2.6c4.1-0.9,8.9-2.1,13.3-2.7c3.5-0.5,7-0.6,10.5-0.2c0.9,0.1,1.8,0.2,2.7,0.4c0.6,0.2,1,0.6,1.1,0.6
	c0.4-0.1,0.4-1.3,0.9-1.7c-0.4,1.3-1.4,2.4-2,3.8c-1.2-0.6-2.5-0.9-3.8-0.9c-1.2-0.1-2.5-0.2-3.6-0.3c-7.1-0.1-13.8,1.5-20.2,2.9
	c-4.4,1.1-8.9,1.8-13.4,2.2c-4.7,0.4-9.5,0.4-14.2-0.1c-5.1-0.4-10.1-1.3-15-2.6c-5.1-1.5-11-3.5-16-7.1c-4.4-3.2-7.7-6.9-11.3-10.6
	c-3.6-3.6-7-7.2-10.1-10.9c-15.3-18.4-29.5-38.2-50.7-54.7c-4.6-3.5-9.5-6.7-14.6-9.5c-5.3-2.9-10.8-5.5-16.4-7.6
	c-15.9-6.4-32.2-12-48.1-18.1c-10.7-4.1-21.6-8.3-32.5-13.4c-5.7-2.6-11.2-5.2-16.5-8.3c-9.9-5.8-19.3-12.3-28.3-19.4
	c-8.6-6.7-15.9-13.9-24.6-20.5c-4.4-3.3-8.9-6.5-13.5-9.8c-9.1-6.5-17.8-13.6-27.2-19.7c-5.1-3.4-10.6-5.6-16.1-8
	C-127.5,150-143.9,144.5-160.2,136.8z"/>
<path class="st0" d="M186.5,362.1l-7-3.7c-0.5-0.4-1.1-0.7-1.8-0.9l-6.3-3.3c-0.9-0.8-1.6-3.7-2.1-4.8c-0.3-0.8-0.6-1.6-1.1-2.3
	c-2.4-3.5-5.2-7.2-7.7-10.7c-6.3-8.6-13.4-17.1-23.2-24.3c-3.7-2.5-7.5-4.8-11.4-6.9c-4-2.3-8.1-4.3-12.3-6.1
	c-4.2-1.8-8.3-3.9-12.3-5.7c-15.8-7-32.2-13.4-48.4-19.8c-8.1-3.2-16.1-6.5-24.1-9.6c-15.9-6.2-31.8-11.2-47.6-17.3
	c-8.4-3.1-16.5-6.9-24.3-11.3c-3.4-2.1-6.6-4.7-9.5-7.6c-13.9-13.2-20-29-41.4-39.4c-7.8-3.8-16.4-7.2-24.5-10.9
	c-8.1-3.7-16.6-7.5-24.8-11.7c-8.4-4.3-17.1-8.6-25.3-12.8l2-3.8c20,10.4,40.3,19.5,59.7,27.7c1,0.4,1.9,0.9,2.8,1.4
	c4.2,1.9,8.4,3.4,12.5,5.7c23.7,13.3,31.6,33.5,52.6,47.5c7.5,5,16.5,9.2,24.6,12.7c8.3,3.6,16.2,6.4,24.4,9.5c8,3,16.2,6,24.3,9.1
	c8.1,3.1,16.1,6.4,24.2,9.6c8.2,3.2,16.3,6.5,24.4,9.6c8.3,3.2,16.5,6.7,24.5,10.3c8.4,3.8,17.4,7.9,24.3,12.9
	c1.8,1.3,3.5,2.5,5.1,3.7c1.6,1.3,3.2,2.5,4.7,3.9c8.8,7.7,15.8,16.4,22.1,25.1c2.4,3.3,5.3,7.3,8,10.8c1.1,1.5,1.3,2.9,2,4.7
	c0.3,0.8,0.6,1.6,1.1,2.3c0.6,0.6,1.9,0.8,2.3,1.2c0.2-0.1-0.1-0.7-0.3-1.1c-0.5-1.1-1.1-2.3-1.6-3.5c-0.3-0.8-0.7-1.6-1.2-2.4
	c-7.1-9.2-13.8-19.1-21.8-28.2c-5.3-5.9-11.1-11.3-17.3-16.2c-7.1-5.6-14.9-10.3-23.2-14c-4.1-1.9-8.3-3.7-12.5-5.4
	c-12.2-4.9-24.6-9.5-36.9-14.3c-16.5-6.5-33-12.8-49.2-19c-15.8-6.1-33.7-12.5-49.4-22.9c-6.7-4.6-13-9.9-18.7-15.7
	c-5.4-5.3-10.1-11-15.7-16.5c-5.9-5.9-12.5-11.1-19.6-15.4c-7.4-4.6-16.5-7.6-24.8-11.2c-8.2-3.6-16.6-7.1-25.1-10.9
	c-8.6-3.9-17.1-8.2-25.6-12.5l2.1-4c17.2,8.8,34.1,15.6,50.8,22.6c8.4,3.5,16.9,6.7,24.8,12.1c14.4,9.8,25.5,21.3,36.9,32.2
	c9.3,8.9,19.7,16.7,30.9,23.1c4.1,2.3,8.3,4.8,12.6,6.8c8.5,4,16.9,7.5,25.3,10.8c24.8,9.6,49.9,19.1,74.8,28.8
	c8.7,3.3,17.2,7,25.4,11.2c4,2.1,7.9,4.6,11.5,7.4c9.5,7.2,18.2,15.5,25.9,24.6c7.3,8.6,13.5,17.7,20.4,26.4
	c1.2,1.4,2.3,2.9,3.1,4.5c0.7,1.6,1.5,3.2,2.4,4.7c0.1,0,0,0.1,0.1,0.2l3.8,2c-1.7-2.1-2.8-4.7-4.3-6.9c-0.5-0.8-1.2-1.4-1.8-2.2
	c-12.1-14.4-22-30-36.7-43.8c-6.1-5.9-12.8-11.2-19.8-15.9c-8.1-5.3-16.8-9.1-25.5-12.4c-25.2-9.8-50.2-18.7-75.6-28.9
	C12.8,247.7,4,244-4.5,239.9c-8.5-4.2-16.7-9-24.4-14.4c-7-4.8-13.6-10.1-19.9-15.7c-6-5.5-11.7-11.1-17.9-16.5
	c-6.4-5.5-13.1-10.8-20.2-15.9c-7.3-5.2-16.3-9.2-24.8-12.7c-12.6-5.1-25.4-10.2-38.3-15.9c-4.4-2-8.9-3.9-13.2-6.2l2.2-4.2
	c17.6,8.2,34.7,14.4,52,21.7c4.6,1.9,9.2,3.7,13,6.4c3.8,2.6,7.6,5.1,11.3,7.8c12.6,9.2,25.1,18.4,36.1,28.1
	c1.6,1.4,3.3,2.7,4.7,4.2c0.3,0.4,0.6,0.8,0.9,1.1c2.8,2.5,5.7,4.8,8.7,7.1c10.3,8.1,21.4,16.1,34.7,23c8.6,4.4,17.4,8.4,26.4,11.9
	c17.1,6.8,34,13.3,51.3,19.7c8.4,3.1,17.2,6.3,25.8,10.2c8.7,3.8,16.9,8.7,24.4,14.5c12.6,10.2,23.9,21.7,33.8,34.5
	c4.8,6,9.3,12.2,14.2,18.1c2.5,3,5.1,5.9,7.8,8.8c2.6,2.9,4.4,6.4,7.4,9C189.9,363.9,188.1,362.6,186.5,362.1z"/>
<path class="st0" d="M166.2,351.5l-1.8-1c0.3-0.1,0.8,0.4,1.2,0.5c0.3-0.1,0-0.5,0-0.6c-0.2-0.7-0.5-1.4-0.8-2.1
	c-0.2-1.1-0.6-2.1-1-3.1c-3.8-5.6-7.9-11-12.4-16.2c-5.2-5.9-11.5-10.7-18.5-14.3c-3.9-2-7.9-3.9-11.9-5.9
	c-11.6-5.7-23.9-11.8-35.4-16.9c-15.1-6.6-30.9-13.1-46.2-19.2c-7.8-3.1-15.4-6.2-22.9-9c-7.5-2.8-15-5.1-22.3-7.2
	c-7.4-2.2-14.7-4.3-22.4-7.3c-8-3.1-15.6-7-22.6-11.9c-3.1-2.2-6.1-4.6-8.9-7.3c-7.7-7.4-11.7-16.4-19.3-23.9
	c-2.7-2.8-5.8-5.2-9.1-7.2c-3.6-2.1-7.7-3.8-11.7-5.7c-23.2-10.7-47.9-23.1-71.4-35.6l1.9-3.7c16.4,8.7,33,17.1,49.4,24.7
	c8.1,3.7,16.3,7.3,24.4,11.1c5.9,2.6,11.3,6,16.1,10.3c7.1,6.5,11.8,13.5,17.5,20.6c2.2,2.9,4.6,5.6,7.1,8.2c2.9,2.8,6,5.3,9.3,7.6
	c9.2,6.4,20.4,10.1,29.7,13.4c5.8,2.1,11.7,3.9,17.5,5.9c23.1,7.7,47.5,18,71.3,27.7c8,3.3,16,6.6,23.8,10.2
	c8,3.7,16.2,7.7,24.4,11.7c4.2,1.9,8.2,4.1,12.2,6.4c6.7,4.2,12.8,9.3,18.1,15.2c4.7,5.3,9,10.9,13,16.8c1.1,1.3,1.9,2.8,2.6,4.4
	c0.4,1.2,0.8,2.4,1.2,3.6c0.1,0.3,0.5,0.9,0.2,1C167.7,352.2,167,351.8,166.2,351.5z"/>
<path class="st0" d="M-72.1-32.6C-61-26.9-50-21-38.9-15.2C-25.3-8.1-10.6,0.2,2.5,5.6c1.3,0.5,2.5,1.1,3.8,1.8
	C7.5,8,8.5,8.9,9.4,9.9c3.4,3.7,5,7.6,6.9,11.8c3.5,7.9,6.7,16.5,10,24.8c1.6,4.2,3.4,8.3,5.5,12.2c2.2,4,4.3,8.3,9.2,11.1
	c2.5,1.4,5.2,2.5,8,3.2c7.7,2.2,14.9,2.6,20.9-0.2c2.1-1.1,4-2.6,5.5-4.4c5.1-5.6,10.6-11.1,17.2-12c2.5-0.3,5.1,0.2,7.4,1.4
	c8.3,3.9,16.9,8.6,24.7,13c10.8,6.2,22,11.4,32.9,17.1l33.4,17.4c5.2,2.7,9.9,6.2,14.5,9.4c13.5,9.3,29.4,19.2,46.1,25.7
	c10.2,4,20.6,6.6,31,9.7c5.3,1.6,10.6,3.4,15.7,5.5c5.4,2.4,10.5,5.3,15.2,8.9c4.3,3.2,8.2,6.8,12.7,9.9c5,3.3,10.2,6.4,15.6,9
	c10.6,5.5,22,11.1,32.2,16.9c0.2,0.1,0.9,0.2,0.8,0.7c-0.4,0.6-0.7,1.7-1.2,1.9c-11.1-5.8-22.1-11.4-32.9-17
	c-5.7-2.9-11.1-5.7-16-8.7c-4.8-3-9-6.4-13.3-9.6c-9.2-7-20-11.8-30.1-15.1c-10.3-3.4-20.7-6.4-30.9-10.5
	c-11-4.5-21.6-9.9-31.6-16.2c-9.5-6-18.7-13.1-29.1-18.5c-10.9-5.7-21.8-11.7-33-17.1c-11-5.3-21.8-10.8-32.3-16.8
	c-5.2-3-10.3-5.9-15.7-8.8c-5.3-2.7-11.4-6.6-15.7-6c-4.6,0.6-8.2,3.3-11.7,6.7c-1.9,1.9-3.4,4-5,5.8c-5,5.4-12.1,5.9-19.1,5.1
	c-5.2-0.5-10.3-1.9-15.1-4.1C36,69.3,34,65.6,31.4,61.5c-2.3-3.8-4.3-7.8-6-11.9c-3.5-8.2-6.7-16.5-10.4-24.3c-0.9-2-2-4-3.1-5.9
	c-1.2-2-2.6-3.9-4.2-5.6C5.9,12,3.3,10.9,0.3,9.5c-2.6-1.2-5.4-2.5-8.2-4l-66.2-34.4L-72.1-32.6z"/>
<path class="st0" d="M-15-142.6c19.4,9.8,37.4,20.4,55.6,31c9.2,5.4,19,10.2,28.7,15.2c19.3,10,38.6,20.4,57.6,30.3
	c7,3.6,13.6,8.1,20.2,11.8c2.3,1.3,4.6,2.6,6.9,3.9c18.3,10.4,37.2,16.9,55.2,22.5c4.4,1.4,9,2.7,13.6,4.6c4.8,2,9.5,4.4,13.9,7.2
	c3.8,2.6,7.4,5.5,10.9,8.6c3.5,2.9,7,5.8,11,8.7C266.6,7,276,12,285.7,17c48.4,25.2,96.9,50.4,145.1,75.6c-0.3,0.7-0.7,1.4-1.2,2.1
	c-42.4-22.1-85.4-44.2-127.8-66.3c-8.6-4.5-17.1-9.1-25.5-13c-4.4-2-8.5-4-12.5-6.2c-3.8-2.2-7.5-4.6-11-7.3
	c-6-4.4-11-9.2-16.4-13.5c-0.9-0.6-1.6-1.2-2.3-2c-9.4-6.8-20.4-10-30.1-13c-5.1-1.6-10.1-3-15.2-4.7c-5.2-1.7-10.4-3.5-15.5-5.5
	c-13.8-5.5-26.7-13.2-38.5-20.7c-7.1-4.5-15.1-8.6-23.4-12.9c-10.8-5.5-21.8-10.9-32.7-16.6c-11-5.7-22.1-11.1-32.6-17.3
	C25.7-116,5.5-128.7-16.5-139.5L-15-142.6z"/>
<path class="st0" d="M113.4,324l-292-151.8l1.7-3.3c23.9,12.4,50.7,26.5,75.1,39.2c4.1,2.1,8.5,4.1,11.9,6.6
	c2.3,1.7,4.5,3.6,6.4,5.8c0.5,0.7,1.1,1.4,1.8,2c1.1,0.6,2.2,1.2,3.3,1.6c-3.7-4.1-7.2-8.9-12.9-12.4c-1.9-1.2-4.1-2.2-6.4-3.4
	c-8.3-4.3-17.5-8.9-26.1-13.4c-17.4-9.1-35.2-18.3-52.4-27.2l1.9-3.7c21,11.3,45,23.3,66.9,34.7c3.6,1.9,7.4,3.6,11,5.4
	c3.6,1.7,7.1,3.6,10.3,5.9c3.3,2.5,5.8,5.9,8.2,9c2.5,3.3,5,6.3,7.3,9.3c1.2,0.7,2.4,1.3,3.7,1.8c-3-3.3-5.7-6.7-8.3-10.2
	c-2.5-3.6-5.4-7-8.6-10c-3.8-3.3-8.7-5.7-13.8-8.2c-24.8-11.9-51-26.1-76.1-38.9l1.9-3.7c23.4,12.2,46.6,24.4,69,34.9
	c6,2.8,11.9,5.3,16.9,8.6c4.3,3,8.1,6.7,11.1,11c4.5,5.8,8.1,11.9,13.7,17.5c1.8,2,3.9,3.7,6.1,5.3c2.5,1.6,5.5,2.8,8.2,4.3
	l16.4,8.6c2.8,1.5,5.5,3.1,8.2,4.3c2,0.7,4.1,1.4,6.2,1.9c6.1,1.8,12.2,3.3,18.3,5.2c16.3,5.1,33.1,12.1,50.3,19.3
	c8.5,3.6,17.1,7.2,25.6,11c8.2,3.6,17.1,7.6,25.9,12.2c8.8,4.6,17.7,9,26.1,13.4c4.3,2.1,8.4,4.4,12.4,7c7,4.9,11.9,11.1,16.2,17
	c1.2,1.4,2.2,2.9,3,4.6c0.7,1.6,1.2,3.3,1.7,5l-0.1,0c-0.7-0.5-1.5-1-2.4-1.2l-3.6-1.9c-0.6-0.5-1.2-0.8-1.9-1l-8.6-4.5
	c0.1-0.1,0-0.1,0-0.1C136.6,335,124.3,329.9,113.4,324z M160.7,348.1c-0.5-1.8-1.2-3.6-2.1-5.2c-0.8-1.3-1.9-2.6-3-4
	c-1-1.3-2.2-2.7-3.3-4c-2.3-2.8-5-5.3-8-7.4c-3-1.9-6-3.6-9.2-5.1c-6.1-2.8-11.6-5.7-17.7-8.6c-2.9-1.3-5.7-3-8.5-4.4
	c-11.4-5.9-22.5-11.7-33.6-16.4c-11.2-4.7-22.1-9.7-32.9-14.3c-5.5-2.3-11-4.6-16.3-6.7c-5.4-2.1-10.7-4.3-16-5.8
	c-5.2-1.5-10.4-2.9-15.6-4.2c2.2,0.9,4.7,2.8,7.2,3.7c1.5,0.6,3.2,0.9,4.9,1.3c5,1.4,10,3,15.1,4.8c6.8,2.4,13.7,5.3,20.7,8.3
	c14,6,28,12.4,42.1,18.9c7.3,3.4,14.4,7.3,21.5,11c7.2,3.8,14.5,7.3,21.4,11.2c7,3.9,14.5,7,20.2,11.4c2.4,2.1,4.7,4.4,6.7,6.9
	c1.4,1.7,2.6,3.7,3.4,5.7c0.3,0.8,0.5,1.6,0.9,2c0.6,0.6,1.8,0.8,2.3,1.2C161.1,348.5,160.8,348.1,160.7,348.1L160.7,348.1z
	 M147.3,335.4c-0.9-0.7-1.9-1.4-2.9-1.9c-2.5-1.3-5.5-2.9-8.3-4.2c-8-3.7-16-7.9-23.8-12c-16-8.3-32-16.5-47.4-23.6
	c-15-7.1-30.4-13.4-46.1-18.9c4.2,2,9,4.9,13.6,7.1c2.2,1,4.6,1.8,6.9,2.8c11.6,4.8,23.5,9.8,35.2,15.6c14.3,7,28.8,14.9,43.3,22.4
	c6.9,3.6,14.4,7.9,21.3,11.3c2.4,1.1,4.7,2.4,6.9,3.9c1.5,1.1,2.9,2.4,4,3.9c0.4,0.8,1,1.5,1.5,2.1c1.1,0.8,2.7,1.2,3.7,1.9
	C153.5,341.7,150.7,338.1,147.3,335.4z"/>
</svg>
