<?xml version="1.0" encoding="utf-8"?>
<!-- Generator: Adobe Illustrator 23.0.4, SVG Export Plug-In . SVG Version: 6.00 Build 0)  -->
<svg version="1.1" id="Ebene_1" xmlns="http://www.w3.org/2000/svg" xmlns:xlink="http://www.w3.org/1999/xlink" x="0px" y="0px"
	 width="1600px" height="600px" viewBox="0 0 1600 600" style="enable-background:new 0 0 1600 600;" xml:space="preserve">
<style type="text/css">
	.st0{opacity:0.05;fill:#0E1D2E;}
	.st1{fill:#FFFFFF;}
	.st2{fill:#E6E7E8;}
	.st3{fill:#2877FA;}
</style>
<ellipse class="st0" cx="799.5" cy="434" rx="645" ry="76"/>
<g>
	<g>
		<g>
			<path class="st1" d="M576.1621,83.9068l26.9609,30.812c0,0,30.3828-3.8511,42.792,1.2851c0,0,6.4185-23.5395,22.252-32.0971
				c0,0,31.665,51.352,41.935,79.1679c10.2691,27.8155,26.5313,70.606,28.6714,83.0152
				c2.1401,12.4092,9.8418,77.8808,1.2838,103.5547c-8.5581,25.6757-20.9673,43.2207-56.0571,50.4951v13.6933
				c0,0-9.8423,0.4307-22.252-18.3994l-13.2656,2.9961c0,0,2.5654,14.1192,0,17.544c0,0-17.9746-6.419-24.3916-17.9737h-11.1255
				c0,0,0.4277,17.5459-22.2529,15.833c-22.6812-1.7089-52.2051-3.4228-71.8902-15.4033
				c-19.6841-11.9814-42.3647-31.2402-45.3589-60.3369c-2.9956-29.0986,8.1275-74.458,19.6846-97.9941
				c11.5523-23.5342,38.94-75.7417,46.6431-90.291C547.4941,135.2588,576.1621,83.9068,576.1621,83.9068z"/>
			<path class="st2" d="M535.3972,371.1765c-3.7177,6.4399-7.731,12.6867-12.4631,18.433c-2.936,3.5653-3.4901,8.6133,0,12.1034
				c3.0267,3.0267,9.1507,3.5855,12.1033,0c5.6731-6.889,10.6791-14.1708,15.1395-21.8972
				C555.6943,370.2584,540.9088,361.6291,535.3972,371.1765L535.3972,371.1765z"/>
			<path class="st2" d="M565.1169,386.034c-2.1366,4.1101-5.2913,7.5622-7.4287,11.6718c-2.0641,3.9688-1.153,9.4781,3.0704,11.7095
				c3.9337,2.0783,9.5038,1.1705,11.7095-3.0703c2.1374-4.1096,5.2921-7.5616,7.4287-11.6718
				c2.0633-3.9692,1.1536-9.4778-3.0704-11.7095C572.8934,380.8857,567.3217,381.7927,565.1169,386.034L565.1169,386.034z"/>
			<path class="st2" d="M495.333,233.9951c13.9198,11.9252,32.6524,17.1168,50.6367,18.4266c10.9901,0.8004,10.9393-16.32,0-17.1167
				c-13.1024-0.9543-28.3152-4.6592-38.5334-13.4132C499.1126,214.7606,486.9507,226.8139,495.333,233.9951L495.333,233.9951z"/>
			<path class="st2" d="M484.7163,272.2002c6.4881,5.4136,13.2101,10.2049,21.2942,12.9081
				c7.662,2.5621,16.0373,2.9181,24.0373,3.4002c11.0024,0.6631,10.9636-16.4561,0-17.1168
				c-6.1976-0.3735-12.4452-0.6352-18.4252-2.451c-5.5662-1.6901-10.3754-5.1498-14.8029-8.8441
				c-3.5464-2.9591-8.6281-3.4753-12.1034,0C481.6727,263.1404,481.1505,269.2249,484.7163,272.2002L484.7163,272.2002z"/>
			<path class="st2" d="M471.5905,309.6302c12.4634,7.4808,26.0441,12.0157,40.4104,13.9135
				c4.5904,0.6064,8.5583-4.3676,8.5583-8.5583c0-5.1282-3.9542-7.9502-8.5583-8.5584
				c-10.7301-1.4175-22.1416-5.7967-31.7712-11.5766C470.7614,289.1673,462.1456,303.9612,471.5905,309.6302L471.5905,309.6302z"/>
			<path d="M604.6083,117.9613c4.8834-1.3701,12.9709-0.7381,18.6769-0.5329c8.8132,0.3169,18.6529,0.7478,26.848,4.3491
				c4.995,2.195,9.356-5.1767,4.3196-7.3899c-9.3279-4.0991-19.8521-5.0346-29.933-5.4689
				c-6.96-0.2999-15.3598-1.1254-22.1865,0.7899C597.0381,111.1942,599.2878,119.4541,604.6083,117.9613L604.6083,117.9613z"/>
			<path d="M606.0953,114.8598c-5.1942-10.2007-11.7191-19.2793-19.7707-27.4067c-3.882-3.9185-9.9338,2.1331-6.0517,6.0517
				c7.5638,7.6349,13.5535,16.0927,18.4325,25.6745C601.2053,124.0887,608.5918,119.7625,606.0953,114.8598L606.0953,114.8598z"/>
			<path d="M572.1683,81.9555c-17.3311,33.095-34.773,66.1454-53.0708,98.7187c-2.7007,4.8077,4.6893,9.127,7.3899,4.3195
				c18.2978-32.5733,35.7397-65.6237,53.0708-98.7187C582.1107,81.4007,574.7271,77.0692,572.1683,81.9555L572.1683,81.9555z"/>
			<path d="M512.7264,194.473c-9.7997,15.8356-19.3542,31.8657-27.0301,48.8615c-7.7101,17.0715-12.5791,34.2447-14.903,52.8049
				c-3.1784,25.385-5.4582,53.0898,8.8713,75.7535c9.9743,15.7755,25.8502,25.8138,42.8014,32.7763
				c5.0908,2.091,7.3083-6.1853,2.2751-8.2526c-14.2407-5.8492-28.0562-14.4366-36.7761-27.4406
				c-6.8073-10.1517-10.0309-22.0445-10.8243-34.1553c-0.7897-12.0551,0.424-24.1369,1.8894-36.0935
				c2.0858-17.0185,6.115-33.0253,13.033-48.7737c7.8395-17.8462,17.8128-34.6132,28.0532-51.161
				C523.0227,194.096,515.6223,189.7933,512.7264,194.473L512.7264,194.473z"/>
			<path d="M589.4892,409.4288c-18.1485,1.9739-37.6364-0.3007-54.1717-8.3357c-4.9335-2.3973-9.2778,4.9806-4.3196,7.3899
				c17.8825,8.6896,38.7953,11.6464,58.4913,9.5042C594.9062,417.398,594.9663,408.8331,589.4892,409.4288L589.4892,409.4288z"/>
			<path d="M604.9042,391.4499c5.5876,7.6461,3.4215,15.49-5.9407,18.1318c-5.2924,1.4933-3.0435,9.7534,2.2751,8.2526
				c14.2539-4.0221,19.9984-18.4666,11.0555-30.704C609.0769,382.728,601.6475,386.9934,604.9042,391.4499L604.9042,391.4499z"/>
			<path d="M515.295,350.7544c21.1388,22.0252,54.0986,34.1325,84.0502,36.6302c5.4885,0.4577,5.4582-8.1032,0-8.5583
				c-27.704-2.3103-58.4763-13.7827-77.9986-34.1236C517.5255,340.7214,511.4788,346.7783,515.295,350.7544L515.295,350.7544z"/>
			<path d="M620.8235,398.8776c5.902,10.2358,14.7189,18.1595,25.9056,22.1325c2.0183,0.7168,4.9069-0.8212,5.2639-2.9888
				c1.2374-7.5139,2.1765-15.0018,0-22.4411c-1.5434-5.2751-9.8049-3.0304-8.2527,2.2751c1.7285,5.9077,0.9844,11.9139,0,17.8908
				c1.7546-0.9962,3.5093-1.9925,5.2639-2.9887c-9.0602-3.2178-16.0452-9.9692-20.7908-18.1995
				C625.463,389.788,618.0647,394.0929,620.8235,398.8776L620.8235,398.8776z"/>
			<path d="M675.5875,390.4277c2.1848,7.554,4.941,15.3073,4.0923,23.2803c1.8055-1.3755,3.6111-2.7509,5.4167-4.1263
				c-8.3134-1.5427-16.525-9.0398-20.7908-16.0803c-2.8504-4.7044-10.2542-0.4079-7.3899,4.3196
				c5.3261,8.7904,15.5104,18.0844,25.9055,20.0133c2.9446,0.5464,5.1061-1.2086,5.4167-4.1263
				c0.926-8.6994-2.0126-17.3082-4.3979-25.5555C682.3128,382.8718,674.0518,385.1179,675.5875,390.4277L675.5875,390.4277z"/>
			<path d="M738.2233,340.3927c-4.7519,28.4363-23.5602,51.443-53.194,55.2324c-5.3884,0.6891-5.4572,9.2562,0,8.5583
				c16.5881-2.1212,32.0179-8.9137,43.2205-21.6179c9.861-11.1826,15.7831-25.2785,18.2261-39.8977
				C747.3762,337.2803,739.1304,334.9641,738.2233,340.3927L738.2233,340.3927z"/>
			<path d="M748.7469,329.8477c3.9825-45.7059-5.2835-90.586-21.2061-133.289c-1.9072-5.1148-10.1827-2.901-8.2526,2.2751
				c15.6868,42.0707,24.8243,85.9786,20.9003,131.0138C739.7105,335.3336,748.2717,335.3015,748.7469,329.8477L748.7469,329.8477z"
				/>
			<path d="M722.2254,179.5675c-12.7366-30.6382-27.7457-60.7721-45.0081-89.1257c-2.8601-4.6977-10.2645-0.402-7.3899,4.3196
				c16.8663,27.7029,31.6991,57.1418,44.1453,87.0813C716.0566,186.8553,724.3409,184.6564,722.2254,179.5675L722.2254,179.5675z"/>
			<path d="M652.8057,109.63c4.0453-8.9386,11.0164-17.2021,18.4339-23.5528c4.1904-3.5877-1.887-9.6173-6.0516-6.0517
				c-7.8825,6.7488-15.4719,15.7831-19.7722,25.285C643.1625,110.2894,650.5359,114.6456,652.8057,109.63L652.8057,109.63z"/>
			<path d="M564.2281,165.3374c-15.3655-8.6036-32.2721-13.1844-49.9259-11.1965c-5.4116,0.6093-5.4734,9.1747,0,8.5583
				c16.2256-1.827,31.4546,2.1041,45.6063,10.0281C564.7195,175.4211,569.0394,168.0314,564.2281,165.3374L564.2281,165.3374z"/>
			<path d="M561.0455,146.2246c-13.1517-7.497-27.4194-12.0131-42.5045-13.3176c-5.4864-0.4744-5.4547,8.0867,0,8.5583
				c13.5457,1.1714,26.3938,5.4278,38.1849,12.1492C561.5182,156.3462,565.8351,148.9548,561.0455,146.2246L561.0455,146.2246z"/>
			<path d="M691.0748,159.9816c14.114-7.9381,29.2631-12.9603,45.6053-12.1522c5.5051,0.2722,5.4908-8.2868,0-8.5583
				c-17.7989-0.8801-34.5583,4.6781-49.9249,13.3206C681.9544,155.2919,686.2636,162.6876,691.0748,159.9816L691.0748,159.9816z"/>
			<path d="M691.607,176.9723c14.6738-6.7283,30.0141-9.9323,46.1361-10.0345c5.5052-0.0349,5.5173-8.5933,0-8.5583
				c-17.7127,0.1122-34.3594,3.8224-50.4557,11.2029C682.287,171.8752,686.6308,179.254,691.607,176.9723L691.607,176.9723z"/>
			<path d="M626.9445,160.6132c1.7614,5.4634,1.5446,11.5419-3.8771,14.7879c-4.7341,2.8344-10.0893,1.6202-14.2533-1.573
				c-4.3683-3.3499-8.6353,4.0803-4.3196,7.3899c6.789,5.2062,16.4697,5.8436,23.6884,1.0681
				c8.1018-5.3597,9.856-15.1335,7.0142-23.948C633.5139,153.1172,625.2476,155.35,626.9445,160.6132L626.9445,160.6132z"/>
			<path d="M628.431,175.4372c3.2627,5.6468,7.8828,10.9914,14.6736,11.9879c6.9807,1.0244,12.9293-3.0973,17.5214-7.9349
				c3.7913-3.9939-2.2504-10.0562-6.0516-6.0517c-2.6148,2.7545-6.1416,6.2278-10.3368,5.5607
				c-4.0192-0.6391-6.5628-4.6732-8.4166-7.8817C633.0662,166.3502,625.6677,170.6548,628.431,175.4372L628.431,175.4372z"/>
			<path d="M622.7679,161.4791c5.9911,3.535,13.2695,2.7997,18.23-2.151c3.9036-3.8958-2.1468-9.9489-6.0516-6.0517
				c-2.2796,2.2751-5.1271,2.4246-7.8588,0.8128C622.3334,151.2841,618.0225,158.6792,622.7679,161.4791L622.7679,161.4791z"/>
			<path d="M658.7874,153.018c0.4512-2.9071-0.0234-10.1375,4.7141-9.0587c2.4628,0.5608,3.1976,4.8946,4.3245,6.8851
				c2.7134,4.7928,10.1098,0.4847,7.3899-4.3195c-1.3489-2.3827-2.0689-5.0621-3.799-7.2238
				c-2.1647-2.7047-5.3288-4.0004-8.7799-3.904c-3.7303,0.1042-7.3625,1.446-9.4119,4.7304
				c-1.9855,3.182-2.1314,7.0145-2.6904,10.6154C649.6984,156.1309,657.9438,158.4526,658.7874,153.018L658.7874,153.018z"/>
			<path d="M591.5997,153.1852c1.0765-2.1501,2.1594-4.3047,3.439-6.3434c0.7592-1.2094,2.2421-3.9749,3.7916-4.3109
				c1.8084-0.3921,1.8124,6.4874,2.0648,7.9197c0.9543,5.4145,9.2034,3.1198,8.2526-2.2751
				c-0.5442-3.0877-0.3875-6.3548-1.8411-9.2223c-1.6152-3.1863-4.8386-5.2132-8.4575-5.0803
				c-7.5723,0.2781-11.7331,9.1881-14.6394,14.9927C581.7507,153.7769,589.1308,158.1161,591.5997,153.1852L591.5997,153.1852z"/>
			<path d="M627.7228,188.4087c-1.7433-1.189-3.4343-3.0074-4.0251-5.1438c-0.616-2.2274-3.034-3.6016-5.2639-2.9888
				c-2.2343,0.614-3.6069,3.0286-2.9887,5.2639c1.2206,4.414,4.2484,7.7284,7.9582,10.2586
				c1.9102,1.3027,4.7456,0.3612,5.8547-1.5352C630.4951,192.1483,629.6374,189.7144,627.7228,188.4087L627.7228,188.4087z"/>
		</g>
		<path class="st3" d="M341.745,386.0401c0.0623-8.7426,0.6134-20.8531,7.7322-27.2018c3.8427-3.4271,8.6154-3.5704,12.6447-1.053
			c3.9263,2.4531,6.4094,6.9836,5.7725,11.7857c-1.1152,8.4085-9.7897,13.8498-16.6166,17.3395
			c2.1463,1.2317,4.2926,2.4633,6.439,3.6949c0.0005-4.9845-1.5808-16.4084,2.3473-19.6716c1.396-1.1597,4.567-1.8321,6.6632-2.3493
			c5.0612-1.2487,10.1749-2.2744,15.2365-3.5256c-1.7546-0.9962-3.5093-1.9925-5.2639-2.9887
			c2.1383,5.2761,3.268,9.8294,0.2074,14.9066c-2.8346,4.7023-6.352,8.8467-8.9034,13.7481
			c-2.54,4.8796,4.8431,9.2121,7.3899,4.3196c3.0035-5.77,7.6823-10.6049,10.3627-16.5091
			c2.8331-6.2406,1.6924-12.5809-0.8039-18.7404c-0.8872-2.1891-2.7966-3.5987-5.2639-2.9887
			c-5.5742,1.378-11.2416,2.4251-16.7859,3.9173c-3.2855,0.8843-6.7614,2.0245-9.2386,4.4778
			c-6.1135,6.0546-4.505,17.7015-4.5058,25.404c-0.0003,3.3824,3.5977,5.1473,6.439,3.6949
			c13.0272-6.659,27.4091-21.3241,18.0012-36.7527c-6.7215-11.0229-22.0092-13.5124-31.0656-3.8635
			c-7.9162,8.4341-9.2678,21.353-9.3462,32.3559C333.1473,391.5484,341.7057,391.5541,341.745,386.0401L341.745,386.0401z"/>
		<path class="st3" d="M364.8515,390.8869c-11.2634-0.7549-31.866-3.6052-32.813-18.454
			c-0.6727-10.5478,8.4759-20.0264,17.1406-24.5726c11.8313-6.2077,24.0204-3.2179,32.903,6.431
			c11.0416,11.9941,5.668,27.1846-6.6528,35.7375c-15.46,10.7321-36.1806,10.1586-48.632-4.7353
			c-3.5365-4.2302-9.5629,1.8517-6.0517,6.0517c13.7474,16.4441,36.7194,18.5119,54.9867,8.5418
			c15.7967-8.6217,27.1614-27.1923,17.6031-44.5705c-8.3693-15.2165-26.3422-23.2913-42.8705-17.3057
			c-13.0452,4.7242-25.2144,16.5006-26.824,30.8018c-2.5542,22.6938,23.7331,29.4612,41.2106,30.6325
			C370.3496,399.8138,370.327,391.2539,364.8515,390.8869L364.8515,390.8869z"/>
		<path class="st3" d="M472.1191,395.462c-8.0928,1.0103-17.3001,2.1907-23.2206-4.4577
			c-4.8694-5.4682-8.9448-10.0036-16.1902-12.3836c-7.5567-2.4822-14.9175-2.2803-21.5464,2.3727
			c-5.0539,3.5475-8.7384,9.055-14.0537,12.1717c-8.7466,5.1286-17.4823-8.074-21.7145-13.8482
			c-3.2227-4.3969-10.6526-0.1319-7.3899,4.3195c5.6583,7.7198,13.3673,18.5106,23.9118,19.3372
			c7.0504,0.5527,12.4146-4.1764,17.1448-8.7612c4.468-4.3307,9.2159-9.5343,16.0257-8.6562
			c8.5932,1.1081,12.578,5.8032,17.964,11.7318c7.5145,8.2715,18.7576,8.0196,29.0692,6.7323
			C477.5123,403.3471,477.5797,394.7803,472.1191,395.462L472.1191,395.462z"/>
	</g>
	<g>
		<path class="st1" d="M824.4799,309.1602c1.3423-18.8233,28.6705-112.543,42.792-139.0757
			c14.1216-26.5293,33.8052-75.7402,38.083-76.1694c4.2823-0.4282,25.6768,32.5215,25.6768,32.5215s30.3813-3.4239,43.2183,5.9912
			c0,0,11.8408-17.2774,14.9194-21.2295c3.9893-5.1333,7.9829-12.4087,13.1157-11.9795
			c5.1338,0.4248,10.9072,24.6509,13.4761,28.0752c2.5654,3.4219,30.8076,54.3447,35.515,62.9028
			c4.7075,8.5601,24.3927,45.7876,29.0978,54.7739c4.7098,8.9873,17.9736,38.086,21.3973,63.7598
			c3.424,25.6758,1.2832,53.0615-1.7124,61.6221c0,0,33.3785-3.8545,50.923-11.5537c17.5435-7.7041,48.3555-16.6895,66.7539-10.7012
			c18.4019,5.9941,30.8096,10.2725,29.5277,19.6855c-1.2837,9.4151-17.5443,9.8418-26.9594,11.127
			c-9.4117,1.2832-39.3677,8.5586-48.7823,12.4092c-9.4149,3.8525-44.932,15.834-62.9048,17.5439
			c-17.973,1.7119-56.4862,10.7002-74.4589,9.416C1016.187,416.9961,991.3686,414,991.3686,414s-16.2627,12.4082-20.5405,14.1192
			c-4.2788,1.7119-5.1362-11.9805-5.1362-11.9805s-25.2452,0-41.9346-1.7109c-16.6909-1.711-38.085-11.125-38.085-11.125
			s-11.5532,12.8359-16.6885,12.4082c-5.1381-0.4297-1.2841-16.2598-1.2841-16.2598s-26.959-13.2676-36.8018-31.668
			C821.0556,349.3828,823.6225,321.1397,824.4799,309.1602z"/>
		<path d="M1014.6451,195.4982c14.0764-6.8743,29.4023-10.133,44.9879-7.4998c5.3873,0.9102,7.7028-7.3356,2.2751-8.2526
			c-18.0485-3.0493-35.2433,0.3831-51.5826,8.3626C1005.3771,190.5249,1009.7104,197.9081,1014.6451,195.4982L1014.6451,195.4982z"
			/>
		<path d="M1018.8883,176.5943c12.1622-6.0592,25.2437-9.4651,38.8333-9.8806c5.4945-0.168,5.5182-8.727,0-8.5583
			c-15.1359,0.4627-29.6154,4.3047-43.1528,11.049C1009.6385,171.6607,1013.9684,179.0454,1018.8883,176.5943L1018.8883,176.5943z"
			/>
		<path d="M884.2696,168.0629c-13.3348-9.3139-28.3279-15.6913-44.7975-15.7218c-5.5073-0.0102-5.5156,8.5481,0,8.5583
			c15.0054,0.0278,28.3611,6.0902,40.4779,14.5534C884.4753,178.6135,888.7574,171.1975,884.2696,168.0629L884.2696,168.0629z"/>
		<path d="M882.8385,185c-14.1169-8.1286-29.1471-12.6032-45.3962-13.634c-5.4998-0.3489-5.4789,8.2108,0,8.5583
			c14.7321,0.9346,28.2917,5.104,41.0766,12.4656C883.3004,195.143,887.6155,187.7506,882.8385,185L882.8385,185z"/>
		<path d="M939.9982,177.278c-3.3399,8.819-1.8405,18.8462,6.3001,24.4656c8.0128,5.5311,17.8169,3.6212,25.4918-1.5526
			c4.5428-3.0624,0.2643-10.48-4.3196-7.3899c-4.7209,3.1825-10.644,5.4771-15.9058,2.18c-5.6316-3.5288-5.427-9.8483-3.3139-15.428
			C950.2035,174.3971,941.9333,172.1683,939.9982,177.278L939.9982,177.278z"/>
		<path d="M938.6053,189.977c-2.0561,3.1473-4.9536,6.9606-9.0604,7.1991c-3.8177,0.2217-6.2307-2.7568-8.4514-5.424
			c-3.5276-4.2369-9.5535,1.8457-6.0516,6.0517c4.0724,4.8913,8.9889,8.4679,15.6456,7.8372
			c6.8795-0.6518,11.7365-5.8779,15.3076-11.3443C949.0163,189.6721,941.6093,185.3788,938.6053,189.977L938.6053,189.977z"/>
		<path d="M948.2684,172.436c-2.4335,1.7441-5.4315,2.4449-7.9399,0.3512c-4.2006-3.506-10.2864,2.5171-6.0517,6.0517
			c5.3174,4.4382,12.5521,5.1145,18.3111,0.987C957.0256,176.6454,952.7571,169.2189,948.2684,172.436L948.2684,172.436z"/>
		<path d="M938.1226,221.0931c4.4698,1.2405,8.7997,1.11,13.0483-0.7888c2.1102-0.9431,2.6115-4.0146,1.5352-5.8547
			c-1.2708-2.1727-3.7365-2.4818-5.8547-1.5352c-2.0226,0.9039-4.4109,0.493-6.4537-0.074
			C935.0826,211.3653,932.8143,219.6199,938.1226,221.0931L938.1226,221.0931z"/>
		<path class="st2" d="M1170.6619,379.5437c-4.4851-9.8403-13.915-17.0392-24.2266-19.8589
			c-10.6399-2.9095-15.1798,13.5987-4.5504,16.5053c6.4183,1.7551,11.2415,5.9467,13.9971,11.9927
			c1.9171,4.2061,8.0084,5.2352,11.7095,3.0703C1171.9136,388.7252,1172.5861,383.7657,1170.6619,379.5437L1170.6619,379.5437z"/>
		<path class="st2" d="M1207.6163,377.3381c-4.7719-14.727-16.574-22.6841-31.6085-24.3232
			c-4.6021-0.5017-8.5583,4.2926-8.5583,8.5584c0,5.0441,3.9431,8.0552,8.5583,8.5584c7.1477,0.7792,12.8687,4.8604,15.1033,11.7568
			C1194.4924,392.3239,1211.0255,387.8595,1207.6163,377.3381L1207.6163,377.3381z"/>
		<path class="st2" d="M1069.6172,229.1905c-10.2216,8.7521-25.4457,12.4613-38.5464,13.4142
			c-10.9215,0.7944-11.0085,17.9175,0,17.1167c17.989-1.3085,36.7238-6.5036,50.6498-18.4276
			C1090.1011,234.1181,1077.9463,222.0589,1069.6172,229.1905L1069.6172,229.1905z"/>
		<path class="st2" d="M1080.2277,267.3966c-8.9613,9.4811-23.0436,12.7698-35.994,14.7941
			c-4.5704,0.7144-7.1023,6.4348-5.9775,10.5278c1.3397,4.8748,5.9437,6.694,10.5278,5.9775
			c15.7175-2.4568,32.2877-7.2835,43.547-19.1961C1099.8951,271.497,1087.8131,259.371,1080.2277,267.3966L1080.2277,267.3966z"/>
		<path class="st2" d="M1094.7023,305.3396c-9.6349,5.7763-21.046,10.1578-31.7789,11.5737
			c-4.5815,0.6044-8.5585,3.5008-8.5585,8.5584c0,4.1545,3.9432,9.1672,8.5585,8.5583
			c14.3688-1.8955,27.9487-6.4351,40.4181-13.9106C1112.7794,314.4612,1104.1827,299.6559,1094.7023,305.3396L1094.7023,305.3396z"
			/>
		<path d="M976.5184,127.6276c-17.028-5.8843-36.7882-8.5664-53.7573-1.1682c-5.0363,2.1957-0.6843,9.5715,4.3196,7.3899
			c14.6744-6.3978,32.6255-2.9926,47.1625,2.031C979.4598,137.6829,981.701,129.4185,976.5184,127.6276L976.5184,127.6276z"/>
		<path d="M978.5157,131.2507c4.8812-9.5772,10.8676-18.0378,18.4319-25.6697c3.8814-3.916-2.1672-9.9709-6.0516-6.0517
			c-8.0534,8.1253-14.5726,17.2039-19.7701,27.4018C968.6299,131.8283,976.0114,136.1644,978.5157,131.2507L978.5157,131.2507z"/>
		<path d="M998.5901,97.9543c17.014,33.2003,33.8836,66.5733,52.148,99.1084c2.6963,4.8031,10.0918,0.4935,7.3899-4.3196
			c-18.2644-32.5351-35.134-65.908-52.148-99.1084C1003.4674,88.7317,996.0804,93.0568,998.5901,97.9543L998.5901,97.9543z"/>
		<path d="M1057.101,210.8669c16.5898,26.716,35.4832,53.9995,39.7634,85.9368c0.7207,5.3785,9.2887,5.45,8.5583,0
			c-4.5172-33.7052-23.3931-62.0121-40.9319-90.2564C1061.5911,201.8777,1054.1843,206.17,1057.101,210.8669L1057.101,210.8669z"/>
		<path d="M989.017,406.5922c-4.7512,8.229-11.7315,14.9799-20.7932,18.1976c1.7546,0.9962,3.5092,1.9925,5.2639,2.9887
			c-0.9852-5.9794-1.7278-11.9792,0-17.8889c1.5486-5.2969-6.7078-7.5591-8.2526-2.2751c-2.1749,7.4391-1.238,14.9258,0,22.4392
			c0.3581,2.1733,3.2557,3.7018,5.2639,2.9887c11.1904-3.9735,19.9998-11.8979,25.908-22.1306
			C999.1658,406.1333,991.7731,401.8187,989.017,406.5922L989.017,406.5922z"/>
		<path d="M866.9567,389.7472c-2.3856,8.248-5.3248,16.8532-4.4058,25.5546c0.3083,2.9194,2.4739,4.6709,5.4167,4.1263
			c10.3959-1.9236,20.5928-11.2199,25.9061-20.0135c2.8556-4.7262-4.542-9.0329-7.3899-4.3195
			c-4.2593,7.0493-12.476,14.5417-20.7913,16.0804c1.8055,1.3755,3.6111,2.7509,5.4167,4.1263
			c-0.842-7.9726,1.9154-15.7259,4.1001-23.2794C876.7425,386.7215,868.4865,384.458,866.9567,389.7472L866.9567,389.7472z"/>
		<path d="M822.6412,349.9726c3.3902,19.6093,15.8386,36.2248,31.8192,47.5886c4.4968,3.1977,8.7759-4.2209,4.3196-7.3899
			c-14.2556-10.1371-24.8801-25.0869-27.8861-42.4738C829.9573,342.2808,821.7084,344.577,822.6412,349.9726L822.6412,349.9726z"/>
		<path d="M863.2474,193.9145c11.4153-27.5463,22.882-55.7242,38.3747-81.2898c2.8619-4.7226-4.5361-9.0288-7.3899-4.3196
			c-15.8761,26.1982-27.54,55.107-39.2375,83.3342C852.8884,196.7223,861.1654,198.9386,863.2474,193.9145L863.2474,193.9145z"/>
		<path d="M935.6154,125.2528c-2.7688-6.2009-6.747-11.9517-10.6463-17.482c-3.8462-5.4549-7.8693-11.2705-12.9427-15.6712
			c-4.1429-3.5936-10.2214,2.4348-6.0516,6.0517c4.8735,4.2273,8.7022,9.7552,12.36,15.0185
			c3.6175,5.2053,7.2977,10.5953,9.8908,16.4026C930.4669,134.5923,937.8441,130.2441,935.6154,125.2528L935.6154,125.2528z"/>
		<path d="M991.5014,419.4218c16.6639,2.1372,33.3509,3.5255,50.1652,3.0024c23.7915-0.7402,47.4341-4.4773,70.7908-8.8593
			c5.4065-1.0143,3.1168-9.2643-2.2751-8.2526c-23.0071,4.3164-46.2551,7.9609-69.6949,8.5878
			c-16.4183,0.4391-32.7157-0.9498-48.9859-3.0365C986.0537,410.1647,986.1047,418.7296,991.5014,419.4218L991.5014,419.4218z"/>
		<path d="M1098.6422,307.5097c5.47,25.359,2.9845,50.0461-9.1317,73.1235c-2.5579,4.8721,4.8259,9.2032,7.3899,4.3196
			c13.2191-25.1784,15.9634-52.0461,9.9944-79.7183C1105.7341,299.8534,1097.4819,302.1306,1098.6422,307.5097L1098.6422,307.5097z"
			/>
		<path d="M828.9193,338.2178c-3.9058-46.1411,13.1331-89.6993,29.04-132.086c1.9375-5.1627-6.332-7.3928-8.2526-2.2751
			c-16.168,43.0823-33.315,87.4709-29.3458,134.3612C820.8221,343.6656,829.3846,343.7146,828.9193,338.2178L828.9193,338.2178z"/>
		<path d="M894.5108,412.4242c21.615,7.4295,46.937,9.6701,69.6044,6.9976c5.4038-0.6371,5.4681-9.2031,0-8.5583
			c-22.0146,2.5956-46.3351,0.5242-67.3292-6.6919C891.5662,402.3774,889.3243,410.6415,894.5108,412.4242L894.5108,412.4242z"/>
		<path d="M1098.769,376.0624c23.9335,0.3117,44.618-8.8963,66.2213-17.9136c9.5477-3.9852,19.4905-7.6595,29.8531-8.706
			c12.6096-1.2734,24.9213,1.4811,36.4127,6.636c4.984,2.2357,9.3416-5.1371,4.3196-7.3899
			c-11.5201-5.1677-23.7294-8.5357-36.4497-8.093c-11.0548,0.3847-21.7004,3.4469-31.9312,7.4784
			c-22.5446,8.884-43.5286,19.754-68.4259,19.4298C1093.26,367.4323,1093.2571,375.9906,1098.769,376.0624L1098.769,376.0624z"/>
		<path d="M1125.0127,412.581c13.218-1.7126,25.438-5.9885,37.4733-11.5988c12.0596-5.6216,24.0591-12.746,37.048-16.0281
			c14.5367-3.6733,31.4902,2.063,45.1932-5.416c8.1785-4.4638,9.0959-13.2294,6.5094-21.4431
			c-1.6486-5.2351-9.9136-2.9994-8.2526,2.2751c1.0267,3.2606,2.1987,7.4447-0.4208,10.2534
			c-2.3716,2.5429-6.7042,3.2231-9.9435,3.6963c-9.0914,1.3279-18.3677,0.4629-27.5035,1.2227
			c-12.5016,1.0397-24.1871,7.0616-35.3234,12.4502c-14.3943,6.9652-28.7253,13.9497-44.7802,16.0299
			C1119.627,404.7205,1119.5574,413.2878,1125.0127,412.581L1125.0127,412.581z"/>
		<path class="st3" d="M1034.9891,442.8063c3.868,2.5285,8.0593,4.6217,12.4279,6.1364c5.2146,1.8081,7.4553-6.4565,2.2751-8.2526
			c-3.6729-1.2735-7.1356-3.1505-10.3834-5.2737C1034.6851,432.394,1030.3918,439.8011,1034.9891,442.8063L1034.9891,442.8063z"/>
		<path class="st3" d="M1092.6605,450.9176c-1.6141-1.6157-3.3881-3.048-5.427-4.0939c-1.9899-1.0207-4.7349-0.5844-5.8547,1.5352
			c-1.0341,1.9572-0.5914,4.7639,1.5352,5.8547c0.4948,0.2538,0.9821,0.5187,1.4519,0.8167
			c0.2062,0.1308,0.4087,0.2671,0.6079,0.4082c0.2961,0.2098,0.5386,0.6192-0.1144-0.0979c0.526,0.5776,1.1932,1.0718,1.7495,1.6287
			c1.5842,1.5858,4.4888,1.7025,6.0516,0C1094.2292,455.2603,1094.3512,452.6098,1092.6605,450.9176L1092.6605,450.9176z"/>
		<path class="st3" d="M880.0718,115.7773c3.1252,3.1252,6.3347,6.1553,9.9926,8.6588c1.908,1.3059,4.7469,0.3589,5.8547-1.5352
			c1.2386-2.1178,0.3773-4.5458-1.5352-5.8547c-3.0417-2.0818-5.6624-4.7226-8.2605-7.3206
			C882.2238,105.8262,876.1705,111.8762,880.0718,115.7773L880.0718,115.7773z"/>
		<path class="st3" d="M886.1234,456.3999c3.7288-3.5957,8.4312-7.5203,13.9202-7.5179c5.3829,0.0023,9.1442,4.2003,11.8801,8.3638
			c3.0123,4.584,10.4263,0.3013,7.3899-4.3196c-4.215-6.4143-10.0239-12.0439-18.0781-12.5566
			c-8.2905-0.5277-15.4706,4.4888-21.1636,9.9787C876.0997,454.1786,882.1558,460.226,886.1234,456.3999L886.1234,456.3999z"/>
		<path class="st3" d="M943.5811,452.3666c3.5804,1.1575,7.1297,1.6086,9.4241,4.8792c-0.1948-0.7199-0.3895-1.4398-0.5842-2.1598
			c-0.0135,0.6201-0.2652,1.7861-0.2622,2.0394c-0.0084-0.7235,1.3003-0.6639,0.0289-0.488
			c-1.7289,0.2393-3.5219,0.6504-5.1857,1.1679c-5.2422,1.6306-3.005,9.895,2.2751,8.2526c2.4787-0.771,5.301-0.785,7.59-2.1034
			c2.7007-1.5555,3.7823-4.3617,4.0419-7.3285c0.7014-8.0157-9.1898-10.6167-15.0528-12.5121
			C940.6034,442.4158,938.3536,450.6766,943.5811,452.3666L943.5811,452.3666z"/>
		<g>
			<path d="M979.3602,159.1789c-1.9134-0.5815-3.7272-0.2269-5.5947,0.2751c-0.7975,0.2144-0.2936-0.0148,0.3984-0.015
				c-0.4617,0.0001,1.3157,0.256,0.8039,0.1088c0.8961,0.2577,1.6029,0.8088,2.0996,1.5849
				c-0.3246-0.5072,0.5086,1.1433,0.21,0.4893c-0.1669-0.3657,0.0565-0.8748,0.0023,0.328
				c0.0269-0.5956-0.0825-1.2329-0.0865-1.8337c-0.1948,0.7199-0.3895,1.4399-0.5842,2.1598
				c0.162-0.2641,0.363-0.5285,0.5115-0.8012c0.2742-0.5038-0.5567,0.5501-0.0428,0.0475c0.1387-0.1357,0.6609-0.5934,0.0247-0.0954
				c-0.3393,0.2418-0.3912,0.2901-0.1556,0.1448c-0.257,0.1118-0.514,0.2235-0.771,0.3353
				c-0.7556,0.1969-1.5204,0.1446-2.2408-0.1486c-0.2895-0.0746-0.5394-0.218-0.7495-0.4302
				c-0.3626-0.299-0.445-0.3579-0.2471-0.1768c0.0914,0.0595,0.1348,0.1887,0.222,0.2497c0.2693,0.1884-0.705-0.9499-0.3642-0.4651
				c1.3692,1.9474,2.9374,3.3183,5.4264,3.4595c2.2388,0.127,4.3786-2.0589,4.2792-4.2792
				c-0.1087-2.427-1.8809-4.1432-4.2792-4.2792c0.8962,0.1679,1.1398,0.1958,0.7306,0.0839
				c0.7972,0.3807,1.0187,0.4623,0.6645,0.2446c0.1168,0.0695,1.0259,0.7386,0.4481,0.2892
				c-0.2256-0.1754-0.6389-0.9993,0.2968,0.4024c-0.0955-0.1431-0.2042-0.2797-0.3071-0.4176
				c-0.9216-1.2344-1.939-2.4411-3.5395-2.7948c-1.9908-0.4399-3.9116,0.2065-5.3293,1.6541
				c-0.5877,0.6-1.0868,1.3014-1.5529,1.9981c-0.7993,1.1946-1.048,2.4327-0.9771,3.8367c0.0745,1.4762,0.2438,3.0222,1.0208,4.3187
				c0.9564,1.5959,2.6043,2.4756,4.4354,2.546c0.8939,0.0344,1.7527-0.2522,2.5967-0.4916
				c0.1959-0.0556,0.3986-0.0934,0.5933-0.1513c0.6231-0.1854-1.1917,0.0204-0.496,0.0592c0.0778,0.0043,0.4446,0.0235,0.511-0.0047
				c-0.8423-0.1338-1.0431-0.1604-0.6024-0.0798c0.125,0.0271,0.2482,0.061,0.3695,0.1015
				c2.1416,0.6508,4.7599-0.7762,5.2639-2.9887C982.8754,162.1314,981.6535,159.8758,979.3602,159.1789L979.3602,159.1789z"/>
			<path d="M910.2886,155.7808c0.2025,1.9495,1.156,3.3133,2.5641,4.5824c0.2528,0.2279,0.4104,0.7763-0.3779-0.5058
				c0.1248,0.203,0.2047,0.538-0.0516-0.1996c-0.2516-0.7241-0.4407-1.4984-0.1747-2.2714
				c0.2573-0.7476,0.7889-1.4505,1.1268-1.7286c0.3378-0.2416,0.4104-0.3056,0.218-0.1919
				c-0.2774,0.151-0.1011,0.0834,0.5289-0.2028c-0.1877-0.0141-0.4888,0.1646-0.6703,0.2157
				c-0.7029,0.1979-1.4267,0.313-2.1476,0.4217c1.6108,0.6555,3.2217,1.311,4.8325,1.9665
				c-0.175-0.2438-0.3373-0.4919-0.4968-0.7461c-0.1706-0.272-0.354-0.9354,0.023,0.1227
				c-0.2016-0.5658,0.0347,0.3504,0.0427,0.4894c-0.0379-0.6569-0.1727,0.7301-0.2313,0.9333
				c-0.0285,0.0989-0.7878,1.1926-0.273,0.5266c0.1034-0.1337,0.6238-0.5138-0.0062-0.0175
				c-0.6313,0.4973-0.1049,0.0912,0.0208,0.0047c2.0325-1.3984,3.4689-2.938,3.6309-5.5273c0.14-2.2384-2.0682-4.3782-4.2792-4.2792
				c-2.4381,0.1092-4.1293,1.8813-4.2792,4.2792c-0.0168-0.4327,0.0754-0.8347,0.2768-1.2062
				c0.1968-0.4112,0.2253-0.4922,0.0856-0.2429c-0.0082,0.0138,0.6911-0.9498,0.3644-0.5043
				c-0.5421,0.7392,0.884-0.6114-0.0427,0.0375c-0.7663,0.5366-1.5768,1.0784-2.1827,1.799
				c-2.1927,2.6076-1.9827,5.9481-0.0432,8.6507c1.2381,1.7253,2.7792,2.2762,4.8325,1.9665
				c3.4675-0.5229,7.5927-2.2413,7.0197-6.5055c-0.1872-1.3931-0.8822-2.4804-1.8382-3.4883
				c-0.1915-0.2019-0.3975-0.3925-0.6-0.5832c-0.0905-0.0851-0.168-0.1898-0.2621-0.2703c0.452,0.3869,0.8302,1.3396,0.9481,2.4749
				c-0.2305-2.2195-1.8029-4.3901-4.2792-4.2792C912.4476,151.5966,910.041,153.3964,910.2886,155.7808L910.2886,155.7808z"/>
		</g>
	</g>
</g>
</svg>
