<svg xmlns="http://www.w3.org/2000/svg" width="54" height="54" viewBox="0 0 54 54"><path d="M46.08,54H7.92A7.943,7.943,0,0,1,0,46.08V7.92A7.943,7.943,0,0,1,7.92,0H46.08A7.943,7.943,0,0,1,54,7.92V46.08A7.943,7.943,0,0,1,46.08,54Z" fill="rgba(255,255,255,0)"/><path d="M415.817,155.662,405.01,144.855v9.158c0,.009,0,.018,0,.027a1.62,1.62,0,0,0,1.618,1.62l0,0Z" transform="translate(-375.849 -134.426)" fill="#fff"/><path d="M210.016,144.855l10.807,10.807h-9.187l0,0a1.62,1.62,0,0,1-1.618-1.62c0-.009,0-.018,0-.027v-9.158H196.328a1.445,1.445,0,0,0-1.441,1.441v30.259A1.445,1.445,0,0,0,196.328,178h23.054a1.445,1.445,0,0,0,1.441-1.441V155.662Z" transform="translate(-180.855 -134.426)" fill="#fff" opacity="0.4"/><path d="M264.456,265.347a1.126,1.126,0,0,1,1.123-1.123h4.083a1.126,1.126,0,0,1,1.123,1.123h0a1.126,1.126,0,0,1-1.123,1.123h-4.083a1.126,1.126,0,0,1-1.123-1.123Zm7.961,13.677a1.126,1.126,0,0,1-1.123,1.123h-5.716a1.126,1.126,0,0,1-1.123-1.123h0a1.126,1.126,0,0,1,1.123-1.123h5.716a1.126,1.126,0,0,1,1.123,1.123Zm7.961-4.287a1.126,1.126,0,0,1-1.123,1.123H265.579a1.126,1.126,0,0,1-1.123-1.123h0a1.126,1.126,0,0,1,1.123-1.123h13.677a1.126,1.126,0,0,1,1.123,1.123Zm0-4.287a1.126,1.126,0,0,1-1.123,1.123H265.579a1.126,1.126,0,0,1-1.123-1.123h0a1.126,1.126,0,0,1,1.123-1.123h13.677a1.126,1.126,0,0,1,1.123,1.123Z" transform="translate(-245.415 -245.2)" fill="#fff"/></svg>