<?xml version="1.0" encoding="utf-8"?>
<!-- Generator: Adobe Illustrator 23.0.4, SVG Export Plug-In . SVG Version: 6.00 Build 0)  -->
<svg version="1.1" id="Ebene_1" xmlns="http://www.w3.org/2000/svg" xmlns:xlink="http://www.w3.org/1999/xlink" x="0px" y="0px"
	 width="1600px" height="1080px" viewBox="0 0 1600 1080" style="enable-background:new 0 0 1600 1080;" xml:space="preserve">
<style type="text/css">
	.st0{opacity:0.05;fill:#0E1D2E;enable-background:new    ;}
	.st1{fill:#2877FA;}
	.st2{fill:#FFFFFF;}
	.st3{fill:#E6E7E8;}
</style>
<ellipse class="st0" cx="799.5" cy="966" rx="645" ry="76"/>
<g>
	<g>
		<path class="st1" d="M824.4926,947.4843c54.6127-57.7017,100.6101-123.6395,135.9575-194.7902
			c35.6321-71.7237,60.5573-148.9226,70.9512-228.4241c3.8689-29.5923,4.618-59.0315-0.2827-88.5662
			c-4.5168-27.2206-13.6549-54.6648-31.0406-76.4684c-17.4238-21.8514-42.6277-33.9186-70.4127-35.3568
			c-29.4737-1.5255-57.9622,10.4085-82.3162,26.0738c-27.4905,17.6828-51.4978,40.5383-73.4059,64.6507
			c-20.8589,22.9576-39.9397,47.4813-58.1681,72.5594c-40.5394,55.7729-79.8945,112.7327-109.1028,175.4297
			c-30.0336,64.4686-51.9556,138.9653-34.507,210.0421c8.0775,32.9037,25.6666,63.0602,47.6669,88.6017
			c21.9483,25.4811,50.0401,48.005,82.6467,57.8326c48.082,14.4919,99.5292-9.4922,135.6844-40.6532
			c36.7268-31.6535,63.0375-74.3143,81.879-118.5739c20.8865-49.0635,33.4481-101.5034,39.0012-154.4772
			c5.3567-51.0986,4.2283-103.4547-6.437-153.8253c-9.4327-44.5491-26.9736-91.0912-60.9148-122.8497
			c-49.1111-45.9528-121.1223-54.5079-184.217-37.6071c-32.2687,8.6436-63.4318,23.8492-89.6338,44.6195
			c-24.8549,19.7025-44.6166,45.2513-58.2452,73.8399c-27.9282,58.5845-31.621,125.9238-28.3209,189.7522
			c1.6364,31.6505,5.4294,62.9017,15.2686,93.1547c8.5577,26.3128,21.0416,51.4778,37.8511,73.5111
			c29.1106,38.1572,71.075,66.5651,118.9784,74.0586c48.8931,7.6483,98.0632-7.1075,137.2525-36.7076
			c42.2639-31.9224,73.2367-77.916,92.2721-126.9874c15.6223-40.2728,25.0419-83.016,30.3271-125.8171
			c5.5452-44.9067,6.3601-90.9584-1.2813-135.6742c-6.4542-37.7685-19.7051-77.0269-47.303-104.7513
			c-28.2782-28.4079-67.848-37.2455-106.7742-32.3566c-20.7181,2.6021-42.2822,7.4468-60.9517,17.0996
			c-15.7397,8.138-29.9264,19.2654-43.0142,31.1245c-33.4996,30.3546-61.339,67.2369-85.0408,105.5764
			c-24.8825,40.2493-45.9311,83.746-58.6572,129.4368c-10.0513,36.0876-16.5042,77.83-2.8828,113.9017
			c5.8939,15.6078,15.6426,29.1974,29.0186,39.2388c15.4443,11.5941,34.4128,17.4128,53.3596,19.9304
			c38.9014,5.1691,77.7276-4.041,114.4433-16.4497c46.8805-15.8442,91.9279-37.9439,133.5596-64.652
			c40.1655-25.7674,78.8453-56.5389,107.3073-95.222c22.9012-31.1256,38.7524-69.9871,29.2321-108.9427
			c-5.0225-20.5519-16.5969-38.8556-30.9127-54.2109c-20.9942-22.5188-47.4363-39.9218-77.0916-48.5472
			c-67.0882-19.5129-140.2389,3.7579-198.3611,38.1211c-27.0605,15.9988-52.0806,35.3077-74.2394,57.6082
			c-17.5286,17.6406-33.8818,36.4701-49.3807,55.9083c-37.515,47.05-71.7992,98.7708-92.6706,155.5267
			c-17.5908,47.8349-25.2243,104.7515,7.8901,147.8094c27.2306,35.4072,68.1247,53.9524,112.1907,56.6511
			c49.0702,3.0051,98.2676-11.0305,142.9337-30.2455c49.9767-21.4996,96.5642-51.0913,138.4257-85.7524
			c37.7084-31.2224,73.0624-67.4732,98.208-109.7619c10.0571-16.9136,18.6072-35.1846,22.9676-54.4537
			c4.8746-21.5421,5.2485-44.0807,1.6743-65.8415c-7.4493-45.3527-32.8414-85.9111-65.0383-117.9587
			c-35.069-34.9062-78.5962-61.0987-124.8092-78.3956c-45.2869-16.9503-94.7499-25.7386-143.1-21.1315
			c-44.938,4.282-88.8687,20.8675-121.3831,52.9357c-34.4183,33.946-53.4612,81.6851-60.4888,128.8708
			c-7.6006,51.0331-2.4014,103.6976,12.3261,153.0151c14.7515,49.3978,39.2853,96.4551,73.6628,135.0578
			c32.5543,36.5554,74.833,65.1508,122.9077,76.2825c24.9497,5.7771,50.7862,6.759,76.1475,3.3646
			c19.2231-2.5728,38.3265-7.1046,54.2214-18.7501c28.3339-20.7592,38.915-55.827,41.3133-89.4739
			c3.1652-44.4062-5.7318-89.5834-17.7266-132.1333c-13.7838-48.8961-32.9981-96.3456-55.7917-141.7137
			c-20.6944-41.1899-44.4865-81.334-73.4271-117.3123c-11.0449-13.7307-22.9542-26.9824-36.5055-38.2987
			c-15.5634-12.9965-33.3192-21.8171-53.3149-26.0172c-25.0969-5.2715-49.9868,0.4207-67.1129,20.2696
			c-18.2079,21.1027-26.0819,49.8724-31.3752,76.638c-14.8509,75.0937-9.1018,152.8957,14.5501,225.5929
			c11.9963,36.8723,28.4174,72.3602,48.8752,105.302c19.3306,31.1267,41.8281,60.5436,70.233,83.9316
			c52.4269,43.1672,127.3796,71.8161,192.6989,40.4293c27.3832-13.158,49.6606-35.1755,64.15-61.7661
			c14.1489-25.9659,21.1846-55.2021,24.0898-84.4655c5.8576-59.002-4.2393-119.272-22.2731-175.4062
			c-19.9052-61.9592-50.5906-123.3562-101.7681-165.4013c-24.9567-20.5033-54.3115-35.3994-86.0887-41.7225
			c-31.5687-6.2816-66.1161-5.6837-96.1125,6.9038c-55.3938,23.2451-77.9882,82.5529-82.733,138.621
			c-2.579,30.4768-0.3098,61.3358,3.5981,91.6068c4.046,31.3411,10.3526,62.4084,19.3486,92.7119
			c17.7593,59.823,46.3281,120.2455,93.9916,162.0599c23.7322,20.8199,52.2982,36.1587,82.7816,44.4454
			c27.0637,7.3571,56.4998,8.3304,82.7775-2.5369c46.1304-19.0776,71.0322-68.6752,78.934-115.6887
			c5.9625-35.4756,6.1798-72.0001,5.1215-107.8604c-1.3856-46.9454-5.9521-93.8197-13.0156-140.2427
			c-7.3458-48.2783-17.4699-96.2964-32.0236-142.9424c-12.5988-40.3804-28.3991-80.9074-52.1802-116.1359
			c-17.8926-26.5055-42.0529-51.9702-73.9646-60.3987c-38.0112-10.0396-76.4383,7.6422-103.273,34.2388
			c-19.1781,19.0079-33.9778,42.2246-46.1033,66.2199c-13.1024,25.9286-23.336,53.2947-31.6963,81.0911
			c-14.7064,48.8958-23.7626,99.3127-26.9622,150.2503c-3.7911,60.3549-0.1012,121.8346,12.9971,180.9354
			c13.1327,59.256,36.9028,119.4017,80.655,162.8708c33.5663,33.3492,81.2125,57.6943,129.3765,56.6149
			c40.1314-0.8994,76.5116-20.1266,105.496-46.9556c33.3721-30.8904,58.0629-70.6776,77.168-111.6251
			c20.8535-44.6946,35.6978-92.264,44.9034-140.6912c8.3239-43.7886,12.6346-89.1627,8.2318-133.6576
			c-1.7903-18.0905-4.9769-36.2304-11.1133-53.3902c-10.5257-29.4339-27.1323-57.8082-46.0641-82.5822
			c-19.6627-25.7303-43.4763-48.4754-71.4704-64.9652c-27.937-16.4561-59.4959-26.0141-91.8825-27.6921
			c-52.9542-2.7436-120.5707,12.7144-135.3782,71.5102c-8.4435,33.5265,0.3786,67.4264,10.8085,99.2975
			c12.5518,38.355,27.8511,75.8465,44.1077,112.7628c20.0392,45.5059,41.9888,90.2225,66.2461,133.6334
			c23.2001,41.5189,48.478,82.2159,78.2323,119.3984c21.986,27.4749,47.8969,56.4384,80.4994,71.373
			c12.0289,5.5103,25.2962,8.9619,38.5975,7.4413c14.4283-1.6495,29.0544-8.8356,38.3438-20.1452
			c13.0593-15.8997,14.8816-37.7147,13.0981-57.4603c-2.3326-25.8272-10.1412-51.0197-19.2792-75.1683
			c-16.8116-44.4274-39.1777-86.4777-62.5456-127.7413c-34.901-61.6293-78.9724-118.0882-135.5598-161.3093
			c-51.2951-39.1789-114.1207-65.6523-179.4583-65.1172c-33.7001,0.276-68.3296,10.8074-86.9335,40.8462
			c-17.9106,28.9193-17.5157,65.8264-12.9134,98.3521c5.9922,42.3477,20.5054,83.3885,37.8125,122.3302
			c17.9034,40.2835,39.5789,79.0987,64.934,115.1746c19.8426,28.2326,42.0295,55.9999,70.1736,76.3831
			c22.3638,16.1969,46.9434,29.4149,72.4328,39.9688c27.0088,11.1829,55.8998,19.5087,85.2496,20.7357
			c25.7005,1.0745,52.1381-4.1497,72.6602-20.4279c21.6865-17.202,33.3064-44.4634,35.1154-71.6711
			c1.8709-28.1396-6.8513-55.9452-19.3331-80.8475c-14.0251-27.9816-33.1571-53.3036-53.8661-76.6536
			c-35.8289-40.3982-77.3076-76.0193-121.2651-107.2881c-45.1639-32.127-92.9727-62.445-144.9034-82.3902
			c-42.3192-16.2537-106.8423-30.6302-137.7523,14.0859c-14.6181,21.1473-13.5709,49.2455-9.1162,73.4046
			c5.3115,28.8054,16.3123,56.5076,28.7743,82.8997c11.0507,23.4034,23.3182,46.8549,38.369,67.9657
			c20.0142,28.0727,45.0462,52.2306,73.635,71.4816c57.3232,38.6003,126.9492,56.4666,195.6127,57.1012
			c59.9682,0.5543,130.2775-8.405,173.096-55.1935c18.898-20.6501,28.9221-47.4098,28.0308-75.4181
			c-0.7662-24.0801-7.9114-48.708-21.3193-68.8311c-21.7635-32.6628-55.4185-56.9061-88.8678-76.4288
			c-41.4053-24.1662-86.5007-42.3399-132.6182-55.2646c-45.0298-12.6198-92.2074-20.6763-139.0958-19.3887
			c-37.4979,1.0297-77.9067,8.092-108.3901,31.4546c-13.6486,10.4603-24.6048,24.0333-31.4481,39.8475
			c-8.1674,18.8741-10.5361,39.9965-10.1895,60.4146c0.6929,40.8104,16.7702,79.0922,46.736,107.0114
			c30.522,28.4373,70.7211,44.7646,110.9536,53.8011c45.2891,10.1721,92.5089,11.8816,138.6235,7.38
			c43.9763-4.2928,87.9207-14.0928,128.4169-32.0526c34.2609-15.1944,66.1157-37.5463,86.5389-69.5908
			c7.3649-11.5556,12.9984-24.9705,12.7819-38.8921c-0.1913-12.2979-5.1671-23.5811-12.9117-32.9785
			c-19.6568-23.8516-52.7827-35.5052-81.4847-43.7409c-40.5559-11.6371-82.8723-17.2501-124.8593-20.4512
			c-43.0642-3.2832-86.4431-3.7684-129.5545-1.0829c-31.8494,1.984-65.1599,4.7064-95.6788,14.6743
			c-24.9695,8.1553-48.4521,22.9902-67.7679,40.6127c-24.5605,22.4075-43.7249,52.3935-46.3766,86.1658
			c-2.5847,32.9182,12.1534,66.1766,35.9549,88.6139c20.0676,18.9174,46.1349,29.9593,72.8252,35.7239
			c57.6506,12.4516,118.7197,4.5996,175.9603-6.3718c48.7448-9.343,97.1924-22.4111,143.3687-40.7005
			c26.1403-10.3536,51.8647-22.4639,75.1716-38.2999c20.3354-13.817,39.7229-30.9127,51.418-52.8904
			c11.3079-21.2501,13.8859-45.6989,4.8221-68.2543c-10.3994-25.8795-31.0997-46.4939-52.7636-63.3383
			c-43.2718-33.6453-95.6008-58.1357-149.1282-69.9606c-61.823-13.6575-129.8665-14.4031-190.6143,4.7906
			c-28.6475,9.0514-56.215,23.2332-77.7264,44.5091c-21.651,21.4138-36.2196,49.0104-41.455,79.0488
			c-5.0941,29.2271-1.5356,61.2546,16.2727,85.7863c10.5447,14.5258,23.5534,23.889,40.4461,29.1301
			c15.0594,4.6724,30.9174,6.7989,46.5798,8.1797c19.9388,1.7577,40.0048,2.0056,60.005,1.485
			c47.0899-1.2256,94.1487-6.6573,140.48-15.0593c44.6898-8.1043,89.3714-18.9194,131.6929-35.6153
			c17.1984-6.7848,34.1819-14.533,49.7953-24.497c11.9401-7.6197,23.4548-16.6555,31.6714-28.3338
			c6.7588-9.6063,10.3684-21.1024,8.5963-32.8455c-2.4729-16.3878-14.4318-30.673-26.6664-41.0305
			c-19.4632-16.4769-43.5504-26.8535-67.6235-34.5977c-27.7684-8.9329-56.588-14.4014-85.462-18.2632
			c-48.9191-6.5427-99.1763-9.3543-148.462-5.7214c-56.9282,4.1963-115.0192,13.8984-167.9813,35.8616
			c-25.7454,10.6765-50.6526,24.484-70.9712,43.7969c-18.3187,17.412-30.526,38.7208-38.1642,62.6819
			c-8.7891,27.5716-10.4052,59.3179,9.8815,82.3116c19.4935,22.0945,51.1754,29.6862,79.1923,33.2034
			c39.2466,4.9271,79.4185,2.1169,118.5113-2.8491c43.8455-5.5697,87.2589-14.4329,130.0446-25.4601
			c37.6968-9.7156,75.0934-21.0276,111.4819-34.8989c13.6188-5.1915,27.1511-10.728,40.2477-17.1371
			c13.9918-6.8473,26.1882-15.1832,37.9594-25.5423c24.1608-21.2626,44.335-50.2092,43.4427-83.6554
			c-0.8506-31.887-19.8969-59.813-42.2072-81.1892c-51.0632-48.9252-122.3137-73.8264-190.3156-87.8626
			c-68.5635-14.1522-140.769-18.5506-210.1739-8.0608c-44.1202,6.6683-96.1868,21.199-117.5805,64.6248
			c-11.7166,23.783-11.9566,51.062-7.7056,76.7336c3.0834,18.6205,8.5457,36.876,15.2261,54.5054
			c5.4776,14.4553,12.9035,28.0685,22.2633,40.379c37.1013,48.797,97.8273,73.5552,156.6711,83.6433
			c56.6625,9.7142,114.0591,5.1222,170.2298-5.6402c31.929-6.1177,63.5352-14.3785,94.0955-25.5109
			c28.7881-10.4869,57.1464-23.4625,82.1854-41.2867c22.7984-16.2293,44.9517-37.9546,54.4567-64.8886
			c9.1932-26.0506,1.7932-53.0724-14.2102-74.7184c-14.964-20.24-35.229-36.1825-56.4786-49.3823
			c-20.8053-12.9238-43.1962-23.498-66.3488-31.4816c-4.6542-1.6049-6.6536,5.7667-2.0294,7.3613
			c27.0292,9.3203,53.0793,22.2928,76.5652,38.6206c22.2849,15.4929,44.9399,35.7444,54.6229,61.8421
			c21.0846,56.827-38.6932,102.6466-82.5105,125.5286c-54.662,28.5452-116.7039,43.9649-177.5074,52.3476
			c-55.1568,7.6042-110.9991,7.1956-164.9802-7.6871c-56.7247-15.6391-112.0106-48.1493-136.7038-103.9052
			c-7.2956-16.473-12.5847-34.2884-16.3178-51.8954c-3.0581-14.4237-4.7833-29.2043-3.9746-43.9603
			c1.2157-22.184,9.1989-43.3313,25.1949-59.0532c15.6442-15.3761,36.4006-24.4115,57.2096-30.4103
			c27.2219-7.8475,55.7212-11.2769,83.9398-12.822c69.9361-3.8294,141.4009,4.3425,208.5989,24.1146
			c31.9999,9.4156,63.3639,21.7153,92.2197,38.5647c29.4164,17.1766,58.3874,40.0026,75.5118,70.0142
			c14.6074,25.6005,16.5719,55.0775,2.6807,81.4423c-8.2481,15.6545-20.4071,28.8814-33.7922,40.3041
			c-6.5957,5.6287-13.4464,10.9742-20.9368,15.3576c-23.837,13.9496-50.5734,23.4302-76.5785,32.3978
			c-37.6854,12.9954-76.1484,23.8159-114.9749,32.8239c-41.3878,9.6022-83.3716,17.2279-125.7092,21.076
			c-36.1581,3.2864-73.6902,4.5691-109.4448-2.8651c-24.6857-5.1328-51.6675-15.4944-64.0132-38.7852
			c-14.4293-27.2216-3.7596-63.6735,9.5926-89.4471c25.467-49.1586,81.4566-74.4373,131.9898-89.3842
			c27.6089-8.1663,55.9666-13.7764,84.4822-17.6451c23.2455-3.1536,46.7914-5.4398,70.2596-5.8044
			c50.8933-0.7908,102.3942,2.6403,152.4451,12.059c26.8401,5.0508,53.7907,11.8441,78.8213,22.957
			c20.47,9.0881,41.2864,21.4924,54.0668,40.4362c6.4976,9.6312,10.2426,20.2921,7.8666,31.0267
			c-2.4354,11.0036-9.818,20.1873-18.2617,27.8851c-11.386,10.3801-24.9558,18.2922-38.6748,25.1569
			c-17.2966,8.6547-35.4206,15.5872-53.7719,21.6461c-43.1906,14.2601-87.9583,23.8461-132.886,30.6799
			c-44.1583,6.7169-88.9666,10.7919-133.6617,10.3804c-17.9128-0.1649-35.926-1.0008-53.6704-3.5713
			c-12.9727-1.8792-26.9098-4.613-38.5376-9.9479c-20.1838-9.2604-33.5778-30.1536-39.1664-51.0437
			c-7.6468-28.5837-2.8097-60.1802,9.6453-86.706c26.4434-56.3175,86.8196-82.8042,145.2324-91.97
			c58.4373-9.1697,120.7187-4.2309,176.9781,14.0732c24.9351,8.1127,48.9891,19.2408,71.7815,32.1603
			c25.1081,14.2322,49.4438,31.0608,68.9727,52.494c16.3935,17.992,29.9432,40.931,27.918,66.1136
			c-1.832,22.7812-14.7611,42.8484-30.6453,58.5679c-18.6605,18.4671-41.5919,32.3001-64.9868,43.9066
			c-24.6305,12.2194-50.4353,21.9778-76.5901,30.3893c-45.4918,14.6302-92.3088,25.5494-139.6011,32.4123
			c-28.9637,4.2031-58.338,6.6658-87.6189,5.6163c-27.8746-0.9991-56.4838-5.1589-82.1044-16.6966
			c-26.1111-11.7586-47.2877-31.2454-59.3403-57.4227c-14.6409-31.7991-10.5111-67.0131,7.6538-96.4066
			c18.037-29.1866,46.7043-51.428,77.6194-65.6395c10.9851-5.0498,23.3101-8.7163,35.8443-11.3315
			c34.42-7.1815,69.9724-9.3943,105.0496-10.2437c42.9744-1.0406,86.1063,0.6515,128.8221,5.533
			c38.493,4.3989,77.4878,11.1549,113.9178,24.7164c23.3167,8.6799,52.128,22.3591,62.2276,46.0662
			c11.1682,26.2153-7.8788,53.5771-25.6675,72.5115c-25.587,27.235-59.8194,44.2617-94.87,56.0099
			c-41.7086,13.9798-85.8071,20.9631-129.7249,22.1947c-44.1244,1.2374-88.9749-3.2498-131.1218-16.8224
			c-36.6088-11.7891-72.477-31.3617-96.1678-62.4349c-24.7595-32.4749-31.986-74.1684-25.8952-114.0295
			c2.5522-16.7025,8.6387-32.8463,19.0455-46.2686c10.0238-12.9283,23.4375-22.7242,38.1008-29.7834
			c35.3605-17.0233,76.9457-19.1818,115.4821-16.8058c46.4261,2.8624,92.4055,13.334,136.3696,28.2869
			c42.8448,14.5721,84.6334,33.7413,122.2109,59.1052c28.5469,19.2684,58.0217,43.6703,72.411,75.8367
			c11.5707,25.8656,15.1353,57.1508,5.8768,84.2214c-8.7508,25.5861-28.6002,45.4142-51.5931,58.815
			c-25.8589,15.0712-55.5139,22.7914-85.1392,25.6678c-34.0226,3.3034-67.976,3.8018-101.913-0.9143
			c-66.3041-9.214-130.7746-36.2682-179.3669-83.0458c-21.3785-20.5801-38.3673-44.3472-52.7953-70.1613
			c-13.2291-23.669-25.1479-48.2097-34.3931-73.7219c-15.2685-42.1335-30.8752-109.1173,22.4052-131.1259
			c21.9631-9.0723,47.1501-6.3866,69.6348-0.8655c27.8212,6.8315,54.3008,18.6057,79.6134,31.8392
			c43.2179,22.5945,84.6714,49.8706,123.0823,79.9288c45.7161,35.7748,89.6243,76.2856,123.2028,123.911
			c30.8982,43.8239,57.2159,102.8286,29.9578,154.8895c-12.1451,23.1963-34.284,37.8162-59.7139,42.5377
			c-26.8746,4.9897-55.0811,0.1943-80.9723-7.4695c-27.2438-8.0641-53.371-19.9843-77.7744-34.49
			c-16.0546-9.543-31.3891-20.1708-44.8352-33.1727c-26.3811-25.5095-47.9584-56.0909-67.2075-87.1844
			c-22.8715-36.9451-42.6044-76.0613-57.9271-116.7399c-13.814-36.6733-25.0513-75.7015-26.0287-115.1282
			c-0.725-29.2422,4.9526-61.2041,27.9172-81.4727c28.0822-24.7854,70.9276-23.4605,105.5214-17.9278
			c34.2711,5.4811,66.6614,16.9863,96.8035,34.2018c31.4723,17.9753,59.8516,40.9984,85.2755,66.7515
			c25.1826,25.5087,47.559,53.7557,67.0029,83.8564c12.2964,19.0357,23.2756,38.9604,34.1694,58.8283
			c24.3145,44.3446,47.5849,90.6393,60.6506,139.7107c9.1571,34.3912,16.3702,84.5351-23.9841,101.6217
			c-24.666,10.444-51.0959-1.9871-71.4913-17.0269c-31.0544-22.9-55.7462-54.6215-77.7709-85.9241
			c-27.6327-39.273-51.7107-81.0308-73.9102-123.5751c-21.6492-41.4898-41.5192-83.9466-59.5074-127.1501
			c-13.6065-32.6797-26.604-65.8678-36.4506-99.9026c-1.6286-5.6294-3.1566-11.2924-4.4506-17.0089
			c-0.5359-2.3676-1.0331-4.7448-1.4576-7.135c-0.4496-2.5316-0.5265-3.2651-0.7508-5.0898
			c-3.1793-25.8647-1.974-53.4926,14.1896-75.1675c15.5497-20.8516,41.2157-30.6812,65.965-35.3239
			c32.1316-6.0276,65.7222-4.5504,96.9484,5.2861c61.4185,19.3473,107.5906,68.8706,137.4003,124.3398
			c10.7249,19.9564,19.6049,40.3502,24.1028,62.5938c3.8019,18.8018,5.2427,38.0369,5.4147,57.1958
			c0.4073,45.3604-6.2596,90.7747-17.2625,134.7105c-11.5356,46.0635-28.0872,91.1962-51.062,132.8239
			c-20.3555,36.8819-46.3253,72.58-80.9009,97.3558c-30.9611,22.1857-68.3508,33.349-106.3281,26.8039
			c-50.5136-8.7056-94.7365-41.4988-123.7385-82.8842c-34.7654-49.6096-51.8776-110.0516-60.5406-169.3772
			c-7.8716-53.9061-8.9482-109.3594-3.5208-163.5724c5.221-52.1512,17.0149-104.2761,34.8361-153.5577
			c9.4599-26.1598,20.9362-51.7655,35.7605-75.3543c13.0543-20.7724,29.0685-40.5542,49.4668-54.525
			c27.1342-18.5842,61.7508-25.1274,92.0079-10.2584c29.662,14.5765,50.4338,43.0986,66.2164,71.2126
			c20.9877,37.3861,35.1804,78.4469,46.5123,119.6643c12.6617,46.0541,21.6054,93.1607,27.8335,140.4997
			c5.8085,44.1499,9.3852,88.6818,9.8276,133.2216c0.3212,32.3408-0.2011,65.6456-7.0361,97.3962
			c-10.512,48.8318-40.8546,97.6601-93.2726,107.0292c-29.0726,5.1964-59.3303-2.1998-85.8893-14.0104
			c-27.8293-12.3755-51.9058-30.6416-71.9693-53.5121c-40.9896-46.7243-64.5231-107.3066-78.7187-167.0992
			c-6.8938-29.037-11.6035-58.6041-14.0597-88.347c-2.4578-29.7627-2.8433-59.8165,2.644-89.2864
			c5.0402-27.0687,14.7982-54.193,32.7087-75.5067c18.1425-21.5896,43.2337-34.6706,70.9235-39.187
			c32.3548-5.2773,66.9371-0.4606,97.0697,12.211c28.7884,12.1063,53.8466,31.6715,74.5738,54.8512
			c41.3813,46.2775,66.0963,105.621,81.6085,165.1031c14.6854,56.312,21.3802,117.9321,8.6071,175.2597
			c-6.1216,27.4744-17.2963,54.3088-35.9293,75.7104c-21.0319,24.157-50.6103,40.6588-82.5072,44.5944
			c-67.7246,8.3563-135.2179-33.2868-177.6951-82.9991c-24.3056-28.4455-44.3245-61.0939-60.5177-94.7526
			c-16.6177-34.541-29.0171-71.1274-36.8195-108.6564c-7.6841-36.9595-10.7805-74.8836-8.7418-112.5922
			c1.7554-32.4702,6.5762-66.1067,17.5947-96.8423c7.769-21.6714,20.7933-44.8948,43.9683-52.6282
			c12.2484-4.0873,25.4084-3.4166,37.8277-0.4539c11.3031,2.6964,22.6078,6.8012,32.5632,12.8689
			c12.6846,7.7312,23.6764,18.1125,33.8029,28.8931c13.1713,14.022,24.9887,29.28,36.01,45.0308
			c26.9995,38.5858,49.6289,80.304,68.9851,123.1936c20.015,44.349,36.6547,90.5713,47.3312,138.092
			c8.7861,39.1066,14.6661,81.3136,6.832,121.098c-6.0882,30.9181-22.5953,59.4254-53.0987,71.3334
			c-21.2609,8.2998-45.8518,10.2332-68.4706,9.4326c-23.8707-0.8449-47.4683-6.0649-69.5444-15.1704
			c-44.3498-18.2927-81.2315-51.8159-108.7009-90.6727c-29.2202-41.3334-49.0013-89.1945-59.0189-138.7394
			c-9.7558-48.2502-10.2703-99.2012,2.6425-146.9221c11.8276-43.7104,35.5233-85.4208,73.2604-111.6417
			c36.4884-25.3531,81.3724-34.9317,125.2863-34.1116c47.7273,0.8913,95.2609,13.4005,138.3087,33.7598
			c42.5245,20.1118,81.9529,48.3171,111.9444,84.7998c27.651,33.6357,46.3884,75.1897,46.8369,119.2094
			c0.2034,19.9599-3.1351,39.6808-10.3787,58.2885c-7.4449,19.1249-18.2394,36.9395-30.1967,53.5532
			c-28.8956,40.1484-65.9503,74.684-105.4856,104.1711c-41.9757,31.3072-88.2016,57.9261-137.5212,75.7978
			c-42.7955,15.5076-90.3278,25.6428-135.7878,17.4067c-41.3887-7.4985-81.4993-33.2609-98.6353-72.8754
			c-20.9029-48.3228-1.8689-105.5867,19.355-150.3159c24.7905-52.2457,58.8489-100.344,96.5092-144.066
			c15.6459-18.1642,32.0515-35.9083,50.2008-51.6124c25.2391-21.8387,53.697-40.1411,83.8965-54.3302
			c59.8076-28.1001,133.7362-41.4421,194.046-7.3875c37.3046,21.0645,72.1063,59.1615,72.8724,104.1306
			c0.6694,39.298-22.3485,74.9873-47.8135,103.0566c-32.1255,35.4109-71.8203,63.7726-113.1096,87.5112
			c-40.4121,23.2342-83.5518,42.6734-128.4685,55.3743c-35.7153,10.0991-73.6747,15.8688-110.0007,5.1323
			c-15.9924-4.7267-30.7775-13.109-41.6991-25.8696c-10.207-11.9257-16.0422-26.8964-18.8448-42.2042
			c-7.0222-38.3539,2.9523-79.1104,15.593-115.2145c15.4096-44.0127,37.6519-85.7504,63.7513-124.322
			c23.5063-34.7393,50.7378-68.3151,83.6873-94.5664c12.006-9.5653,25.2673-18.4749,39.7708-23.7648
			c21.1169-7.7022,44.2838-12.2845,66.7885-12.2848c18.4046-0.0003,36.9138,3.5023,53.3827,11.9303
			c15.1168,7.7361,28.0613,19.2046,38.1257,32.845c23.0106,31.1865,32.699,70.8005,36.7833,108.75
			c4.7306,43.9562,2.3458,88.7579-4.587,132.3503c-6.3419,39.8773-16.2636,79.9229-32.478,117.0093
			c-21.257,48.6205-55.7129,94.412-101.6202,122.0636c-39.7751,23.9581-87.5502,32.1596-132.5457,19.5616
			c-45.9814-12.8741-83.8907-45.418-108.4718-85.791c-14.5872-23.9587-24.6406-50.4182-30.818-77.7372
			c-7.017-31.0323-8.6135-63.1858-8.9353-94.9172c-0.6252-61.6526,7.2933-126.7454,41.0065-179.8394
			c34.5483-54.409,95.9507-88.8024,159.1062-97.5826c61.743-8.5839,129.2153,10.0172,166.8028,62.5165
			c25.4106,35.4917,38.1051,78.9902,44.5464,121.701c7.5364,49.9717,6.4535,101.4651-0.9097,151.3874
			c-7.4875,50.7653-21.509,101.104-43.9923,147.3353c-20.0207,41.1675-47.3351,80.5356-84.7131,107.7434
			c-17.1676,12.4965-36.2875,22.2205-56.7648,27.95c-13.1125,3.6688-26.3613,5.7568-39.9927,4.3171
			c-15.6941-1.6575-30.8199-7.3825-44.5347-15.0247c-29.7433-16.5737-54.4263-42.3304-72.7938-70.7687
			c-18.16-28.1171-29.0554-59.32-31.4743-92.7651c-5.2253-72.2469,23.1747-143.5815,56.8386-206.0146
			c30.2409-56.0849,67.2083-108.7151,105.687-159.4258c19.0017-25.0422,39.2095-49.2918,61.5383-71.4507
			c22.0793-21.9112,46.5842-42.4043,74.8138-55.9074c25.2697-12.0873,53.8979-16.9863,81.0502-8.316
			c25.3503,8.095,43.4226,28.3862,54.6132,51.866c26.4786,55.5567,19.5779,120.4462,7.9556,178.7223
			c-15.2588,76.5098-43.6509,150.1744-81.8277,218.1285c-32.0074,56.9727-70.9213,110.0131-115.8444,157.4771
			C815.7184,945.6534,821.107,951.0613,824.4926,947.4843L824.4926,947.4843z"/>
		<path class="st1" d="M768.5266,328.7336c-10.3333-13.9234-24.0354-28.4421-42.0129-31.3387
			c-14.6262-2.3567-28.1414,3.8431-39.2445,12.97c-13.8822,11.4114-24.4105,26.8698-33.4094,42.2523
			c-10.6553,18.214-19.3848,37.5294-27.2064,57.1065c-12.469,31.2093-23.5544,63.8111-30.4239,96.7727
			c-2.732,13.1086-3.4875,26.7517-3.9203,40.1024c-0.5834,17.9998-0.1005,36.0334,1.0007,54.0044
			c2.6103,42.601,8.6256,85.131,18.1533,126.7379c9.3701,40.9186,22.112,81.9309,42.41,118.8558
			c15.9072,28.9375,38.1092,57.6593,69.9131,69.8174c34.1535,13.0563,72.3266,0.757,100.5945-20.1556
			c33.5606-24.8279,52.1799-63.1783,60.01-103.4381c8.9285-45.9072,5.9867-93.5874-1.2866-139.5027
			c-7.4391-46.9622-19.9631-93.1526-35.8919-137.9233c-12.7699-35.8919-28.3986-70.1599-46.066-103.8674
			c-11.7216-22.3635-24.1726-44.6601-40.236-64.2469c-13.2413-16.1458-31.8312-33.6793-54.2572-33.0011
			c-20.543,0.6213-35.2679,15.3316-44.1064,32.5776c-10.2626,20.0247-15.481,42.5608-19.4606,64.5624
			c-8.5757,47.4112-10.7291,95.7563-12.5155,143.8119c-0.9317,25.0643-1.4,49.9799,1.136,74.9902
			c3.0036,29.6208,9.3053,59.0197,20.3929,86.7083c22.3754,55.8774,64.3984,101.8417,119.3287,127.0775
			c24.5506,11.2789,51.9919,20.1259,79.3477,17.796c27.1956-2.3163,49.9702-16.7595,65.2534-39.1771
			c17.9963-26.3972,26.0137-59.5816,28.9009-91.0072c3.091-33.6445-0.0941-67.7249-6.9098-100.7367
			c-6.7763-32.8208-17.325-64.8295-30.7578-95.5154c-10.1104-23.096-22.3735-44.8913-35.4609-66.3946
			c-26.5918-43.6914-55.1744-87.7757-91.546-124.0549c-15.6328-15.5931-33.9711-31.3193-55.5635-37.6864
			c-20.6454-6.0879-42.3506,0.4099-57.6226,15.2189c-17.1422,16.6225-26.4183,40.3032-33.1229,62.7402
			c-6.9727,23.3339-11.9455,47.6819-15.6303,71.7511c-10.9232,71.3498,1.6083,145.0692,26.7048,212.1953
			c12.2677,32.8126,27.6395,64.5389,46.0854,94.3286c15.4007,24.8716,34.3222,47.7779,57.7309,65.4994
			c35.6383,26.9799,81.3726,38.426,124.8424,25.7732c41.528-12.0876,75.2596-43.4113,94.94-81.3932
			c23.9202-46.1644,27.2374-100.2615,15.0389-150.3146c-9.4371-38.7226-29.4164-72.8388-52.3256-105.0854
			c-27.4675-38.6629-59.1542-74.603-94.2529-106.5052c-33.959-30.8663-72.0231-59.267-115.0264-76.1409
			c-35.5537-13.9508-76.0514-18.4508-110.9535-0.1644c-44.8925,23.5206-66.0024,73.1233-73.0887,120.9829
			c-4.3529,29.3989-4.4396,59.3653-1.2659,88.8884c2.9669,27.5987,8.5294,55.1561,18.0837,81.2644
			c21.8068,59.5905,66.9466,110.4149,116.5231,148.7746c50.7222,39.2463,110.9012,69.7367,173.5123,84.4266
			c41.5161,9.7406,87.4615,12.0242,126.7237-7.1823c30.8384-15.0857,52.6301-42.7968,63.7167-74.9163
			c12.0796-34.9958,12.0603-73.4985,5.1692-109.5563c-7.6216-39.8795-24.1916-78.3213-47.8709-111.295
			c-30.623-42.6428-73.6874-73.8605-120.9948-95.962c-64.9091-30.3248-137.1242-39.3248-207.7305-28.0605
			c-31.5309,5.0304-62.9783,13.4927-92.0374,26.8878c-22.1643,10.2169-45.8987,24.7828-57.122,47.4192
			c-19.6125,39.5567,11.1792,80.6243,41.3027,104.5306c32.1049,25.4786,69.0632,45.0003,106.3039,61.7914
			c43.7826,19.7407,89.5392,35.8098,136.5142,46.0016c40.6411,8.8176,84.3329,14.4195,125.5007,5.7633
			c30.744-6.4644,61.7242-24.254,72.4653-55.5322c8.0915-23.5624-7.5733-43.8093-25.5995-57.2326
			c-27.1101-20.1877-61.0486-31.5269-93.1618-40.8233c-41.0823-11.8929-83.3141-19.875-125.6596-25.6674
			c-39.9606-5.4662-80.2994-9.1213-120.6502-9.5107c-15.4993-0.1496-31.0516,0.1583-46.4863,1.6743
			c-10.5981,1.041-21.6545,2.3351-31.6763,6.1464c-13.9949,5.3223-28.1243,13.2164-39.4755,23.0345
			c-7.8144,6.759-14.6595,15.5359-15.9269,26.0794c-2.6143,21.7483,18.8102,38.4607,34.7786,49.0196
			c27.7892,18.3753,59.6362,30.8212,90.8417,42.0326c36.5076,13.1162,73.8011,24.0248,111.2964,33.925
			c31.0284,8.1926,62.2537,15.6477,93.6107,22.473c21.4218,4.6627,42.901,8.6278,64.47,12.5463
			c44.709,8.1224,90.591,15.8416,136.186,12.816c39.703-2.6346,84.342-15.8571,97.5829-57.9625
			c15.8923-50.537-13.8138-98.6625-50.4874-131.2063c-19.6405-17.4289-41.7566-32.032-64.8259-44.4999
			c-19.9666-10.7911-41.0554-20.7453-62.7475-27.5736c-68.6981-21.6249-144.1197-23.0639-213.9857-6.327
			c-65.7618,15.7538-126.8013,48.1245-178.3196,91.7353c-43.1859,36.5573-89.3812,89.9108-81.2955,150.806
			c3.651,27.496,18.4819,53.6142,39.2939,71.8227c18.864,16.5042,42.4658,26.2533,66.891,31.0084
			c51.7282,10.0703,105.5607,1.428,156.7267-7.9296c15.6303-2.8586,30.8465-5.3005,46.7203-6.3047
			c20.1879-1.2771,40.42-1.8264,60.6335-2.5327c47.4672-1.6586,95.169-3.4152,142.1882-10.5698
			c20.3995-3.1041,40.9304-7.1874,60.2991-14.4579c14.4026-5.4064,29.3538-12.7529,39.1122-25.0639
			c25.7219-32.45-5.1646-72.6148-27.8994-96.5541c-32.7457-34.4808-72.2322-62.106-111.0176-89.2794
			c-21.0995-14.7824-41.3053-30.7589-62.9664-44.7457c-29.1407-18.8164-60.1476-35.0384-93.0188-46.2918
			c-32.336-11.0702-66.5255-17.0103-100.7482-15.9991c-34.8468,1.0297-69.1431,9.1699-101.1357,22.8922
			c-26.7549,11.4757-52.2753,26.6028-74.252,45.7746c-20.7414,18.0941-39.0112,40.9318-46.3156,67.9055
			c-15.3843,56.8113,27.1226,106.863,65.6707,142.9877c22.7293,21.3004,47.5154,40.4905,73.4532,57.7192
			c23.9796,15.9281,49.1606,30.3939,75.7809,41.4485c44.9352,18.6605,93.4662,19.3488,140.1935,6.9006
			c49.6372-13.2234,95.6629-39.5059,134.2926-73.1227c38.2807-33.3131,70.4254-75.2046,88.2026-123.0229
			c17.007-45.7465,18.6906-96.4997-0.1244-141.9848c-22.9526-55.4879-70.2937-97.2837-127.9091-113.9543
			c-28.8338-8.3428-59.3167-10.2317-89.0059-6.0287c-17.777,2.5166-34.3839,7.6609-51.0779,14.0429
			c-41.3164,15.795-82.119,35.0557-119.1564,59.3353c-16.9142,11.088-33.9749,23.5385-46.7641,39.3919
			c-9.1654,11.3614-16.9075,25.9255-12.8351,40.9033c6.5256,24.0001,31.2261,31.5591,53.5358,32.6528
			c33.2059,1.6277,67.1105-7.0237,98.4691-17.0777c36.8754-11.8228,72.7524-27.4568,106.5085-46.434
			c26.9537-15.1529,55.2354-32.7934,75.2419-56.8241c12.1977-14.6512,22.1218-36.0736,5.5416-51.5798
			c-11.2341-10.5064-27.3909-13.6642-42.2648-14.3514c-22.8412-1.0552-45.9489,3.4762-67.9548,9.1748
			c-51.1852,13.2549-100.5568,34.7086-147.5003,58.8039c-17.3719,8.9167-34.6287,18.2662-51.0141,28.911
			c-23.9688,15.5713-45.4693,35.2103-63.5038,57.3627c-18.9685,23.2997-35.0595,50.2426-41.6617,79.8312
			c-6.3117,28.2872-2.478,57.7493,13.4407,82.2803c14.2394,21.9431,34.9662,36.5521,60.668,41.8109
			c26.158,5.3521,53.4816,2.2192,79.3106-3.4484c44.6533-9.7982,87.7159-27.6085,129.4155-46.0748
			c38.1837-16.9093,75.6611-35.543,112.1675-55.8193c42.7441-23.7408,85.0925-49.7415,122.1021-81.893
			c15.2273-13.2284,29.785-27.7825,40.9293-44.6917c8.5768-13.0136,15.3618-28.331,14.8127-44.2201
			c-0.8083-23.3974-15.8147-41.0303-37.4812-48.5038c-26.9196-9.2854-57.7867-5.7516-85.1655-0.6922
			c-38.4464,7.1047-75.8138,19.983-111.79,35.0955c-40.6808,17.0887-80.014,37.4462-117.4837,60.7477
			c-35.8224,22.277-70.3019,47.2838-101.0596,76.2283c-24.8298,23.366-48.7186,50.1495-62.8312,81.5432
			c-5.692,12.6621-9.7285,26.0929-10.5131,40.0143c-1.1057,19.6196,2.1199,40.7968,8.0825,59.4832
			c9.9811,31.28,31.5892,56.1285,63.1255,66.5995c32.8305,10.9007,69.406,6.5859,102.3315-1.5339
			c40.8641-10.0776,79.9714-27.2838,116.8743-47.3067c37.2682-20.2211,72.833-43.8447,105.6763-70.6751
			c25.3465-20.7061,50.7473-43.7656,68.6129-71.4763c14.0573-21.8036,25.8694-46.2433,31.7761-71.5934
			c5.5059-23.6295,5.4366-49.7852-8.1127-70.812c-14.309-22.206-39.8635-34.7557-65.3733-38.6855
			c-25.9955-4.0046-52.5317-0.3194-77.6218,6.9731c-57.028,16.5752-108.9056,49.8493-155.8333,85.4487
			c-37.1528,28.1842-71.5189,59.4619-104.6543,92.2157c-35.6433,35.2328-71.5732,73.1833-95.2101,117.8026
			c-10.0897,19.0462-18.3262,40.434-17.8422,62.3149c0.4622,20.8961,10.0618,39.9679,26.0389,53.3675
			c18.4304,15.457,42.3187,21.8456,65.8682,23.9033c27.5821,2.41,55.5427-0.8071,82.6507-5.9051
			c27.1706-5.1097,53.8997-12.4806,80.1653-21.0661c22.0952-7.2224,44.1875-15.0609,65.5398-24.2706
			c45.8577-19.7792,88.1843-48.134,124.7417-82.0945c34.4928-32.0425,65.0602-70.1704,83.9385-113.5756
			c16.3007-37.4783,23.6377-79.9012,11.4541-119.7023c-13.9803-45.6713-50.828-78.9966-91.77-101.1657
			c-54.4352-29.4754-116.3965-41.0996-177.9063-34.5447c-61.7047,6.5757-121.7216,30.7102-168.583,71.7849
			c-42.7021,37.429-69.4514,89.6448-88.5829,142.3371c-10.4447,28.7668-18.4935,58.5014-23.2994,88.7404
			c-4.4337,27.8962-6.389,56.5291-2.8351,84.6416c3.2518,25.723,11.4555,50.6898,27.7439,71.202
			c14.8626,18.7169,35.9302,31.2399,59.1017,36.6674c48.836,11.439,101.8527-3.9749,145.6556-25.6039
			c54.1162-26.7216,99.0484-69.803,128.2473-122.5996c30.1915-54.5915,42.6206-115.9899,45.885-177.7684
			c2.6985-51.0692,6.5968-102.4112-1.0349-153.2733c-3.6909-24.5988-10.1929-49.6252-23.3083-71.0091
			c-13.2632-21.6246-33.7029-37.5383-58.3995-43.9989c-59.931-15.6777-116.575,30.4703-153.4025,72.3996
			c-19.967,22.7331-36.4932,47.8048-51.4249,74.0643c-17.1171,30.1028-32.1278,61.4133-44.8303,93.6296
			c-25.4418,64.5264-42.6262,134.6039-39.3431,204.3781c1.514,32.1776,7.6816,64.3363,19.8021,94.2531
			c9.3035,22.9639,22.5494,45.79,43.3723,60.1026c42.4324,29.1658,92.4291,1.7531,127.084-26.5432
			c31.3651-25.6101,59.1697-55.7324,84.9687-86.8435c31.3288-37.7794,59.8605-78.0398,84.4711-120.5176
			c23.826-41.1237,44.5774-84.8807,56.6941-130.9847c10.0412-38.2067,14.5121-80.1241,2.1036-118.3473
			c-12.4428-38.3286-41.9476-67.1492-78.3271-83.446c-35.1371-15.7402-74.1479-17.6442-110.3322-4.1609
			c-37.7186,14.0549-69.3364,41.1961-94.9805,71.6655c-29.4704,35.0156-52.3175,75.3181-69.9821,117.4301
			c-17.775,42.375-30.3427,87.1378-35.9387,132.7853c-4.7622,38.8464-4.7728,79.9552,7.3148,117.5572
			c6.2159,19.3364,16.3746,36.7442,28.6153,52.8923c12.7169,16.7763,27.9022,32.0616,46.3662,42.46
			c31.6013,17.7969,68.0509,16.7547,100.9427,3.0398c38.1211-15.8954,70.2825-44.4104,97.6845-74.7359
			c31.3182-34.6596,57.8759-73.7365,80.1751-114.7302c19.8633-36.5154,37.2018-75.3264,47.2451-115.7822
			c10.6512-42.9046,8.6169-90.0828-6.4554-131.7408c-8.2266-22.7371-21.1884-44.3773-41.1865-58.5884
			c-19.7365-14.0252-45.5003-18.7979-69.1245-14.0351c-47.8969,9.6563-79.8268,55.6706-100.9633,96.1448
			c-21.5624,41.2899-35.9824,85.6012-47.4907,130.5889c-14.0438,54.8996-26.457,111.1068-28.4261,167.9305
			c-0.9257,26.7126,0.4488,54.2217,8.1741,79.9663c6.9827,23.2696,20.5463,47.5844,43.1993,58.7256
			c21.9153,10.7784,42.9226-0.41,58.3654-16.6891c18.8516-19.8726,32.0878-44.7165,45.3939-68.4252
			c36.836-65.6345,68.7089-134.527,84.28-208.5665c7.8604-37.3759,11.5153-75.731,9.4846-113.9078
			c-1.39-26.1325-4.8759-53.1342-12.8565-78.1537c-5.0402-15.8011-12.7406-33.6702-27.7622-42.3958
			c-17.5511-10.1949-37.688-1.7849-52.9915,8.593c-4.0434,2.742-0.2279,9.3591,3.853,6.5917
			c9.6815-6.5653,21.0005-12.7901,33.0793-12.2293c8.7847,0.4078,16.1343,5.2938,21.6766,11.854
			c13.664,16.1735,18.4231,39.737,22.0525,59.9937c12.3619,68.9947,3.9932,139.7322-16.5733,206.3167
			c-20.3351,65.835-51.8222,128.1797-87.498,186.9707c-6.9301,11.4202-14.2727,22.7137-22.9714,32.8812
			c-7.1779,8.3898-15.4966,16.6179-25.7448,21.1321c-22.8863,10.0814-44.5206-8.9743-55.8121-27.5504
			c-12.6203-20.7623-17.4316-45.5705-19.1698-69.5104c-2.0249-27.8892-0.0301-56.012,3.5883-83.6884
			c3.6485-27.9069,9.1579-55.563,15.5004-82.9726c5.1428-22.2253,10.3899-44.6122,16.9327-66.4739
			c13.3842-44.7206,30.5823-89.5235,56.7958-128.4131c12.8792-19.1073,28.5358-37.3039,48.3459-49.4713
			c19.0627-11.7083,41.3265-16.2,63.3312-11.5233c50.5089,10.7346,71.5079,64.9587,77.6553,110.8036
			c2.821,21.0376,3.5353,43.0122,0.082,64.0182c-2.8169,17.1348-7.5985,33.932-13.2486,50.3318
			c-13.9072,40.3666-33.3489,78.9142-55.7986,115.1724c-23.5271,37.9984-50.8884,74.1481-83.4266,104.9169
			c-26.9346,25.4698-59.0614,49.0878-95.9291,57.1366c-15.787,3.4465-32.2538,3.487-47.891-0.7614
			c-17.3557-4.7153-32.873-14.3963-45.9995-26.5522c-16.1108-14.9196-30.0031-33.5234-39.8618-53.1409
			c-7.5519-15.0274-12.1068-31.4671-14.8632-48.0092c-6.5811-39.4948-3.087-80.6146,4.6884-119.665
			c8.7708-44.0501,23.5339-87.0361,43.4318-127.293c19.0816-38.6053,43.0372-75.4573,73.5815-106.0093
			c26.1763-26.1829,58.1868-48.2415,94.9522-55.8352c37.5025-7.746,75.9233,2.291,107.4018,23.4124
			c30.9512,20.7676,50.3856,52.6624,55.6378,89.4517c5.7194,40.0614-3.4714,81.3576-16.5929,119.0821
			c-15.467,44.4673-37.7458,86.4835-62.8399,126.2153c-24.8999,39.4244-52.9577,76.9218-83.7538,111.9345
			c-24.1629,27.4713-50.0815,54.4848-79.6075,76.2769c-20.4276,15.0768-44.9859,28.8022-71.1276,28.4221
			c-22.101-0.3213-40.7551-12.3706-54.262-29.2418c-17.425-21.7653-27.1923-49.6138-33.5444-76.4285
			c-7.4657-31.5152-9.0377-64.1979-6.8098-96.4388c4.7162-68.2508,25.9224-135.2175,54.5762-197.017
			c25.7419-55.5193,57.1989-110.1059,102.5937-151.9441c21.3994-19.7228,46.4954-37.4672,75.0127-44.8839
			c26.85-6.983,55.5189-2.311,77.8746,14.529c18.1824,13.6964,29.3713,34.6087,36.2736,55.8817
			c7.9873,24.6169,11.1235,50.6152,12.4077,76.3725c1.2748,25.5674,0.6053,51.1909-0.6952,76.7429
			c-1.2979,25.5005-2.2354,51.1803-5.3327,76.5318c-7.2035,58.9595-26.3275,117.0984-61.445,165.4594
			c-33.4644,46.0844-80.7715,81.0686-134.0333,100.9385c-42.9703,16.0306-96.5386,25.7131-138.7147,2.187
			c-46.1787-25.7588-57.2636-81.4987-55.587-130.2155c2.008-58.3479,18.9099-116.9915,43.3141-169.773
			c11.015-23.8231,23.8976-47.1058,39.9084-67.9655c17.5323-22.8422,40.0239-42.062,64.2919-57.4214
			c50.9693-32.2587,111.8441-47.9227,172.0114-46.319c57.9155,1.5437,115.8331,19.9126,162.5255,54.6345
			c33.7884,25.1262,58.9373,61.179,62.8439,103.855c3.7404,40.8591-10.3224,81.2032-30.7286,116.0501
			c-23.7499,40.5565-56.603,75.59-93.2023,104.8379c-19.0464,15.2208-39.3884,28.8661-60.6799,40.7436
			c-20.4722,11.4204-41.7878,20.5493-63.6993,28.7937c-47.969,18.0488-98.1007,33.5677-149.2499,38.9351
			c-43.1177,4.5246-102.5242,2.8528-126.0446-40.9543c-20.7635-38.6722,6.6949-85.5664,28.8188-117.0352
			c27.1795-38.6599,60.9482-72.3287,94.9592-104.9284c35.1702-33.7107,72.3424-65.2341,112.5175-92.8716
			c45.9579-31.6158,97.7913-61.4283,153.7418-69.8933c24.0291-3.6355,50.6464-2.8149,72.9087,7.8833
			c23.0139,11.0594,39.8052,30.45,42.4189,56.4126c2.5287,25.1196-5.6339,50.5354-16.1503,73.0257
			c-7.9639,17.0316-17.4362,33.5065-29.3779,48.0729c-22.0594,26.9076-49.1484,49.8496-76.9753,70.5522
			c-33.5345,24.9489-69.3935,46.9677-106.949,65.3266c-35.3788,17.2948-72.8773,31.7964-111.8232,38.4947
			c-30.3157,5.2139-64.2549,5.8517-92.0691-9.1632c-29.3961-15.869-43.575-46.7359-48.6195-78.5525
			c-2.5576-16.1306-3.8448-32.9269-0.0555-48.9525c3.22-13.618,9.1467-26.4132,16.3058-38.3849
			c17.968-30.0466,43.3135-55.4653,69.7467-78.1094c31.5601-27.0361,66.1377-50.5337,101.9966-71.4694
			c36.5783-21.3557,74.7671-40.1525,114.2512-55.5135c34.0248-13.2371,69.3608-24.4076,105.5713-29.7003
			c24.2028-3.5376,52.9614-5.5211,75.4236,5.2847c19.3643,9.3155,29.2069,29.6183,24.2567,51.3729
			c-3.6051,15.8437-13.1707,29.9255-23.5483,42.1357c-13.588,15.9874-29.5348,29.919-46.0454,42.7972
			c-37.8649,29.5342-79.6763,54.0845-121.9681,76.6645c-33.2357,17.7448-67.1714,34.3104-101.7587,49.2624
			c-42.7028,18.4604-87.6927,36.7728-134.0615,44.5287c-24.5313,4.1033-50.8394,5.1705-74.5886-3.3511
			c-24.7767-8.8903-43.4339-30.1054-52.0715-54.7109c-19.8413-56.521,18.1581-115.7473,56.785-154.2151
			c32.1083-31.9761,72.0508-53.3721,112.4899-72.9424c46.0151-22.2689,94.4668-42.4292,144.7231-52.7265
			c19.687-4.0338,40.944-7.0208,60.9117-3.1794c7.0067,1.3479,13.8752,3.5404,19.816,7.5724
			c3.3137,2.2489,6.3865,5.209,8.2782,8.5053c3.5458,6.1786,2.7791,13.6532-0.3552,20.5209
			c-4.5997,10.0787-12.2635,18.4787-20.2102,26.0499c-23.472,22.3631-52.319,39.2924-81.0026,54.0195
			c-33.1525,17.0215-68.0048,31.1422-103.9091,41.1962c-28.3507,7.9388-59.9008,15.1523-89.4792,10.6984
			c-9.9982-1.5055-20.2415-4.6707-27.3359-11.3271c-7.105-6.6663-11.1803-17.0652-8.8234-27.3949
			c3.5233-15.4413,16.345-27.9431,27.86-37.938c16.3618-14.2018,34.9316-25.8546,53.7418-36.5053
			c34.5485-19.5621,71.2828-36.7108,108.9823-49.2982c48.8878-16.323,104.636-12.3292,150.849,10.3819
			c50.1757,24.6586,88.0792,71.4632,100.1736,126.2494c10.2329,46.354-0.1281,94.499-21.8369,136.056
			c-23.1094,44.2379-58.1172,82.14-98.4379,111.2832c-39.7407,28.7241-85.8455,50.0999-134.5687,57.4399
			c-22.5395,3.3956-45.8298,3.5378-68.2674-0.6877c-23.7463-4.4721-46.0632-14.1962-67.362-25.3685
			c-26.2778-13.7839-51.2858-30.0577-74.9728-47.909c-23.6913-17.8547-46.2889-37.5209-66.1812-59.57
			c-17.4268-19.3162-34.1262-41.6329-40.7382-67.2131c-6.7754-26.2123-0.498-52.6686,14.032-75.0905
			c15.2851-23.5871,37.7261-42.1781,61.343-56.9881c25.7026-16.1179,53.8681-28.4288,83.2936-35.8694
			c33.4399-8.4558,68.4197-10.2484,102.533-5.0567c33.1906,5.0513,65.202,16.1711,95.2412,31.0132
			c30.6964,15.1668,59.4682,34.0132,86.7736,54.6081c14.5071,10.9419,29.5004,21.1779,44.2974,31.7218
			c19.2543,13.7202,38.2323,27.8627,56.3049,43.1185c17.8705,15.0853,35.4738,31.2659,49.5481,50.0443
			c10.1783,13.5801,20.755,30.8102,18.7407,48.555c-1.5464,13.6226-10.9589,23.8792-22.1278,30.9217
			c-14.7563,9.3045-31.9492,14.4478-48.7969,18.432c-21.2551,5.0265-42.9697,7.9871-64.6816,10.1774
			c-45.0949,4.5492-90.4318,5.5731-135.6948,7.2722c-16.9151,0.6349-33.8918,1.2117-50.7321,3.0102
			c-18.6575,1.9925-37.0465,6.3995-55.5551,9.421c-49.1874,8.0299-103.0851,14.1146-151.1924-2.5429
			c-23.0534-7.9825-43.6644-22.2153-57.8531-42.2295c-16.5274-23.3129-24.094-51.6559-18.5997-79.9424
			c5.5197-28.4168,21.6009-53.8027,40.2812-75.4347c19.4907-22.5704,42.3987-42.1494,66.6422-59.4321
			c56.0234-39.9381,120.8245-66.756,189.265-75.3274c63.1442-7.9081,130.4055-1.772,189.4736,22.73
			c45.1239,18.7177,90.3094,45.2968,122.4543,82.676c15.3867,17.8922,27.6202,39.3535,30.8419,63.0219
			c2.8359,20.835-0.9082,44.6005-14.7439,61.1026c-12.174,14.52-30.0032,22.3218-48.0934,26.5698
			c-21.3925,5.0234-43.7097,5.5573-65.5753,4.6117c-41.3611-1.7886-81.8538-9.956-122.5276-17.0146
			c-18.8218-3.2664-37.4976-7.4594-56.1326-11.6473c-32.3234-7.2642-64.5066-15.1833-96.4534-23.9604
			c-36.0762-9.9117-71.9546-20.8318-106.9512-34.1009c-28.5639-10.8301-57.9731-22.9668-82.6698-41.2836
			c-8.2004-6.082-16.0715-13.1567-20.7811-21.9575c-3.6091-6.7443-4.4053-14.0114-1.4094-21.0296
			c3.9976-9.3647,13.3451-16.8939,22.2412-22.6311c11.1005-7.1588,22.1895-13.1833,34.4341-16.1118
			c26.9202-6.4382,56.1799-5.5353,83.6816-4.653c40.007,1.2836,79.9714,5.3112,119.5306,11.3553
			c40.3777,6.1691,80.6512,14.3639,119.6847,26.5122c29.3241,9.1265,61.049,20.2313,84.863,40.3522
			c7.9059,6.6799,15.2285,14.9183,18.149,24.5277c2.8653,9.4277,0.9391,18.5859-3.7737,27.5833
			c-15.358,29.3195-47.4766,41.8922-78.7894,45.5144c-41.6469,4.8176-84.3976-2.2729-124.7357-12.4337
			c-44.9222-11.3154-88.7233-27.5256-130.5247-47.4534c-34.2135-16.3105-68.7594-34.9745-97.657-59.7822
			c-12.705-10.9069-23.132-23.15-30.6506-38.2514c-5.6174-11.2829-9.0934-24.1456-7.1821-36.7961
			c1.6616-10.9974,7.1961-20.914,14.595-29.0885c17.5213-19.3579,43.0386-30.8041,67.2146-39.3507
			c31.4773-11.1277,64.6354-18.0002,97.9185-20.5055c69.8856-5.2605,139.4551,10.7376,200.071,45.9043
			c22.3656,12.9755,43.8347,27.9093,62.2197,46.1762c14.2244,14.1331,26.6879,29.9521,37.2845,46.9685
			c20.4638,32.8615,34.3041,70.1899,39.3865,108.6134c4.5073,34.0753,2.3625,70.4778-11.6925,102.2382
			c-13.2221,29.878-36.9803,53.4645-67.9362,64.5469c-42.1892,15.1039-89.3889,8.1826-131.178-4.699
			c-61.2189-18.8708-119.1885-50.4335-167.5448-92.5332c-45.2091-39.3597-83.9963-89.3878-100.8438-147.5878
			c-7.769-26.8384-12.1296-54.6821-13.5491-82.57c-1.4606-28.6938,0.0992-57.7974,6.6017-85.843
			c9.9947-43.1078,34.8157-86.2888,78.7985-101.4413c35.9323-12.379,74.8963-2.3178,107.9964,13.6386
			c40.9683,19.7495,77.181,48.8655,109.6998,80.3546c32.3598,31.3351,61.8425,65.9884,87.0192,103.3604
			c10.1422,15.0549,19.6514,30.6212,27.6432,46.9344c9.3651,19.116,15.5219,39.6479,19.2081,60.5961
			c8.4202,47.8518,1.4622,98.7709-24.3466,140.4333c-21.5416,34.774-56.1078,61.7188-96.8383,69.1159
			c-44.5782,8.096-88.1564-10.2542-120.4111-40.579c-22.2755-20.9427-39.03-46.5245-53.6785-73.1765
			c-16.7899-30.5482-30.5915-62.7359-41.0428-95.9927c-10.5894-33.6962-17.8076-68.5557-20.3258-103.8146
			c-2.3272-32.5834-0.0928-64.7083,6.0815-96.7469c4.4116-22.8916,9.1166-45.8705,17.1426-67.8167
			c7.4434-20.3531,18.525-42.4593,38.162-53.4866c18.2289-10.2366,38.1125-6.713,55.4443,3.3344
			c20.532,11.9027,37.5654,29.617,52.9384,47.4474c31.0298,35.9902,56.5286,76.476,80.8863,117.1543
			c31.3438,52.3453,53.0464,111.4843,61.5084,171.9801c4.4998,32.1694,4.9604,65.4142-1.3956,97.3671
			c-5.7994,29.1548-16.9253,60.506-40.1118,80.4014c-42.9013,36.8118-108.4293,10.6219-149.1747-16.3196
			c-48.6194-32.1481-80.797-81.7606-95.6864-137.6418c-7.6133-28.5731-11.0001-58.1181-11.4718-87.647
			c-0.3207-20.082,0.8477-40.2242,1.6898-60.2868c2.0159-48.0291,4.7595-96.9381,16.1911-143.7955
			c4.5154-18.5082,10.3103-38.8597,22.635-53.8666c5.9599-7.2569,14.0694-12.5142,23.3243-14.4506
			c9.3986-1.9665,18.8826,0.6562,27.058,5.3474c20.3535,11.6789,34.712,33.0679,46.7484,52.585
			c11.2928,18.3112,21.1249,37.527,30.9252,56.6662c17.3417,33.867,31.0264,69.6986,42.6291,105.8951
			c14.2072,44.3218,25.2195,89.9848,30.5114,136.2739c4.9661,43.4402,5.4957,88.8541-6.7253,131.2049
			c-10.9767,38.0389-33.8004,71.3899-69.3185,90.1542c-15.4075,8.1398-32.5068,13.7693-50.0804,13.5807
			c-14.4465-0.155-28.3836-4.4938-40.6912-11.9846c-28.8699-17.5713-47.6006-48.8339-61.4185-78.7533
			c-17.4663-37.8193-28.5198-78.6072-36.5557-119.3771c-7.8015-39.5808-12.6566-79.8434-14.1264-120.1661
			c-1.004-27.5432-1.2372-55.983,5.2916-82.9247c8.2778-34.1592,19.4943-67.9341,33.2932-100.252
			c7.855-18.397,16.6794-36.5208,27.5357-53.3523c8.6638-13.4325,18.9798-27.1287,32.676-35.7949
			c9.0285-5.7126,19.4838-8.5003,29.9812-5.5326c13.9328,3.9389,24.7067,15.6219,33.0486,26.8622
			C764.8301,336.4878,771.4593,332.6853,768.5266,328.7336L768.5266,328.7336z"/>
		<path class="st1" d="M852.3118,561.0527c-30.3375,0.0416-60.8544,3.6419-90.5184,9.9083
			c-31.2817,6.6082-63.2795,16.3979-90.2615,34.0107c-13.1348,8.5739-25.0583,19.2606-33.215,32.7844
			c-1.342,2.225,0.0043,4.8206,2.2811,5.6071c10.9571,3.7849,22.4357,6.2659,33.7271,8.8073
			c18.2582,4.1095,36.6429,7.6725,55.0911,10.8163c39.9346,6.8054,81.1204,12.9119,121.7422,11.3331
			c13.4523-0.5228,28.4319-1.5302,40.5695-7.9607c9.4171-4.9893,14.6151-14.6885,10.4969-25.0797
			c-6.7583-17.0532-28.7618-23.631-44.8957-27.3701c-21.165-4.9051-43.225-6.5784-64.9135-6.5776
			c-7.36,0.0003-14.8098,0.0984-22.1249,0.9976c-12.722,1.5638-25.4144,5.2464-37.5012,9.4085
			c-26.0375,8.9661-52.8198,22.1958-71.422,43.0431c-4.1437,4.6437-7.8253,9.6927-10.8354,15.1425
			c-1.4761,2.6725,0.4247,5.5171,3.2959,5.7435c14.8818,1.1733,29.9362,0.4479,44.8007-0.6243
			c19.9596-1.4396,39.8546-3.884,59.6141-7.0325c39.9977-6.3734,80.947-15.0569,118.0007-31.8806
			c14.3988-6.5375,29.5427-14.838,38.9078-28.0048c1.5916-2.2376-0.2326-4.749-2.2811-5.6071
			c-34.2937-14.3652-74.489-6.9368-108.7236,3.7576c-23.1376,7.2278-45.3929,16.666-66.5574,28.4545
			c-22.9421,12.7786-45.2365,27.3569-65.0255,44.6799c-15.8486,13.8737-34.4827,32.4626-36.3248,54.7203
			c-1.1784,14.239,6.5314,25.5266,20.3865,28.7797c15.3727,3.6095,32.3015,0.0329,47.2708-3.7874
			c21.456-5.4757,42.2247-13.5768,62.5101-22.3761c22.988-9.9716,45.4405-21.1896,67.3971-33.2563
			c19.8594-10.9141,39.3801-22.5204,58.1678-35.2002c13.2556-8.9462,26.9631-18.3181,38.0957-29.903
			c1.7692-1.8411,3.4158-3.7772,4.933-5.8316c1.2452-1.6861,0.2381-4.2337-1.3693-5.2224
			c-28.7716-17.6956-67.7411-9.4226-97.7301,0.3441c-38.347,12.4886-75.0078,32.2488-107.1,56.616
			c-13.2332,10.0477-26.1177,21.007-36.6372,33.9403c-10.6577,13.1031-20.0923,29.413-24.1651,45.89
			c-2.6351,10.6606-2.074,22.733,7.5591,29.6761c9.1417,6.5889,22.0347,6.5119,32.7515,5.5115
			c28.9236-2.7,57.5395-13.1917,83.8221-25.1411c20.7856-9.4502,40.8716-20.7857,60.5439-32.3339
			c12.8587-7.5485,25.5596-15.4094,37.7826-23.9561c9.8387-6.8795,19.8647-14.1497,28.0107-23.0392
			c4.6174-5.0388,10.5264-12.4099,7.9952-19.7449c-3.0231-8.7605-15.5967-9.7895-23.253-10.2255
			c-43.7625-2.4925-86.4907,14.9521-123.973,35.9001c-43.0221,24.0441-82.6308,54.7244-118.405,88.5342
			c-7.4973,7.0855-14.8157,14.3581-21.9186,21.8391c-1.5247,1.6058-1.5676,4.9642,0.7725,5.9948
			c25.1821,11.0911,53.7322,5.8525,79.0377-2.1104c27.9399-8.7917,54.1235-21.9714,81.2742-32.7848
			c43.2308-17.2178,93.1288-31.3309,122.4454-70.2778c14.8681-19.7521,20.8829-45.4632,16.1317-69.7797
			c-4.0721-20.8407-18.2949-36.632-38.3583-43.3077c-20.3383-6.7672-43.2729-4.7328-63.612,0.9257
			c-24.8987,6.927-47.1918,20.7935-67.3361,36.6806c-24.8544,19.6017-46.7751,42.9284-66.1569,67.8973
			c-18.6932,24.0818-35.4058,49.9688-48.2073,77.6823c-2.8142,6.0925-5.425,12.2791-7.8121,18.5513
			c-1.1556,3.0365,2.1514,5.0746,4.6953,4.6953c7.4066-1.1042,14.5121-4.3602,21.1512-7.6849
			c9.3353-4.6749,18.2178-10.2505,26.8508-16.1057c22.9295-15.5518,44.3841-33.363,64.7419-52.1253
			c22.28-20.5339,43.4004-42.486,62.303-66.1863c16.0902-20.1741,31.3823-41.8961,40.7209-66.1215
			c6.4764-16.8004,10.0176-36.7832-0.081-52.9178c-9.7792-15.6245-25.4224-23.895-43.8481-21.0156
			c-20.6005,3.2192-39.058,16.727-54.6207,29.7981c-20.491,17.2104-38.5288,37.3346-55.1982,58.2068
			c-16.8785,21.1339-32.5056,43.327-46.4906,66.4821c-9.953,16.4793-20.1123,33.8524-25.9399,52.3154
			c-0.8317,2.635-1.5483,5.3175-1.9178,8.0599c-0.3215,2.3864,0.9337,4.8544,3.6807,4.8317
			c16.2048-0.134,31.9945-11.7747,44.3033-21.1007c19.8201-15.017,37.6921-32.5774,54.3892-50.9576
			c18.373-20.225,35.482-41.7512,50.541-64.5634c12.1356-18.3835,23.8558-38.1816,30.0163-59.4882
			c3.7589-13.0001,6.0216-30.5284-5.8216-40.2089c-7.6047-6.2161-18.816-7.6575-28.2964-7.1884
			c-13.7902,0.6824-26.991,5.8543-38.8748,12.6347c-28.5151,16.2696-51.9288,41.4915-71.9132,67.1563
			c-16.5308,21.2296-31.7847,43.8737-41.9702,68.8789c-5.428,13.3256-10.1346,27.0757-13.1944,41.151
			c-2.1652,9.9603-4.6945,22.2259-0.9345,32.1288c10.0239,26.4011,48.4462-10.191,58.0193-19.2291
			c26.1808-24.7175,48.0328-54.4447,66.8124-85.0452c18.9365-30.8561,35.8781-64.3677,44.4168-99.7405
			c3.7703-15.6191,5.5684-31.5749,3.3145-47.567c-1.539-10.9194-5.8245-25.2399-18.7948-26.562
			c-11.1292-1.1344-21.8409,6.9491-29.9945,13.4868c-11.7218,9.3988-22.0149,20.5-32.1127,31.579
			c-25.1719,27.618-50.095,55.5378-71.9944,85.8718c-22.0712,30.572-42.9811,64.8862-50.207,102.41
			c-5.3837,27.9578-4.0354,68.8838,26.4467,82.0565c26.9113,11.6296,60.8437-1.9409,83.6889-16.8469
			c32.283-21.0641,58.8238-51.1602,80.5089-82.7194c22.8546-33.2611,41.3466-70.5003,51.1905-109.7592
			c4.3343-17.2856,6.9065-35.1091,6.6535-52.9536c-0.0358-2.5285-2.4059-4.2761-4.8317-3.6806
			c-13.618,3.3427-24.7675,14.168-33.7012,24.4038c-13.2932,15.2307-24.0938,32.6229-33.7214,50.3412
			c-21.9717,40.4358-39.1384,84.4705-49.4091,129.3582c-7.4071,32.3728-14.7613,72.6002,10.5586,99.2908
			c29.1384,30.7159,65.7692-11.1244,82.7117-34.0717c18.459-25.0012,34.9875-53.5898,44.6793-82.2725
			c11.829-35.0079,21.5261-70.9299,29.4945-107.0011c4.3074-19.4987,8.1076-39.2117,10.0383-59.1044
			c1.2576-12.9566,2.8716-28.562-2.6035-40.8377c-4.1908-9.3963-13.8614-11.4939-22.7897-7.3438
			c-11.4845,5.3383-19.7787,17.2675-26.4926,27.5151c-10.3969,15.8691-18.6917,33.1239-26.2432,50.4925
			c-8.7575,20.1425-16.4533,40.7435-23.3097,61.6069c-6.478,19.7122-12.2595,39.6848-16.8939,59.9144
			c-3.4384,15.009-6.6527,30.4523-7.188,45.8895c-0.1611,4.6457-0.0914,9.4908,1.1333,14.0068
			c0.5109,1.884,2.7512,3.3576,4.6954,2.6659c11.5291-4.1019,20.0259-14.7327,27.0431-24.2426
			c10.9102-14.7857,19.6411-31.1975,27.5157-47.7569c18.1048-38.0724,32.5912-78.8051,40.5046-120.2733
			c3.0275-15.8653,5.507-32.523,3.8752-48.699c-1.3823-13.7039-6.7391-24.8075-18.416-32.7696
			c-29.1506-19.8767-60.3273,15.2722-76.1676,36.2764c-11.8374,15.6964-21.9442,32.7192-30.8518,50.2268
			c-6.8347,13.4332-13.3921,27.366-17.7851,41.8199c-0.6374,2.097-1.2151,4.2135-1.6357,6.3655
			c-0.9379,4.7992,6.4185,6.854,7.3613,2.0294c2.285-11.6931,7.5602-23.05,12.5365-33.7878
			c7.6193-16.4409,16.3699-32.4114,26.2947-47.5757c9.6284-14.7114,20.479-29.1529,33.9883-40.5458
			c9.3546-7.8891,22.0974-15.622,34.7878-11.9261c11.4736,3.3416,19.365,13.7814,21.5345,24.9645
			c2.6931,13.8818,0.8867,28.865-1.318,42.6794c-6.2653,39.2579-19.3173,77.9083-35.2906,114.2186
			c-7.4698,16.9803-15.764,33.7086-25.697,49.3966c-6.6829,10.5551-14.425,22.3117-24.9893,29.4063
			c-1.8129,1.2175-3.6924,2.2529-5.3203,2.8321c1.5651,0.8887,3.1302,1.7773,4.6953,2.666
			c-2.4592-9.068-0.3339-21.8376,1.2925-31.8676c2.849-17.5703,7.1465-34.9134,11.9494-52.0414
			c11.0983-39.5788,24.9543-78.9554,43.4874-115.7045c7.0374-13.9543,14.7612-28.202,25.1324-40.0051
			c3.4891-3.9709,7.238-7.7376,11.8322-10.279c3.2158-1.7789,6.4806-2.6045,9.3837-1.7049c1.2369,0.3833,1.684,0.5697,3.0323,2.2151
			c0.4404,0.5373,1.6279,2.8777,2.0428,4.1543c1.7453,5.3694,2.1198,11.052,2.1942,16.6631
			c0.2241,16.8928-2.4462,33.8413-5.4537,50.4137c-6.9277,38.1744-16.9712,75.8816-28.3401,112.9572
			c-3.1656,10.3234-6.2833,20.7546-10.2896,30.7922c-0.3641,0.9121,0.3163-0.7245-0.3398,0.8156
			c-0.1267,0.2974-0.3906,0.917-0.5754,1.3431c-0.6645,1.5313-1.3507,3.0532-2.05,4.569c-1.4763,3.1998-3.0166,6.37-4.5998,9.5181
			c-4.0138,7.9813-8.306,15.8241-12.837,23.5232c-10.1918,17.3179-21.5338,34.3081-35.3994,48.9266
			c-9.682,10.2078-23.5862,23.3372-38.9001,22.1019c-14.9339-1.2047-25.5675-18.4709-29.0729-31.447
			c-3.832-14.1852-2.3151-29.9648-0.2485-44.3016c6.1462-42.6397,21.0163-84.5755,38.9869-123.5676
			c8.8632-19.2313,18.7955-38.0722,30.5221-55.7245c8.9003-13.3977,19.0574-27.162,32.1208-36.8182
			c4.3955-3.249,9.1938-6.0177,14.5345-7.3286c-1.6105-1.2269-3.2211-2.4538-4.8317-3.6806
			c0.5186,36.584-10.7529,72.8366-26.1976,105.6597c-16.5628,35.1994-38.6419,68.1819-65.4475,96.4088
			c-22.3778,23.5644-48.8654,45.3974-80.8809,53.8369c-12.2793,3.2369-26.1289,4.6313-38.1779-0.2919
			c-12.1461-4.963-19.2179-16.1063-22.325-28.4518c-8.4211-33.459,3.7875-68.7264,19.2259-98.1783
			c17.6795-33.7274,41.3-64.1226,66.0195-92.9334c10.5919-12.345,21.4963-24.4148,32.4534-36.4352
			c9.7504-10.6966,19.561-21.4232,30.5717-30.8534c6.8733-5.8867,17.4881-15.3441,27.389-14.3297
			c11.2581,1.1534,12.3429,19.4529,12.8553,27.6141c1.9658,31.3093-10.5554,63.1888-23.6889,90.9724
			c-15.4871,32.7627-35.0579,63.9037-57.6407,92.2384c-9.8518,12.361-20.348,24.2768-31.8492,35.1351
			c-5.3355,5.0373-10.9207,9.8391-16.7501,14.2977c-5.509,4.2136-11.5895,8.6638-18.2523,10.8579
			c-7.365,2.4253-10.71-0.3212-11.5286-7.915c-1.2112-11.2341,1.989-23.1425,5.0012-33.8493
			c6.7469-23.9819,16.7963-46.2129,30.2733-67.1253c16.4912-25.5896,35.8835-49.7797,58.3795-70.3513
			c19.3244-17.6714,44.9452-36.9783,72.609-35.6064c7.5322,0.3735,15.5818,2.0863,20.1535,7.5903
			c1.2615,1.5187,2.4037,3.8795,3.046,6.2731c0.7831,2.9185,0.9343,5.4219,0.8206,8.6895
			c-0.6059,17.4287-9.6087,34.7694-17.8705,49.6896c-11.8539,21.4072-26.1655,41.4852-41.5013,60.5214
			c-15.8073,19.6213-32.8601,38.3372-51.3343,55.4844c-14.3807,13.3478-29.9374,26.7719-47.739,35.3682
			c-5.2031,2.5126-11.0184,4.5833-16.173,4.626c1.2269,1.6105,2.4537,3.2211,3.6806,4.8317
			c2.0276-15.0464,10.8137-29.8436,18.0138-42.8792c12.0282-21.7767,25.8133-42.6167,40.5768-62.6274
			c15.9457-21.6132,33.2411-42.398,52.4794-61.1707c15.4268-15.0534,32.74-30.1648,52.8681-38.5457
			c14.3929-5.9929,30.8244-7.3602,42.8521,4.1285c12.9429,12.3631,14.6426,28.5885,10.1691,45.2263
			c-6.0901,22.6504-19.5838,43.2449-33.3547,61.9229c-17.0155,23.0787-36.5245,44.3495-57.0227,64.3623
			c-20.0085,19.5347-41.1649,38.0397-63.6605,54.6689c-15.7073,11.6112-32.6964,23.9509-51.28,30.5377
			c-2.8313,1.0035-5.7283,1.8368-8.7035,2.2803c1.5651,1.5651,3.1302,3.1302,4.6954,4.6953
			c9.9573-26.1633,24.1326-50.723,40.0319-73.6964c17.3644-25.0904,37.2746-48.5565,59.608-69.3682
			c34.2084-31.8776,78.5125-61.4138,127.5112-56.7957c18.592,1.7523,36.5197,10.1837,45.0925,27.5301
			c10.0416,20.3185,6.8879,47.2264-3.6638,66.6749c-10.8432,19.9855-29.4189,34.3185-48.8689,45.3484
			c-19.7722,11.2126-41.0417,19.3936-62.298,27.2908c-24.3516,9.0472-47.7695,20.2704-71.9434,29.7514
			c-24.5933,9.6454-52.26,19.3542-79.0937,15.8843c-5.9238-0.766-11.8195-2.3082-17.2903-4.7178
			c0.2575,1.9983,0.515,3.9966,0.7725,5.9949c30.8514-32.4936,65.5358-61.7292,102.6423-86.8266
			c37.3909-25.2897,79.494-48.7489,124.7125-55.6245c8.9274-1.3574,18.0764-1.8749,27.1055-1.7399
			c5.1622,0.0772,10.4852,0.3258,15.4453,1.8906c1.5974,0.504,2.3945,0.7553,3.8784,1.8539
			c-0.3202-0.2371,0.5115,0.421,0.8839,0.9016c-0.7506-0.9689,0.7892,1.5822,0.2142,0.3698
			c0.3773,0.7955,0.2551,1.6871,0.1999,1.9624c-0.379,1.8876-0.4819,1.9412-1.3757,3.5485
			c-4.3227,7.7735-12.4481,14.0986-19.5054,19.6469c-10.4756,8.2357-21.6816,15.5681-32.9781,22.6169
			c-21.6204,13.4907-43.9556,25.9653-66.7447,37.373c-21.1644,10.5944-43.5588,19.1225-66.5401,24.8232
			c-12.4263,3.0825-25.517,5.6365-38.3787,4.5582c-8.2583-0.6924-17.0642-3.6334-19.1892-12.2487
			c-1.3092-5.3076-0.1076-11.0536,1.4086-16.1801c2.672-9.0347,7.1187-17.496,11.8729-25.5879
			c7.4584-12.6946,16.9957-23.3407,27.9315-33.1658c27.84-25.0125,61.1239-44.7624,95.389-59.5798
			c17.2117-7.4429,35.1623-13.576,53.579-17.226c15.2418-3.0208,31.4977-4.4949,46.8124-1.1217
			c6.4133,1.4126,12.501,3.6938,18.1024,7.1389c-0.4564-1.7408-0.9129-3.4816-1.3693-5.2224
			c-2.4038,3.2549-7.2357,7.8382-11.0298,11.131c-5.678,4.928-11.673,9.479-17.7722,13.8698
			c-16.7759,12.0765-34.3812,23.0132-52.2572,33.3754c-39.9584,23.1626-81.9419,44.4036-125.8895,58.9047
			c-16.2456,5.3605-33.447,10.3821-50.6853,10.6405c-5.6854,0.0852-11.7131-0.369-16.7336-2.5089
			c-3.9348-1.6771-7.176-4.6691-8.6051-8.0981c-7.5471-18.1082,9.0958-38.0507,20.6981-50.0225
			c17.7141-18.2781,39.0399-33.0499,60.7294-46.1959c17.5115-10.6136,35.5765-19.9852,54.6385-27.4517
			c32.7794-12.8396,69.6683-23.6634,105.2044-18.9639c8.3003,1.0977,16.4131,3.2618,24.1349,6.4963
			c-0.7604-1.8691-1.5208-3.7381-2.2811-5.6071c-7.696,10.8201-20.5139,17.7889-32.1989,23.4118
			c-16.7375,8.0543-34.597,13.7776-52.4839,18.6584c-39.1579,10.685-79.6489,17.3865-120.0914,20.6713
			c-16.5551,1.3446-33.3665,2.3278-49.9575,1.0197c1.0986,1.9145,2.1972,3.829,3.2958,5.7435
			c12.8102-23.1927,37.5944-38.0109,61.1976-48.2896c19.5741-8.524,41.0843-15.3981,62.5465-16.2953
			c19.5245-0.8162,39.3613,0.1511,58.6808,3.095c10.0962,1.5384,20.1802,3.6359,29.8443,6.9831
			c7.6918,2.664,15.7056,6.2352,21.4186,12.2143c2.2213,2.3247,3.9483,5.0292,4.8513,8.1287
			c0.4775,1.6392,0.5276,3.9642,0.2318,5.2551c-0.7743,3.379-2.8493,5.7346-6.0049,7.7368
			c-9.9156,6.291-23.5357,7.2713-35.0907,7.911c-38.2485,2.1176-77.1688-3.3533-114.8326-9.4717
			c-30.8731-5.0152-62.1825-10.5392-92.2228-19.421c-1.7158-0.5073-3.425-1.0367-5.1163-1.621
			c0.7604,1.8691,1.5208,3.7381,2.2811,5.6071c14.8317-24.5906,42.5548-39.0988,68.5939-48.9048
			c29.788-11.2178,61.4457-17.7104,93.0211-21.2641c15.1979-1.7104,30.491-2.7325,45.7883-2.7535
			C857.2236,568.6799,857.2323,561.046,852.3118,561.0527L852.3118,561.0527z"/>
	</g>
	<g>
		<path class="st2" d="M663.7809,169.8819c-10.0131-0.433-23.1229,7.9068-21.8511,13.926
			c1.2692,6.0165,15.852,10.8127,24.6778,8.594c8.8275-2.2143,20.088-5.9747,17.9278-12.7082
			C682.3837,172.9603,672.5606,170.2634,663.7809,169.8819z"/>
		<path class="st2" d="M702.3525,212.875c-5.3336-1.7918-18.7109,2.1062-16.5035,6.2456
			c2.2126,4.1403,11.3728,9.8188,18.9887,8.3816C712.4596,226.0641,715.937,217.4534,702.3525,212.875z"/>
		<path d="M561.2904,87.1778c-0.4927,9.2612-0.8912,18.4692,0.4874,27.6742c0.7252,4.8419,8.0822,2.7843,7.3613-2.0294
			c-1.2679-8.4659-0.6672-17.1383-0.2148-25.6448C569.1855,82.2684,561.5508,82.2828,561.2904,87.1778L561.2904,87.1778z"/>
		<path d="M564.0987,104.9343c5.3376,1.1788,10.7538,2.4147,16.2518,1.949c4.8593-0.4116,4.903-8.0492,0-7.6339
			c-4.8754,0.4129-9.4889-0.631-14.2224-1.6764C561.3408,96.5158,559.296,103.8737,564.0987,104.9343L564.0987,104.9343z"/>
		<path d="M579.1454,83.8321c-2.3103,11.1619-1.8091,22.4341,0.8458,33.4895c1.1467,4.7749,8.5098,2.7531,7.3613-2.0294
			c-2.3268-9.6894-2.8732-19.6355-0.8458-29.4307C587.4991,81.067,580.1422,79.0168,579.1454,83.8321L579.1454,83.8321z"/>
		<path d="M592.5583,88.8301c1.2081,7.9642,1.2891,16.0426,2.4991,24.0123c0.735,4.8412,8.0921,2.7844,7.3613-2.0294
			c-1.2091-7.964-1.2902-16.0425-2.4991-24.0123C599.1853,81.9595,591.8282,84.0163,592.5583,88.8301L592.5583,88.8301z"/>
		<path d="M598.0804,118.6273c7.2502,0.1611,14.4955,0.4794,21.7457,0.642c4.9144,0.1102,4.913-7.5238,0-7.6339
			c-7.2502-0.1626-14.4955-0.4809-21.7457-0.642C593.1661,110.8842,593.1674,118.5181,598.0804,118.6273L598.0804,118.6273z"/>
		<path d="M593.7347,91.1712c7.952,1.3064,14.8824-3.0063,22.6393-3.4917c4.8797-0.3054,4.9142-7.9415,0-7.6339
			c-6.7043,0.4196-13.947,4.859-20.6099,3.7644C590.9583,83.0204,588.8911,90.3755,593.7347,91.1712L593.7347,91.1712z"/>
		<path d="M599.5604,104.879c4.8038-0.4988,9.6073-1.0002,14.4112-1.4983c4.8381-0.5016,4.8897-8.1409,0-7.6339
			c-4.8039,0.498-9.6074,0.9994-14.4112,1.4983C594.7225,97.7474,594.6708,105.3867,599.5604,104.879L599.5604,104.879z"/>
		<path d="M629.5197,89.7789c-0.0184,9.1816,2.3405,18.2287,6.0011,26.6c0.64,1.4635,2.851,2.2332,4.3105,1.7541
			c5.2716-1.7303,10.9306-0.9214,16.2266-2.6612c4.6462-1.5264,2.6567-8.9007-2.0294-7.3613
			c-5.2712,1.7317-10.9304,0.9228-16.2265,2.6612c1.4368,0.5847,2.8737,1.1694,4.3105,1.7541
			c-3.1059-7.1026-4.9744-14.9857-4.9589-22.747C637.1634,84.8664,629.5295,84.8591,629.5197,89.7789L629.5197,89.7789z"/>
		<path d="M657.3605,88.3779c2.977,6.9953,3.557,14.8996,3.4745,22.4124c-0.054,4.9138,7.58,4.9173,7.6339,0
			c0.0987-8.9871-0.9786-17.9514-4.5168-26.2654C662.0345,80.0188,655.4566,83.9042,657.3605,88.3779L657.3605,88.3779z"/>
		<path d="M660.9908,88.7788c3.8719-0.2813,7.6771-1.5819,11.5312-1.7175c0.9221-0.0324,0.9955-0.1813,1.4272,0.689
			c1.1039,2.2257,1.1461,5.0506,1.2847,7.4685c0.6302-1.0986,1.2603-2.1972,1.8905-3.2958
			c-4.0311,2.1945-9.0768,1.0406-13.2526,3.3161c-4.3152,2.3515-0.4666,8.9456,3.853,6.5917
			c4.0295-2.1958,9.0768-1.0429,13.2526-3.3161c1.1196-0.6095,1.9644-2.0063,1.8905-3.2958
			c-0.3118-5.4349-0.857-13.4888-7.1807-15.3833c-4.7159-1.4129-9.9598,0.9651-14.6965,1.3093
			C656.1198,81.4988,656.0811,89.1355,660.9908,88.7788L660.9908,88.7788z"/>
		<path d="M694.8939,76.6361c-1.54,7.4704-1.6366,14.9454-1.7739,22.541c-0.0889,4.9143,7.5451,4.9148,7.6339,0
			c0.1246-6.8932,0.1031-13.7295,1.5013-20.5116C703.2437,73.8706,695.8868,71.8201,694.8939,76.6361L694.8939,76.6361z"/>
		<g>
			<g>
				<path d="M695.1216,118.6932c5.5069,0,5.516-8.5583,0-8.5583C689.6147,110.1348,689.6056,118.6932,695.1216,118.6932
					L695.1216,118.6932z"/>
			</g>
		</g>
		<path d="M622.4265,144.8972c-16.4311,2.7582-33.86,1.9103-50.2032-0.9985c-17.4495-3.1056-36.0648-8.8722-49.2935-21.2263
			c-12.3667-11.5491-18.1189-30.3556-10.9731-46.3578c6.6134-14.8101,23.5625-20.1253,38.3598-22.3788
			c18.9866-2.8916,38.4152-1.416,57.4915-0.4c4.9094,0.2615,4.895-7.3732,0-7.6339c-18.5547-0.9882-37.2505-2.233-55.7546,0.1471
			c-16.7928,2.1599-35.3886,7.5577-44.7997,22.8737c-9.8876,16.0916-6.9194,38.1368,4.3743,52.6543
			c11.9524,15.3642,31.2709,23.443,49.7139,27.8455c20.3987,4.8694,42.3715,6.3181,63.1143,2.8361
			C629.2901,151.447,627.2399,144.0892,622.4265,144.8972L622.4265,144.8972z"/>
		<path d="M617.2633,50.5788c18.4393-4.8971,37.5776-7.668,56.6611-7.9044c19.3066-0.2392,40.6147,1.8499,57.0147,12.9886
			c16.8734,11.4602,22.6522,33.7196,17.6016,52.9802c-4.8896,18.6464-22.6214,25.3612-39.9271,28.2803
			c-21.7769,3.6734-44.3542,2.1653-65.8195,7.7951c-4.748,1.2453-2.7347,8.6107,2.0294,7.3613
			c20.4127-5.3537,41.988-4.2456,62.7717-7.3156c18.7055-2.763,38.5389-9.5436,46.3635-28.3872
			c8.1972-19.7409,3.8964-46.0565-11.5263-61.1225c-15.016-14.6687-37.3531-19.0501-57.5798-20.0284
			c-23.284-1.1262-47.1192,2.0158-69.6187,7.9913C610.4902,44.4774,612.5024,51.8432,617.2633,50.5788L617.2633,50.5788z"/>
		<path d="M652.2522,187.4883c-3.4775-0.1139-9.0623-2.2777-7.006-6.5286c2.2894-4.7327,9.6431-5.6671,14.134-6.513
			c4.822-0.9082,2.78-8.2671-2.0294-7.3613c-7.905,1.489-17.6788,4.2457-19.9238,13.1424
			c-2.2908,9.0781,7.103,14.6414,14.8253,14.8944C657.166,195.2832,657.1602,187.6491,652.2522,187.4883L652.2522,187.4883z"/>
		<path d="M664.6591,174.4158c2.975,0.2556,18.1447,1.9343,15.6245,7.1501c-3.0684,6.3503-15.1643,6.6521-20.8563,6.472
			c-4.9139-0.1555-4.9086,7.4786,0,7.6339c9.2776,0.2935,25.2311-1.6849,28.4419-12.5429
			c3.709-12.5427-15.0807-15.6485-23.2101-16.3471C659.7649,166.3613,659.793,173.9976,664.6591,174.4158L664.6591,174.4158z"/>
		<path d="M697.0563,208.1478c-6.4717,0.1995-15.0557,3.4361-14.487,11.3376c0.5576,7.7464,10.0814,11.0977,16.5778,11.5788
			c6.6942,0.4958,15.3076-1.3212,15.8941-9.3491c0.1752-2.3981-0.1917-4.4929-1.5873-6.4431
			c-2.4872-3.4751-6.1768-4.1426-9.6697-6.0866c-4.2968-2.3914-8.1511,4.1996-3.853,6.5917
			c2.0261,1.1276,6.8823,1.9333,7.5066,4.3328c0.8448,3.2472-3.8366,3.3099-5.9077,3.3768
			c-2.8606,0.0925-9.5645-0.5087-10.9785-3.703c-1.4555-3.2881,4.4083-3.9375,6.5047-4.0021
			C701.9572,215.6307,701.9784,207.9961,697.0563,208.1478L697.0563,208.1478z"/>
	</g>
	<g>
		<g>
			<path class="st2" d="M662.1842,397.6847l6.8719-14.5027c0,0-2.2927-26.7196-9.1611-58.7833c0,0-16.7961,7.6333-22.1403,3.8171
				c-5.3441-3.8171-12.2161-20.6115,2.291-22.1412c0,0-8.3999-7.6315-2.291-15.2666c6.1072-7.6324,11.4496-8.3955,16.7946-8.3955
				c5.3458,0,7.6349,11.4504,7.6349,11.4504s3.8163-10.6873,12.9775-10.6873c9.1611,0,9.9233,11.4512,3.054,18.3206
				c0,0,9.1603,37.4077,6.1072,53.4365l6.1063-6.8702l35.8808-41.2222l34.3511-35.8808c0,0,35.116-32.0593,47.332-39.6952
				c0,0,9.1611,19.8484,9.1611,33.5881c0,0,21.3729,7.6342,32.0619,16.0323c0,0,20.6107-16.0323,32.8276-18.3214
				c0,0,12.9774,129.015,17.5566,155.7329C899.6003,418.2962,784.3282,380.1272,662.1842,397.6847z"/>
			<g>
				<g>
					<path class="st3" d="M894.6301,389.1779c-11.6761,3.9202-24.8757,2.0508-36.3647-1.6272
						c-9.3796-3.0028-13.3955,11.7336-4.0588,14.7225c13.8802,4.4435,30.4064,6.3531,44.4823,1.6272
						C907.9557,400.7892,903.9816,386.0382,894.6301,389.1779L894.6301,389.1779z"/>
					<path d="M852.9534,279.8268c-11.5366-10.0154-26.388-18.9366-42.1747-18.5048c-4.9026,0.1341-4.9224,7.7686,0,7.6339
						c13.7155-0.3752,26.7542,7.5679,36.7767,16.2689C851.2496,288.432,856.6715,283.0547,852.9534,279.8268L852.9534,279.8268z"/>
					<path d="M853.3524,282.933c6.9097-6.0124,14.4382-10.7084,22.8381-14.33c4.4988-1.9396,0.6153-8.5182-3.853-6.5917
						c-9.0074,3.8835-16.9852,9.0864-24.3832,15.5237C844.2414,280.7658,849.6597,286.1462,853.3524,282.933L853.3524,282.933z"/>
					<path d="M878.3625,262.6347c3.1718,31.7549,6.4374,63.5102,10.5322,95.1614c0.6215,4.8043,8.2635,4.8662,7.634,0
						c-4.0948-31.6512-7.3604-63.4066-10.5323-95.1614C885.5128,257.7921,877.8738,257.7421,878.3625,262.6347L878.3625,262.6347z"
						/>
					<path d="M889.6671,371.7803c2.8698,16.4172,6.1166,32.7195,6.7897,49.4201c0.1973,4.8956,7.8322,4.9208,7.6339,0
						c-0.7001-17.3717-4.0768-34.3704-7.0624-51.4495C896.1839,364.9203,888.8258,366.9678,889.6671,371.7803L889.6671,371.7803z"/>
					<path d="M741.3408,296.4418c17.8248-18.1567,35.8515-36.9231,56.2625-52.2255c3.8842-2.912,0.0831-9.5426-3.853-6.5917
						c-20.9615,15.7152-39.4985,34.7693-57.8075,53.4192C732.4982,294.5525,737.892,299.9548,741.3408,296.4418L741.3408,296.4418z"
						/>
					<path d="M821.0172,265.2044c-0.223-5.947-1.5239-11.935-2.8627-17.7134c-1.3406-5.7861-2.7934-11.7955-5.5121-17.1156
						c-2.2361-4.376-8.8251-0.5176-6.5917,3.853c2.399,4.6947,3.5607,10.1915,4.7425,15.292
						c1.1875,5.1253,2.3922,10.4081,2.59,15.684C813.5668,270.1017,821.2017,270.1257,821.0172,265.2044L821.0172,265.2044z"/>
					<path d="M692.0176,352.9255c12.3528-17.3058,26.8893-32.8528,41.2378-48.4915c3.3164-3.6147-2.068-9.0275-5.398-5.398
						c-14.795,16.1254-29.6948,32.193-42.4315,50.0366C682.5667,353.0782,689.1845,356.8946,692.0176,352.9255L692.0176,352.9255z"
						/>
					<path d="M668.5713,398.9807c1.7928-5.8424,3.9338-11.5408,6.4611-17.1057c2.0162-4.4394-4.561-8.3245-6.5917-3.853
						c-2.7993,6.1638-5.2443,12.4559-7.2307,18.9292C659.7656,401.6585,667.132,403.6712,668.5713,398.9807L668.5713,398.9807z"/>
					<path d="M843.6902,313.7311c-1.6402-1.3267-3.2975-1.8405-5.3874-1.9618c-0.4092-0.0238,1.1858,0.2603,0.6125,0.0798
						c-0.1921-0.0605-0.5441-0.1941,0.1614,0.1043c0.9232,0.3906,1.6824,1.3941,1.812,2.3481
						c0.1446,1.0643,0.1422-0.4462,0.0101,0.5214c-0.1091,0.7998,0.001,0.1114,0.0476-0.0697
						c0.1343-0.5214,0.3312-1.0258,0.5294-1.5254c-0.5847,0.7604-1.1694,1.5208-1.7542,2.2812
						c0.4164-0.3092,0.8465-0.5706,1.2825-0.8482c0.6411-0.4083-0.5958,0.2118-0.3351,0.1318
						c0.6472-0.1987-0.9219,0.0584-0.5732,0.0569c-0.7023,0.0031-1.6027-0.3459-2.2112-0.9462
						c0.3289,0.3245-0.6511-0.9464-0.4029-0.5228c0.2415,0.4121-0.3546-1.0833-0.2439-0.5851
						c0.0208,0.0937,0.0579,0.1873,0.0844,0.2796c0.4636,1.6133,1.0974,3.3675,2.7582,4.1292
						c1.811,0.8305,4.1947,0.5757,5.2224-1.3694c0.887-1.6788,0.5683-4.3338-1.3693-5.2223
						c-0.6273-0.2877,0.7298,0.6829,0.3845,0.326c0.7933,0.8199,0.5405,0.7578,0.3383,0.3723
						c0.6454,1.2303,0.2554,0.6014,0.1298,0.1322c-0.2775-1.0363-0.6405-2.0292-1.3982-2.8242
						c-2.3516-2.4676-6.1624-1.2337-8.2915,0.8954c-1.0826,1.0826-1.7883,3.5208-1.7881,5.0745
						c0.0002,1.6534,0.7896,3.2208,2.227,4.0779c0.9945,0.593,2.0396,0.6635,3.1633,0.773c0.181,0.0176,0.8004,0.0955-0.0173-0.0119
						c-0.8222-0.1079-0.176-0.0169,0.0054,0.0302c0.088,0.0223,0.175,0.0478,0.2611,0.0765c0.3514,0.128,0.178,0.0529-0.5201-0.2255
						c0.0884,0.043,0.1746,0.0902,0.2584,0.1416c0.3097,0.2062,0.1784,0.0991-0.3938-0.3214c0.8134,0.6579,1.6122,1.118,2.699,1.118
						c0.9362,0,2.0544-0.4158,2.699-1.118C844.9677,317.7375,845.3481,315.072,843.6902,313.7311L843.6902,313.7311z"/>
					<path d="M779.8828,284.4459c-0.2734,0.8952-0.1768,1.8997,0.1476,2.7656c0.1748,0.4666,0.3908,0.9366,0.6,1.394
						c0.1501,0.3282,0.0775,0.6244-0.2417-0.5769c0.0262,0.0986,0.0773,0.1908,0.1033,0.2901
						c0.0219,0.0835,0.0313,0.203,0.0679,0.2789c-0.2156-0.4478-0.1174-1.2184,0.0029-1.6676
						c0.1613-0.6018,0.7672-1.4597,1.4955-1.8895c-0.4064,0.2398,1.0975-0.3844,0.5842-0.2442
						c-0.5203,0.1422,1.0978-0.0125,0.5275-0.0719c-0.2175-0.0227-0.4503-0.012-0.6698-0.0244
						c-0.7327-0.0415,0.9714,0.2034,0.1393,0.0106c-0.3668-0.085-0.7375-0.1523-1.1041-0.2397
						c0.8886,0.8886,1.7773,1.7773,2.6659,2.6659c-0.0536-0.216-0.0672-0.4807-0.1472-0.688
						c0.0786,0.6782,0.1061,0.8226,0.0826,0.4333c-0.0026-0.0844-0.0005-0.1686,0.0062-0.2527
						c0.0219-0.3224-0.0066-0.109-0.0856,0.6402c0.0725-0.2488,0.0353-0.1811-0.1116,0.2031
						c-0.4036,0.9258,0.3689-0.3907-0.2541,0.4253c-0.2623,0.3156-0.3112,0.3881-0.1467,0.2176
						c-0.6376,0.4651-0.8056,0.5965-0.504,0.3941c0.3334-0.201,0.5677-0.0811-0.5004,0.1824
						c0.2298-0.0567,0.4539-0.1494,0.6851-0.2074c1.6811-0.4222,3.5257-1.0676,4.314-2.7802
						c0.833-1.8099,0.574-4.1956-1.3693-5.2224c-1.6809-0.8881-4.3311-0.567-5.2224,1.3693
						c-0.2914,0.6332,0.6769-0.7284,0.3177-0.3784c0.732-0.7132,0.7963-0.569,0.4438-0.3795
						c1.2545-0.6746,0.5356-0.2234,0.0708-0.1073c-0.8265,0.2065-1.6366,0.394-2.393,0.8222
						c-2.7283,1.5442-3.2536,4.5129-2.5471,7.3579c0.3099,1.2479,1.4097,2.366,2.666,2.6659
						c1.6255,0.388,3.3406,0.7294,5.0018,0.3586c1.6254-0.3628,3.0241-1.6261,3.4212-3.2653
						c0.3548-1.4646-0.0598-2.6913-0.6335-4.0058c-0.0485-0.1111-0.098-0.2217-0.148-0.3321
						c-0.2829-0.6241,0.2488,0.4389,0.2128,0.5191c0.0214-0.0475-0.0966-0.2448-0.1073-0.3128
						c-0.0281-0.1779-0.0679-0.4341,0.042,0.358c0.0563,0.4057,0.0268,1.069-0.051,1.3235c0.5833-1.9095-0.6944-4.2462-2.666-4.6953
						C782.514,281.3098,780.5074,282.4011,779.8828,284.4459L779.8828,284.4459z"/>
					<path d="M801.9012,295.0835c-0.7885,4.2821-1.34,10.5143,3.0803,13.1479c4.6736,2.7846,9.7957-1.006,13.153-4.1024
						c1.773-1.6352,1.3334-4.8553-0.7725-5.9948c-3.2845-1.7773-6.5691-3.5546-9.8536-5.3318
						c-4.3214-2.3383-8.1799,4.2503-3.853,6.5917c3.2845,1.7773,6.5691,3.5546,9.8536,5.3318
						c-0.2575-1.9983-0.515-3.9966-0.7725-5.9948c-1.1163,1.0295-2.3228,2.1182-3.7468,2.712
						c0.1819-0.0759-0.8027,0.391-0.3506,0.1141c-0.1008,0.0085-0.2017,0.0085-0.3025,0c-0.2251-0.0114-0.1973-0.0074,0.0833,0.0117
						c0.0955-0.1982,1.0466,0.5256,0.4147,0.0708c0.5768,0.4152,0.5692,0.8393,0.2829,0.0844
						c0.3295,0.8688-0.1494-0.8779-0.1158-0.6411c-0.1306-0.9217,0.0306-2.7192,0.2609-3.9702
						c0.3729-2.0252-0.5571-4.1159-2.666-4.6953C804.7411,291.9078,802.2764,293.0457,801.9012,295.0835z"/>
					<path class="st1" d="M779.9044,239.9244c1.3513,3.1835,2.7599,6.3523,4.6751,9.2439c1.137,1.7167,3.3723,2.4514,5.2224,1.3693
						c1.7054-0.9975,2.5127-3.496,1.3693-5.2223c-1.9152-2.8916-3.3239-6.0605-4.675-9.2439
						c-0.8056-1.898-3.6048-2.3155-5.2224-1.3694C779.3092,235.8511,779.0956,238.0188,779.9044,239.9244L779.9044,239.9244z"/>
					<path d="M757.9402,283.4208c-6.35-13.5004-11.3881-27.6694-18.1725-40.9556c-2.2349-4.3766-8.8237-0.5181-6.5917,3.853
						c6.7844,13.2863,11.8225,27.4553,18.1726,40.9556C753.438,291.7162,760.0214,287.8453,757.9402,283.4208L757.9402,283.4208z"/>
					<path d="M747.962,295.1639c-5.9882-13.8229-14.3306-26.8563-26.2181-36.3257c-3.8047-3.0308-9.2412,2.3365-5.398,5.398
						c11.4491,9.1203,19.2586,21.4713,25.0244,34.7807C743.3181,303.5129,749.8968,299.6301,747.962,295.1639L747.962,295.1639z"/>
					<path d="M867.0176,333.6744c19.699,4.3542,39.6956,4.5622,58.1512-4.4049c4.4179-2.1466,0.5519-8.7319-3.853-6.5917
						c-16.4974,8.0157-34.7189,7.5145-52.2689,3.6353C864.2598,325.255,862.2151,332.6129,867.0176,333.6744L867.0176,333.6744z"/>
					<path d="M864.9324,345.9525c5.7842,4.2956,13.8685,5.9147,20.8058,7.1176c9.34,1.6196,18.9367,2.2817,28.3665,1.1013
						c4.8102-0.6021,4.8705-8.2437,0-7.6339c-8.731,1.093-17.678,0.6729-26.337-0.8286
						c-6.3385-1.0991-13.6946-2.4213-18.9822-6.3481C864.8387,336.4298,861.028,343.0529,864.9324,345.9525L864.9324,345.9525z"/>
					<path d="M802.3914,307.0661c-1.7077,4.2206-3.4068,8.4446-5.1072,12.6682c-1.5319,3.805,4.632,5.4589,6.1475,1.6948
						c1.7004-4.2235,3.3994-8.4476,5.1071-12.6682C810.077,304.9591,803.9129,303.3056,802.3914,307.0661L802.3914,307.0661z"/>
					<path d="M796.8311,318.2682c-3.7864,5.2372-12.1352,5.9821-17.7031,8.3432c-7.2295,3.0657-12.0774,8.3004-13.9056,16.0245
						c-0.9443,3.9894,5.2014,5.6919,6.1475,1.6948c3.7291-15.7549,22.6938-11.4028,30.9661-22.8448
						C804.7431,318.1562,799.2151,314.9707,796.8311,318.2682L796.8311,318.2682z"/>
					<path d="M797.2842,319.7343c-1.8445,5.5341,2.874,10.0693,5.846,14.1277c5.6277,7.6848,6.2414,15.2017,2.5494,24.0423
						c-1.579,3.7812,4.5871,5.4313,6.1475,1.6948c3.5005-8.3822,3.8625-17.1608-0.7053-25.1949
						c-1.5355-2.7006-3.5353-5.0675-5.3855-7.5482c-1.1138-1.4933-2.9617-3.4554-2.3046-5.4268
						C804.7318,317.528,798.5771,315.855,797.2842,319.7343L797.2842,319.7343z"/>
					<path d="M779.7579,341.6964c7.8146,2.5943,15.6595,4.0227,22.8091,8.3573c3.5175,2.1325,6.7252-3.3783,3.2177-5.5048
						c-7.6242-4.6223-15.9911-6.2309-24.3321-8.9999C777.55,334.2534,775.8766,340.4079,779.7579,341.6964L779.7579,341.6964z"/>
					<path d="M853.4672,302.8369c-0.6226-2.1876-1.7336-4.134-3.086-5.944c-1.1913-1.5945-3.355-2.5732-5.2224-1.3693
						c-1.5775,1.0171-2.6475,3.5116-1.3693,5.2223c0.5647,0.7558,1.1105,1.5264,1.5756,2.3485
						c0.2147,0.3796,0.4203,0.7689,0.5909,1.1707c-0.3544-0.835,0.1042,0.4406,0.1499,0.6013
						c0.5463,1.9192,2.722,3.3045,4.6954,2.6659C852.7557,306.8998,854.0527,304.8943,853.4672,302.8369L853.4672,302.8369z"/>
					<path d="M787.4516,272.9803c0.4044-0.2398,0.8126-0.4706,1.2316-0.6841c0.2144-0.1091,0.4306-0.2145,0.6486-0.3162
						c0.3718-0.1646,0.4415-0.1982,0.2088-0.1009c-0.2335,0.0953-0.1615,0.0672,0.2161-0.0841
						c0.2244-0.0869,0.4503-0.17,0.6776-0.2492c0.4446-0.1547,0.8943-0.2899,1.3477-0.416c1.9227-0.535,3.3019-2.73,2.6659-4.6953
						c-0.6355-1.9639-2.6344-3.2393-4.6953-2.6659c-2.1438,0.5964-4.2398,1.4846-6.154,2.62
						c-1.7173,1.0186-2.4914,3.482-1.3694,5.2223C783.3436,273.3394,785.6138,274.0703,787.4516,272.9803L787.4516,272.9803z"/>
					<path d="M764.4575,347.9818c-1.2552,8.6947,10.3149,13.9188,16.7853,16.5703c7.9774,3.2691,20.508,7.095,28.359,1.5321
						c3.3207-2.3529,0.1397-7.8837-3.2177-5.5048c-5.6214,3.9831-14.9125,0.9599-20.7123-1.1192
						c-3.6373-1.3039-7.2134-2.9788-10.4168-5.1553c-0.9739-0.6617-4.8625-3.157-4.6501-4.6284
						C771.1843,345.6635,765.0424,343.9305,764.4575,347.9818L764.4575,347.9818z"/>
				</g>
				<path d="M771.2648,345.0291c12.5921,2.3518,24.3195,7.278,35.8797,12.656c3.6967,1.7197,6.9381-3.774,3.2177-5.5048
					c-12.0425-5.6024-24.2807-10.8479-37.4026-13.2987C768.9494,338.1328,767.2306,344.2757,771.2648,345.0291L771.2648,345.0291z"
					/>
				<path d="M673.9964,304.6338c5.7534,17.8642,8.4385,36.1969,9.8087,54.881c0.2983,4.0673,6.6758,4.0999,6.3752,0
					c-1.4103-19.2311-4.1127-38.1831-10.0364-56.5757C678.8912,299.0495,672.7336,300.7128,673.9964,304.6338L673.9964,304.6338z"/>
				<path d="M656.0556,325.2462c5.9438,21.4706,12.5834,43.0348,9.813,65.5692c-0.4995,4.0624,5.8802,4.0262,6.3752,0
					c2.8349-23.0586-3.9579-45.2911-10.0407-67.2639C661.1099,319.6027,654.9575,321.2796,656.0556,325.2462L656.0556,325.2462z"/>
				<path d="M651.4142,323.1725c-5.4583,3.3347-14.4289,5.7026-17.4562-2.0345c-2.6465-6.7639,3.3659-11.5307,9.5215-12.2546
					c4.0256-0.4734,4.0734-6.8542,0-6.3752c-10.2615,1.2067-19.5317,9.3274-15.6179,20.4467
					c4.1923,11.9106,17.6682,11.2832,26.7703,5.7224C658.1276,326.5416,654.9282,321.0257,651.4142,323.1725L651.4142,323.1725z"/>
				<path d="M650.0516,305.2945c-4.108-1.5771-9.3469-4.2253-10.9026-8.1323c-0.9039-2.27-0.1517-4.9376,1.4414-6.9144
					c2.107-2.6144,4.8461-4.3008,7.8616-5.1763c3.0141-0.875,5.7587-0.8781,8.1358,0.803c0.916,0.6478,2.0323,2.2325,2.5524,3.842
					c0.9117,2.8213,0.867,5.8027,0.6186,8.7266c-0.3474,4.0876,6.0298,4.0645,6.3751,0c0.4918-5.7881-0.1626-12.4648-4.6068-16.7051
					c-3.5325-3.3704-8.5414-4.1092-13.1857-3.197c-8.5402,1.6773-18.08,9.9484-15.5797,19.5044
					c1.8658,7.1313,9.2717,10.969,15.5951,13.3965C652.1901,312.9135,653.849,306.7523,650.0516,305.2945L650.0516,305.2945z"/>
				<path d="M665.2579,297.7618c0.8135-3.883,2.3829-8.2341,5.655-10.1232c0.9291-0.5364,1.8609-0.7118,3.0641-0.6607
					c0.0238,0.001,0.7031,0.0945,1.3974,0.3174c0.0536,0.0172,0.7763,0.3343,1.3994,0.747
					c1.5938,1.0557,2.6182,2.9963,2.3145,5.5956c-0.104,0.8899-0.8562,2.7194-1.7159,3.957
					c-1.392,2.0038-3.3459,3.6064-5.3466,4.9669c-3.3732,2.2939-0.1872,7.8202,3.2177,5.5048
					c6.7503-4.5904,13.3287-12.8325,8.7612-21.2296c-3.3062-6.0783-11.4438-8.089-17.1598-4.1712
					c-4.4558,3.0541-6.6613,8.2793-7.7344,13.4012C658.2718,300.07,664.4158,301.7813,665.2579,297.7618L665.2579,297.7618z"/>
			</g>
		</g>
		<path class="st1" d="M659.1293,403.0295c65.3142-8.2516,132.9097-9.3799,196.8892,8.0909
			c18.2454,4.9823,36.0345,11.4882,53.1066,19.6346c4.4118,2.1052,8.2896-4.4747,3.853-6.5917
			c-61.1044-29.1575-129.6156-36.995-196.6418-33.8484c-19.1313,0.8981-38.2079,2.6804-57.2069,5.0807
			C654.3207,396.003,654.26,403.6447,659.1293,403.0295L659.1293,403.0295z"/>
	</g>
	<path d="M558.1092,250.9817c8.8708,3.0265,16.9866,7.2839,24.5325,12.8435c3.9588,2.9167,7.7706-3.7053,3.853-6.5917
		c-8.0738-5.9485-16.8748-10.3783-26.3561-13.613C555.4788,242.0306,553.4782,249.4017,558.1092,250.9817L558.1092,250.9817z"/>
	<path d="M597.1743,241.1886c1.1026,3.2356,2.5746,6.2035,4.457,9.0529c1.1351,1.7181,3.3738,2.4506,5.2224,1.3693
		c1.707-0.9984,2.5107-3.4948,1.3693-5.2223c-1.5192-2.2996-2.7977-4.6184-3.6875-7.2293
		c-0.6647-1.9505-2.6226-3.2355-4.6953-2.6659C597.94,237.0154,596.5063,239.2287,597.1743,241.1886L597.1743,241.1886z"/>
	<path d="M661.2998,231.018c-2.0862,7.6261-3.1156,15.5023-3.1904,23.405c-0.0464,4.9136,7.5875,4.9178,7.634,0
		c0.0687-7.258,1.0013-14.3704,2.9176-21.3756C669.9592,228.3022,662.5966,226.2775,661.2998,231.018L661.2998,231.018z"/>
	<g>
		<path class="st2" d="M860.2369,888.7407c0,0,16.8084-12.7317,21.2971-20.5393c0,0,12.831,20.5219,20.5479,29.832
			c7.717,9.3145,35.1752,30.5793,47.3547,33.696c12.1768,3.1255,16.1081,17.3555,14.838,25.2231
			c-1.2778,7.865-17.4503,20.9321-35.6124,10.6211c0,0-28.0593-14.6716-38.5758-29.515
			C879.5724,923.218,860.2369,888.7407,860.2369,888.7407z"/>
		<g>
			<path class="st3" d="M895.3174,921.8246c3.9524-2.4307,7.6574-5.2241,11.0172-8.428c2.8959-2.7616,2.989-8.0523,0-10.7961
				c-3.1071-2.8522-7.7065-2.9462-10.7961,0c-0.7318,0.6979-1.4717,1.3863-2.2364,2.0483
				c-0.3156,0.2733-0.6344,0.5425-0.9572,0.8074c-0.2911,0.2388-1.488,1.0607-0.1201,0.1099
				c-1.5214,1.0575-3.0335,2.1035-4.6135,3.0751c-3.4,2.091-5.0075,6.9256-2.7387,10.4447
				C887.0721,922.4974,891.6781,924.0627,895.3174,921.8246L895.3174,921.8246z"/>
			<path class="st3" d="M913.0073,940.815c7.2728-3.5464,13.4465-8.347,18.0898-15.0131c2.3577-3.3848,0.6197-8.4804-2.7387-10.4447
				c-3.8017-2.2236-8.0815-0.654-10.4447,2.7386c-2.9536,4.2403-7.6943,7.1375-12.6124,9.5357
				c-3.7052,1.8068-4.7083,7.0775-2.7386,10.4447C904.7746,941.8581,909.2882,942.6285,913.0073,940.815L913.0073,940.815z"/>
			<path d="M858.0172,889.3077c13.3368,31.6057,32.881,64.6376,65.3849,79.4076c4.4391,2.0172,8.3242-4.56,3.853-6.5917
				c-30.6516-13.9283-49.2721-44.9749-61.8766-74.8453C863.4976,882.8211,856.1068,884.7806,858.0172,889.3077L858.0172,889.3077z"
				/>
			<path d="M879.3419,871.9232c15.2321,26.7938,36.4703,54.6798,67.4686,63.4643c4.7348,1.3418,6.7559-6.0218,2.0294-7.3613
				c-29.0216-8.2243-48.688-34.9457-62.9062-59.956C883.5057,863.7996,876.9079,867.6417,879.3419,871.9232L879.3419,871.9232z"/>
			<path d="M926.9204,969.7466c11.4684,7.8377,27.5109,8.9561,36.8419-2.8186c9.2943-11.7284,4.3154-26.9011-6.1884-35.8627
				c-3.7179-3.1721-9.1427,2.2031-5.398,5.398c7.4943,6.3939,12.5803,16.9592,5.6403,25.76
				c-7.012,8.8921-18.8158,6.554-27.0427,0.9316C926.707,960.3759,922.8842,966.9882,926.9204,969.7466L926.9204,969.7466z"/>
		</g>
		<path class="st1" d="M881.626,862.4946c-9.0623,9.2929-19.6044,18.264-31.9037,22.8747
			c-4.5583,1.7088-2.5842,9.0908,2.0294,7.3613c13.5824-5.0917,25.2369-14.5472,35.2724-24.838
			C890.4563,864.373,885.0634,858.9697,881.626,862.4946L881.626,862.4946z"/>
	</g>
	<path class="st1" d="M891.3163,308.2656c-22.3715,1.2858-42.4091,17.1028-58.3555,31.4885
		c-21.0705,19.0083-39.2913,41.3936-54.8719,65.0634c-2.709,4.1154,3.8989,7.9439,6.5917,3.853
		c14.7373-22.3887,31.9078-43.4478,51.627-61.6465c14.6963-13.5631,34.0153-29.9179,55.0086-31.1244
		C896.2001,315.6189,896.2325,307.9831,891.3163,308.2656L891.3163,308.2656z"/>
	<path class="st1" d="M705.4035,319.3625c12.2335,9.7451,23.1517,20.9728,31.0808,34.5357
		c7.2875,12.4654,11.7491,26.1827,15.2651,40.1208c1.2009,4.7607,8.5652,2.7435,7.3612-2.0294
		c-3.6703-14.5502-8.4284-28.9339-16.0347-41.9445c-8.2436-14.1008-19.5504-25.9448-32.2745-36.0807
		C706.9968,310.9337,701.5603,316.3011,705.4035,319.3625L705.4035,319.3625z"/>
	<path class="st1" d="M843.6328,396.4107c-11.7728-11.8517-21.2816-25.7213-32.1276-38.3844
		c-13.4188-15.6668-28.8539-29.4404-46.7949-39.7471c-13.1552-7.5573-27.323-13.2162-41.8536-17.5089
		c-4.7211-1.3947-6.7379,5.9702-2.0294,7.3613c23.2289,6.8624,45.1833,17.5561,63.6537,33.3765
		c13.7813,11.804,25.0906,25.8846,36.3267,40.0397c5.5403,6.9797,11.1397,13.9316,17.4269,20.2609
		C841.702,405.2992,847.1005,399.9016,843.6328,396.4107L843.6328,396.4107z"/>
</g>
<path class="st1" d="M1450.8156,919.2027c-28.2595,6.3389-57.0267,7.8857-85.6744,3.2998
	c-27.104-4.3388-53.3666-12.7488-79.8496-19.7511c-14.9198-3.9449-29.8096-7.5417-45.2327-8.8005
	c-14.629-1.194-29.3391-0.581-43.8889,1.2508c-28.8684,3.6344-56.8796,11.6615-85.2466,17.8549
	c-20.2266,4.4161-41.7449,9.534-62.5787,6.722c-13.3871-1.8069-26.0696-6.7319-38.0116-12.895
	c-24.9697-12.8867-47.7145-29.7994-74.9832-37.8513c-38.8959-11.485-79.4172-2.7281-115.9626,12.6198
	c-6.4049,2.6898-12.7224,5.5692-18.9724,8.6011c-4.3251,2.0981-0.5412,8.5433,3.771,6.4514
	c37.561-18.2208,80.5438-32.2554,122.4437-22.2648c27.8579,6.6425,50.9317,23.2335,75.7205,36.6649
	c11.8418,6.4163,24.3209,11.9772,37.558,14.752c17.4614,3.6603,34.4833,1.6193,51.8917-1.4132
	c29.111-5.071,57.4908-13.5245,86.5303-18.9313c29.8334-5.5547,60.0243-6.711,89.6843,0.5367
	c27.2982,6.6705,54.0994,15.425,81.625,21.1558c26.4996,5.5173,53.2905,7.0717,80.1588,3.4009
	c7.7301-1.0561,15.392-2.4908,23.0037-4.1982C1457.4915,925.3553,1455.5067,918.1504,1450.8156,919.2027L1450.8156,919.2027z"/>
<g>
	<path d="M1133.4695,937.0679c13.1394,0.8356,26.8519-1.5141,39.8438,0.8624c3.1293,0.5724,5.9109-2.4833,4.2189-5.4878
		c-5.6761-10.0788-14.5601-18.3671-26.3903-19.9651c-11.7341-1.585-22.6115,3.722-31.2827,11.2377
		c-3.6399,3.1548,1.6637,8.4202,5.2831,5.2831c6.8384-5.927,15.7056-10.4457,25.0034-9.1633
		c9.5532,1.3177,16.3961,8.3192,20.9351,16.3785c1.4062-1.8293,2.8125-3.6586,4.2188-5.4878
		c-13.7251-2.5107-27.9713-0.248-41.83-1.1293C1128.6681,929.2911,1128.6865,936.7638,1133.4695,937.0679L1133.4695,937.0679z"/>
	<path d="M1118.5269,928.5977c-6.5386-0.1566-12.9767-1.9376-19.4692-2.6477c-6.8719-0.7516-12.9128,0.4534-19.4716,2.4873
		c-4.7061,1.4594-8.7048,2.5074-13.4857,1.588c-3.1134-0.5988-6.2269-1.1975-9.3403-1.7963
		c-4.6981-0.9036-6.7104,6.296-1.9862,7.2046c7.9104,1.5213,14.7632,3.4418,22.7981,1.3759
		c7.1488-1.8381,13.2491-4.2166,20.7874-3.4589c6.7426,0.6778,13.3741,2.5558,20.1676,2.7186
		C1123.3367,936.1845,1123.3347,928.713,1118.5269,928.5977L1118.5269,928.5977z"/>
	<path d="M1174.0547,918.3871c-0.0332-4.5036-0.2853-11.4553-5.6021-13.0272c-4.8938-1.4469-9.6261,3.3332-12.7279,6.3987
		c-3.425,3.385,1.8584,8.6679,5.2832,5.2831c1.222-1.2079,2.4637-2.4553,3.8777-3.4417c0.2881-0.201,1.6019-1.0068,1.3446-0.8522
		c0.1006-0.0604,0.6129-0.113,0.6553-0.2c-0.1277,0.0139-0.2554,0.0277-0.3832,0.0415c0.363,0.0081,0.3839-0.0034,0.0626-0.0346
		c-0.3567-0.1146-0.8854-0.0327-0.9166-0.5855c0.0322,0.5692,0.3041,0.504,0.4447,1.0497c0.4526,1.7561,0.4769,3.5622,0.4902,5.3682
		C1166.6188,923.1929,1174.0903,923.2039,1174.0547,918.3871L1174.0547,918.3871z"/>
</g>
<g>
	<path d="M303.654,991.0679c-13.1394,0.8356-26.852-1.5141-39.8438,0.8624c-3.1292,0.5724-5.9109-2.4833-4.2188-5.4878
		c5.6761-10.0788,14.56-18.3671,26.3903-19.9651c11.7341-1.585,22.6115,3.722,31.2827,11.2377
		c3.6399,3.1548-1.6638,8.4202-5.2831,5.2831c-6.8384-5.927-15.7055-10.4457-25.0034-9.1633
		c-9.5533,1.3177-16.3962,8.3192-20.935,16.3785c-1.4063-1.8293-2.8126-3.6586-4.2188-5.4878
		c13.7252-2.5107,27.9713-0.248,41.83-1.1293C308.4553,983.2911,308.4369,990.7638,303.654,991.0679L303.654,991.0679z"/>
	<path d="M318.5965,982.5977c6.5387-0.1566,12.9767-1.9376,19.4693-2.6477c6.8719-0.7516,12.9128,0.4534,19.4715,2.4873
		c4.7061,1.4594,8.7048,2.5074,13.4857,1.588c3.1135-0.5988,6.2269-1.1975,9.3404-1.7963c4.6981-0.9036,6.7104,6.296,1.9862,7.2046
		c-7.9105,1.5213-14.7632,3.4418-22.7981,1.3759c-7.1489-1.8381-13.2491-4.2166-20.7874-3.4589
		c-6.7426,0.6778-13.3741,2.5558-20.1677,2.7186C313.7867,990.1845,313.7887,982.713,318.5965,982.5977L318.5965,982.5977z"/>
	<path d="M263.0687,972.3871c0.0333-4.5036,0.2853-11.4553,5.6021-13.0272c4.8938-1.4469,9.6262,3.3332,12.7279,6.3987
		c3.425,3.385-1.8583,8.6679-5.2831,5.2831c-1.2221-1.2079-2.4638-2.4553-3.8777-3.4417c-0.2882-0.201-1.602-1.0068-1.3447-0.8522
		c-0.1005-0.0604-0.6128-0.113-0.6552-0.2c0.1277,0.0139,0.2554,0.0277,0.3831,0.0415c-0.363,0.0081-0.3839-0.0034-0.0625-0.0346
		c0.3566-0.1146,0.8853-0.0327,0.9166-0.5855c-0.0322,0.5692-0.3041,0.504-0.4448,1.0497
		c-0.4526,1.7561-0.4768,3.5622-0.4902,5.3682C270.5046,977.1929,263.033,977.2039,263.0687,972.3871L263.0687,972.3871z"/>
</g>
</svg>
