<svg xmlns="http://www.w3.org/2000/svg" width="54" height="54" viewBox="0 0 54 54"><path d="M46.08,54H7.92A7.943,7.943,0,0,1,0,46.08V7.92A7.943,7.943,0,0,1,7.92,0H46.08A7.943,7.943,0,0,1,54,7.92V46.08A7.943,7.943,0,0,1,46.08,54Z" fill="rgba(255,255,255,0)"/><path d="M417.2,179.214a17.526,17.526,0,0,1-4.645,3.043,17.463,17.463,0,0,0-7.435-11.059,8.828,8.828,0,0,0-3.5-14.333,6.983,6.983,0,1,1,7.352,11.858,12.044,12.044,0,0,1,5.25,4.019,15.262,15.262,0,0,1,2.977,6.472C415.836,180.456,417.187,179.1,417.2,179.214Z" transform="translate(-372.708 -144.463)" fill="#fff" opacity="0.4"/><circle cx="7.331" cy="7.331" r="7.331" transform="translate(18.635 13.394)" fill="#fff"/><path d="M209.659,396.536A18.287,18.287,0,0,1,185,396.471a17.068,17.068,0,0,1,.728-2.389,15.04,15.04,0,0,1,6.307-7.873,8.839,8.839,0,0,0,10.519-.035,14.947,14.947,0,0,1,6.313,7.769A17.967,17.967,0,0,1,209.659,396.536Z" transform="translate(-171.682 -358.37)" fill="#fff"/></svg>