<?xml version="1.0" encoding="utf-8"?>
<!-- Generator: Adobe Illustrator 22.1.0, SVG Export Plug-In . SVG Version: 6.00 Build 0)  -->
<svg version="1.1" id="Ebene_1" xmlns="http://www.w3.org/2000/svg" xmlns:xlink="http://www.w3.org/1999/xlink" x="0px" y="0px"
	 viewBox="0 0 50 50" style="enable-background:new 0 0 50 50;" xml:space="preserve">
<style type="text/css">
	.st0{fill:#FFFFFF;}
</style>
<g>
	<path class="st0" d="M20.593,0.6359h-3.935v16.323h10.7849v-3.0268H20.593V0.6359z"/>
	<path class="st0" d="M33.2949,0.6359h-3.9238v16.323h3.9238V0.6359z"/>
	<path class="st0" d="M16.658,29.1962v4.2963h0.1716l6.7176-3.4736c0.4716,0.9979,1.0882,1.7312,1.849,2.1996
		c0.761,0.4685,1.7197,0.7027,2.8765,0.7027c1.5979,0,2.8346-0.5561,3.7097-1.6682c0.8751-1.1123,1.3126-2.6549,1.3126-4.6277
		v-6.5474H16.658v4.0107h5.8846v2.171L16.658,29.1962z M30.2099,24.0885v2.5367c0,0.7542-0.2044,1.3255-0.613,1.7139
		c-0.4085,0.3885-0.9718,0.5828-1.6895,0.5828c-0.7179,0-1.2773-0.1925-1.6783-0.5771c-0.4009-0.3847-0.6013-0.9581-0.6013-1.7197
		v-2.5367H30.2099z"/>
	<path class="st0" d="M25.3993,49.0922c1.5997-0.0077,3.0184-0.3182,4.2564-0.9313c1.2377-0.6132,2.1919-1.4723,2.8623-2.5767
		c0.6702-1.1045,1.0055-2.3615,1.0055-3.7707c0-1.4245-0.3391-2.6949-1.017-3.8107c-0.678-1.116-1.6397-1.9731-2.8852-2.571
		c-1.2455-0.5981-2.6834-0.897-4.3134-0.897h-0.937c-1.5694,0.0304-2.9594,0.3523-4.1707,0.9656
		c-1.2112,0.613-2.1425,1.4682-2.7938,2.5652c-0.6513,1.0969-0.9769,2.3539-0.9769,3.7707c0,1.4169,0.3371,2.6795,1.0113,3.7878
		c0.6741,1.1084,1.6358,1.9634,2.8852,2.5653c1.2492,0.6016,2.6852,0.9027,4.3078,0.9027H25.3993z M24.5651,45.0129
		c-1.615-0.0077-2.8529-0.2856-3.7136-0.834c-0.861-0.5486-1.2912-1.3294-1.2912-2.3425c0-1.0666,0.438-1.8702,1.3141-2.411
		c0.8759-0.541,2.1291-0.8113,3.7593-0.8113l1.2226,0.0114c3.0166,0.1143,4.5249,1.177,4.5249,3.188
		c0,1.0284-0.4285,1.8186-1.2855,2.371c-0.857,0.5523-2.1121,0.8284-3.7651,0.8284H24.5651z"/>
</g>
</svg>
