<?xml version="1.0" encoding="utf-8"?>
<!-- Generator: Adobe Illustrator 23.0.4, SVG Export Plug-In . SVG Version: 6.00 Build 0)  -->
<svg version="1.1" id="Ebene_1" xmlns="http://www.w3.org/2000/svg" xmlns:xlink="http://www.w3.org/1999/xlink" x="0px" y="0px"
	 width="1600px" height="880px" viewBox="0 0 1600 880" style="enable-background:new 0 0 1600 880;" xml:space="preserve">
<style type="text/css">
	.st0{opacity:0.05;fill:#0E1D2E;}
	.st1{fill:#FFFFFF;}
	.st2{fill:#2877FA;}
</style>
<ellipse class="st0" cx="799.5" cy="768" rx="645" ry="76"/>
<g>
	<g>
		<g>
			<path d="M628.5191,219.763c10.9271,19.2513,28.2612,32.3848,50.2064,36.1905c20.6016,3.5727,41.4331,0.4504,62.0073-1.6725
				c10.642-1.0981,21.3892-2.0158,32.0757-1.0164c6.4507,0.6033,6.4094-9.4727,0-10.0721
				c-23.9509-2.2399-47.8826,4.024-71.8161,4.3302c-11.7631,0.1505-23.8276-0.9446-34.7744-5.5602
				c-12.7859-5.3911-22.2397-15.3695-29.0018-27.2831C634.0166,209.0425,625.3116,214.1121,628.5191,219.763L628.5191,219.763z"/>
			<g>
				<path d="M713.6475,142.9368c-13.8876,4.0107-24.2991,16.7356-24.3564,31.4125c-0.0624,15.9772,12.6301,25.5425,27.6883,26.2601
					c6.4796,0.3088,6.4637-9.7641,0-10.0721c-10.0497-0.4789-18.0501-6.3774-17.5967-17.0411
					c0.4195-9.8685,7.6327-18.1583,16.9424-20.847C722.5407,150.8541,719.8972,141.1319,713.6475,142.9368L713.6475,142.9368z"/>
				<path d="M733.4553,196.9345c19.0704-9.3547,23.1008-45.9518,0.7867-53.9977c-6.1081-2.2025-8.7391,7.5267-2.6776,9.7124
					c6.4398,2.3221,7.8538,11.0298,7.6089,16.9452c-0.3165,7.6442-3.7238,15.1712-10.8017,18.6431
					C722.5527,191.0919,727.6516,199.7814,733.4553,196.9345L733.4553,196.9345z"/>
			</g>
			<path d="M767.6223,196.9121c2.9462-15.1675,4.0201-30.6208,6.9677-45.7876c1.2307-6.3326-8.475-9.0442-9.7123-2.6776
				c-2.9478,15.1672-4.0216,30.6205-6.9677,45.7876C756.6798,200.5671,766.3856,203.2788,767.6223,196.9121L767.6223,196.9121z"/>
			<path d="M792.994,179.0959c-3.1664-6.5132-7.8423-12.4502-10.4407-19.2032c-2.3037-5.9873-12.0458-3.3869-9.7123,2.6776
				c2.9435,7.6502,7.879,14.2513,11.456,21.6092C787.1304,190.0079,795.8192,184.9073,792.994,179.0959L792.994,179.0959z"/>
			<path d="M792.994,184.1795c6.0068-10.9227,11.4617-22.1794,17.9174-32.8491c3.3641-5.5602-5.3422-10.6284-8.697-5.0836
				c-6.4556,10.6695-11.9106,21.9265-17.9174,32.8491C781.1716,184.7791,789.8663,189.8668,792.994,184.1795L792.994,184.1795z"/>
			<path d="M819.3815,194.2345c-2.6921-13.5437-5.002-27.1438-6.9677-40.8115c-0.9191-6.3908-10.6257-3.6728-9.7123,2.6776
				c1.9657,13.6677,4.2756,27.2679,6.9677,40.8115C810.9317,203.2641,820.6418,200.5753,819.3815,194.2345L819.3815,194.2345z"/>
			<g>
				<path d="M878.8071,147.2198c-13.4848-13.9476-36.0912-10.3469-44.7377,6.9923c-2.8841,5.7836,5.801,10.8911,8.697,5.0836
					c5.7663-11.5635,19.7086-14.4798,28.9185-4.9539C876.1988,159.0106,883.3163,151.8838,878.8071,147.2198L878.8071,147.2198z"/>
				<path d="M830.5739,168.8536c-2.1851,8.2477-3.5115,17.8424,1.1077,25.5537c3.5965,6.004,10.1484,9.2706,16.8072,10.6377
					c16.9241,3.4747,36.5452-5.9878,35.2758-25.3975c-0.4209-6.4352-10.4961-6.4823-10.0722,0
					c0.8527,13.0373-12.4362,18.0591-23.5127,15.4706c-3.7616-0.879-7.676-2.3621-9.8011-5.7945
					c-3.2228-5.2055-1.5374-12.3383-0.0923-17.7925C841.9479,165.2593,832.235,162.5837,830.5739,168.8536L830.5739,168.8536z"/>
				<path d="M860.3125,183.189c5.6412,0,11.2825,0,16.9238,0c6.481,0,6.4917-10.0722,0-10.0722c-5.6412,0-11.2825,0-16.9238,0
					C853.8315,173.1168,853.8208,183.189,860.3125,183.189L860.3125,183.189z"/>
			</g>
			<path d="M791.1352,72.0865c-20.8504-0.0074-41.7432-0.2733-62.5474,1.3614c-16.1943,1.2724-31.73,3.5244-46.5475,10.434
				c-26.9517,12.5679-49.3575,36.2605-59.1522,64.4466c-6.147,17.6892-6.4616,36.7289-1.8454,54.8053
				c1.6027,6.2761,11.3196,3.6162,9.7123-2.6776c-7.5228-29.4584,1.1425-59.4429,21.3384-81.8544
				c9.0066-9.9946,19.7545-18.3114,31.7468-24.4208c13.2827-6.7667,27.3019-9.1537,42.0458-10.4388
				c21.6911-1.8906,43.4987-1.5913,65.2491-1.5836C797.6162,82.161,797.6268,72.0888,791.1352,72.0865L791.1352,72.0865z"/>
			<path d="M790.792,254.179c37.5181,9.9453,78.4058,14.7941,116.6503,5.9751c15.3654-3.5432,30.1892-12.2905,40.58-24.1827
				c11.8564-13.5697,15.3058-30.3888,12.9588-47.9977c-2.8882-21.669-11.5093-42.157-17.1747-63.1679
				c-1.6857-6.2516-11.4048-3.5988-9.7123,2.6776c4.6211,17.1378,11.0553,33.8021,14.9901,51.1175
				c3.6784,16.1874,4.495,33.2772-5.7944,47.2794c-19.4461,26.4632-55.4175,29.5201-85.5867,28.5366
				c-21.7384-0.7087-43.2344-4.3839-64.2333-9.9502C787.1979,242.8041,784.5223,252.517,790.792,254.179L790.792,254.179z"/>
			<path d="M940.322,109.8766c-13.4158-41.3608-66.3912-44.0016-102.5599-41.4665c-10.7336,0.7523-21.4263,2.1012-32.0404,3.8563
				c-6.3799,1.0549-3.6735,10.7625,2.6776,9.7124c22.8582-3.7797,46.6308-5.7808,69.7054-2.8592
				c21.3712,2.7059,45.2285,11.0016,52.5049,33.4346C932.6011,118.694,942.33,116.0672,940.322,109.8766L940.322,109.8766z"/>
		</g>
	</g>
	<path class="st1" d="M656.8657,763.9795c0,0-17.5695-4.583-18.3336-12.2217c-0.7637-7.6396,40.4868-18.333,59.5836-22.916
		c19.0986-4.584,132.1537-9.167,161.9457-6.8759c29.791,2.2919,127.9062,12.0918,126.8047,27.5009
		c-0.7627,10.6934-28.2627,16.8047-28.2627,16.8047s-38.1953-17.5703-137.501-17.5703
		C759.2231,748.7012,704.9902,754.0479,656.8657,763.9795z"/>
	<g>
		<path d="M672.9568,738.7455c51.3076-13.6342,104.3842-14.5546,157.1539-14.2896c5.5079,0.0276,5.5147-8.5307,0-8.5583
			c-53.5162-0.2687-107.3973,0.7686-159.4291,14.5952C665.3638,731.906,667.6196,740.1638,672.9568,738.7455L672.9568,738.7455z"/>
		<path d="M854.9296,727.2968c29.6691,0.3498,59.5042,3.119,88.6965,8.439c5.3847,0.9813,7.6942-7.2651,2.2751-8.2526
			c-29.9399-5.4562-60.5416-8.3859-90.9716-8.7447C849.4207,718.6735,849.4172,727.2318,854.9296,727.2968L854.9296,727.2968z"/>
	</g>
	<g>
		<path class="st2" d="M1146.3998,780.8276c2.3154-1.8593,5.0795-2.9841,8.0269-3.3257c2.2954-0.2661,4.2792-1.7762,4.2792-4.2792
			c0-2.1064-1.9683-4.5471-4.2792-4.2792c-5.4037,0.6265-9.8347,2.4246-14.0785,5.8324c-1.8033,1.4482-1.509,4.5427,0,6.0517
			C1142.1302,782.6097,1144.5919,782.2794,1146.3998,780.8276L1146.3998,780.8276z"/>
		<path d="M1072.973,813.311c5.0598-3.9196,9.9545-4.9942,15.9556-6.6378c5.3055-1.4531,3.0531-9.712-2.2751-8.2526
			c-3.0392,0.8323-6.1952,1.3221-9.153,2.4285c-3.9562,1.48-7.2628,3.8414-10.5791,6.4102c-1.8416,1.4265-1.4714,4.5477,0,6.0517
			C1068.7051,815.1343,1071.156,814.7186,1072.973,813.311L1072.973,813.311z"/>
		<path class="st2" d="M1077.7858,782.0085c4.2556-6.5787,8.6979-5.2143,15.3041-3.9026c5.75,1.1417,11.1814,0.9772,16.1372-2.5173
			c4.4664-3.1495,0.1952-10.5735-4.3196-7.3899c-5.7244,4.0366-11.7644,0.5853-18.0245,0.0679
			c-7.3744-0.6096-12.6334,3.465-16.4871,9.4224C1067.3955,782.327,1074.8013,786.6221,1077.7858,782.0085L1077.7858,782.0085z"/>
		<path class="st2" d="M1193.2167,788.3073c-2.9493-0.5881-5.8446-0.4414-8.8134-0.1401c-2.2992,0.2333-4.2792,1.7997-4.2792,4.2792
			c0,2.1329,1.9657,4.514,4.2792,4.2792c1.184-0.1202,2.3688-0.2374,3.5585-0.2823c0.5837-0.0221,1.1682-0.0311,1.7521-0.0088
			c0.3264,0.0112,0.6521,0.0322,0.9772,0.0631c-0.3497-0.0519-0.2662-0.0311,0.2505,0.0624
			c2.2643,0.4515,4.6206-0.6478,5.2639-2.9888C1196.7843,791.4645,1195.494,788.7614,1193.2167,788.3073L1193.2167,788.3073z"/>
		<path d="M995.9316,787.7968c5.441-0.6489,10.8694-1.3441,16.2431-2.4312c5.3942-1.0911,3.1111-9.3422-2.2751-8.2526
			c-4.626,0.9358-9.284,1.5668-13.968,2.1254c-2.313,0.2759-4.253,1.7697-4.2792,4.2792
			C991.6305,785.6196,993.6378,788.0703,995.9316,787.7968L995.9316,787.7968z"/>
		<path d="M567.5049,796.3685c2.65,0.9754,5.25,2.4828,7.982,3.4873c2.1694,0.7976,4.688-0.8931,5.2639-2.9888
			c0.6561-2.3876-0.8115-4.4634-2.9887-5.2639c-2.6505-0.9745-5.2505-2.4819-7.982-3.4873
			c-2.1691-0.7985-4.6882,0.8937-5.2639,2.9887C563.8599,793.493,565.328,795.5672,567.5049,796.3685L567.5049,796.3685z"/>
		<path d="M700.8257,818.186c2.5468,2.5463,5.0927,5.0936,7.6396,7.6396c3.9003,3.8987,9.9537-2.1512,6.0517-6.0516
			c-2.5471-2.5461-5.0929-5.0933-7.6397-7.6396C702.9775,808.2352,696.9241,814.2852,700.8257,818.186L700.8257,818.186z"/>
		<path d="M1045.8208,768.7963c1.3921,1.2567,2.8541,2.0629,4.6647,2.5859c2.1494,0.6209,4.755-0.7548,5.2638-2.9887
			c0.5205-2.2853-0.6866-4.599-2.9886-5.2639c-0.3555-0.1027-0.7043-0.217-1.048-0.3542c0.3407,0.1438,0.6814,0.2876,1.0222,0.4314
			c-0.4308-0.1833-0.8326-0.4019-1.2063-0.6843c0.2887,0.223,0.5774,0.4461,0.866,0.6691
			c-0.1802-0.1422-0.3518-0.2932-0.5221-0.4469c-0.8413-0.7595-1.8704-1.2534-3.0259-1.2534c-1.0496,0-2.3032,0.4662-3.0258,1.2534
			c-0.7487,0.8155-1.3044,1.8862-1.2534,3.0258C1044.6167,766.8716,1044.9768,768.0344,1045.8208,768.7963L1045.8208,768.7963z"/>
	</g>
	<path d="M978.1653,745.7584c5.2161,2.6298,6.1595,4.3207,1.3897,8.0297c-4.2868,3.3334-9.5825,5.6562-14.6262,7.5529
		c-16.1255,6.0642-33.5906,8.3661-50.6301,10.1132c-5.4255,0.5563-5.4828,9.1205,0,8.5583
		c20.7008-2.1224,42.2902-4.8302,61.2431-13.9693c5.5884-2.6947,12.4586-6.3879,15.137-12.3343
		c3.1532-7.0005-2.3258-12.382-8.194-15.3405C977.579,735.8953,973.241,743.2758,978.1653,745.7584L978.1653,745.7584z"/>
	<path d="M644.951,738.3685c-7.3582,3.7228-13.8651,10.8668-7.8727,18.8975c6.0035,8.0455,18.062,11.4979,27.307,13.7754
		c5.3474,1.3173,7.6288-6.9338,2.2751-8.2527c-6.6293-1.6331-13.4125-3.7064-19.1544-7.5114
		c-1.1754-0.7789-4.285-2.7283-4.2933-4.5023c-0.0115-2.4449,4.371-4.1633,6.0578-5.0167
		C654.1862,743.2715,649.8589,735.8855,644.951,738.3685L644.951,738.3685z"/>
	<path d="M891.3818,773.9786c-33.934,2.7615-68.0944,2.8918-102.1043,1.7149c-32.3687-1.1202-64.8749-3.2993-96.8987-8.2935
		c-5.3881-0.8403-7.7095,7.4052-2.2751,8.2526c51.7093,8.0641,104.7321,10.1398,156.9992,9.0541
		c14.7767-0.3069,29.5468-0.9709,44.2789-2.1698C896.8333,782.0933,896.8807,773.5311,891.3818,773.9786L891.3818,773.9786z"/>
	<path d="M968.1454,732.9616c-3.2659-0.8282-6.6661-0.8538-9.9307-1.6806c-5.3409-1.3528-7.6194,6.899-2.2751,8.2526
		c3.2661,0.8273,6.6663,0.8528,9.9307,1.6806C971.2109,742.5685,973.4892,734.3167,968.1454,732.9616L968.1454,732.9616z"/>
	<path d="M653.0473,762.4512c12.2212,5.3486,29.5567,9.5742,59.584,12.2246c51.9429,4.583,137.4995,6.1094,170.3472,3.8164
		c38.2236-2.665,66.3437-7.1699,78.9355-11.5771c15.2774-5.3487,9.3819-14.2998-6.3652-17.4483
		c-19.0977-3.8193-49.6543-10.6953-132.9175-12.2236c-50.4331-0.9248-110.7646,4.5829-135.9731,9.9307
		C671.2529,750.4424,640.8247,757.1045,653.0473,762.4512z"/>
	<g>
		<g>
			<path class="st1" d="M483.4619,685.3028c14.6572-3.2305,83.9702-8.4698,123.7505-7.6397
				c36.6674,0.7637,79.8632,4.0694,106.9448,8.4043c38.1953,6.1094,64.9302,12.9824,66.458,22.916
				c1.5293,9.9307-60.3477,27.502-100.833,29.0264c-40.4859,1.5293-112.2925,3.0586-157.3613-2.291
				c-45.0689-5.3457-83.2647-10.6934-88.6109-20.625C428.4619,705.1641,438.393,695.2344,483.4619,685.3028z"/>
		</g>
		<g>
			<path d="M460.515,695.7924c51.3076-13.6333,104.3838-14.5543,157.1534-14.2886c5.5079,0.0277,5.5146-8.5306,0-8.5583
				c-53.5162-0.2694-107.3968,0.7686-159.4286,14.5944C452.9219,688.9528,455.1777,697.2106,460.515,695.7924L460.515,695.7924z"/>
			<path d="M642.4877,684.3437c35.6975,0.4138,72.4833,3.634,107.1623,12.4155c8.2272,2.0833,22.0735,5.2275,26.7006,11.3967
				c0.685,0.9133,0.6241,1.2752-0.6929,2.7574c-2.4976,2.8107-6.4405,4.541-9.8382,5.9788
				c-18.2991,7.7438-39.2203,10.3772-58.7511,12.8445c-5.3909,0.681-5.459,9.248,0,8.5583
				c19.8642-2.5095,40.5754-5.2018,59.3674-12.4886c7.0403-2.7299,18.7986-7.5005,18.8167-16.7276
				c0.0186-9.5197-12.5956-13.9677-19.7643-16.5336c-17.2181-6.163-35.7511-9.0051-53.8013-11.4574
				c-22.9224-3.1143-46.062-5.0341-69.1992-5.3023C636.9788,675.7214,636.9752,684.2798,642.4877,684.3437L642.4877,684.3437z"/>
			<path d="M433.2691,699.1149c-25.9651,28.528,45.097,35.3292,58.8601,37.2073c40.2998,5.4995,81.0197,7.9343,121.6853,7.8403
				c22.7696-0.0526,45.5341-0.9336,68.2314-2.7554c5.4527-0.4376,5.4997-8.9998,0-8.5583
				c-36.2666,2.9109-72.7214,3.4561-109.0701,1.9617c-36.5115-1.501-73.2951-4.712-109.2149-11.6187
				c-7.7477-1.4897-16.1676-3.2111-22.9846-7.3889c-5.0209-3.077-5.3941-6.3091-1.4555-10.6365
				C443.0212,701.1008,436.986,695.0311,433.2691,699.1149L433.2691,699.1149z"/>
		</g>
	</g>
	<g>
		<path d="M732.2691,483.4281c11.8904,19.6068,29.7341,33.3782,52.5366,37.4114c21.4465,3.7933,43.2018,0.5305,64.6545-1.4455
			c11.8899-1.0952,23.8523-1.8499,35.7692-0.7255c6.4499,0.6086,6.4082-9.4675,0-10.0721
			c-25.9159-2.4452-51.645,3.6979-77.526,3.9304c-12.1628,0.1093-24.6054-1.0804-35.9103-5.8771
			c-13.3517-5.6652-23.4003-16.0588-30.827-28.3051C737.6094,472.8094,728.8958,477.8657,732.2691,483.4281L732.2691,483.4281z"/>
		<path d="M890.5175,320.3751c-21.9622,2.3392-43.8518-2.2692-65.8201-2.1408c-15.2062,0.0888-31.0397,2.2705-44.9026,8.8076
			c-27.3176,12.8818-36.5875,42.8284-44.3868,69.6952c-5.7471,19.7971-10.7298,40.7148-9.8762,61.4675
			c0.2656,6.4586,10.3392,6.4922,10.0721,0c-0.715-17.3824,2.9621-34.695,7.4484-51.3946
			c3.8674-14.3957,7.907-29.4776,14.5635-42.8719c5.4584-10.9835,13.0778-20.535,23.9485-26.5088
			c11.8239-6.4976,25.9932-8.6338,39.3158-9.0535c23.2536-0.7325,46.4039,4.5461,69.6374,2.0714
			C896.8963,329.7679,896.9659,319.6883,890.5175,320.3751L890.5175,320.3751z"/>
		<path d="M906.6406,522.4458c41.0555,5.1473,82.8989,12.6719,124.4214,10.1506c30.4177-1.847,65.326-11.212,80.6536-40.3156
			c7.7865-14.7849,10.9958-32.4723,9.2687-49.0649c-0.9259-8.895-3.1572-17.5104-7.1031-25.5578
			c-4.3013-8.772-10.8965-16.1132-17.7343-22.9835c-7.167-7.201-14.7039-14.2189-19.5338-23.2966
			c-4.5013-8.4601-7.3881-17.7374-11.0217-26.5807c-6.9421-16.8955-16.6843-32.8695-33.1136-41.9782
			c-15.8167-8.769-34.3234-9.5066-51.7795-6.3305c-20.6093,3.7498-39.4253,13.6588-59.7626,18.5883
			c-6.2966,1.5262-3.6302,11.2413,2.6776,9.7124c30.4619-7.3836,61.0805-27.0793,93.446-17.5682
			c16.2694,4.781,27.8915,17.2679,35.2019,32.1779c8.0403,16.3988,11.8999,34.4557,23.7747,48.7757
			c11.7999,14.2297,26.9786,24.7267,32.4773,43.2517c4.6298,15.5976,3.451,32.7665-2.0588,47.9847
			c-10.5538,29.1498-41.2024,40.1377-69.746,42.6915c-43.2658,3.8711-87.2718-4.3634-130.0677-9.729
			C900.2255,511.5693,900.2839,521.6488,906.6406,522.4458L906.6406,522.4458z"/>
		<path d="M813.3127,399.7339c5.092,18.9396,11.3401,37.4721,17.8457,55.9643c2.1368,6.074,11.8714,3.4595,9.7124-2.6776
			c-6.5056-18.4922-12.7537-37.0247-17.8457-55.9643C821.3439,390.8033,811.625,393.4565,813.3127,399.7339L813.3127,399.7339z"/>
		<path d="M840.3631,456.9012c6.1829-10.2544,12.3125-20.5408,18.4893-30.7988c3.3521-5.567-5.3536-10.6362-8.697-5.0836
			c-6.1768,10.258-12.3064,20.5444-18.4893,30.7988C828.3106,457.3827,837.0164,462.4516,840.3631,456.9012L840.3631,456.9012z"/>
		<path d="M848.6779,411.3354c2.2665,15.2148,6.9542,32.576,15.4335,45.5658c3.5296,5.4072,12.254,0.3656,8.697-5.0836
			c-8.0291-12.3-12.2727-28.758-14.4182-43.1598C857.4385,402.2691,847.7318,404.9843,848.6779,411.3354L848.6779,411.3354z"/>
		<path d="M875.4012,456.9012c8.3482-18.4812,12.0979-38.2564,19.1317-57.1673c2.2626-6.0833-7.4689-8.7093-9.7124-2.6776
			c-6.7218,18.0722-10.1431,37.1104-18.1163,54.7613C864.0567,457.6785,872.7341,462.8055,875.4012,456.9012L875.4012,456.9012z"/>
		<path d="M913.8798,403.4312c15.0863,0,30.1725,0,45.2589,0c6.4809,0,6.4916-10.0721,0-10.0721c-15.0863,0-30.1725,0-45.2589,0
			C907.3989,393.359,907.3881,403.4312,913.8798,403.4312L913.8798,403.4312z"/>
		<path d="M931.2275,398.3951c0.4479,18.6548,0.0198,37.3082,0,55.9643c-0.0069,6.4812,10.0652,6.4914,10.0721,0
			c0.0198-18.6561,0.4479-37.3094,0-55.9643C941.1443,391.9246,931.0716,391.9004,931.2275,398.3951L931.2275,398.3951z"/>
		<path d="M979.8945,398.3951c0.0389,18.66,1.2248,37.3043,1.2637,55.9643c0.0135,6.4803,10.0857,6.4922,10.0721,0
			c-0.0389-18.66-1.2248-37.3043-1.2637-55.9643C989.9532,391.9148,979.881,391.9029,979.8945,398.3951L979.8945,398.3951z"/>
		<path d="M984.9306,403.4312c11.1851,0.6192,22.9302-2.3704,33.9649-0.1799c6.3306,1.2567,9.0399-8.4493,2.6776-9.7124
			c-12.0882-2.3997-24.4395,0.4957-36.6425-0.1799C978.454,393.0005,978.4742,403.0737,984.9306,403.4312L984.9306,403.4312z"/>
		<path d="M987.372,433.5293c7.402,0,14.8041,0,22.2061,0c6.481,0,6.4917-10.0721,0-10.0721c-7.402,0-14.804,0-22.2061,0
			C980.8911,423.4571,980.8803,433.5293,987.372,433.5293L987.372,433.5293z"/>
	</g>
	<path d="M885.7336,553.623c1.8759,10.0576,2.1316,21.0352-3.1253,30.1675c-4.145,7.2008-10.9586,12.1528-18.0208,16.2444
		c-15.6174,9.0483-34.1769,14.8514-45.9523,29.3048c-7.6793,9.4258-10.8986,20.8953-10.9979,32.9445
		c-0.0534,6.4828,10.0187,6.489,10.0721,0c0.0812-9.8463,2.5222-19.4487,9.0648-27.0339
		c5.865-6.7995,13.6961-11.4022,21.5643-15.515c15.7687-8.2424,34.6466-15.2381,43.5243-31.8712
		c6.1015-11.4315,5.9009-24.4921,3.5833-36.9187C894.259,544.5817,884.55,547.2769,885.7336,553.623L885.7336,553.623z"/>
</g>
</svg>
