<svg xmlns="http://www.w3.org/2000/svg" width="64" height="64" viewBox="0 0 64 64"><path d="M54.613,64H9.387A9.414,9.414,0,0,1,0,54.613V9.387A9.414,9.414,0,0,1,9.387,0H54.613A9.414,9.414,0,0,1,64,9.387V54.613A9.414,9.414,0,0,1,54.613,64Z" fill="rgba(255,255,255,0)"/><g transform="translate(11.524 13.38)"><path d="M328.93,334.141a4.088,4.088,0,0,0,5.662-1.035c2-2.892,3.645-12.434,3.645-12.434s-8.343,4.916-10.341,7.807A4.088,4.088,0,0,0,328.93,334.141Z" transform="translate(-310.785 -306.688)" fill="#fff"/><path d="M471.374,221.474a3.582,3.582,0,0,1,.726,2.092,3.157,3.157,0,0,1-3.145,3.23,3.371,3.371,0,0,1-1.779-.5,14.051,14.051,0,0,1-.67,20.744c-.2.181-.409.355-.628.518a3.169,3.169,0,0,0-.873,2.2,3.236,3.236,0,0,0,4.69,2.9c.383-.283.746-.584,1.1-.9a20.388,20.388,0,0,0,7-15.419A20.737,20.737,0,0,0,471.374,221.474Z" transform="translate(-436.849 -215.954)" fill="rgba(255,255,255,.4)"/><path d="M169.739,162.487a10.958,10.958,0,0,0-.838-.765,20.488,20.488,0,0,0-33.2,20.7,20.422,20.422,0,0,0,7.426,11.123,3.428,3.428,0,0,0,4.179-.536c1.209-1.446,1.366-3.23-.309-4.52a14.277,14.277,0,0,1-2.177-20.444c5.148-5.992,14.99-6.682,20.6-.868,2.973,1.912,6.5-1.9,4.315-4.689C169.466,162.214,170.167,163.033,169.739,162.487Z" transform="translate(-135.052 -156.794)" fill="#fff"/></g></svg>
