<?xml version="1.0" encoding="utf-8"?>
<!-- Generator: Adobe Illustrator 22.1.0, SVG Export Plug-In . SVG Version: 6.00 Build 0)  -->
<svg version="1.1" id="Ebene_1" xmlns="http://www.w3.org/2000/svg" xmlns:xlink="http://www.w3.org/1999/xlink" x="0px" y="0px"
	 viewBox="0 0 50 50" style="enable-background:new 0 0 50 50;" xml:space="preserve">
<style type="text/css">
	.st0{opacity:0.15;}
	.st1{fill:#FFFFFF;}
</style>
<g class="st0">
	<path d="M21.6,1.4h-3.9v16.3h10.8v-3h-6.8V1.4z"/>
	<path d="M34.3,1.4h-3.9v16.3h3.9V1.4z"/>
	<path d="M17.7,29.9v4.3h0.2l6.7-3.5c0.5,1,1.1,1.7,1.8,2.2c0.8,0.5,1.7,0.7,2.9,0.7c1.6,0,2.8-0.6,3.7-1.7c0.9-1.1,1.3-2.7,1.3-4.6
		v-6.5H17.7v4h5.9V27L17.7,29.9z M31.2,24.8v2.5c0,0.8-0.2,1.3-0.6,1.7c-0.4,0.4-1,0.6-1.7,0.6c-0.7,0-1.3-0.2-1.7-0.6
		c-0.4-0.4-0.6-1-0.6-1.7v-2.5L31.2,24.8L31.2,24.8z"/>
	<path d="M26.4,49.8c1.6,0,3-0.3,4.3-0.9c1.2-0.6,2.2-1.5,2.9-2.6c0.7-1.1,1-2.4,1-3.8c0-1.4-0.3-2.7-1-3.8c-0.7-1.1-1.6-2-2.9-2.6
		c-1.2-0.6-2.7-0.9-4.3-0.9h-0.9c-1.6,0-3,0.4-4.2,1c-1.2,0.6-2.1,1.5-2.8,2.6c-0.7,1.1-1,2.4-1,3.8c0,1.4,0.3,2.7,1,3.8
		c0.7,1.1,1.6,2,2.9,2.6c1.2,0.6,2.7,0.9,4.3,0.9L26.4,49.8L26.4,49.8z M25.6,45.8c-1.6,0-2.9-0.3-3.7-0.8c-0.9-0.5-1.3-1.3-1.3-2.3
		c0-1.1,0.4-1.9,1.3-2.4c0.9-0.5,2.1-0.8,3.8-0.8l1.2,0c3,0.1,4.5,1.2,4.5,3.2c0,1-0.4,1.8-1.3,2.4c-0.9,0.6-2.1,0.8-3.8,0.8H25.6z"
		/>
</g>
<g>
	<path class="st1" d="M20.6,0.2h-3.9v16.3h10.8v-3h-6.8V0.2z"/>
	<path class="st1" d="M33.3,0.2h-3.9v16.3h3.9V0.2z"/>
	<path class="st1" d="M16.7,28.7V33h0.2l6.7-3.5c0.5,1,1.1,1.7,1.8,2.2c0.8,0.5,1.7,0.7,2.9,0.7c1.6,0,2.8-0.6,3.7-1.7
		c0.9-1.1,1.3-2.7,1.3-4.6v-6.5H16.7v4h5.9v2.2L16.7,28.7z M30.2,23.6v2.5c0,0.8-0.2,1.3-0.6,1.7c-0.4,0.4-1,0.6-1.7,0.6
		c-0.7,0-1.3-0.2-1.7-0.6c-0.4-0.4-0.6-1-0.6-1.7v-2.5L30.2,23.6L30.2,23.6z"/>
	<path class="st1" d="M25.4,48.6c1.6,0,3-0.3,4.3-0.9c1.2-0.6,2.2-1.5,2.9-2.6c0.7-1.1,1-2.4,1-3.8c0-1.4-0.3-2.7-1-3.8
		c-0.7-1.1-1.6-2-2.9-2.6c-1.2-0.6-2.7-0.9-4.3-0.9h-0.9c-1.6,0-3,0.4-4.2,1c-1.2,0.6-2.1,1.5-2.8,2.6c-0.7,1.1-1,2.4-1,3.8
		c0,1.4,0.3,2.7,1,3.8c0.7,1.1,1.6,2,2.9,2.6c1.2,0.6,2.7,0.9,4.3,0.9L25.4,48.6L25.4,48.6z M24.6,44.5c-1.6,0-2.9-0.3-3.7-0.8
		c-0.9-0.5-1.3-1.3-1.3-2.3c0-1.1,0.4-1.9,1.3-2.4c0.9-0.5,2.1-0.8,3.8-0.8l1.2,0c3,0.1,4.5,1.2,4.5,3.2c0,1-0.4,1.8-1.3,2.4
		c-0.9,0.6-2.1,0.8-3.8,0.8H24.6z"/>
</g>
</svg>
